<?xml version="1.0" encoding="utf-8"?>
<!-- Generator: Adobe Illustrator 27.5.0, SVG Export Plug-In . SVG Version: 6.00 Build 0)  -->
<svg version="1.1" id="Capa_2" xmlns="http://www.w3.org/2000/svg" xmlns:xlink="http://www.w3.org/1999/xlink" x="0px" y="0px"
	 viewBox="0 0 2122 2122" style="enable-background:new 0 0 2122 2122;" xml:space="preserve">
<g>
	<path style="fill:#66519D;" d="M1060.66,351.793c-391.496,0-708.866,317.371-708.866,708.867
		c0,179.06,66.443,342.562,175.958,467.33l-0.04,0.018c0.343,0.391,0.708,0.762,1.052,1.152
		c5.188,5.885,10.485,11.671,15.865,17.379c1.31,1.39,2.631,2.767,3.952,4.146c5.632,5.881,11.326,11.703,17.154,17.389
		c0.482,0.47,0.961,0.941,1.444,1.41c2.982,2.893,5.99,5.76,9.023,8.601c0.519,0.486,1.041,0.969,1.563,1.454
		c13.388,12.466,27.254,24.426,41.576,35.836c0.109,0.087,0.216,0.176,0.325,0.262c3.263,2.597,6.557,5.155,9.867,7.694
		c0.694,0.533,1.388,1.068,2.084,1.598c3.191,2.43,6.402,4.834,9.634,7.211c0.721,0.53,1.446,1.055,2.17,1.583
		c3.358,2.449,6.73,4.881,10.132,7.272c0.028,0.019,0.057,0.039,0.085,0.059c0.56,0.394,1.133,0.773,1.694,1.166
		c0.003,0.005,0.006,0.01,0.009,0.015c0.169,0.118,0.343,0.226,0.512,0.344c1.553,1.083,3.143,2.116,4.704,3.187
		c3.631,2.489,7.257,4.985,10.935,7.409c5.425,3.573,10.9,7.077,16.428,10.502c0.501,0.31,0.996,0.627,1.498,0.935
		c3.284,2.023,6.591,4.009,9.91,5.98c0.142,0.084,0.284,0.169,0.426,0.253c0.913,0.541,1.825,1.082,2.741,1.619
		c3.328,1.953,6.672,3.881,10.036,5.781c0.946,0.535,1.898,1.061,2.846,1.591c3.501,1.956,7.011,3.899,10.548,5.797
		c0.183,0.099,0.369,0.193,0.552,0.292c6.226,3.335,12.515,6.567,18.852,9.72c0.402,0.2,0.803,0.4,1.205,0.599
		c5.222,2.586,10.479,5.109,15.774,7.569c0.898,0.418,1.792,0.843,2.692,1.257c1.152,0.529,2.318,1.035,3.473,1.558
		c0.402,0.182,0.806,0.361,1.208,0.542c1.893,0.85,3.779,1.712,5.68,2.548c1.239,0.545,2.478,1.089,3.72,1.627
		c3.417,1.481,6.845,2.939,10.29,4.367c1.177,0.488,2.361,0.965,3.542,1.447c0.117,0.047,0.233,0.095,0.349,0.142
		c0.637,0.259,1.27,0.522,1.907,0.779c2.863,1.157,5.728,2.31,8.61,3.431c0.252,0.098,0.506,0.191,0.758,0.288
		c4.615,1.789,9.255,3.527,13.916,5.222c0.85,0.309,1.708,0.6,2.56,0.906c0.157,0.056,0.318,0.106,0.476,0.163
		c6.805,2.439,13.652,4.789,20.552,7.024c0.532,0.173,1.06,0.356,1.594,0.528c0.575,0.185,1.15,0.371,1.725,0.554
		c0.092,0.029,0.186,0.057,0.279,0.086c3.521,1.12,7.058,2.202,10.602,3.268c1.436,0.432,2.873,0.86,4.313,1.283
		c3.017,0.886,6.035,1.77,9.068,2.616c0.616,0.172,1.235,0.335,1.851,0.506c1.231,0.34,2.469,0.663,3.703,0.997
		c3.747,1.013,7.495,2.018,11.265,2.97c0.146,0.037,0.292,0.07,0.438,0.107c2.544,0.641,5.097,1.254,7.652,1.867
		c0.973,0.234,1.94,0.482,2.916,0.712c0.336,0.079,0.679,0.142,1.015,0.22c5.477,1.282,10.972,2.519,16.497,3.674
		c1.457,0.304,2.93,0.564,4.389,0.859c0.742,0.15,1.471,0.332,2.213,0.48c1.31,0.261,2.627,0.501,3.939,0.755
		c0.552,0.107,1.112,0.19,1.664,0.294c6.341,1.209,12.71,2.341,19.11,3.381c0.515,0.083,1.022,0.19,1.537,0.272
		c0.97,0.156,1.934,0.33,2.906,0.482c0.318,0.049,0.642,0.083,0.961,0.132c2.061,0.319,4.147,0.556,6.214,0.853
		c5.685,0.82,11.365,1.655,17.092,2.345c1.702,0.205,3.408,0.392,5.115,0.585c2.01,0.228,4.013,0.478,6.029,0.689
		c0.219,0.023,0.436,0.052,0.655,0.075c5.403,0.56,10.83,1.043,16.269,1.481c0.706,0.057,1.406,0.133,2.113,0.188
		c5.277,0.409,10.578,0.738,15.888,1.031c0.848,0.047,1.689,0.117,2.537,0.161c2.066,0.106,4.145,0.162,6.215,0.251
		c1.917,0.082,3.836,0.152,5.757,0.219c1.212,0.042,2.419,0.102,3.632,0.138c0.969,0.029,1.932,0.085,2.903,0.111
		c6.169,0.159,12.357,0.242,18.564,0.242c6.472,0,12.92-0.099,19.35-0.271c1.432-0.038,2.857-0.109,4.287-0.156
		c0.985-0.034,1.966-0.082,2.95-0.12c3.998-0.148,7.996-0.294,11.977-0.508c2.44-0.131,4.868-0.307,7.301-0.462
		c0.677-0.043,1.35-0.097,2.027-0.142c0.396-0.026,0.796-0.035,1.192-0.062c0.441-0.03,0.876-0.082,1.315-0.114
		c2.43-0.171,4.867-0.316,7.29-0.511c2.553-0.206,5.096-0.447,7.642-0.679c3.804-0.348,7.602-0.712,11.388-1.119
		c2.568-0.276,5.128-0.575,7.687-0.879c3.766-0.447,7.523-0.921,11.27-1.427c2.521-0.34,5.04-0.69,7.552-1.056
		c3.805-0.556,7.596-1.149,11.38-1.764c2.41-0.392,4.819-0.78,7.221-1.196c3.967-0.687,7.917-1.425,11.861-2.178
		c2.174-0.415,4.354-0.814,6.521-1.249c2.923-0.587,5.833-1.211,8.743-1.834c0.08-0.017,0.16-0.035,0.24-0.052
		c1.379-0.295,2.755-0.596,4.13-0.899c1.697-0.374,3.404-0.723,5.096-1.11c3.038-0.694,6.049-1.46,9.073-2.191
		c0.212-0.051,0.424-0.102,0.635-0.154c2.613-0.634,5.241-1.229,7.842-1.894c0.154-0.039,0.308-0.074,0.461-0.113
		c2.82-0.723,5.607-1.523,8.412-2.279c0.281-0.076,0.562-0.153,0.843-0.229c3.103-0.841,6.222-1.64,9.309-2.522
		c0.288-0.082,0.574-0.174,0.862-0.256c2.129-0.611,4.234-1.28,6.355-1.911c0.213-0.063,0.424-0.128,0.636-0.191
		c3.312-0.988,6.635-1.95,9.926-2.985c1.313-0.413,2.613-0.853,3.922-1.274c1.287-0.413,2.57-0.831,3.853-1.25
		c0.153-0.05,0.308-0.099,0.462-0.15c3.144-1.03,6.284-2.065,9.407-3.139c1.588-0.545,3.165-1.115,4.747-1.672
		c2.34-0.823,4.664-1.68,6.992-2.527c0.988-0.359,1.981-0.709,2.967-1.072c0.935-0.345,1.88-0.668,2.813-1.017
		c1.649-0.617,3.291-1.248,4.935-1.876c4.176-1.596,8.337-3.224,12.474-4.897c1.599-0.646,3.196-1.299,4.789-1.957
		c4.236-1.748,8.449-3.537,12.644-5.364c1.42-0.619,2.84-1.234,4.255-1.862c1.21-0.536,2.402-1.104,3.608-1.647
		c0.202-0.092,0.402-0.185,0.604-0.275c3.034-1.37,6.07-2.735,9.08-4.146c1.118-0.524,2.241-1.037,3.356-1.567
		c1.856-0.882,3.684-1.81,5.53-2.707c0.83-0.403,1.657-0.81,2.484-1.216c0.611-0.299,1.223-0.596,1.833-0.898
		c1.647-0.814,3.31-1.597,4.949-2.423c0.522-0.263,1.049-0.516,1.571-0.78c3.658-1.855,7.272-3.785,10.894-5.702
		c0.964-0.51,1.938-1.003,2.9-1.518c0.238-0.127,0.469-0.265,0.707-0.393c5.949-3.205,11.857-6.475,17.707-9.836
		c0.654-0.375,1.327-0.722,1.979-1.099c0.039-0.022,0.077-0.046,0.116-0.069c0.709-0.41,1.398-0.853,2.106-1.266
		c5.63-3.289,11.221-6.637,16.754-10.071c0.502-0.311,1.018-0.601,1.518-0.913c0.177-0.111,0.354-0.221,0.531-0.332
		c3.347-2.092,6.683-4.198,9.991-6.344c0.115-0.075,0.229-0.152,0.344-0.227c2.268-1.473,4.493-3.006,6.743-4.506
		c1.625-1.082,3.255-2.158,4.871-3.254c1.123-0.762,2.267-1.495,3.385-2.262c0.416-0.285,0.828-0.576,1.244-0.862
		c3.898-2.688,7.75-5.435,11.591-8.197c0.543-0.391,1.105-0.758,1.648-1.151c0.118-0.085,0.231-0.177,0.349-0.262
		c0.119-0.086,0.241-0.168,0.36-0.254c0.482-0.35,0.962-0.702,1.443-1.053c4.586-3.346,9.131-6.743,13.633-10.195
		c0.409-0.314,0.818-0.627,1.227-0.941c4.683-3.607,9.319-7.268,13.909-10.987c0.166-0.134,0.332-0.266,0.497-0.401
		c8.707-7.07,17.241-14.342,25.599-21.81c0.209-0.188,0.422-0.373,0.632-0.561c0.339-0.304,0.663-0.624,1.002-0.928
		c5.282-4.75,10.497-9.572,15.634-14.476c0.039-0.037,0.077-0.076,0.116-0.113c1.104-1.055,2.188-2.13,3.275-3.203
		c0.632-0.623,1.269-1.242,1.905-1.862c3.453-3.366,6.885-6.752,10.269-10.187c0.67-0.68,1.365-1.334,2.032-2.016
		c0.596-0.61,1.193-1.218,1.787-1.83c0.952-0.981,1.865-2.001,2.811-2.988c2.931-3.056,5.828-6.144,8.705-9.252
		c0.321-0.346,0.639-0.696,0.96-1.043c1.636-1.765,3.27-3.529,4.888-5.311c0.227-0.251,0.461-0.496,0.688-0.748
		c3.58-3.975,7.097-8.006,10.588-12.061c0.836-0.97,1.705-1.912,2.535-2.888c0.74-0.868,1.473-1.74,2.209-2.612
		c4.088-4.847,8.087-9.771,12.051-14.724c0.774-0.966,1.584-1.901,2.352-2.873c1.19-1.507,2.321-3.061,3.499-4.578
		c2.133-2.748,4.247-5.511,6.339-8.292c1.666-2.216,3.342-4.424,4.983-6.66c3.74-5.095,7.442-10.22,11.053-15.415l0.011-0.016
		c79.692-114.642,126.448-253.902,126.448-404.102C1769.527,669.164,1452.157,351.793,1060.66,351.793z"/>
	<path style="fill:#F9C7C3;" d="M1621.25,1410.365c1.619-2.661,3.186-5.345,4.72-8.044l0.013-0.023l-0.001,0.001
		c57.606-101.598,54.131-229.857-20.091-329.972c-46.223-62.342-112.074-103.225-183.783-120.505
		c-2.541-0.731-5.153-1.347-7.843-1.817l-0.67-0.121c-4.376-0.937-8.771-1.783-13.182-2.546
		c-36.978-7.804-65.993-19.685-88.733-32.923c-4.062-3.627-8.644-6.453-13.613-8.56c-10.234-6.961-18.922-14.117-26.278-21.134
		l3.529-6.852c73.462-153.188-43.397-276.445-174.51-310.806c-84.634-22.18-183.467,10.359-248.249,69.135
		c-38.668,9.262-76.248,25.477-110.674,49.149c-145.904,100.326-180.168,294.979-76.535,434.763
		c3.276,4.415,6.651,8.726,10.121,12.93c58.224,72.059,20.86,138.858,4.704,161.474c-45.784,56.641-69.259,126.156-68.34,196.078
		l-84.081,37.398l-0.039,0.018c0.343,0.391,0.708,0.762,1.052,1.152c5.188,5.885,10.486,11.671,15.865,17.379
		c1.31,1.39,2.631,2.767,3.953,4.146c5.632,5.881,11.326,11.703,17.154,17.389c0.482,0.47,0.961,0.941,1.444,1.41
		c2.982,2.893,5.99,5.76,9.023,8.601c0.52,0.486,1.042,0.969,1.563,1.454c13.388,12.466,27.253,24.426,41.576,35.836
		c0.108,0.087,0.216,0.176,0.324,0.262c3.263,2.597,6.557,5.155,9.867,7.694c0.695,0.533,1.388,1.068,2.084,1.598
		c3.191,2.43,6.402,4.834,9.635,7.211c0.721,0.53,1.446,1.055,2.17,1.583c3.358,2.449,6.73,4.881,10.132,7.272
		c0.028,0.019,0.057,0.039,0.085,0.059c0.56,0.394,1.133,0.773,1.694,1.166c0.003,0.005,0.006,0.01,0.008,0.015
		c0.169,0.118,0.343,0.226,0.513,0.344c1.553,1.083,3.142,2.116,4.704,3.187c3.631,2.489,7.257,4.985,10.935,7.409
		c5.425,3.573,10.899,7.077,16.428,10.502c0.5,0.31,0.996,0.627,1.498,0.935c3.284,2.023,6.591,4.009,9.91,5.98
		c0.142,0.084,0.284,0.169,0.426,0.253c0.913,0.541,1.825,1.082,2.741,1.619c3.329,1.953,6.672,3.881,10.036,5.781
		c0.946,0.535,1.898,1.061,2.847,1.591c3.5,1.956,7.01,3.899,10.547,5.797c0.184,0.099,0.369,0.193,0.552,0.292
		c6.227,3.335,12.516,6.567,18.852,9.72c0.402,0.2,0.803,0.4,1.205,0.599c5.222,2.586,10.479,5.109,15.774,7.569
		c0.898,0.418,1.792,0.843,2.692,1.257c1.152,0.529,2.318,1.035,3.472,1.558c0.402,0.182,0.806,0.361,1.208,0.542
		c1.893,0.85,3.78,1.712,5.68,2.548c1.239,0.545,2.478,1.089,3.721,1.627c3.417,1.481,6.845,2.939,10.29,4.367
		c1.177,0.488,2.361,0.965,3.541,1.447c0.117,0.047,0.232,0.095,0.349,0.142c0.637,0.259,1.27,0.522,1.908,0.779
		c2.863,1.157,5.728,2.31,8.61,3.431c0.252,0.098,0.506,0.191,0.757,0.288c4.615,1.789,9.255,3.527,13.916,5.222
		c0.85,0.309,1.708,0.6,2.56,0.906c0.157,0.056,0.319,0.106,0.476,0.163c6.805,2.439,13.651,4.789,20.552,7.024
		c0.532,0.173,1.06,0.356,1.593,0.528c0.575,0.185,1.15,0.371,1.725,0.554c0.093,0.029,0.187,0.057,0.279,0.086
		c3.521,1.12,7.058,2.202,10.602,3.268c1.436,0.432,2.874,0.86,4.313,1.283c3.017,0.886,6.035,1.77,9.069,2.616
		c0.616,0.172,1.234,0.335,1.85,0.506c1.232,0.34,2.469,0.663,3.703,0.997c3.747,1.013,7.496,2.018,11.266,2.97
		c0.145,0.037,0.292,0.07,0.438,0.107c2.544,0.641,5.098,1.254,7.653,1.867c0.973,0.234,1.94,0.482,2.915,0.712
		c0.336,0.079,0.679,0.142,1.015,0.22c5.477,1.282,10.972,2.519,16.498,3.674c1.457,0.304,2.93,0.564,4.389,0.859
		c0.742,0.15,1.471,0.332,2.213,0.48c1.31,0.261,2.627,0.501,3.939,0.755c0.552,0.107,1.112,0.19,1.664,0.294
		c6.341,1.209,12.71,2.341,19.109,3.381c0.515,0.083,1.022,0.19,1.537,0.272c0.971,0.156,1.934,0.33,2.906,0.482
		c0.319,0.049,0.642,0.083,0.961,0.132c2.061,0.319,4.147,0.556,6.214,0.853c5.685,0.82,11.365,1.655,17.092,2.345
		c1.702,0.205,3.408,0.392,5.115,0.585c2.01,0.228,4.014,0.478,6.029,0.689c0.219,0.023,0.436,0.052,0.656,0.075
		c5.403,0.56,10.829,1.043,16.268,1.481c0.706,0.057,1.406,0.133,2.113,0.188c5.278,0.409,10.578,0.738,15.888,1.031
		c0.848,0.047,1.689,0.117,2.537,0.161c2.066,0.107,4.145,0.163,6.216,0.252c1.917,0.082,3.836,0.152,5.757,0.219
		c1.212,0.042,2.42,0.102,3.633,0.138c0.97,0.029,1.932,0.085,2.903,0.111c6.169,0.159,12.357,0.242,18.564,0.242
		c6.471,0,12.92-0.099,19.349-0.271c1.432-0.038,2.857-0.109,4.288-0.156c0.985-0.034,1.966-0.082,2.95-0.12
		c3.997-0.148,7.996-0.294,11.977-0.508c2.44-0.131,4.868-0.307,7.301-0.462c0.677-0.043,1.351-0.097,2.027-0.142
		c0.396-0.026,0.796-0.035,1.192-0.062c0.44-0.03,0.875-0.082,1.315-0.114c2.43-0.171,4.867-0.316,7.29-0.511
		c2.553-0.206,5.096-0.447,7.642-0.679c3.804-0.348,7.602-0.712,11.389-1.119c2.567-0.276,5.128-0.575,7.687-0.879
		c3.766-0.447,7.523-0.921,11.271-1.427c2.521-0.34,5.039-0.69,7.552-1.056c3.804-0.556,7.596-1.149,11.38-1.764
		c2.409-0.392,4.819-0.78,7.22-1.196c3.967-0.687,7.918-1.425,11.861-2.178c2.174-0.415,4.354-0.814,6.521-1.249
		c2.923-0.587,5.833-1.211,8.743-1.834c0.08-0.017,0.159-0.035,0.24-0.052c1.378-0.295,2.755-0.596,4.13-0.899
		c1.697-0.374,3.404-0.723,5.096-1.11c3.038-0.694,6.049-1.46,9.073-2.191c0.212-0.051,0.424-0.102,0.635-0.154
		c2.613-0.634,5.242-1.229,7.842-1.894c0.154-0.039,0.308-0.074,0.462-0.113c2.82-0.723,5.607-1.523,8.412-2.279
		c0.281-0.076,0.562-0.153,0.843-0.229c3.103-0.841,6.222-1.64,9.308-2.522c0.289-0.082,0.574-0.174,0.863-0.256
		c2.129-0.611,4.234-1.28,6.355-1.911c0.213-0.063,0.423-0.128,0.635-0.191c3.312-0.988,6.635-1.95,9.926-2.985
		c1.313-0.413,2.613-0.853,3.922-1.274c1.286-0.413,2.57-0.831,3.853-1.25c0.154-0.05,0.308-0.099,0.461-0.15
		c3.144-1.03,6.284-2.065,9.407-3.139c1.589-0.545,3.165-1.115,4.747-1.672c2.34-0.823,4.664-1.68,6.992-2.527
		c0.988-0.359,1.981-0.709,2.967-1.072c0.935-0.345,1.88-0.668,2.813-1.017c1.649-0.617,3.291-1.248,4.935-1.876
		c4.176-1.596,8.337-3.224,12.474-4.897c1.6-0.646,3.196-1.299,4.789-1.957c4.236-1.748,8.449-3.537,12.644-5.364
		c1.419-0.619,2.84-1.234,4.255-1.862c1.209-0.536,2.402-1.104,3.607-1.647c0.202-0.092,0.403-0.185,0.604-0.275
		c3.033-1.37,6.069-2.735,9.08-4.146c1.118-0.524,2.241-1.037,3.357-1.567c1.855-0.882,3.684-1.81,5.53-2.707
		c0.829-0.403,1.656-0.81,2.484-1.216c0.611-0.299,1.223-0.596,1.833-0.898c1.647-0.814,3.31-1.597,4.949-2.423
		c0.522-0.263,1.049-0.516,1.571-0.78c3.658-1.855,7.271-3.785,10.893-5.702c0.964-0.51,1.938-1.003,2.9-1.518
		c0.238-0.127,0.469-0.265,0.707-0.393c5.948-3.205,11.856-6.475,17.706-9.836c0.654-0.375,1.327-0.722,1.979-1.099
		c0.039-0.022,0.077-0.046,0.116-0.069c0.709-0.41,1.398-0.853,2.106-1.266c5.63-3.289,11.221-6.637,16.754-10.071
		c0.502-0.311,1.018-0.601,1.518-0.913c0.178-0.111,0.354-0.221,0.531-0.332c3.347-2.092,6.683-4.198,9.99-6.344
		c0.115-0.075,0.229-0.152,0.344-0.227c2.268-1.473,4.493-3.006,6.743-4.506c1.624-1.082,3.254-2.158,4.871-3.254
		c1.123-0.762,2.266-1.495,3.385-2.262c0.416-0.285,0.828-0.576,1.244-0.862c3.898-2.688,7.75-5.435,11.591-8.197
		c0.543-0.391,1.105-0.758,1.648-1.151c0.118-0.085,0.231-0.177,0.348-0.262c0.119-0.086,0.241-0.168,0.36-0.254
		c0.482-0.35,0.962-0.702,1.443-1.053c4.586-3.346,9.131-6.743,13.633-10.195c0.409-0.314,0.818-0.627,1.228-0.941
		c4.683-3.607,9.319-7.268,13.908-10.987c0.166-0.134,0.333-0.266,0.497-0.401c8.707-7.07,17.241-14.342,25.599-21.81
		c0.209-0.188,0.422-0.373,0.632-0.561c0.339-0.304,0.663-0.624,1.003-0.928c5.282-4.75,10.497-9.572,15.633-14.476
		c0.039-0.037,0.077-0.076,0.116-0.113c1.104-1.055,2.188-2.13,3.275-3.203c0.632-0.623,1.269-1.242,1.905-1.862
		c3.453-3.366,6.885-6.752,10.269-10.187c0.67-0.68,1.365-1.334,2.033-2.016c0.595-0.61,1.193-1.218,1.787-1.83
		c0.952-0.981,1.865-2.001,2.811-2.988c2.931-3.056,5.828-6.144,8.705-9.252c0.321-0.346,0.638-0.696,0.959-1.043
		c1.636-1.765,3.271-3.529,4.888-5.311c0.227-0.251,0.461-0.496,0.688-0.748c3.58-3.975,7.097-8.006,10.588-12.061
		c0.836-0.97,1.705-1.912,2.535-2.888c0.739-0.868,1.473-1.74,2.209-2.612c4.088-4.847,8.087-9.771,12.051-14.724
		c0.773-0.966,1.584-1.901,2.351-2.873c1.19-1.507,2.321-3.061,3.499-4.578c2.133-2.748,4.247-5.511,6.339-8.292
		c1.666-2.216,3.342-4.424,4.983-6.66c3.74-5.095,7.442-10.22,11.054-15.415l0.011-0.016l-37.447-15.472
		C1610.462,1432.047,1616.909,1418.395,1621.25,1410.365z"/>
	<g>
		<path style="fill:#EF7C59;" d="M730.289,1437.904l176.523-78.517l-23.206-125.143c-1.933-0.454-3.879-0.867-5.798-1.362
			c-9.816-2.535-10.782-13.038-6.261-19.442c-103.153-50.155-160.033-167.65-129.847-282.83l44.779-170.863
			c6.465-24.669,16.468-47.47,29.313-68.008c46.659,49.887,160.588,142.422,363.611,163.172c0,0-62.392,88.294-11.654,135.174
			c4.841-17.697,14.94-35.88,30.051-51.749c30.675-32.215,71.844-44.527,100.265-32.478c-10.234-6.961-18.922-14.117-26.278-21.134
			l3.529-6.852c73.462-153.188-43.397-276.445-174.51-310.806c-84.634-22.18-183.467,10.359-248.249,69.135
			c-38.668,9.262-76.248,25.477-110.674,49.149c-145.904,100.326-180.168,294.979-76.535,434.763
			c3.276,4.415,6.651,8.726,10.121,12.93c58.224,72.059,20.86,138.858,4.704,161.474c-45.784,56.641-69.259,126.156-68.34,196.078
			l64.784-28.815L730.289,1437.904z"/>
		<path style="fill:#EF7C59;" d="M1295.584,1031.443c-24.871,26.12-56.662,39.182-82.956,36.783
			c-0.667,2.071-1.402,4.102-2.12,6.145l42.506,229.227l103.995,42.968l248.419,102.64l0.203,0.083
			c4.83-17.243,11.277-30.895,15.618-38.925c1.619-2.661,3.186-5.345,4.72-8.044l0.013-0.023l-0.001,0.001
			c57.606-101.598,54.131-229.857-20.091-329.972c-46.223-62.342-112.074-103.225-183.783-120.505
			c-2.541-0.731-5.153-1.347-7.843-1.817l-0.67-0.121c-4.376-0.937-8.771-1.783-13.182-2.546
			c-36.978-7.804-65.993-19.685-88.733-32.923c0.384,0.343,0.812,0.621,1.187,0.978
			C1339.866,941.106,1332.13,993.063,1295.584,1031.443z"/>
	</g>
	<path style="fill:#ABD087;" d="M1605.43,1449.206l-248.419-102.64l-103.995-42.968l10.565,56.975l-0.031,0.006
		c0.024,0.112,0.073,0.219,0.094,0.332c4.81,25.939-68.754,61.331-164.31,79.051c-95.556,17.719-176.919,11.056-181.729-14.883
		c-0.363-1.954-0.228-3.966,0.275-6.016l-11.066-59.676l-176.523,78.517l-53.674,23.873l-64.784,28.815l-84.081,37.398l-0.039,0.018
		c0.343,0.391,0.708,0.762,1.052,1.152c5.188,5.885,10.486,11.671,15.865,17.379c1.31,1.39,2.631,2.767,3.953,4.146
		c5.632,5.881,11.326,11.703,17.154,17.389c0.482,0.47,0.961,0.941,1.444,1.41c2.982,2.893,5.99,5.76,9.023,8.601
		c0.52,0.486,1.042,0.969,1.563,1.454c13.388,12.466,27.253,24.426,41.576,35.836c0.108,0.087,0.216,0.176,0.324,0.262
		c3.263,2.597,6.557,5.155,9.867,7.694c0.695,0.533,1.388,1.068,2.084,1.598c3.191,2.43,6.402,4.834,9.635,7.211
		c0.721,0.53,1.446,1.055,2.17,1.583c3.358,2.449,6.73,4.881,10.132,7.272c0.028,0.019,0.057,0.039,0.085,0.059
		c0.56,0.394,1.133,0.773,1.694,1.166c0.173,0.121,0.348,0.238,0.521,0.358c1.553,1.083,3.142,2.116,4.704,3.187
		c3.631,2.489,7.257,4.985,10.935,7.409c5.425,3.573,10.899,7.077,16.428,10.502c0.5,0.31,0.996,0.627,1.498,0.935
		c3.212,1.979,6.45,3.918,9.695,5.847c0.214,0.127,0.426,0.259,0.641,0.386c0.913,0.541,1.825,1.082,2.741,1.619
		c3.329,1.953,6.672,3.881,10.036,5.781c0.946,0.535,1.898,1.061,2.847,1.591c1.966,1.099,3.946,2.175,5.924,3.256
		c0.647,0.354,1.289,0.714,1.937,1.065c0.898,0.487,1.786,0.993,2.686,1.477c0.184,0.099,0.369,0.193,0.552,0.292
		c5.946,3.185,11.958,6.26,18.004,9.279c0.91,0.454,1.82,0.911,2.733,1.362c5,2.47,10.028,4.893,15.094,7.247
		c0.898,0.418,1.792,0.843,2.692,1.257c1.152,0.529,2.318,1.035,3.472,1.558c0.402,0.182,0.806,0.361,1.208,0.542
		c0.637,0.285,1.272,0.571,1.909,0.856c1.257,0.562,2.509,1.136,3.771,1.692c1.239,0.545,2.478,1.089,3.721,1.627
		c3.417,1.481,6.845,2.939,10.29,4.367c1.177,0.488,2.361,0.965,3.541,1.447c0.083,0.033,0.166,0.065,0.248,0.099
		c1.026,0.418,2.06,0.823,3.088,1.237c2.509,1.009,5.008,2.036,7.53,3.017c0.252,0.098,0.506,0.191,0.757,0.288
		c4.615,1.789,9.255,3.527,13.916,5.222c0.85,0.309,1.708,0.6,2.56,0.906c0.157,0.056,0.319,0.106,0.476,0.163
		c6.805,2.439,13.651,4.789,20.552,7.024c0.532,0.173,1.06,0.356,1.593,0.528c0.575,0.185,1.15,0.371,1.725,0.554
		c0.093,0.029,0.187,0.057,0.279,0.086c3.521,1.12,7.058,2.202,10.602,3.268c1.436,0.432,2.874,0.86,4.313,1.283
		c2.411,0.708,4.833,1.391,7.254,2.074c1.223,0.345,2.439,0.709,3.665,1.048c1.232,0.34,2.469,0.663,3.703,0.997
		c3.747,1.013,7.496,2.018,11.266,2.97c0.145,0.037,0.292,0.07,0.438,0.107c2.166,0.546,4.349,1.05,6.523,1.576
		c1.686,0.408,3.369,0.827,5.06,1.223c5.477,1.282,10.972,2.519,16.498,3.674c1.457,0.304,2.93,0.564,4.389,0.859
		c2.6,0.526,5.206,1.032,7.816,1.529c6.341,1.209,12.71,2.341,19.109,3.381c1.802,0.292,3.598,0.606,5.404,0.885
		c2.061,0.319,4.147,0.556,6.214,0.853c5.195,0.746,10.387,1.499,15.614,2.142c2.474,0.304,4.953,0.591,7.434,0.87
		c1.731,0.195,3.452,0.425,5.188,0.607c0.219,0.023,0.436,0.052,0.656,0.075c5.357,0.557,10.739,1.031,16.132,1.467
		c0.773,0.062,1.54,0.145,2.313,0.205c5.256,0.408,10.535,0.735,15.824,1.027c0.848,0.047,1.689,0.117,2.537,0.161
		c1.912,0.099,3.838,0.141,5.754,0.224c2.13,0.093,4.264,0.176,6.399,0.249c1.152,0.041,2.299,0.1,3.452,0.134
		c0.97,0.029,1.932,0.085,2.903,0.111c6.169,0.159,12.357,0.241,18.564,0.241c7.914,0,15.789-0.158,23.637-0.427
		c0.985-0.034,1.966-0.082,2.95-0.12c0.147-0.005,0.293-0.017,0.442-0.022c6.979-0.272,13.936-0.627,20.864-1.09
		c0.396-0.026,0.796-0.035,1.192-0.062c0.44-0.03,0.875-0.082,1.315-0.114c7.802-0.548,15.571-1.214,23.301-2.013
		c0.391-0.04,0.785-0.074,1.175-0.115c16.576-1.741,32.982-4.053,49.196-6.915c0.428-0.075,0.854-0.159,1.281-0.235
		c7.456-1.33,14.867-2.786,22.241-4.348c0.452-0.096,0.911-0.17,1.362-0.266c0.08-0.017,0.159-0.035,0.24-0.052
		c0.363-0.078,0.719-0.173,1.082-0.251c5.766-1.245,11.505-2.564,17.217-3.948c0.212-0.051,0.424-0.102,0.635-0.154
		c5.599-1.362,11.171-2.791,16.716-4.285c0.281-0.076,0.562-0.153,0.843-0.229c5.535-1.499,11.045-3.061,16.526-4.689
		c0.213-0.063,0.423-0.128,0.635-0.191c5.579-1.664,11.132-3.389,16.652-5.186c0.347-0.113,0.702-0.209,1.049-0.323
		c0.154-0.05,0.308-0.099,0.461-0.15c0.552-0.181,1.092-0.388,1.642-0.57c6.545-2.163,13.046-4.42,19.504-6.768
		c0.988-0.359,1.981-0.709,2.967-1.072c14.722-5.426,29.215-11.322,43.459-17.679c0.689-0.308,1.373-0.626,2.059-0.94
		c0.202-0.092,0.403-0.185,0.604-0.275c6.035-2.724,12.023-5.534,17.967-8.42c0.829-0.403,1.656-0.81,2.484-1.216
		c0.611-0.299,1.223-0.596,1.833-0.898c5.85-2.891,11.655-5.859,17.413-8.904c0.964-0.51,1.938-1.003,2.9-1.518
		c6.197-3.316,12.327-6.738,18.413-10.229c0.654-0.375,1.327-0.722,1.979-1.099c0.039-0.022,0.077-0.046,0.116-0.069
		c0.709-0.41,1.398-0.853,2.106-1.266c5.63-3.289,11.221-6.637,16.754-10.071c0.502-0.311,1.018-0.601,1.518-0.913
		c0.178-0.111,0.354-0.221,0.531-0.332c0.875-0.547,1.724-1.133,2.597-1.684c4.867-3.073,9.693-6.204,14.48-9.392
		c1.624-1.082,3.254-2.158,4.871-3.254c5.459-3.701,10.866-7.472,16.215-11.32c0.002-0.001,0.003-0.001,0.004-0.002
		c0.543-0.391,1.105-0.758,1.648-1.151c0.118-0.085,0.231-0.177,0.348-0.262c0.003-0.001,0.005-0.003,0.007-0.005
		c6.114-4.43,12.143-8.967,18.109-13.585c1.449-1.121,2.872-2.272,4.311-3.405c4.422-3.477,8.802-7.004,13.138-10.583
		c1.886-1.557,3.764-3.121,5.634-4.697c4.102-3.459,8.158-6.972,12.18-10.522c1.086-0.959,2.209-1.877,3.291-2.843
		c0.209-0.188,0.422-0.373,0.632-0.561c0.339-0.304,0.663-0.624,1.003-0.928c5.282-4.75,10.497-9.572,15.633-14.476
		c0.039-0.037,0.077-0.076,0.116-0.113c1.104-1.055,2.188-2.13,3.275-3.203c0.632-0.623,1.269-1.242,1.905-1.862
		c3.453-3.366,6.885-6.752,10.269-10.187c0.67-0.68,1.365-1.334,2.033-2.016c0.595-0.61,1.193-1.218,1.787-1.83
		c0.952-0.981,1.865-2.001,2.811-2.988c2.931-3.056,5.828-6.144,8.705-9.252c0.321-0.346,0.638-0.696,0.959-1.043
		c1.636-1.765,3.271-3.529,4.888-5.311c0.227-0.251,0.461-0.496,0.688-0.748c3.58-3.975,7.097-8.006,10.588-12.061
		c0.836-0.97,1.705-1.912,2.535-2.888c0.739-0.868,1.473-1.74,2.209-2.612c4.088-4.847,8.087-9.771,12.051-14.724
		c0.773-0.966,1.584-1.901,2.351-2.873c1.19-1.507,2.321-3.061,3.499-4.578c2.133-2.748,4.247-5.511,6.339-8.292
		c1.666-2.216,3.342-4.424,4.983-6.66c3.74-5.095,7.442-10.22,11.054-15.415l0.011-0.016l-37.447-15.472L1605.43,1449.206z"/>
	<path style="fill:#F39C98;" d="M972.805,1241.933c33.012-1.502,67.444-7.233,96.438-23.924c13.908-8.007,1.361-29.571-12.59-21.54
		c-25.671,14.779-56.494,19.437-85.698,20.598c-28.981,1.152-58.403-0.979-86.515-8.24c-5.738-1.482-10.249,0.868-12.893,4.612
		c-4.521,6.404-3.555,16.906,6.261,19.442c1.919,0.496,3.865,0.908,5.798,1.362C912.633,1241.061,943.124,1243.283,972.805,1241.933
		z"/>
	<path style="fill:#F39C98;" d="M901.292,886.206c-17.48,14.935-34.96,29.869-52.44,44.804
		c-9.202,7.862-18.754,15.017-21.853,27.575c-3.11,12.603,0.408,24.789,8.512,34.66c2.455,2.99,5.03,5.888,7.542,8.829
		c8.404,9.835,16.806,19.67,25.21,29.505c4.378,5.124,13.139,4.5,17.639,0c5.078-5.078,4.389-12.502,0-17.639
		c-6.661-7.796-13.322-15.592-19.982-23.388c-5.192-6.077-16.053-14.756-15.186-23.673c0.754-7.758,10.263-13.537,15.756-18.23
		c10.389-8.876,20.778-17.752,31.166-26.628c7.091-6.058,14.182-12.117,21.273-18.176c5.124-4.378,4.501-13.139,0-17.639
		C913.852,881.128,906.43,881.817,901.292,886.206z"/>
	<path style="fill:#010202;" d="M834.839,879.478c6.541,1.982,14.352-4.692,17.446-14.905c3.093-10.213,0.299-20.099-6.242-22.08
		c-6.541-1.982-14.352,4.692-17.446,14.905C825.503,867.611,828.297,877.497,834.839,879.478z"/>
	<path style="fill:#010202;" d="M1023.767,875.568c-6.541-1.981-14.352,4.692-17.445,14.905
		c-3.094,10.214-0.299,20.099,6.242,22.081c6.541,1.982,14.352-4.692,17.446-14.905
		C1033.103,887.436,1030.308,877.55,1023.767,875.568z"/>
	<path style="fill:#F39C98;" d="M1235.63,946.927c-19.061,11.583-33.658,32.209-35.035,54.813
		c-0.691,11.32,3.161,22.887,11.304,30.902c4.655,4.583,13.058,4.991,17.639,0c4.542-4.947,4.968-12.748,0-17.639
		c-0.378-0.372-1.149-1.502-1.728-2.007l-0.545-0.895c-0.186-0.33-0.357-0.668-0.528-1.006l-0.775-2.471
		c-0.083-0.327-0.15-0.658-0.221-0.987c0.064-0.761-0.261-2.46-0.269-2.93c-0.021-1.133,0.014-2.267,0.096-3.397
		c0.022-0.296,0.056-0.59,0.084-0.885c0.01-0.065,0.015-0.083,0.026-0.157c0.547-2.411,1.07-4.783,1.881-7.126
		c0.171-0.494,1.282-2.982,0.997-2.451c0.42-0.877,0.831-1.758,1.292-2.617c1.309-2.435,2.824-4.713,4.394-6.982
		c0.068-0.092,0.097-0.13,0.154-0.207c0.402-0.495,0.808-0.986,1.224-1.468c0.436-0.505,0.899-0.985,1.35-1.476
		c0.988,0.571,1.986,1.127,2.937,1.763c0.628,0.419,1.233,0.866,1.846,1.304l0.196,0.159c1.386,1.152,2.715,2.37,3.986,3.65
		c1.199,1.209,2.345,2.471,3.431,3.782l0.151,0.186c0.445,0.616,0.892,1.23,1.315,1.861c1.659,2.467,3.064,5.081,4.317,7.771
		c1.253,3.226,2.266,6.528,2.898,9.94c0.543,2.923,3.251,6.002,5.732,7.454c2.674,1.564,6.614,2.227,9.611,1.257
		c6.881-2.227,9.989-8.454,8.711-15.343c-2.695-14.535-11.024-28.263-22.412-38.092c0.365-0.093,0.72-0.213,1.09-0.294
		c0.51-0.113,1.024-0.213,1.538-0.306l2.734-0.186c1.087-0.023,2.161,0.062,3.245,0.084c0.069,0.001,0.073-0.003,0.129-0.003
		c0.152,0.035,0.244,0.059,0.456,0.103c1.004,0.211,1.997,0.474,2.971,0.796c0.193,0.063,0.276,0.085,0.418,0.129
		c0.042,0.026,0.042,0.032,0.094,0.063c0.841,0.499,1.688,0.989,2.528,1.492c0.131,0.131,0.257,0.255,0.486,0.466
		c4.799,4.422,12.955,5.103,17.639,0c4.416-4.811,5.125-12.917,0-17.639C1276.928,933.518,1253.211,936.244,1235.63,946.927z
		 M1249.27,988.438c0.049,0.068,0.096,0.138,0.146,0.206C1249.016,988.104,1248.703,987.656,1249.27,988.438z M1249.585,988.871
		l0.536,0.661C1250.06,989.492,1249.827,989.192,1249.585,988.871z"/>
	<path style="fill:#010202;" d="M972.035,1076.251c-22.278,0-40.337-12.724-40.337,9.553c0,22.277,18.059,40.337,40.337,40.337
		s40.337-18.059,40.337-40.337C1012.373,1063.527,994.313,1076.251,972.035,1076.251z"/>
</g>
</svg>
