<?xml version="1.0" encoding="utf-8"?>
<!-- Generator: Adobe Illustrator 27.5.0, SVG Export Plug-In . SVG Version: 6.00 Build 0)  -->
<svg version="1.1" id="Capa_1" xmlns="http://www.w3.org/2000/svg" xmlns:xlink="http://www.w3.org/1999/xlink" x="0px" y="0px"
	 viewBox="0 0 2122 2122" style="enable-background:new 0 0 2122 2122;" xml:space="preserve">
<g>
	<path style="fill:#FAD2CD;" d="M1057.354,119.305c-522.518,0-946.157,423.576-946.157,946.152
		c0,391.274,237.525,727.083,576.258,871.102c34.27,14.568,69.559,27.167,105.744,37.676c6.509,1.91,13.077,3.703,19.703,5.432
		c77.983,20.838,159.902,31.947,244.453,31.947c91.771,0,180.438-13.077,264.331-37.442c6.865-1.969,13.676-4.058,20.419-6.148
		c35.527-11.225,70.1-24.419,103.659-39.586c23.045-10.392,45.617-21.676,67.649-33.798v-0.058
		c292.16-160.974,490.094-471.941,490.094-829.125C2003.505,542.88,1579.93,119.305,1057.354,119.305z"/>
	<path style="fill:#FAD2CD;" d="M1513.411,1894.64c-1.555,4.36-3.284,8.658-5.316,12.901
		C1510.128,1903.297,1511.92,1899,1513.411,1894.64z"/>
</g>
<g>
	<path style="fill:#E9434B;" d="M1534.97,875.401c-17.383-3.493-35.22-1.321-52.112,4.808
		c-11.778,4.275-23.073,10.509-33.451,18.055c0.136-0.658,0.28-1.313,0.408-1.973c10.503-25.873,13.916-55.814,14.204-84.052
		c0.604-58.777-8.317-118.46-33.408-171.615c-25.096-53.155-67.42-99.401-121.525-122.368c-44.546-18.91-95.514-19.57-141.475-4.978
		c1.263-73.862-30.502-156.402-70.593-202.208c-54.918-62.753-157.929-87.927-223.985-37.033c-29.471,22.704-48.331,56.93-77.52,80
		c-63.776,50.402-157.813,35.435-231.284,70.222c-65.915,31.215-109.092,104.994-104.01,177.754
		c3.074,44.059,22.037,87.99,12.312,131.074c-10.67,47.284-52.726,80.151-76.872,122.182
		c-30.933,53.842-29.871,124.575,2.67,177.461c18.11,29.428,46.173,57.203,43.756,91.673c-1.88,26.782-22.148,48.531-30.065,74.187
		c-19.479,63.148,37.583,121.091,64.005,181.666c30.387,69.681,17.598,156.171-31.659,214.075
		c82.285-47.791,170.328-117.983,168.199-213.115c-1.155-51.615-29.013-107.59-2.076-151.634
		c23.73-38.799,76.872-45.057,115.491-69.03c0.465,0.016,0.921,0.07,1.391,0.07c22.704,0,41.106-18.402,41.106-41.101
		c0-3.044-0.354-6.001-0.982-8.857c8.046-0.672,16.064-2.336,23.983-5.1c4.303,41.114,12.625,81.535,27.357,119.823
		c32.432,84.298,101.449,145.923,184.718,169.835c0.003,0.039,0.007,0.075,0.011,0.115l0.05,0.613
		c0.095,0.908,0.158,1.838,0.238,2.751c0.138,1.607,0.279,3.203,0.406,4.85c0.194,2.511,0.347,5.106,0.501,7.697
		c0.124,1.856,0.211,3.748,0.299,5.642c0.122,2.602,0.248,5.204,0.326,7.852c0.018,0.636,0.034,1.274,0.049,1.912
		c0.044,1.744,0.086,3.484,0.105,5.241c0.022,1.968,0.022,3.943,0.01,5.921c-0.013,1.861-0.049,3.721-0.094,5.582
		c-0.033,1.434-0.06,2.868-0.113,4.301c-0.161,4.256-0.429,8.489-0.789,12.691c-0.12,1.394-0.253,2.782-0.397,4.166
		c-0.15,1.439-0.308,2.87-0.485,4.295c-0.263,2.107-0.542,4.204-0.869,6.273c-0.092,0.586-0.191,1.166-0.288,1.749
		c-0.317,1.889-0.68,3.745-1.055,5.592c-0.211,1.033-0.415,2.067-0.644,3.085c-0.447,1.991-0.938,3.946-1.46,5.875
		c-0.292,1.075-0.607,2.125-0.923,3.179c-0.392,1.311-0.811,2.6-1.244,3.875c-0.362,1.067-0.721,2.135-1.112,3.175
		c-0.617,1.645-1.281,3.244-1.973,4.816c-0.378,0.858-0.76,1.71-1.159,2.544c-0.947,1.976-1.924,3.923-3.003,5.757l-0.117,0.239
		c-14.09,23.703-39.05,39.469-67.654,50.153c-9.613,3.586-19.581,6.568-29.735,9.135c-7.581,1.91-15.284,3.586-22.928,5.018
		c-24.78,4.717-49.198,7.226-69.082,9.077c-32.843,3.045-67.951,5.491-94.105,25.613c-27.405,21.018-38.63,56.662-45.076,90.518
		c-9.915,51.888-15.05,109.866-6.334,162.353c3.347,20.18,15.469,44.663,32.546,69.681c34.27,14.568,69.559,27.167,105.744,37.676
		c6.509,1.91,13.077,3.703,19.703,5.432c77.983,20.838,159.902,31.947,244.453,31.947c91.771,0,180.438-13.077,264.331-37.442
		c6.865-1.969,13.676-4.058,20.419-6.148c35.527-11.225,70.1-24.419,103.659-39.586c23.045-10.392,45.617-21.676,67.649-33.798
		v-0.058l0.297-0.775c0.541-1.496,1.018-3.045,1.496-4.541c1.374-4.536,2.446-9.135,3.225-13.793
		c0.297-1.788,0.536-3.523,0.775-5.311c6.446-55.054,4.478-111.123-5.91-165.637c-6.45-33.856-17.735-69.5-45.081-90.518
		c-26.153-20.122-61.262-22.568-94.163-25.613c-27.347-2.568-58.933-5.793-88.726-13.554c-3.565-0.924-7.08-1.935-10.57-2.992
		c-0.172-0.052-0.345-0.104-0.519-0.155c-0.706-0.217-1.41-0.44-2.114-0.663c-3.501-1.105-6.974-2.259-10.383-3.538
		c-7.703-2.865-15.225-6.09-22.275-9.851c-24.838-13.077-44.96-32.122-55.108-60.604c-5.018-14.154-8.239-28.901-10.212-43.888
		c-0.628-4.863-1.115-9.758-1.515-14.67c-0.081-0.994-0.127-1.996-0.2-2.991c-0.287-3.926-0.538-7.858-0.714-11.801
		c-0.055-1.244-0.085-2.49-0.132-3.735c-0.136-3.75-0.252-7.5-0.314-11.256c-0.021-1.213-0.031-2.426-0.045-3.639
		c-0.045-4.021-0.073-8.041-0.063-12.053c0-0.217,0.001-0.433,0.001-0.65c118.931-38.057,192.451-149.361,227.45-270.646
		c1.46,1.098,2.964,2.145,4.515,3.134c7.586,4.837,15.357,8.433,23.221,11c-2.181,5.017-3.406,10.546-3.406,16.367
		c0,22.699,18.406,41.101,41.106,41.101c22.704,0,41.106-18.402,41.106-41.101c0-7.312-1.929-14.163-5.274-20.111
		c54.472-21.295,100.967-78.714,109.859-131.11C1619.248,944.945,1593.894,887.24,1534.97,875.401z"/>
	<path style="fill:#E9434B;" d="M1513.411,1894.64c-1.555,4.36-3.284,8.658-5.316,12.901
		C1510.128,1903.297,1511.92,1899,1513.411,1894.64z"/>
</g>
<path style="fill:#D0DC69;" d="M1430.61,640.625c-25.096-53.155-67.42-99.401-121.525-122.368
	c-44.546-18.91-95.514-19.57-141.475-4.978c1.263-73.862-30.502-156.402-70.593-202.208
	c-54.918-62.753-157.929-87.927-223.985-37.033c-29.471,22.704-48.331,56.93-77.52,80c-63.776,50.402-157.813,35.435-231.284,70.222
	c-65.915,31.215-109.092,104.994-104.01,177.754c3.074,44.059,22.037,87.99,12.312,131.074
	c-10.67,47.284-52.726,80.151-76.872,122.182c-30.933,53.842-29.871,124.575,2.67,177.461c18.11,29.428,46.173,57.203,43.756,91.673
	c-1.88,26.782-22.148,48.531-30.065,74.187c-19.479,63.148,37.583,121.091,64.005,181.666
	c30.387,69.681,17.598,156.171-31.659,214.075c82.285-47.791,170.328-117.983,168.199-213.115
	c-1.155-51.615-29.013-107.59-2.076-151.634c23.73-38.799,76.872-45.057,115.491-69.03c-22.049-0.74-39.71-18.802-39.71-41.031
	c0-10.16,3.704-19.441,9.81-26.614c-8.564-4.889-16.798-10.619-24.596-17.005c-33.643-27.556-58.956-67.295-65.272-104.512
	c-9.511-56.044,15.844-113.754,74.767-125.588c4.677-0.94,9.389-1.439,14.105-1.591c6.497,32.73,21.553,63.896,46.801,86.263
	c-3.946-24.715-1.479-49.802,4.064-74.353c3.871,1.913,7.664,4.032,11.369,6.319c-3.939,30.234-0.056,63.437,5.43,90.792
	c8.814,43.941,30.07,86.523,65.783,120.063c-7.654-37.908-11.664-76.366-12.08-114.937c8.253,11.579,18.366,21.574,30.819,29.091
	c21.454-96.494,84.485-175.838,158.06-244.126c-13.143,50.358-34.364,99.337-59.984,143.132
	c18.406-0.439,35.152-10.499,49.832-21.617c56.258-42.602,96.341-106.071,110.631-175.181
	c23.24,89.306,14.334,186.621-24.736,270.221c24.784-9.326,46.285-25.812,65.276-44.258c42.446-41.233,74.086-93.495,90.943-150.217
	c0.172-0.577,0.312-1.164,0.479-1.743c5.434,5.03,10.534,10.083,14.814,15.272c40.73,49.388,70.09,108.122,85.281,170.299
	c8.639,35.371,12.687,71.888,11.6,108.297c3.597-2.238,6.911-4.831,10.041-7.644c-0.71,6.06-1.488,12.111-2.343,18.148
	c-1.9,13.427-1.832,53.793-10.831,63.522c27.07-29.276,46.475-64.799,62.802-101.179c11.396-25.398,21.559-51.985,22.894-79.79
	c0.058-1.221,0.052-2.456,0.07-3.687c7.734-15.499,13.803-31.646,17.308-48.636c0.136-0.658,0.28-1.313,0.408-1.973
	c10.503-25.873,13.916-55.814,14.204-84.052C1464.622,753.462,1455.701,693.779,1430.61,640.625z"/>
<path style="fill:#FFFBF7;" d="M1325.173,1017.759c-25.759-24.945-60.531-39.839-96.463-40.536
	c-36.623-0.707-72.531,13.622-99.332,38.397c-5.484,5.068-0.347,12.51,5.522,12.568c7.747,11.037,29.007,38.123,59.008,50.707
	c18.388,7.819,40.063,10.09,63.888-0.239c18.319-7.924,37.911-23.26,58.268-49.228
	C1322.873,1033.575,1331.617,1024.004,1325.173,1017.759z"/>
<path style="fill:#C40E5D;" d="M1174.142,1453.15c-0.628-4.863-1.115-9.758-1.515-14.67c-0.081-0.994-0.127-1.996-0.2-2.991
	c-0.287-3.926-0.538-7.858-0.714-11.801c-0.055-1.244-0.085-2.49-0.132-3.735c-0.136-3.75-0.252-7.5-0.314-11.256
	c-0.021-1.213-0.031-2.426-0.045-3.639c-0.045-4.022-0.072-8.037-0.063-12.053c0-0.217,0.001-0.433,0.001-0.65
	c-23.459,7.506-48.683,12.165-75.727,13.486c-31.746,1.552-62.682-2.234-91.88-10.618c0.003,0.039,0.007,0.075,0.011,0.115
	c0.101,1.101,0.191,2.243,0.288,3.364c0.138,1.607,0.279,3.203,0.406,4.85c0.523,6.801,0.911,13.926,1.127,21.191
	c0.018,0.636,0.034,1.274,0.049,1.912c0.044,1.744,0.086,3.484,0.105,5.241c0.022,1.968,0.022,3.943,0.01,5.921
	c-0.013,1.86-0.051,3.718-0.094,5.582c-0.033,1.434-0.06,2.868-0.113,4.301c-0.161,4.256-0.429,8.489-0.789,12.691
	c-0.12,1.394-0.253,2.782-0.397,4.166c-0.15,1.439-0.308,2.87-0.485,4.295c-0.263,2.107-0.542,4.204-0.869,6.273
	c-0.092,0.586-0.191,1.166-0.288,1.749c-0.317,1.889-0.68,3.745-1.055,5.592c-0.211,1.033-0.415,2.067-0.644,3.085
	c-0.447,1.991-0.938,3.946-1.46,5.875c-0.292,1.075-0.607,2.125-0.923,3.179c-0.392,1.311-0.811,2.6-1.244,3.875
	c-0.362,1.067-0.721,2.135-1.112,3.175c-0.617,1.645-1.281,3.244-1.973,4.816c-0.378,0.858-0.76,1.71-1.159,2.544
	c-0.947,1.976-1.924,3.923-3.003,5.757c58.036-3.586,117.51-17.617,165.695-48.365
	C1162.021,1462.348,1168.174,1457.929,1174.142,1453.15z"/>
<path style="fill:#B6C53E;" d="M711.015,691.723c10.977-37.271,24.107-74.495,46.236-106.816
	c36.468-53.266,97.34-90.304,162.831-99.074c50.329-6.738,102.543,3.333,146.865,27.147c16.658,8.952,29.854,21.628,34.633,33.939
	c7.746-5.45,15.476-10.109,21.586-13.744c7.398-4.404,15.097-8.312,23-11.783c-17.836-37.104-42.695-73.168-58.323-97.976
	c-15.781-25.047-33.296-49.915-57.729-66.821c-24.438-16.906-57.267-24.589-84.575-12.765
	c-51.449,22.285-57.632,96.638-104.302,127.566c-32.638,21.627-75.43,16.151-114.689,15.298c-31.391-0.687-62.86,2.158-93.608,8.453
	c-52.19,10.69-108.75,38.489-120.93,89.885c-13.666,57.652,35.391,116.2,22.577,174.041c-7.508,33.88-34.538,59.435-57.656,85.481
	c-23.123,26.051-44.541,59.259-37.184,93.174c7.181,33.121,38.811,54.339,59.586,81.252c19.318,25.023,29.715,57.963,22.768,88.706
	c-6.236,27.581-25.208,50.436-36.643,76.331c-20.76,47.006-14.495,104.697,15.888,146.251c-22.68-59.761,9.7-134.45,69.067-159.303
	c26.645-11.157,58.144-13.846,79.069-33.637c16.876-15.957,22.209-37.985,22.004-61.427
	c-33.643-27.556-58.956-67.295-65.272-104.512c-9.511-56.044,15.844-113.754,74.767-125.588c4.677-0.94,9.389-1.439,14.105-1.591
	c-1.812-9.119-2.994-18.352-3.503-27.558C689.247,774.407,699.025,732.415,711.015,691.723z"/>
<path style="fill:#B6C53E;" d="M784.092,865.574c-2.546-17.731-4.213-35.663-4.816-53.611c-7.405,6.962-13.194,15.829-15.564,22.595
	c-3.08,8.792-5.133,18.188-6.394,27.883c-3.939,30.234-0.056,63.437,5.43,90.792c8.814,43.941,30.07,86.523,65.783,120.063
	c-7.654-37.908-11.664-76.366-12.08-114.937C797.841,932.254,788.753,898.036,784.092,865.574z"/>
<path style="fill:#B6C53E;" d="M1381.801,1023.795c-6.827,9.177-13.839,18.495-22.295,26.091c-0.71,6.06-1.488,12.111-2.343,18.148
	c-1.9,13.427-1.832,53.793-10.831,63.522c27.07-29.276,46.475-64.799,62.802-101.179c11.396-25.398,21.559-51.985,22.894-79.79
	c0.058-1.221,0.052-2.456,0.07-3.687C1418.539,974.072,1400.014,999.304,1381.801,1023.795z"/>
<path style="fill:#442775;" d="M1464.047,1111.104c-16.88,0-31.371,10.185-37.699,24.74c-2.181,5.017-3.406,10.546-3.406,16.367
	c0,22.699,18.406,41.101,41.106,41.101c22.704,0,41.106-18.402,41.106-41.101c0-7.312-1.929-14.163-5.274-20.111
	C1492.834,1119.576,1479.441,1111.104,1464.047,1111.104z"/>
<path style="fill:#442775;" d="M727.371,1078.417c-12.542,0-23.752,5.634-31.291,14.492c-6.106,7.173-9.81,16.454-9.81,26.614
	c0,22.229,17.66,40.29,39.71,41.031c0.465,0.016,0.921,0.07,1.391,0.07c22.704,0,41.106-18.402,41.106-41.101
	c0-3.044-0.354-6.001-0.982-8.857C763.441,1092.224,747.031,1078.417,727.371,1078.417z"/>
<path style="fill:#B6C53E;" d="M839.064,699.586c28.838-24.998,62.884-43.274,97.686-58.937c-21.661-7.05-45.603-6.884-67.167,0.458
	c24.278-25.301,60.585-34.251,94.977-41.087c53.189-10.568,102.436-14.47,155.147-0.458c-20.969-55.23-80.633-83.542-136.336-86.704
	c-43.547-2.475-88.063,6.139-126.226,27.255c-38.168,21.116-69.617,55.059-85.164,95.815c16.56-20.482,41.422-34.051,67.61-36.892
	c-48.833,50.427-66.928,124.667-62.587,194.728C786.708,756.853,810.226,724.59,839.064,699.586z"/>
<path style="fill:#C40E5D;" d="M1438.001,1085.725c4.2-17.238,7.547-33.958,15.377-50.085c7.176-14.794,16.417-28.477,27.589-40.542
	c3.731-1.368,7.727-2.279,11.66-2.58c8.502-0.658,17.559,1.525,23.99,6.772c6.933,5.647,11.338,13.842,12.546,22.67
	c0.467,3.406,0.127,8.024-0.95,11.742c-1.131,3.922-3.177,7.61-5.657,10.952c-6.616,8.891-17.106,12.438-26.626,17.159
	c-2.656,1.321-2.836,5.993,0,7.255c12.589,5.588,26.07-0.702,35.703-9.145c9.944-8.716,15.756-21.798,15.561-35.026
	c-0.364-25.24-20.89-48.17-46.358-48.074c7.08-5.545,14.549-10.601,22.309-15.127c15.03-8.77,31.971-13.603,46.914-22.353
	c2.943-1.725,1.306-5.491-1.589-5.866c-18.45-2.392-37.569,5.705-53.725,13.852c-17.004,8.575-32.336,20.39-45.408,34.226
	c-13.057,13.817-24.044,29.773-32.146,46.977c-7.966,16.911-14.992,36.103-15.82,54.943
	C1420.949,1092.999,1435.74,1094.991,1438.001,1085.725z"/>
<path style="fill:#C40E5D;" d="M774.976,1018.963c-1.598-8.443-4.214-16.512-7.498-24.444
	c-6.411-15.479-15.191-29.754-26.197-42.387c-10.743-12.326-23.717-22.87-37.846-31.084c-13.53-7.869-31.001-16.702-46.972-16.57
	c-6.611,0.053-10.334,10.237-3.601,13.301c7.021,3.191,14.441,4.809,21.681,7.415c6.904,2.49,13.544,5.593,19.946,9.174
	c4.867,2.726,9.481,5.821,13.961,9.091c-3.216,1.124-6.192,2.442-8.606,3.659c-11.912,6.017-21.203,16.214-25.973,28.648
	c-4.477,11.659-4.151,25.573,0.4,37.149c4.404,11.221,13.569,26.066,27.298,25.901c4.229-0.049,6.119-4.317,4.502-7.835
	c-2.114-4.599-5.661-7.839-8.472-11.932c-2.461-3.581-4.848-7.337-6.378-11.42c-3.221-8.595-3.932-17.958-0.989-26.728
	c2.914-8.667,9.467-16.078,17.233-20.745c3.99-2.397,8.229-4.078,12.77-5.092c0.636-0.141,1.275-0.209,1.913-0.304
	c2.57,2.44,5.066,4.965,7.451,7.608c10.042,11.133,18.227,24.161,24.049,37.978c2.923,6.933,5.257,14.188,7.284,21.427
	c2.095,7.494,2.271,16.205,5.501,23.201c2.114,4.58,9.145,3.04,10.358-1.354C778.864,1036.122,776.399,1026.5,774.976,1018.963z"/>
<path style="fill:#B6C53E;" d="M1233.718,703.718c4.877-39.142-5.427-81.057-32.219-110.007c0.716,15.834,1.432,31.668,2.149,47.498
	c-14.202-34.032-41.374-62.456-74.728-78.178c8.463,13.267,15.727,27.659,20.55,42.665c5.413,16.862,5.934,34.597,7.201,52.102
	c0.691,9.573,1.003,19.664,0.853,29.452c-0.083,5.281-0.37,10.548-0.639,15.825c-0.097,1.983,0.595,8.672-1.408,9.866
	c16.146-9.627,26.319-28.497,25.496-47.279c16.755,45.993,18.251,97.403,4.195,144.292
	C1209.997,779.304,1228.847,742.861,1233.718,703.718z"/>
<path style="fill:#B6C53E;" d="M1352.69,691.489c-18.699-32.083-49.33-57.028-84.536-68.848
	c48.005,55.191,77.422,126.275,82.46,199.249c13.574-28.97,16.541-62.768,8.219-93.662c22.075,32.867,32.779,72.585,34.226,112.151
	c1.447,39.566-6.022,79.07-17.944,116.824c1.55-4.902,14.865-13.272,18.67-17.657c5.842-6.719,10.071-14.368,15.454-21.379
	c10.188-13.271,15.059-25.817,19.279-42.324c9.243-36.161,11.128-74.168,5.656-111.079c-3.133-21.135-8.687-41.92-16.648-61.749
	c-26.787-66.699-80.589-122.085-146.484-150.786C1308.159,592.04,1340.232,638.505,1352.69,691.489z"/>
<path style="fill:#FFFBF7;" d="M1048.243,1017.759c-25.759-24.945-60.531-39.839-96.463-40.536
	c-36.623-0.707-72.531,13.622-99.332,38.397c-5.484,5.068-0.346,12.51,5.522,12.568c7.748,11.037,29.011,38.123,59.008,50.707
	c18.388,7.819,40.063,10.09,63.888-0.239c18.318-7.923,37.91-23.26,58.27-49.226
	C1045.945,1033.573,1054.686,1024.003,1048.243,1017.759z"/>
<path style="fill:#C40E5D;" d="M1128.73,1081.661c-7.698-15.089-26.275-53.549-48.477-45.32
	c-6.197,2.294-11.084,7.162-15.235,12.307c-30.232,37.471-57.925,122.275-1.779,150.304c25.325,12.643,52.409-0.823,67.659-22.358
	c4.916-6.943,8.224-14.017,10.207-21.184C1147.984,1130.509,1140.096,1103.966,1128.73,1081.661z"/>
<path style="fill:#F18FA4;" d="M1513.294,1704.525c-6.45-33.856-17.735-69.5-45.081-90.518
	c-26.153-20.122-61.262-22.568-94.163-25.613c-27.347-2.568-58.933-5.793-88.726-13.554c-3.565-0.924-7.08-1.935-10.57-2.992
	c-0.08-0.024-0.164-0.045-0.246-0.07c-0.799-0.243-1.593-0.497-2.387-0.748c-3.501-1.105-6.974-2.259-10.383-3.538
	c-7.703-2.865-15.225-6.09-22.275-9.851c-37.676,42.456-90.456,70.875-148.375,74.339c-38.992,2.271-78.46-6.27-113.091-24.419
	c-21.432-11.225-38.451-26.933-55.829-42.397c-9.613,3.586-19.581,6.568-29.735,9.135c-7.581,1.91-15.284,3.586-22.928,5.018
	c-24.78,4.717-49.198,7.226-69.082,9.077c-32.843,3.045-67.951,5.491-94.105,25.613c-27.405,21.018-38.63,56.662-45.076,90.518
	c-9.915,51.888-15.05,109.866-6.334,162.353c3.347,20.18,15.469,44.663,32.546,69.681c34.27,14.568,69.559,27.167,105.744,37.676
	c6.509,1.91,13.077,3.703,19.703,5.432c77.983,20.838,159.902,31.947,244.453,31.947c91.771,0,180.438-13.077,264.331-37.442
	c6.865-1.969,13.676-4.058,20.419-6.148c35.527-11.225,70.1-24.419,103.659-39.586c23.045-10.392,45.617-21.676,67.649-33.798
	v-0.058l0.297-0.775c0.541-1.496,1.018-3.045,1.496-4.541c1.374-4.536,2.446-9.135,3.225-13.793
	c0.297-1.788,0.536-3.523,0.775-5.311C1525.65,1815.108,1523.682,1759.039,1513.294,1704.525z"/>
<path style="fill:#1A1029;" d="M1005.149,1276.38c50.967,38.49,125.866,29.881,167.235-18.543c5.238-6.129,6.017-15.098,0-21.111
	c-5.359-5.364-15.849-6.158-21.111,0c-15.469,18.11-37.028,30.811-60.784,33.754c-25.14,3.113-50.154-4.687-70.271-19.878
	c-6.441-4.862-16.692-1.023-20.424,5.355C995.322,1263.61,998.698,1271.508,1005.149,1276.38z"/>
<path style="fill:#1A1029;" d="M1134.9,1028.188c1.698,0.017,3.453-0.552,5.035-2.014c12.972-11.991,28.356-21.127,44.912-26.911
	c-3.782,9.411-5.989,20.231-5.989,31.744c0,18.928,5.793,36.005,15.05,47.888c18.388,7.819,40.063,10.09,63.888-0.239
	c9.135-11.883,14.865-28.843,14.865-47.649c0-11.643-2.212-22.592-6.06-32.069c17.864,6.122,34.37,16.163,48.014,29.375
	c0.468,0.453,0.955,0.814,1.449,1.115c6.809,4.148,15.553-5.424,9.108-11.668c-25.759-24.945-60.531-39.839-96.463-40.536
	c-36.623-0.707-72.531,13.622-99.332,38.397C1123.894,1020.688,1129.031,1028.13,1134.9,1028.188z"/>
<path style="fill:#1A1029;" d="M989.671,998.937c17.865,6.122,34.372,16.164,48.014,29.375c0.469,0.454,0.956,0.815,1.452,1.117
	c6.808,4.143,15.549-5.426,9.106-11.67c-25.759-24.945-60.531-39.839-96.463-40.536c-36.623-0.707-72.531,13.622-99.332,38.397
	c-5.484,5.068-0.346,12.51,5.522,12.568c1.698,0.017,3.454-0.552,5.035-2.014c12.972-11.991,28.356-21.127,44.912-26.911
	c-3.782,9.411-5.989,20.231-5.989,31.744c0,18.928,5.793,36.005,15.05,47.888c18.388,7.819,40.063,10.09,63.888-0.239
	c9.135-11.883,14.87-28.843,14.87-47.649C995.736,1019.363,993.522,1008.413,989.671,998.937z"/>
<path style="fill:#D0DC69;" d="M1158.211,975.557c7.707,0.687,15.454-5.788,22.187-9.087c5.214-2.553,10.578-4.629,16.117-6.368
	c12.589-3.961,25.476-6.046,38.675-6.182c12.838-0.127,25.549,1.505,37.978,4.716c12.248,3.162,26.972,11.868,39.834,9.12
	c4.127-0.887,6.461-5.686,5.428-9.554c-4.024-15.065-24.775-22.237-37.871-26.373c-14.899-4.706-30.724-6.719-46.329-6.49
	c-15.259,0.219-30.762,2.568-45.335,7.133c-7.859,2.461-15.586,5.588-22.972,9.228c-8.132,4.005-17.14,8.507-20.127,17.559
	C1142.961,967.834,1150.367,974.86,1158.211,975.557z"/>
<path style="fill:#D0DC69;" d="M885.266,970.938c7.474-0.346,13.247-5.018,19.878-8.049c5.223-2.382,10.699-4.18,16.224-5.715
	c11.674-3.245,23.474-4.751,35.591-4.478c11.81,0.263,23.377,2.173,34.636,5.759c5.593,1.779,11.176,3.878,16.502,6.349
	c5.847,2.714,12.385,6.285,18.982,6.192c4.424-0.063,8.243-4.487,6.816-8.945c-4.253-13.301-21.535-20.541-33.432-25.194
	c-13.559-5.301-28.044-8.238-42.562-9.101c-14.197-0.843-28.775,0.512-42.577,3.956c-7.186,1.788-14.1,4.38-20.892,7.308
	c-7.167,3.089-15.781,6.344-19.8,13.384C870.182,960.205,875.736,971.377,885.266,970.938z"/>
<path style="fill:#E65398;" d="M1059.336,1158.022c3.81,5.954,8.721,10.972,14.514,15.006c5.15,3.581,13.345,8.361,19.717,5.705
	c2.958-1.233,4.283-4.599,1.89-7.172c-2.1-2.26-5.096-3.435-7.469-4.487c-2.597-1.15-5.062-2.573-7.376-4.21
	c-3.884-2.748-7.815-7.157-10.417-11.191c-3.123-4.843-4.921-9.208-6.032-14.923c-0.458-2.343-0.824-4.916-1.257-7.561
	c-0.195-1.213-0.853-2.538-1.106-3.839c-0.327-1.681-0.151-3.084-1.16-4.585c-0.814-1.213-2.49-1.866-3.829-1.003
	c-1.647,1.057-2.286,2.397-2.977,4.16c-0.107,0.278-0.687,2.08-0.117,0.931c-0.663,1.335-1.466,2.036-1.807,3.601
	c-0.818,3.746-0.594,7.186,0.054,10.923C1053.105,1145.949,1055.751,1152.414,1059.336,1158.022z"/>
<path style="fill:#DC5F80;" d="M1515.204,1889.266c1.374-4.536,2.446-9.135,3.225-13.793c0.297-1.788,0.536-3.523,0.775-5.311
	c6.446-55.054,4.478-111.123-5.91-165.637c-6.45-33.856-17.735-69.5-45.081-90.518c-26.153-20.122-61.262-22.568-94.163-25.613
	c-27.347-2.568-58.933-5.793-88.726-13.554c-1.921,2.528-3.945,4.968-5.951,7.424c0.012,0.011,0.024,0.024,0.036,0.035
	c11.644,10.509,24.902,19.649,38.217,27.591c36.721,21.793,77.861,39.703,103.595,73.739c19.464,25.676,28.005,58.037,32.005,89.983
	c6.446,51.707,2.027,103.776-7.464,154.826c23.045-10.392,45.617-21.676,67.649-33.798v-0.058l0.297-0.775
	C1514.249,1892.311,1514.727,1890.761,1515.204,1889.266z"/>
<path style="fill:#FFFBF7;" d="M956.862,1652.579c42.811,20.96,90.996,31.708,138.703,27.708
	c72.146-6.06,138.653-42.77,183.807-98.023c2.006-2.456,4.031-4.896,5.951-7.424c-3.565-0.924-7.08-1.935-10.57-2.992
	c-0.08-0.024-0.164-0.045-0.246-0.07c-0.799-0.243-1.593-0.497-2.387-0.748c-3.501-1.105-6.974-2.259-10.383-3.538
	c-7.703-2.865-15.225-6.09-22.275-9.851c-37.676,42.456-90.456,70.875-148.375,74.339c-38.992,2.271-78.46-6.27-113.091-24.419
	c-21.432-11.225-38.451-26.933-55.829-42.397c-9.613,3.586-19.581,6.568-29.735,9.135c-7.581,1.91-15.284,3.586-22.928,5.018
	C887.955,1612.155,925.037,1636.993,956.862,1652.579z"/>
<path style="fill:#DC5F80;" d="M803.347,1754.445l-0.595-0.477c-34.095,32.419-40.126,86.519-31.347,130.762
	c6.027,30.095,17.613,58.992,21.793,89.506c6.509,1.91,13.077,3.703,19.703,5.432c-0.419-7.103-1.194-13.734-2.09-19.644
	C800.423,1892.788,756.832,1816.779,803.347,1754.445z"/>
<path style="fill:#DC5F80;" d="M1331.419,1753.968l-0.599,0.477c46.456,62.275,2.928,138.407-7.464,205.578
	c-0.658,4.361-1.252,9.077-1.671,14.149c6.865-1.969,13.676-4.058,20.419-6.148c4.838-28.181,15.05-55.172,20.663-83.294
	C1371.54,1840.486,1365.45,1786.386,1331.419,1753.968z"/>
</svg>
