<?xml version="1.0" encoding="utf-8"?>
<!-- Generator: Adobe Illustrator 27.5.0, SVG Export Plug-In . SVG Version: 6.00 Build 0)  -->
<svg version="1.1" id="Capa_1" xmlns="http://www.w3.org/2000/svg" xmlns:xlink="http://www.w3.org/1999/xlink" x="0px" y="0px"
	 viewBox="0 0 2122 2122" style="enable-background:new 0 0 2122 2122;" xml:space="preserve">
<path style="fill:#EAEAEA;" d="M1040.566,132.402c-525.015,0-950.678,425.602-950.678,950.676
	c0,289.775,129.649,549.254,334.111,723.599c17.698,15.118,35.998,29.637,54.835,43.376c16.497,12.119,33.415,23.756,50.694,34.797
	c5.401,3.42,10.74,6.78,16.199,10.078c1.26,0.78,2.519,1.562,3.779,2.28c1.742,1.079,3.481,2.1,5.281,3.121
	c36.536,21.836,74.633,41.215,114.109,58.014c5.16,2.161,10.258,4.319,15.479,6.419c7.859,3.182,15.778,6.3,23.759,9.179h0.058
	c8.999,3.42,18,6.599,27.118,9.659v0.061c3.301,1.14,6.599,2.219,9.9,3.24c3.299,1.079,6.599,2.158,9.898,3.179
	c3.301,1.079,6.599,2.1,9.9,3.06c3.359,1.082,6.719,2.1,10.139,3.06c6.539,1.919,13.138,3.72,19.798,5.459
	c78.353,20.938,160.667,32.097,245.619,32.097c92.212,0,181.303-13.138,265.598-37.615c3.06-0.901,6.059-1.801,9.119-2.702
	c3.839-1.141,7.62-2.281,11.398-3.479c2.88-0.901,5.761-1.861,8.641-2.821c1.378-0.419,2.76-0.899,4.139-1.379
	c1.5-0.419,2.998-0.96,4.438-1.44c1.082-0.36,2.222-0.721,3.301-1.14c8.76-2.941,17.459-6.059,26.098-9.299
	c19.498-7.259,38.696-15.179,57.535-23.698c23.16-10.441,45.837-21.778,67.976-33.958v-0.058l0.96-0.541
	c9.959-5.52,19.859-11.22,29.576-17.16c22.799-13.618,44.996-28.197,66.475-43.734c15.54-11.159,30.777-22.799,45.596-34.918
	c213.522-174.285,349.831-439.641,349.831-736.737C1991.244,558.004,1565.64,132.402,1040.566,132.402z"/>
<path style="fill:#E99750;" d="M1558.261,1677.807c-12-42.236-27.118-85.612-58.674-116.151
	c-35.157-34.017-85.072-46.975-132.589-58.555c-33.177-8.098-68.514-18.297-104.87-28.256c-3.19-0.868-6.413-1.721-9.616-2.586
	c-2.616-0.707-5.23-1.412-7.855-2.112c-3.696-0.987-7.4-1.966-11.109-2.937c-6.408-1.677-12.833-3.325-19.272-4.935
	c-0.509-0.126-1.015-0.265-1.525-0.391c-2.94-0.779-5.881-1.501-8.819-2.161c-0.455-0.112-0.913-0.21-1.369-0.322
	c-3.866-0.933-7.735-1.834-11.605-2.73c-3.481-0.81-6.963-1.653-10.431-2.453c-2.973-12.464-6.154-24.942-9.74-37.265
	c37.488-11.342,72.665-28.513,102.724-53.736c52.806-44.317,82.709-106.146,100.222-173.583c1.494-5.76,2.87-11.574,4.194-17.41
	c0.388-1.713,0.768-3.429,1.143-5.148c1.15-5.274,2.248-10.568,3.272-15.888c0.112-0.583,0.239-1.161,0.349-1.746
	c1.17-6.164,2.239-12.36,3.255-18.569c0.16-0.976,0.314-1.954,0.471-2.931c0.012-0.079,0.025-0.158,0.038-0.236
	c36.057,12.86,87.729-11.384,113.42-31.675c24.814-19.598,44.107-46.429,53.464-76.736c6.163-19.963,8.251-41.671,2.478-61.751
	c-5.774-20.078-20.188-38.242-39.817-45.396c-11.369-4.142-23.802-4.466-35.833-3.06c53.632-56.792,94.899-135.99,97.648-211.569
	c3.26-89.627-70.073-141.517-152.54-173.797c-16.29-6.378-33.087-12.307-50.712-13.81c-6.001-0.511-11.538-0.452-16.678,0.091
	c49.026-12.696,100.048-13.543,147.022-2.081c-24.073-33.122-87.986-58.401-135.692-45.056
	c19.793-24.966,43.084-46.557,68.944-63.477c-39.838-4.95-100.362,23.207-124.248,65.734
	c-14.837-99.015-84.334-194.579-190.066-213.875c-75.464-13.771-154.017,11.4-218.063,50.662
	c-64.046,39.262-116.794,91.88-172.487,140.767c-19.05,16.721-39.559,33.603-64.97,39.893c-25.413,6.29-56.95-1.644-67.824-23.717
	c-14.843,63.191,4.007,136.453,60.628,174.659c20.65,13.932,44.801,22.413,69.761,28.188c-8.616,18.162-12.503,39.957-13.262,55.529
	c-1.318,27.079,3.764,54.071,10.285,80.387c0.411,1.657,0.855,3.322,1.287,4.984c-16.198-13.663-35.296-23.826-55.85-28.938
	c-12.1-3.008-24.884-4.3-37.021-1.447c-20.338,4.782-36.802,21.113-44.909,40.368c-8.109,19.257-8.604,41.06-4.845,61.61
	c5.707,31.201,21.69,60.124,44.012,82.522c16.537,16.592,46.049,36.783,75.176,43.813c-0.648,3.077-1.327,6.139-1.963,9.22
	l-0.161,0.695c-11.481,56.331-20.665,113.142-18.955,169.793c0.533,19.223,2.402,38.392,5.766,57.506
	c0.84,4.744,1.838,9.361,2.934,13.897c0.285,1.181,0.625,2.317,0.927,3.484c0.86,3.32,1.762,6.605,2.756,9.813
	c0.421,1.358,0.881,2.682,1.326,4.02c0.979,2.947,2,5.856,3.09,8.707c0.52,1.362,1.059,2.708,1.605,4.047
	c1.125,2.762,2.305,5.476,3.533,8.147c0.595,1.293,1.186,2.588,1.805,3.86c1.303,2.677,2.673,5.292,4.079,7.877
	c0.632,1.161,1.24,2.345,1.893,3.488c1.56,2.734,3.201,5.392,4.876,8.02c0.582,0.914,1.125,1.863,1.72,2.764
	c2.192,3.318,4.464,6.561,6.833,9.709c0.021,0.029,0.046,0.057,0.068,0.086c0.767,1.021,1.585,1.992,2.37,2.995
	c1.626,2.08,3.27,4.142,4.972,6.15c1.085,1.28,2.201,2.529,3.315,3.779c1.501,1.684,3.026,3.343,4.58,4.974
	c1.182,1.24,2.364,2.48,3.576,3.69c1.689,1.688,3.424,3.329,5.169,4.959c1.103,1.03,2.178,2.089,3.303,3.097
	c2.682,2.403,5.431,4.734,8.232,7.009c1.353,1.099,2.748,2.15,4.128,3.219c1.694,1.313,3.395,2.618,5.128,3.887
	c1.519,1.112,3.055,2.204,4.602,3.282c1.688,1.177,3.398,2.326,5.119,3.464c1.57,1.037,3.134,2.083,4.731,3.088
	c1.994,1.255,4.028,2.462,6.062,3.667c2.531,1.501,5.09,2.962,7.68,4.388c1.93,1.062,3.857,2.129,5.818,3.151
	c1.801,0.938,3.629,1.839,5.455,2.743c1.736,0.859,3.478,1.709,5.237,2.537c1.888,0.89,3.783,1.77,5.695,2.625
	c1.764,0.789,3.546,1.55,5.33,2.31c1.902,0.81,3.793,1.636,5.716,2.414c-1.057,38.573,3.707,79.989,7.872,119.107
	c-11.38,6.644-22.93,12.994-34.634,19.044c-11.62,5.998-23.395,11.707-35.32,17.116c-19.318,8.758-38.996,16.738-58.913,23.879
	c-50.336,17.997-103.912,31.376-145.788,64.674c-47.396,37.676-73.734,96.95-83.632,156.706c-2.521,15.418-4.081,30.897-4.86,46.436
	c16.497,12.119,33.415,23.756,50.694,34.797c5.401,3.42,10.74,6.78,16.199,10.078c1.26,0.78,2.519,1.562,3.779,2.28
	c1.742,1.079,3.481,2.1,5.281,3.121c36.536,21.836,74.633,41.215,114.109,58.014c5.16,2.161,10.258,4.319,15.479,6.419
	c7.859,3.182,15.778,6.3,23.759,9.179h0.058c8.999,3.42,18,6.599,27.118,9.659v0.061c3.301,1.14,6.599,2.219,9.9,3.24
	c3.299,1.079,6.599,2.158,9.898,3.179c3.301,1.079,6.599,2.1,9.9,3.06c3.359,1.082,6.719,2.1,10.139,3.06
	c6.539,1.919,13.138,3.72,19.798,5.459c78.353,20.938,160.667,32.097,245.619,32.097c92.212,0,181.303-13.138,265.598-37.615
	c3.06-0.901,6.059-1.801,9.119-2.702c3.839-1.141,7.62-2.281,11.398-3.479c2.88-0.901,5.761-1.861,8.641-2.821
	c1.378-0.419,2.76-0.899,4.139-1.379c1.5-0.419,2.998-0.96,4.438-1.44c1.082-0.36,2.222-0.721,3.301-1.14
	c8.76-2.941,17.459-6.059,26.098-9.299c19.498-7.259,38.696-15.179,57.535-23.698c23.16-10.441,45.837-21.778,67.976-33.958v-0.058
	l0.96-0.541c9.959-5.52,19.859-11.22,29.576-17.16c22.799-13.618,44.996-28.197,66.475-43.734
	C1587.238,1794.977,1574.699,1735.822,1558.261,1677.807z"/>
<path style="fill:#454D9B;" d="M1558.261,1677.807c-12-42.236-27.118-85.612-58.674-116.151
	c-35.157-34.017-85.072-46.975-132.589-58.555c-33.177-8.098-68.514-18.297-104.87-28.256c-3.19-0.868-6.413-1.721-9.616-2.586
	c-2.616-0.707-5.23-1.412-7.855-2.112c-3.696-0.987-7.4-1.966-11.109-2.937c-6.408-1.677-12.833-3.325-19.272-4.935
	c-3.9-0.974-7.805-1.93-11.713-2.873c-3.866-0.933-7.735-1.834-11.605-2.73c-3.47-0.803-6.938-1.592-10.408-2.361
	c2.215,9.291,4.32,18.573,6.37,27.773c2.402,10.782,4.808,21.991,2.39,32.77c-3.34,14.899-15.209,26.224-27.021,35.898
	c-68.984,56.495-156.908,89.437-246.032,92.175c-21.338,0.658-45.708-1.827-58.572-18.867c-8.794-11.649-9.827-27.211-10.519-41.791
	c-0.896-18.835-2.953-39.125-5.184-60.073c-11.38,6.644-22.93,12.994-34.634,19.044c-11.62,5.998-23.395,11.707-35.32,17.116
	c-19.318,8.758-38.996,16.738-58.913,23.879c-50.336,17.997-103.912,31.376-145.788,64.674
	c-47.396,37.676-73.734,96.95-83.632,156.706c-2.521,15.418-4.081,30.897-4.86,46.436c16.497,12.119,33.415,23.756,50.694,34.797
	c5.401,3.42,10.74,6.78,16.199,10.078c1.26,0.78,2.519,1.562,3.779,2.28c1.742,1.079,3.481,2.1,5.281,3.121
	c36.536,21.836,74.633,41.215,114.109,58.014c5.16,2.161,10.258,4.319,15.479,6.419c7.859,3.182,15.778,6.3,23.759,9.179h0.058
	c8.999,3.42,18,6.599,27.118,9.659v0.061c3.301,1.14,6.599,2.219,9.9,3.24c3.299,1.079,6.599,2.158,9.898,3.179
	c3.301,1.079,6.599,2.1,9.9,3.06c3.359,1.082,6.719,2.1,10.139,3.06c6.539,1.919,13.138,3.72,19.798,5.459
	c78.353,20.938,160.667,32.097,245.619,32.097c92.212,0,181.303-13.138,265.598-37.615c3.06-0.901,6.059-1.801,9.119-2.702
	c3.839-1.141,7.62-2.281,11.398-3.479c2.88-0.901,5.761-1.861,8.641-2.821c1.378-0.419,2.76-0.899,4.139-1.379
	c1.5-0.419,2.998-0.96,4.438-1.44c1.082-0.36,2.222-0.721,3.301-1.14c8.76-2.941,17.459-6.059,26.098-9.299
	c19.498-7.259,38.696-15.179,57.535-23.698c23.16-10.441,45.837-21.778,67.976-33.958v-0.058l0.96-0.541
	c9.959-5.52,19.859-11.22,29.576-17.16c22.799-13.618,44.996-28.197,66.475-43.734
	C1587.238,1794.977,1574.699,1735.822,1558.261,1677.807z"/>
<path style="fill:#A62C2A;" d="M742.917,815.753c7.233-37.543,15.569-75.446,27.304-111.63c3.698-11.403,7.78-22.608,12.22-33.608
	c-7.896-0.969-15.774-2.071-23.62-3.352c-9.336-1.524-18.685-3.322-27.932-5.461c-8.616,18.162-12.503,39.957-13.262,55.529
	c-1.318,27.079,3.764,54.071,10.285,80.387c0.411,1.657,0.855,3.322,1.287,4.984C734.043,806.689,738.635,811.076,742.917,815.753z"
	/>
<path style="fill:#28347F;" d="M1363.998,1874.711c-3.121-23.279-6.899-46.497-11.399-69.595
	c-5.761-29.698-12.66-59.213-20.58-88.431c-4.499-16.558-30.236-9.54-25.798,7.079c11.759,43.196,21.119,87.053,27.959,131.269v0.04
	c-1.108-0.761-2.208-1.531-3.296-2.315c-0.684-0.495-1.364-0.989-2.042-1.493c-0.1-0.074-0.412-0.309-0.733-0.55
	c-0.376-0.293-1.2-0.929-1.374-1.067c-0.661-0.526-1.313-1.057-1.966-1.591c-1.303-1.072-2.589-2.163-3.861-3.267
	c-4.96-4.322-9.681-8.913-14.129-13.756c-2.283-2.484-4.492-5.033-6.628-7.644c-0.424-0.521-0.851-1.045-1.269-1.574
	c-0.027-0.033-0.712-0.916-1.037-1.33c-0.253-0.337-0.505-0.674-0.584-0.778c-0.602-0.811-1.196-1.632-1.788-2.451
	c-4.071-5.651-11.806-8.952-18.263-4.789c-5.603,3.61-9.152,12.205-4.787,18.263c17.359,24.095,39.727,44.209,66.044,58.114
	c0.164,0.086,0.345,0.132,0.512,0.212v0.051c4.019,31.199,6.718,62.636,8.219,94.073c8.76-2.941,17.459-6.059,26.098-9.299
	c-1.739-33.118-4.86-66.175-9.298-99.113V1874.711z"/>
<path style="fill:#28347F;" d="M584.065,1763.24c2.461-6.779-2.699-14.579-9.24-16.378c-7.44-2.042-14.039,2.519-16.497,9.359
	c-14.879,41.457-24.538,84.772-28.799,128.628c5.401,3.42,10.74,6.78,16.199,10.078c1.26,0.78,2.519,1.562,3.779,2.28
	c1.742,1.079,3.481,2.1,5.281,3.121c1.318-18.3,3.659-36.539,6.957-54.597C566.966,1817.715,574.406,1790.117,584.065,1763.24z"/>
<path style="fill:#C16826;" d="M739.892,831.736c0.99-5.316,1.997-10.646,3.025-15.983c-4.282-4.677-8.874-9.064-13.718-13.15
	c-16.198-13.663-35.296-23.826-55.85-28.938c-12.1-3.008-24.884-4.3-37.021-1.447c-20.338,4.782-36.802,21.113-44.909,40.368
	c-8.109,19.257-8.604,41.06-4.845,61.61c5.707,31.201,21.69,60.124,44.012,82.522c16.537,16.592,46.049,36.783,75.176,43.813
	c8.654-41.079,18.234-81.832,25.586-121.969C734.179,863.185,736.956,847.541,739.892,831.736z"/>
<path style="fill:#B8433C;" d="M1425.272,523.724c-16.29-6.378-33.087-12.307-50.712-13.81c-6.001-0.511-11.538-0.452-16.678,0.091
	c49.026-12.696,100.048-13.543,147.022-2.081c-24.073-33.122-87.986-58.401-135.692-45.056
	c19.793-24.966,43.084-46.557,68.944-63.477c-39.838-4.95-100.362,23.207-124.248,65.734
	c-14.837-99.015-84.334-194.579-190.066-213.875c-75.464-13.771-154.017,11.4-218.063,50.662
	c-64.046,39.262-116.794,91.88-172.487,140.767c-19.05,16.721-39.559,33.603-64.97,39.893c-25.413,6.29-56.95-1.644-67.824-23.717
	c-14.843,63.191,4.007,136.453,60.628,174.659c20.65,13.932,44.801,22.413,69.761,28.188c9.247,2.139,18.596,3.937,27.932,5.461
	c7.847,1.281,15.724,2.382,23.62,3.352c132.687,16.295,271.378-11.146,384.783-76.75c5.812,52.17-19.004,106.387-63.613,138.974
	c54.036-6.923,104.929-31.229,143.36-66.818c-12.923,44.763,9.857,95.15,55.027,125.183c-2.115-9.868,0.677-20.324,7.666-28.718
	c42.217,73.227,37.827,161.724-11.518,232.199c15.558-0.712,30.771-2.982,45.539-6.438c-5.426,28.899-12.069,57.596-20.73,85.622
	c-13.189,42.716-31.343,84.097-57.026,120.884c-15.325,21.946-35.773,43.517-62.365,46.667
	c-38.122,4.538-68.29-29.101-96.268-55.318c-37.537-35.133-83.883-61.776-134.394-71.386c-50.509-9.61-105.186-1.174-147.793,27.603
	c-15.698,10.626-31.184,24.349-50.139,24.724c-25.148,0.533-44.103-22.853-54.461-45.759c-12.867-28.514-19.008-59.91-17.941-91.145
	c0.214-6.514,0.748-13.081,1.069-19.595c-11.481,56.331-20.665,113.142-18.955,169.793c0.533,19.223,2.402,38.392,5.766,57.506
	c0.84,4.744,1.838,9.361,2.934,13.897c0.285,1.181,0.625,2.317,0.927,3.484c0.86,3.32,1.762,6.605,2.756,9.813
	c0.421,1.358,0.881,2.682,1.326,4.02c0.979,2.947,2,5.856,3.09,8.707c0.52,1.362,1.059,2.708,1.605,4.047
	c1.125,2.762,2.305,5.476,3.533,8.147c0.595,1.293,1.186,2.588,1.805,3.86c1.303,2.677,2.673,5.292,4.079,7.877
	c0.632,1.161,1.24,2.345,1.893,3.488c1.56,2.734,3.201,5.392,4.876,8.02c0.582,0.914,1.125,1.863,1.72,2.764
	c2.192,3.318,4.464,6.561,6.833,9.709c0.021,0.029,0.046,0.057,0.068,0.086c0.767,1.021,1.585,1.992,2.37,2.995
	c1.626,2.08,3.27,4.142,4.972,6.15c1.085,1.28,2.201,2.529,3.315,3.779c1.501,1.684,3.026,3.343,4.58,4.974
	c1.182,1.24,2.364,2.48,3.576,3.69c1.689,1.688,3.424,3.329,5.169,4.959c1.103,1.03,2.178,2.089,3.303,3.097
	c2.682,2.403,5.431,4.734,8.232,7.009c1.353,1.099,2.748,2.15,4.128,3.219c1.694,1.313,3.395,2.618,5.128,3.887
	c1.519,1.112,3.055,2.204,4.602,3.282c1.688,1.177,3.398,2.326,5.119,3.464c1.57,1.037,3.134,2.083,4.731,3.088
	c1.994,1.255,4.028,2.462,6.062,3.667c2.531,1.501,5.09,2.962,7.68,4.388c1.93,1.062,3.857,2.129,5.818,3.151
	c1.801,0.938,3.629,1.839,5.455,2.743c1.736,0.859,3.478,1.709,5.237,2.537c1.888,0.89,3.783,1.77,5.695,2.625
	c1.764,0.789,3.546,1.55,5.33,2.31c63.353,27.002,138.792,35.866,206.393,35.212c45.627-0.46,92.382-5.737,135.999-18.933
	c37.488-11.342,72.665-28.513,102.724-53.736c52.806-44.317,82.709-106.146,100.222-173.583c1.494-5.76,2.87-11.574,4.194-17.41
	c0.388-1.713,0.768-3.429,1.143-5.148c1.15-5.274,2.248-10.568,3.272-15.888c0.112-0.583,0.239-1.161,0.349-1.746
	c1.17-6.164,2.239-12.36,3.255-18.569c0.16-0.976,0.314-1.954,0.471-2.931c0.012-0.079,0.025-0.158,0.038-0.236
	c-7.292-2.601-13.961-6.684-19.63-12.664c-31.67-33.404-15.047-96.891,8.133-136.235c3.798-6.446,7.766-12.268,11.733-17.178
	c22.804-28.224,56.375-47.893,92.375-52.424c0.365-0.046,0.734-0.074,1.1-0.117c53.632-56.792,94.899-135.99,97.648-211.569
	C1581.072,607.894,1507.739,556.004,1425.272,523.724z M1334.531,517.107c0.017-0.033,0.032-0.068,0.049-0.101
	c0.119-0.04,0.237-0.084,0.356-0.124C1334.799,516.953,1334.667,517.033,1334.531,517.107z"/>
<path style="fill:#A63432;" d="M1366.824,1115.043c-31.67-33.404-15.047-96.891,8.133-136.235
	c-10.129,3.739-20.586,6.839-31.271,9.339c-5.426,28.899-12.069,57.596-20.73,85.622c-13.189,42.716-31.343,84.097-57.026,120.884
	c-15.325,21.946-35.773,43.517-62.365,46.667c-38.122,4.538-68.29-29.101-96.268-55.318
	c-37.537-35.133-83.883-61.776-134.394-71.386c-50.509-9.61-105.186-1.174-147.793,27.603
	c-15.698,10.626-31.184,24.349-50.139,24.724c-25.148,0.533-44.103-22.853-54.461-45.759c-12.867-28.514-19.008-59.91-17.941-91.145
	c0.214-6.514,0.748-13.081,1.069-19.595c-11.481,56.331-20.665,113.142-18.955,169.793c0.533,19.223,2.402,38.392,5.766,57.506
	c0.84,4.744,1.838,9.361,2.934,13.897c0.285,1.181,0.625,2.317,0.927,3.484c0.86,3.32,1.762,6.605,2.756,9.813
	c0.421,1.358,0.881,2.682,1.326,4.02c0.979,2.947,2,5.856,3.09,8.707c0.52,1.362,1.059,2.708,1.605,4.047
	c1.125,2.762,2.305,5.476,3.533,8.147c0.595,1.293,1.186,2.588,1.805,3.86c1.303,2.677,2.673,5.292,4.079,7.877
	c0.632,1.161,1.24,2.345,1.893,3.488c1.56,2.734,3.201,5.392,4.876,8.02c0.582,0.914,1.125,1.863,1.72,2.764
	c2.192,3.318,4.464,6.561,6.833,9.709c0.021,0.029,0.046,0.057,0.068,0.086c0.767,1.021,1.585,1.992,2.37,2.995
	c1.626,2.08,3.27,4.142,4.972,6.15c1.085,1.28,2.201,2.529,3.315,3.779c1.501,1.684,3.026,3.343,4.58,4.974
	c1.182,1.24,2.364,2.48,3.576,3.69c1.689,1.688,3.424,3.329,5.169,4.959c1.103,1.03,2.178,2.089,3.303,3.097
	c2.682,2.403,5.431,4.734,8.232,7.009c1.353,1.099,2.748,2.15,4.128,3.219c1.694,1.313,3.395,2.618,5.128,3.887
	c1.519,1.112,3.055,2.204,4.602,3.282c1.688,1.177,3.398,2.326,5.119,3.464c1.57,1.037,3.134,2.083,4.731,3.088
	c1.994,1.255,4.028,2.462,6.062,3.667c2.531,1.501,5.09,2.962,7.68,4.388c1.93,1.062,3.857,2.129,5.818,3.151
	c1.801,0.938,3.629,1.839,5.455,2.743c1.736,0.859,3.478,1.709,5.237,2.537c1.888,0.89,3.783,1.77,5.695,2.625
	c1.764,0.789,3.546,1.55,5.33,2.31c63.353,27.002,138.792,35.866,206.393,35.212c45.627-0.46,92.382-5.737,135.999-18.933
	c37.488-11.342,72.665-28.513,102.724-53.736c52.806-44.317,82.709-106.146,100.222-173.583c1.494-5.76,2.87-11.574,4.194-17.41
	c0.388-1.713,0.768-3.429,1.143-5.148c1.15-5.274,2.248-10.568,3.272-15.888c0.112-0.583,0.239-1.161,0.349-1.746
	c1.17-6.164,2.239-12.36,3.255-18.569c0.16-0.976,0.314-1.954,0.471-2.931c0.012-0.079,0.025-0.158,0.038-0.236
	C1379.162,1125.107,1372.493,1121.023,1366.824,1115.043z"/>
<path style="fill:#C16826;" d="M913.594,1018.439c1.915,25.839,17.64,46.085,40.947,56.458c18.061,8.037,54.94,17.403,65.781-5.015
	c2.392-4.948,1.045-9.788-3.401-12.972c-7.917-5.671-13.327-4.217-22.726-4.037c-12.802,0.246-26.12-3.17-36.76-10.465
	c-29.352-20.129-15.914-53.167,1.14-76.777c20.836-28.841,65.954-65.693,56.904-105.802c-1.048-4.641-7.966-5.484-10.195-1.333
	c-8.899,16.565-14.18,31.271-26.521,46.134c-11.225,13.518-23.481,26.164-34.578,39.795
	C926.966,965.58,911.489,990.035,913.594,1018.439z"/>
<path style="fill:#F9FAFE;" d="M1228.875,914.496c-12.387-13.028-29.101-21.196-47.04-25.04
	c-12.655-2.724-25.844-3.259-38.604-1.817c-32.731,3.737-65.408,21.678-77.262,51.152c-18.421,45.705,25.576,74.538,68.185,78.543
	c14.521,1.335,29.578,0,43.729-3.898c26.482-7.262,49.761-23.442,60.655-47.415c3.15-6.94,5.233-14.523,4.753-22.105
	C1242.651,932.917,1236.617,922.666,1228.875,914.496z"/>
<path style="fill:#F9FAFE;" d="M925.063,906.381c-4.806-25.204-23.654-45.225-46.346-56.76c-5.179-2.563-10.573-4.751-16.02-6.461
	c-27.763-8.701-60.121-6.353-83.24,11.854c-8.49,6.675-15.752,15.698-18.21,26.378c-1.708,7.367-1.067,15.111,0.641,22.48
	c9.184,38.923,48.324,64.765,87.301,67.968c2.402,0.215,4.911,0.322,7.369,0.322C894.362,972.427,933.66,951.338,925.063,906.381z"
	/>
<path style="fill:#B8433C;" d="M1074.576,870.245c10.938,5.259,22.21-1.849,33.179-4.28c27.289-6.049,56.219-4.799,82.808,3.864
	c13.949,4.546,27.527,11.109,42.166,12.071c14.636,0.962,31.218-5.652,35.922-19.547c5.786-17.089-8.726-34.273-23.803-44.185
	c-46.521-30.592-110.821-31.523-158.207-2.285c-11.045,6.814-21.845,16.127-24.522,28.823
	C1059.996,854.764,1065.356,865.811,1074.576,870.245z"/>
<path style="fill:#B8433C;" d="M795.465,809.093c14.173,3.774,29.14,1.903,43.807,2.061c27.966,0.304,55.773,8.38,79.688,22.845
	c9.615,5.815,18.019,16.159,30.066,14.677c10.153-1.25,18.765-10,19.976-20.21c1.525-12.887-5.722-25.167-14.005-35.155
	c-35.534-42.867-96.748-62.57-150.616-48.478c-17.455,4.565-36.704,16.2-36.692,34.241
	C767.699,793.745,781.29,805.319,795.465,809.093z"/>
<path style="fill:#1A1029;" d="M913.129,1256.356c33.143,12.19,69.552,5.65,100.07-10.538c18.953-10.053,35.963-24.01,50.745-39.476
	c6.346-6.641,6.599-17.457,0-24.056c-6.399-6.4-17.686-6.663-24.054,0c-13.944,14.589-29.313,27.013-47.479,36.012
	c-14.67,7.269-30.56,11.169-46.994,10.329c-6.658-0.343-14.165-1.824-22.38-4.755c-5.776-2.061-14.117-6.568-20.675-11.484
	c-12.852-9.634-24.485-25.396-29.001-42.251c-2.38-8.872-12.112-14.302-20.925-11.878c-8.935,2.456-14.266,12.02-11.878,20.923
	C850.128,1214.885,878.807,1243.73,913.129,1256.356z"/>
<path style="fill:#C16826;" d="M1421.029,986.41c-13.328,10.836-24.502,24.848-32.149,40.227
	c-3.786,7.613-6.918,15.605-9.179,23.803c-2.326,8.436-4.773,18.395-4.058,27.174c0.665,8.185,13.479,11.294,15.337,2.075
	c1.547-7.674,1.849-15.42,3.815-23.062c1.939-7.529,4.589-14.862,8.051-21.827c5.154-10.36,11.637-19.895,19.478-28.29
	c10.429-2.367,20.829-5.882,31.614-4.419c8.63,1.172,17.785,5.527,21.362,13.929c6.777,15.919-2.56,45.805-23.581,43.167
	c-4.516-0.567-7.503-2.896-9.374-6.368c-0.643-1.196-1.286-3.379-1.357-4.48c-0.078-1.181,0.075-2.58,0.087-2.646
	c0.27-1.276,0.726-2.492,0.943-3.786c0.563-3.384-0.375-6.775-3.503-8.604c-2.767-1.617-7.045-1.342-9.232,1.191
	c-9.659,11.194-2.127,29.681,9.208,36.553c13.201,8.005,30.874,3.654,41.235-6.958c10.543-10.796,15.252-27.449,13.447-42.27
	c-1.941-15.959-12.699-27.993-27.98-32.607c-6.079-1.835-12.516-2.326-18.957-1.864c8.193-4.832,17.007-8.664,26.029-11.38
	c7.864-2.365,15.973-3.963,24.158-4.648c3.717-0.309,7.447-0.443,11.176-0.402c4.258,0.049,8.984-0.721,13.15-0.434
	c4.962,0.344,6.007-7.566,1.174-8.672c-2.655-0.609-4.916-1.9-7.691-2.38c-1.868-0.324-3.727-0.555-5.618-0.721
	c-4.721-0.407-9.491-0.461-14.222-0.266c-8.709,0.358-17.457,1.686-25.898,3.854C1451.046,966.781,1434.989,975.056,1421.029,986.41
	z"/>
<path style="fill:#1A1029;" d="M1144.939,952.352c0,27.659,13.615,51.313,32.945,61.084c26.482-7.262,49.761-23.442,60.655-47.415
	c3.15-6.94,5.233-14.523,4.753-22.105c-0.641-10.998-6.675-21.249-14.417-29.42c-12.387-13.028-29.101-21.196-47.04-25.04
	C1160.422,897.889,1144.939,922.878,1144.939,952.352z"/>
<path style="fill:#1A1029;" d="M925.063,906.381c-4.806-25.204-23.654-45.225-46.346-56.76
	c-23.601,4.699-43.303,28.567-46.721,59.215c-2.935,26.75,7.315,51.099,24.563,63.325
	C894.362,972.427,933.66,951.338,925.063,906.381z"/>
<path style="fill:#A62C2A;" d="M1335.106,605.451c11.859,27.759,13.094,62.945,9.065,92.373
	c17.235-10.314,29.466-28.602,32.424-48.468c25.461,26.524,33.276,65.306,35.187,102.024c1.954,37.61-1.61,77.099-21.338,109.181
	c51.315-27.873,88.565-81.715,92.965-139.944c4.399-58.231-25.878-118.606-76.95-146.921c2.533,13.919,5.067,27.842,7.6,41.764
	c-28.904-42.914-81.537-63.44-132.494-72.392C1302.527,546.752,1327.455,587.541,1335.106,605.451z"/>
<path style="fill:#A62C2A;" d="M855.309,513.97c41.52-19.12,75.734-50.716,112.514-77.861
	c36.78-27.143,79.303-50.865,125.009-49.978c34.239,0.663,67.038,15.323,94.674,35.542c27.913,20.422,48.076,47.807,73.359,70.553
	c15.652-55.634-18.312-110.014-59.122-145.147c-25.469-21.925-56.122-35.8-88.465-42.407c-34.341-7.014-70.592-5.835-104.57,2.604
	c-79.109,19.644-120.241,75.532-169.342,135.527c-29.133,35.598-68.721,68.789-114.704,67.6
	C761.541,537.412,813.787,533.088,855.309,513.97z"/>
<path style="fill:#A62C2A;" d="M1099.226,453.383c-43.069,2.697-84.095,22.346-116.572,50.762
	c-21.104,18.465-38.872,40.509-60.149,58.774c-21.279,18.266-47.52,33.002-75.559,32.526c38.375,21.739,87.498,23.247,127.133,3.9
	c34.307-16.743,60.275-47.135,93.935-65.15c54.991-29.43,117.072-17.895,166.229,16.329
	C1230.704,482.769,1159.214,449.626,1099.226,453.383z"/>
</svg>
