<?xml version="1.0" encoding="utf-8"?>
<!-- Generator: Adobe Illustrator 27.5.0, SVG Export Plug-In . SVG Version: 6.00 Build 0)  -->
<svg version="1.1" id="Capa_1" xmlns="http://www.w3.org/2000/svg" xmlns:xlink="http://www.w3.org/1999/xlink" x="0px" y="0px"
	 viewBox="0 0 2122 2122" style="enable-background:new 0 0 2122 2122;" xml:space="preserve">
<path style="fill:#EAEAEA;" d="M1045.487,160.44c-510.923,0-925.158,414.182-925.158,925.158
	c0,281.997,126.168,534.513,325.145,704.174c17.223,14.714,35.031,28.843,53.359,42.212c1.695,1.228,3.391,2.456,5.081,3.62
	c10.1,7.415,20.375,14.538,30.767,21.486c3.035,1.988,6.071,3.971,9.111,5.9c1.457,0.989,2.919,1.925,4.375,2.86
	c4.497,2.86,8.935,5.603,13.432,8.404c0.755,0.468,1.574,0.935,2.334,1.403c1.228,0.76,2.451,1.52,3.678,2.217
	c1.696,1.052,3.386,2.047,5.135,3.04c4.906,2.919,9.871,5.837,14.831,8.638c2.86,1.637,5.724,3.211,8.585,4.789
	c8.351,4.726,16.755,9.223,25.281,13.603c0.872,0.467,1.808,0.935,2.684,1.398c7.006,3.62,14.13,7.123,21.252,10.568
	c4.614,2.222,9.282,4.438,14.012,6.601c6.538,3.094,13.193,6.012,19.849,8.873c1.52,0.701,3.035,1.345,4.555,1.988
	c5.023,2.1,9.983,4.2,15.064,6.246c7.649,3.094,15.352,6.129,23.118,8.93h0.058c8.76,3.328,17.515,6.421,26.392,9.398v0.058
	c3.211,1.111,6.421,2.163,9.632,3.157c3.211,1.048,6.422,2.1,9.632,3.094l0.234,0.058c3.152,1.048,6.246,1.983,9.398,2.919
	c3.269,1.052,6.543,2.042,9.871,2.977c6.363,1.871,12.784,3.62,19.264,5.315c39.352,10.509,79.756,18.504,121.033,23.761h0.117
	c38.592,4.96,77.944,7.474,117.876,7.474c61.364,0,121.325-5.959,179.357-17.457c8.409-1.637,16.755-3.445,25.106-5.315
	c7.649-1.632,15.298-3.444,22.831-5.369c10.45-2.631,20.843-5.491,31.176-8.467c2.977-0.877,5.895-1.749,8.872-2.626
	c3.737-1.111,7.415-2.222,11.094-3.386c2.802-0.877,5.608-1.813,8.41-2.743c1.34-0.409,2.685-0.877,4.024-1.344
	c1.462-0.41,2.924-0.936,4.322-1.403c1.053-0.351,2.163-0.702,3.211-1.106c8.526-2.865,16.994-5.9,25.398-9.052l2.28-0.877
	c8.873-3.328,17.691-6.772,26.446-10.509h0.058c2.685-1.047,5.311-2.158,8-3.327c0.584-0.234,1.111-0.463,1.69-0.755
	c4.848-1.988,9.696-4.088,14.48-6.251l0.117-0.059c0.994-0.404,1.988-0.813,2.919-1.281c2.748-1.228,5.491-2.514,8.175-3.795
	c19.732-9.053,39.06-18.86,57.974-29.252v-0.058l0.936-0.526c9.695-5.369,19.328-10.918,28.784-16.697
	c12.843-7.649,25.457-15.649,37.89-23.995c9.053-5.953,17.983-12.204,26.802-18.567c15.118-10.86,29.949-22.188,44.37-33.978
	c6.246-5.081,12.38-10.276,18.509-15.532c197.106-169.608,321.929-421.008,321.929-701.431
	C1970.645,574.622,1556.468,160.44,1045.487,160.44z"/>
<path style="fill:#A85351;" d="M1626.178,1683.921c-12.083-47.639-27.206-96.506-58.908-130.952
	c-35.265-38.3-85.359-52.955-133.057-65.978c-33.281-9.164-68.779-20.609-105.208-31.878c-4.088-1.223-8.234-2.509-12.321-3.732
	c-1.791-0.532-3.605-1.063-5.403-1.595c-10.188-3.054-20.429-6.046-30.702-8.928c-0.382-0.108-0.763-0.231-1.143-0.337
	c-2.981-0.877-5.9-1.695-8.876-2.456c-0.468-0.058-0.873-0.234-1.34-0.351c-0.365-0.101-0.736-0.189-1.101-0.289
	c-3.44-0.929-6.883-1.821-10.328-2.717c-3.586-0.93-7.173-1.89-10.731-2.823c-1.885-8.886-3.829-17.782-5.923-26.628
	c-3.054-12.811-6.41-25.521-10.158-38.007c46.856-55.838,80.438-128.94,103.333-205.292c1.818,1.752,3.72,3.432,5.806,4.941
	c13.686,9.905,31.308,13.023,48.185,12.307c51.61-2.188,96.575-37.159,128.156-78.036c20.054-25.958,36.804-56.896,35.24-89.661
	c-1.228-25.759-14.446-50.694-35.074-66.168c-20.623-15.474-48.258-21.193-73.33-15.177c-15.354,3.687-29.464,11.541-41.828,21.79
	c7.42-36.832,11.616-74.308,12.42-111.861c16.95-96.726,33.934-193.486,50.85-290.211c1.325-7.552,2.65-15.103,3.975-22.66
	c1.291-7.367,2.543-15.108,0.078-22.144c-2.948-8.253-10.465-13.89-17.725-18.757c-25.534-17.169-54.645-31.722-85.374-30.694
	c-30.733,1.072-62.495,22.295-66.29,52.804c-4.643-27.746-9.325-55.454-13.963-83.162c-1.179-7.04-2.509-14.373-6.709-20.122
	c-4.755-6.446-12.492-9.949-19.858-13.004C1133,339.67,993.2,321.024,858.008,338.676c-73.106,9.544-148.789,31.873-198.718,86.075
	c-6.412,7.002-12.492,14.699-15.108,23.879c-3.425,12.156-0.258,25.125,2.762,37.432l0.039,0.224
	c35.983,146.324,51.169,297.782,44.952,448.334c-11.654-13.546-25.881-24.657-42.263-30.892c-24.098-9.174-52.239-7.03-74.67,5.686
	c-22.431,12.711-38.728,35.756-43.236,61.145c-5.739,32.297,6.919,65.12,23.498,93.427c26.1,44.574,66.231,85.004,117.135,93.763
	c16.648,2.87,34.524,2.027,49.365-6.046c1.816-0.987,3.538-2.088,5.203-3.255c15.86,94.56,53.455,181.553,130.558,241.701
	c13.653,10.647,27.888,19.996,42.567,28.087c1.266,27.071,3.855,54.605,6.397,81.35c0.285,3,0.559,5.944,0.841,8.922
	c-0.015,0.01-0.027,0.019-0.041,0.028l-0.003,0.004c-4.417,2.895-8.88,5.7-13.347,8.496c-3.499,2.19-7.024,4.326-10.554,6.453
	c-1.47,0.888-2.938,1.775-4.415,2.649c-3.805,2.259-7.62,4.498-11.459,6.687c-3.036,1.732-6.078,3.454-9.135,5.141
	c-1.927,1.063-3.854,2.127-5.789,3.172c-4.588,2.479-9.195,4.915-13.826,7.292c-0.553,0.285-1.095,0.577-1.649,0.862
	c-19.381,9.866-39.118,18.855-59.084,26.913c-50.558,20.259-104.331,35.323-146.309,72.862
	c-47.586,42.504-74.031,109.296-83.956,176.672c-1.813,12.38-3.094,24.814-3.971,37.252c1.457,0.989,2.919,1.925,4.375,2.86
	c4.497,2.86,8.935,5.603,13.432,8.404c0.755,0.468,1.574,0.935,2.334,1.403c1.228,0.76,2.451,1.52,3.678,2.217
	c1.696,1.052,3.386,2.047,5.135,3.04c4.906,2.919,9.871,5.837,14.831,8.638c2.86,1.637,5.724,3.211,8.585,4.789
	c8.351,4.726,16.755,9.223,25.281,13.603c0.872,0.467,1.808,0.935,2.684,1.398c7.006,3.62,14.13,7.123,21.252,10.568
	c4.614,2.222,9.282,4.438,14.012,6.601c6.538,3.094,13.193,6.012,19.849,8.873c1.52,0.701,3.035,1.345,4.555,1.988
	c5.023,2.1,9.983,4.2,15.064,6.246c7.649,3.094,15.352,6.129,23.118,8.93h0.058c8.76,3.328,17.515,6.421,26.392,9.398v0.058
	c3.211,1.111,6.421,2.163,9.632,3.157c3.211,1.048,6.422,2.1,9.632,3.094l0.234,0.058c3.152,1.048,6.246,1.983,9.398,2.919
	c3.269,1.052,6.543,2.042,9.871,2.977c6.363,1.871,12.784,3.62,19.264,5.315c39.352,10.509,79.756,18.504,121.033,23.761h0.117
	c38.592,4.96,77.944,7.474,117.876,7.474c61.364,0,121.325-5.959,179.357-17.457c8.409-1.637,16.755-3.445,25.106-5.315
	c7.649-1.632,15.298-3.444,22.831-5.369c10.45-2.631,20.843-5.491,31.176-8.467c2.977-0.877,5.895-1.749,8.872-2.626
	c3.737-1.111,7.415-2.222,11.094-3.386c2.802-0.877,5.608-1.813,8.41-2.743c1.34-0.409,2.685-0.877,4.024-1.344
	c1.462-0.41,2.924-0.936,4.322-1.403c1.053-0.351,2.163-0.702,3.211-1.106c8.526-2.865,16.994-5.9,25.398-9.052l2.28-0.877
	c8.873-3.328,17.691-6.772,26.446-10.509h0.058c2.685-1.047,5.311-2.158,8-3.327c0.584-0.234,1.111-0.463,1.69-0.755
	c4.848-1.988,9.696-4.088,14.48-6.251l0.117-0.059c0.994-0.404,1.988-0.813,2.919-1.281c2.748-1.228,5.491-2.514,8.175-3.795
	c19.732-9.053,39.06-18.86,57.974-29.252v-0.058l0.936-0.526c9.695-5.369,19.328-10.918,28.784-16.697
	c12.843-7.649,25.457-15.649,37.89-23.995c9.053-5.953,17.983-12.204,26.802-18.567c15.118-10.86,29.949-22.188,44.37-33.978
	c6.246-5.081,12.38-10.276,18.509-15.532C1642.295,1752.35,1634.763,1717.963,1626.178,1683.921z"/>
<path style="fill:#E02D1E;" d="M1626.178,1683.921c-12.083-47.639-27.206-96.506-58.908-130.952
	c-35.265-38.3-85.359-52.955-133.057-65.978c-33.281-9.164-68.779-20.609-105.208-31.878c-4.088-1.223-8.234-2.509-12.321-3.732
	c-1.791-0.532-3.605-1.063-5.403-1.595c-10.188-3.054-20.429-6.046-30.702-8.928c-4.15-1.164-8.304-2.31-12.461-3.433
	c-3.44-0.929-6.883-1.821-10.328-2.717c-3.57-0.928-7.139-1.841-10.71-2.729c2.222,10.476,4.352,20.94,6.402,31.31
	c2.431,12.161,4.823,24.799,2.431,36.96c-3.352,16.765-15.293,29.55-27.123,40.458c-69.233,63.673-157.481,100.813-246.913,103.907
	c-21.408,0.741-45.871-2.061-58.767-21.296c-8.848-13.116-9.876-30.656-10.577-47.089c-0.882-21.204-2.966-44.109-5.201-67.72
	c-0.015,0.01-0.03,0.02-0.044,0.03c-4.417,2.895-8.88,5.7-13.347,8.496c-8.717,5.457-17.53,10.715-26.429,15.789
	c-3.036,1.732-6.078,3.454-9.135,5.141c-1.927,1.063-3.854,2.127-5.789,3.172c-4.588,2.479-9.195,4.915-13.826,7.292
	c-0.553,0.285-1.095,0.577-1.649,0.862c-19.381,9.866-39.118,18.855-59.084,26.913c-50.558,20.259-104.331,35.323-146.309,72.862
	c-47.586,42.504-74.031,109.296-83.956,176.672c-1.813,12.38-3.094,24.814-3.971,37.252c1.457,0.989,2.919,1.925,4.375,2.86
	c4.497,2.86,8.935,5.603,13.432,8.404c0.755,0.468,1.574,0.935,2.334,1.403c1.228,0.76,2.451,1.52,3.678,2.217
	c1.696,1.052,3.386,2.047,5.135,3.04c4.906,2.919,9.871,5.837,14.831,8.638c2.86,1.637,5.724,3.211,8.585,4.789
	c8.351,4.726,16.755,9.223,25.281,13.603c0.872,0.467,1.808,0.935,2.684,1.398c7.006,3.62,14.13,7.123,21.252,10.568
	c4.614,2.222,9.282,4.438,14.012,6.601c6.538,3.094,13.193,6.012,19.849,8.873c1.52,0.701,3.035,1.345,4.555,1.988
	c5.023,2.1,9.983,4.2,15.064,6.246c7.649,3.094,15.352,6.129,23.118,8.93h0.058c8.76,3.328,17.515,6.421,26.392,9.398v0.058
	c3.211,1.111,6.421,2.163,9.632,3.157c3.211,1.048,6.422,2.1,9.632,3.094l0.234,0.058c3.152,1.048,6.246,1.983,9.398,2.919
	c3.269,1.052,6.543,2.042,9.871,2.977c6.363,1.871,12.784,3.62,19.264,5.315c39.352,10.509,79.756,18.504,121.033,23.761h0.117
	c38.592,4.96,77.944,7.474,117.876,7.474c61.364,0,121.325-5.959,179.357-17.457c8.409-1.637,16.755-3.445,25.106-5.315
	c7.649-1.632,15.298-3.444,22.831-5.369c10.45-2.631,20.843-5.491,31.176-8.467c2.977-0.877,5.895-1.749,8.872-2.626
	c3.737-1.111,7.415-2.222,11.094-3.386c2.802-0.877,5.608-1.813,8.41-2.743c1.34-0.409,2.685-0.877,4.024-1.344
	c1.462-0.41,2.924-0.936,4.322-1.403c1.053-0.351,2.163-0.702,3.211-1.106c8.526-2.865,16.994-5.9,25.398-9.052l2.28-0.877
	c8.873-3.328,17.691-6.772,26.446-10.509h0.058c2.685-1.047,5.311-2.158,8-3.327c0.584-0.234,1.111-0.463,1.69-0.755
	c4.848-1.988,9.696-4.088,14.48-6.251l0.117-0.059c0.994-0.404,1.988-0.813,2.919-1.281c2.748-1.228,5.491-2.514,8.175-3.795
	c19.732-9.053,39.06-18.86,57.974-29.252v-0.058l0.936-0.526c9.695-5.369,19.328-10.918,28.784-16.697
	c12.843-7.649,25.457-15.649,37.89-23.995c9.053-5.953,17.983-12.204,26.802-18.567c15.118-10.86,29.949-22.188,44.37-33.978
	c6.246-5.081,12.38-10.276,18.509-15.532C1642.295,1752.35,1634.763,1717.963,1626.178,1683.921z"/>
<path style="fill:#561E0F;" d="M1468.79,505.078c-2.948-8.253-10.465-13.89-17.725-18.757
	c-25.534-17.169-54.645-31.722-85.374-30.694c-30.733,1.072-62.495,22.295-66.29,52.804c-4.643-27.746-9.325-55.454-13.963-83.162
	c-1.179-7.04-2.509-14.373-6.709-20.122c-4.755-6.446-12.492-9.949-19.858-13.004C1133,339.67,993.2,321.024,858.008,338.676
	c-73.106,9.544-148.789,31.873-198.718,86.075c-6.412,7.002-12.492,14.699-15.108,23.879c-3.425,12.156-0.258,25.125,2.762,37.432
	l0.039,0.224c35.983,146.324,51.169,297.782,44.952,448.334c11.676,13.571,20.769,29.587,26.853,45.6
	c0.926,2.438,1.915,4.883,2.926,7.332c1.186-0.167,2.368-0.424,3.535-0.842c11.532-4.165,15.771-17.983,18.422-29.92
	c12.161-54.202,24.283-108.404,36.404-162.606c2.582-11.386,5.53-23.513,14.002-31.542c5.676-5.379,13.301-8.292,20.93-10.246
	c66.29-16.799,129.627,31.654,195.62,49.598c49.193,13.34,102.918,9.247,149.529-11.425c23.801-10.538,45.764-25.237,70.378-33.715
	c24.614-8.439,53.832-9.652,74.908,5.715c22.885,16.653,29.701,47.386,33.457,75.459c8.694,65.008,9.949,130.958,3.874,196.237
	c7.659-12.502,15.631-24.774,22.202-37.061c8.878-16.602,21.376-32.722,36.491-45.25c7.42-36.832,11.616-74.308,12.42-111.861
	c16.95-96.726,33.934-193.486,50.85-290.211c1.325-7.552,2.65-15.103,3.975-22.66
	C1470.003,519.854,1471.255,512.113,1468.79,505.078z"/>
<path style="fill:#BC1D18;" d="M1431.236,1905.899c-3.152-26.27-6.948-52.429-11.444-78.465
	c-5.783-33.457-12.726-66.733-20.667-99.664c-4.497-18.684-30.363-10.801-25.924,7.941c11.854,48.692,21.193,98.144,28.083,148.005
	v0.023c-1.109-0.857-2.214-1.723-3.303-2.606c-0.687-0.56-1.369-1.116-2.051-1.686c-0.106-0.089-0.451-0.379-0.792-0.667
	c-0.4-0.349-1.156-1.007-1.323-1.155c-0.663-0.594-1.315-1.193-1.973-1.793c-1.306-1.208-2.597-2.436-3.873-3.683
	c-4.979-4.872-9.715-10.046-14.183-15.508c-2.29-2.797-4.507-5.672-6.651-8.614c-0.424-0.59-0.853-1.179-1.272-1.778
	c-0.029-0.035-0.758-1.093-1.071-1.54c-0.243-0.364-0.481-0.72-0.557-0.833c-0.604-0.916-1.198-1.842-1.793-2.762
	c-4.088-6.373-11.849-10.09-18.329-5.399c-5.622,4.069-9.189,13.759-4.804,20.585c17.418,27.162,39.868,49.837,66.28,65.515
	c0.173,0.102,0.364,0.157,0.541,0.251v0.065c0.585,4.96,1.11,9.925,1.632,14.889c4.848-1.988,9.696-4.088,14.48-6.251l0.117-0.059
	c0.994-0.404,1.988-0.813,2.919-1.281c2.748-1.228,5.491-2.514,8.175-3.795c-0.701-6.539-1.461-13.136-2.217-19.679V1905.899z"/>
<path style="fill:#BC1D18;" d="M648.474,1780.199c2.51-7.591-2.685-16.404-9.223-18.45c-7.474-2.276-14.129,2.865-16.584,10.567
	c-12.609,39.469-21.486,80.453-26.504,122.027c8.351,4.726,16.755,9.223,25.281,13.603c1.223-11.62,2.801-23.182,4.667-34.738
	C631.31,1841.621,638.784,1810.503,648.474,1780.199z"/>
<path style="fill:#F9FAFE;" d="M848.601,1650.343c14.631,19.805,36.385,31.06,57.871,39.966
	c25.885,10.714,52.731,19.079,80.219,21.671c78.124,7.401,154.002-32.083,219.211-81.018
	c52.945-39.781,111.244-95.459,122.387-170.212c0.268-1.924,0.536-3.79,0.697-5.598c-5.877-1.802-11.785-3.591-17.705-5.366
	c-10.188-3.054-20.429-6.046-30.702-8.928c-4.15-1.164-8.304-2.31-12.461-3.433c-3.44-0.929-6.883-1.821-10.328-2.717
	c-3.57-0.928-7.139-1.841-10.71-2.729c2.222,10.476,4.352,20.94,6.402,31.31c2.431,12.161,4.823,24.799,2.431,36.96
	c-3.352,16.765-15.293,29.55-27.123,40.458c-69.233,63.673-157.481,100.813-246.913,103.907
	c-21.408,0.741-45.871-2.061-58.767-21.296c-8.848-13.116-9.876-30.656-10.577-47.089c-0.882-21.204-2.966-44.109-5.201-67.72
	c-0.015,0.01-0.03,0.02-0.044,0.03c-4.417,2.895-8.88,5.7-13.347,8.496c-8.717,5.457-17.53,10.715-26.429,15.789
	c-3.036,1.732-6.078,3.454-9.135,5.141c-1.927,1.063-3.854,2.127-5.789,3.172c-4.588,2.479-9.195,4.915-13.826,7.292
	c-0.544,0.279-1.08,0.579-1.624,0.857C826.365,1583.595,828.24,1622.84,848.601,1650.343z"/>
<path style="fill:#F9FAFE;" d="M1274.861,982.914c-3.611-3.796-7.591-7.187-11.829-10.173c-10.724-7.591-23.25-12.672-36.405-15.513
	c-8.107-1.769-16.434-2.65-24.726-2.689c-4.974,0-9.949,0.258-14.845,0.814c-33.569,3.829-67.098,22.256-79.259,52.468
	c-18.903,46.869,26.236,76.458,69.934,80.55c10.724,0.994,21.705,0.55,32.429-1.252h0.034c4.166-0.702,8.327-1.622,12.38-2.729
	c16.175-4.458,31.21-12.161,43.074-22.918c8.034-7.187,14.592-15.81,19.123-25.72c3.245-7.113,5.384-14.884,4.901-22.66
	C1289.009,1001.817,1282.822,991.279,1274.861,982.914z"/>
<path style="fill:#873736;" d="M933.166,1509.719c51.069,16.468,107.118,17.979,158.811,3.206
	c60.176-17.208,113.637-56.268,149.16-107.668c-3.054-12.811-6.41-25.521-10.158-38.007c-2.193,2.612-4.386,5.221-6.636,7.756
	c-23.873,26.972-51.732,48.75-83.936,60.945c-1.033,0.405-2.1,0.775-3.133,1.14c-62.567,22.919-127.381,23.03-187.366,3.06
	c-17.063-5.687-33.706-13.038-49.813-21.915c1.266,27.071,3.855,54.605,6.397,81.35
	C915.261,1503.269,924.138,1506.772,933.166,1509.719z"/>
<path style="fill:#561E0F;" d="M1101.57,1362.811c-41.934,15.844-89.393,16.687-131.878,2.353
	c-6.597,24.985-13.194,50.003-19.786,74.987c59.985,19.971,124.799,19.859,187.366-3.06c-5.232-5.968-10.538-11.644-13.52-16.541
	C1112.99,1402.826,1105.4,1383.186,1101.57,1362.811z"/>
<path style="fill:#873736;" d="M579.909,952.795c-10.071,6.217-0.829,22.163,9.301,15.907c25.15-15.522,56.098-2.197,72.175,19.971
	c0.122,0.169,0.227,0.345,0.348,0.515c-16.221,3.991-30.834,14.953-37.902,30.276c-9.403,20.39-5.798,44.166,8.521,61.291
	c3.196,3.815,9.73,3.298,13.028,0c3.781-3.781,3.201-9.203,0-13.028c-9.086-10.87-11.157-27.425-5.15-39.99
	c5.86-12.262,18.198-20.273,31.15-21.534c10.217,23.017,12.025,49.273,12.88,74.328c0.404,11.82,18.831,11.878,18.426,0
	c-1.291-37.705-5.398-77.106-30.168-107.376C650.618,946.388,610.886,933.676,579.909,952.795z"/>
<path style="fill:#873736;" d="M1395.119,1088.697c5.368-21.037,15.178-40.555,28.694-57.34c0.85,0.025,1.708-0.018,2.565-0.214
	c6.636-1.52,14.309-0.292,20.536,3.084c3.966,2.154,5.93,3.688,8.96,7.026c1.325,1.462,1.666,1.9,2.953,4.03
	c0.589,0.984,1.145,1.993,1.627,3.03c0.225,0.48,0.301,0.616,0.326,0.65c0,0.033,0.036,0.193,0.234,0.792
	c4.541,13.885-1.296,29.71-14.636,36.858c-10.456,5.603-1.165,21.511,9.296,15.907c20.044-10.733,30.724-37.023,22.777-58.582
	c-6.031-16.349-20.76-27.747-37.301-30.857c9.476-8.574,20.57-16.826,32.692-20.325c10.772-3.108,28.098,0,27.718,14.349
	c-0.317,11.863,18.11,11.854,18.421,0c0.492-18.597-16.165-32.677-33.841-34.056c-19.513-1.52-37.311,10.222-51.864,21.861
	c-27.98,22.387-48.078,54.226-56.921,88.892C1374.422,1095.294,1392.186,1100.2,1395.119,1088.697z"/>
<path style="fill:#38140F;" d="M910.516,405.478c55.824,3.099,111.352,10.65,166.699,18.831
	c34.227,5.013,69.014,10.499,100.224,25.423c31.206,14.923,58.88,40.94,67.537,74.431c6.748,26.202,1.735,55.42,14.188,79.445
	c3.464,6.635,9.691,13.301,17.135,12.307c3.722-0.517,6.889-2.909,9.764-5.345c28.044-23.766,45.656-60.76,79.444-75.201
	c30.84-13.232,63.966-2.986,92.56,10.904c2.061,0.994,4.312,2.251,6.67,3.61c1.325-7.552,2.65-15.103,3.975-22.66
	c1.291-7.367,2.543-15.108,0.078-22.144c-2.948-8.253-10.465-13.89-17.725-18.757c-25.534-17.169-54.645-31.722-85.374-30.694
	c-30.733,1.072-62.495,22.295-66.29,52.804c-4.643-27.746-9.325-55.454-13.963-83.162c-1.179-7.04-2.509-14.373-6.709-20.122
	c-4.755-6.446-12.492-9.949-19.858-13.004C1133,339.67,993.2,321.024,858.008,338.676c-73.106,9.544-148.789,31.873-198.718,86.075
	c-6.412,7.002-12.492,14.699-15.108,23.879c-3.425,12.156-0.258,25.125,2.762,37.432l0.039,0.224
	c37.252-28.999,76.75-54.864,121.598-68.682C814.194,403.528,862.837,402.827,910.516,405.478z"/>
<path style="fill:#873736;" d="M993.263,1191.976c23.074,14.928,62.889-3.235,76.302-23.717
	c8.015-12.249,10.909-27.143,12.156-41.73c2.953-34.636-2.577-69.968-15.981-102.046c-6.621-15.854-18.475-33.003-35.654-32.799
	c-11.567,0.136-21.574,8.599-27.669,18.431c-7.532,12.161-10.534,26.504-13.408,40.521c-3.518,17.159-7.036,34.319-10.193,51.552
	C974.16,1127.64,966.471,1174.645,993.263,1191.976z"/>
<path style="fill:#F9FAFE;" d="M953.404,994.485c-3.059-4.278-6.485-8.219-10.28-11.795c-9.506-9.028-21.15-15.844-33.788-20.521
	c-7.776-2.875-15.883-4.941-24.097-6.192H885.2c-4.901-0.736-9.836-1.179-14.777-1.326c-33.788-0.994-69.563,12.419-85.924,40.57
	c-25.428,43.698,14.996,79.405,57.666,89.759c10.426,2.47,21.369,3.61,32.204,3.352c4.273-0.073,8.512-0.366,12.745-0.921
	c16.692-2.061,32.687-7.552,45.988-16.507c8.955-5.968,16.692-13.525,22.548-22.699c4.205-6.558,7.445-13.963,8.073-21.739
	C964.678,1015.225,960.075,1003.917,953.404,994.485z"/>
<path style="fill:#FFFBF7;" d="M1007.577,1340.613c26.148,8.609,54.768,10.392,81.491,3.489
	c31.07-8.024,59.079-27.362,77.598-53.564c7.055-9.982,12.921-21.515,12.687-33.739c-0.239-12.219-8.214-24.926-20.229-27.152
	c-10.962-2.032-21.394,4.628-31.035,10.221c-26.509,15.371-56.541,24.628-87.104,26.84c-12.429,0.897-25.12,0.677-37.048,4.292
	c-11.927,3.62-23.332,12.068-26.314,24.17C972.893,1314.411,990.238,1334.904,1007.577,1340.613z"/>
<path style="fill:#38140F;" d="M1109.979,949.257c11.781,1.807,28.882-13.739,39.147-18.226
	c16.789-7.337,35.332-10.724,53.627-9.452c17.043,1.184,33.574,6.178,50.451,8.804c3.323,0.521,6.85,0.921,9.949-0.375
	c5.9-2.475,7.839-10.446,5.583-16.429c-2.251-5.983-7.503-10.285-12.813-13.852c-31.094-20.872-72.375-25.69-107.44-12.54
	c-14.865,5.574-29.12,14.64-38.524,27.649C1104.128,922.899,1093.214,946.68,1109.979,949.257z"/>
<path style="fill:#38140F;" d="M792.922,930.831c3.216,0.989,6.685,0.239,9.939-0.604c16.536-4.278,32.497-10.875,49.34-13.729
	c18.08-3.065,36.867-1.52,54.295,4.131c10.655,3.454,29.208,17.243,40.755,14.28c16.429-4.214,3.225-26.801-3.367-34.251
	c-10.641-12.02-25.719-19.644-41.062-23.727c-36.185-9.632-76.794-0.775-105.681,23.06c-4.936,4.068-9.74,8.867-11.391,15.04
	C784.099,921.209,786.808,928.951,792.922,930.831z"/>
<path style="fill:#38140F;" d="M1263.031,972.741c-10.724-7.591-23.25-12.672-36.405-15.513c-8.107-1.769-16.434-2.65-24.726-2.689
	c-19.932,10.358-33.973,35.376-33.973,64.594c0,33.164,18.056,60.872,42.231,67.985h0.034c4.166-0.702,8.327-1.622,12.38-2.729
	c16.175-4.458,31.21-12.161,43.074-22.918c7.04-11.757,11.201-26.421,11.201-42.339
	C1276.849,1001.335,1271.655,985.053,1263.031,972.741z"/>
<path style="fill:#38140F;" d="M950.199,1030.631c2.543-17.652-0.292-34.49-7.074-47.941c-9.506-9.028-21.15-15.844-33.788-20.521
	c-7.776-2.875-15.883-4.941-24.097-6.192H885.2c-21.15,7.444-38.616,30.178-42.816,59.069c-4.755,32.755,9.101,62.748,31.985,73.286
	c4.273-0.073,8.512-0.366,12.745-0.921c16.692-2.061,32.687-7.552,45.988-16.507
	C941.687,1060.292,947.914,1046.363,950.199,1030.631z"/>
<path style="fill:#561E0F;" d="M946.837,1229.057c-0.609,2.207-0.331,5.14,0.931,7.098c1.267,1.969,3.152,3.698,5.505,4.234
	c2.402,0.545,4.935,0.365,7.093-0.93c5.939-3.562,11.878-7.123,17.813-10.685c2.002-1.203,3.615-3.249,4.234-5.505
	c0.609-2.207,0.336-5.145-0.926-7.098c-1.271-1.968-3.157-3.698-5.505-4.234c-2.407-0.545-4.94-0.37-7.098,0.931
	c-5.939,3.561-11.878,7.123-17.812,10.685C949.068,1224.75,947.46,1226.797,946.837,1229.057z"/>
<path style="fill:#561E0F;" d="M1077.156,1194.28c-2.139,0.59-4.453,2.241-5.505,4.234c-1.13,2.139-1.695,4.731-0.93,7.099
	c0.692,2.129,2.09,4.565,4.234,5.505c8.853,3.883,17.705,7.761,26.553,11.644c2.353,1.033,4.521,1.642,7.098,0.93
	c2.139-0.59,4.453-2.241,5.506-4.234c1.13-2.139,1.695-4.731,0.931-7.099c-0.692-2.129-2.09-4.565-4.234-5.505
	c-8.853-3.883-17.705-7.761-26.553-11.644C1081.901,1194.178,1079.733,1193.569,1077.156,1194.28z"/>
<path style="fill:#561E0F;" d="M1036.722,1213.067c-1.057-0.673-2.202-1.038-3.425-1.096c-1.228-0.273-2.451-0.22-3.673,0.166
	c-2.232,0.721-4.38,2.105-5.505,4.234c-1.15,2.173-1.642,4.687-0.931,7.099c1.301,4.414,2.602,8.828,3.903,13.237
	c0.662,2.251,2.197,4.317,4.234,5.505c1.057,0.677,2.202,1.038,3.425,1.096c1.223,0.273,2.451,0.22,3.674-0.166
	c2.231-0.721,4.38-2.104,5.505-4.234c1.15-2.173,1.642-4.687,0.93-7.099c-1.301-4.414-2.602-8.823-3.902-13.237
	C1040.294,1216.322,1038.759,1214.256,1036.722,1213.067z"/>
</svg>
