<!DOCTYPE svg PUBLIC "-//W3C//DTD SVG 1.1//EN" "http://www.w3.org/Graphics/SVG/1.1/DTD/svg11.dtd">
<!-- Uploaded to: SVG Repo, www.svgrepo.com, Transformed by: SVG Repo Mixer Tools -->
<svg fill="#fff" width="800px" height="800px" viewBox="0 0 32 32" style="fill-rule:evenodd;clip-rule:evenodd;stroke-linejoin:round;stroke-miterlimit:2;" version="1.1" xml:space="preserve" xmlns="http://www.w3.org/2000/svg" xmlns:serif="http://www.serif.com/" xmlns:xlink="http://www.w3.org/1999/xlink" stroke="#fff">
<g id="SVGRepo_bgCarrier" stroke-width="0"/>
<g id="SVGRepo_tracerCarrier" stroke-linecap="round" stroke-linejoin="round" stroke="#CCCCCC" stroke-width="0.32"/>
<g id="SVGRepo_iconCarrier">
<path d="M12.965,5.462c0,-0 -2.584,0.004 -4.979,0.008c-3.034,0.006 -5.49,2.467 -5.49,5.5l0,13.03c0,1.459 0.579,2.858 1.611,3.889c1.031,1.032 2.43,1.611 3.889,1.611l13.003,0c3.038,-0 5.5,-2.462 5.5,-5.5c0,-2.405 0,-5.004 0,-5.004c0,-0.828 -0.672,-1.5 -1.5,-1.5c-0.827,-0 -1.5,0.672 -1.5,1.5l0,5.004c0,1.381 -1.119,2.5 -2.5,2.5l-13.003,0c-0.663,-0 -1.299,-0.263 -1.768,-0.732c-0.469,-0.469 -0.732,-1.105 -0.732,-1.768l0,-13.03c0,-1.379 1.117,-2.497 2.496,-2.5c2.394,-0.004 4.979,-0.008 4.979,-0.008c0.828,-0.002 1.498,-0.675 1.497,-1.503c-0.001,-0.828 -0.675,-1.499 -1.503,-1.497Z"/>
<path d="M20.046,6.411l-6.845,6.846c-0.137,0.137 -0.232,0.311 -0.271,0.501l-1.081,5.152c-0.069,0.329 0.032,0.671 0.268,0.909c0.237,0.239 0.577,0.343 0.907,0.277l5.194,-1.038c0.193,-0.039 0.371,-0.134 0.511,-0.274l6.845,-6.845l-5.528,-5.528Zm1.415,-1.414l5.527,5.528l1.112,-1.111c1.526,-1.527 1.526,-4.001 -0,-5.527c-0.001,-0 -0.001,-0.001 -0.001,-0.001c-1.527,-1.526 -4.001,-1.526 -5.527,-0l-1.111,1.111Z"/>
<g id="Icon"/>
</g>
</svg>