<?xml version="1.0" encoding="utf-8"?>
<!-- Generator: Adobe Illustrator 27.5.0, SVG Export Plug-In . SVG Version: 6.00 Build 0)  -->
<svg version="1.1" id="Capa_1" xmlns="http://www.w3.org/2000/svg" xmlns:xlink="http://www.w3.org/1999/xlink" x="0px" y="0px"
	 viewBox="0 0 2122 2122" style="enable-background:new 0 0 2122 2122;" xml:space="preserve">
<path style="fill:#C4C4E4;" d="M1048.91,94.959c-539.687,0-977.246,437.5-977.246,977.251c0,297.87,133.271,564.604,343.449,743.818
	c18.193,15.542,37.004,30.466,56.368,44.589c12.395,9.125,25.038,17.944,37.866,26.519c4.748,3.084,9.498,6.226,14.246,9.247
	c4.748,3.025,9.435,5.924,14.185,8.882c0.801,0.492,1.664,0.989,2.465,1.481c1.296,0.804,2.592,1.603,3.885,2.344
	c1.791,1.111,3.579,2.158,5.428,3.206c5.182,3.084,10.424,6.168,15.664,9.13c24.67,14.12,49.956,27.133,75.856,39.035
	c6.908,3.269,13.939,6.354,20.969,9.374c1.603,0.741,3.206,1.418,4.811,2.1c5.303,2.217,10.545,4.439,15.909,6.597
	c8.08,3.269,16.219,6.475,24.421,9.437h0.063c9.25,3.513,18.499,6.782,27.876,9.929v0.059c3.391,1.174,6.782,2.285,10.176,3.332
	c3.391,1.111,6.784,2.222,10.175,3.269l0.247,0.058c3.33,1.111,6.599,2.1,9.929,3.084c3.454,1.111,6.909,2.158,10.424,3.147
	c6.721,1.973,13.506,3.825,20.351,5.613c41.567,11.099,84.244,19.547,127.844,25.101h0.124c40.765,5.242,82.332,7.893,124.514,7.893
	c64.818,0,128.153-6.29,189.456-18.441c8.88-1.725,17.698-3.64,26.519-5.613c8.078-1.725,16.159-3.64,24.112-5.671
	c11.04-2.777,22.017-5.798,32.933-8.945c3.145-0.925,6.229-1.851,9.374-2.772c3.949-1.174,7.832-2.343,11.717-3.581
	c2.963-0.921,5.922-1.91,8.882-2.899c1.418-0.429,2.836-0.921,4.256-1.418c1.542-0.429,3.084-0.984,4.563-1.476
	c1.11-0.37,2.282-0.741,3.391-1.174c9.006-3.02,17.949-6.226,26.828-9.559c0.801-0.307,1.603-0.619,2.404-0.925
	c12.273-4.561,24.485-9.433,36.448-14.616c5.737-2.402,11.41-4.872,17.084-7.401c1.111-0.429,2.158-0.926,3.206-1.418
	c23.805-10.728,47.118-22.387,69.876-34.904v-0.063l0.986-0.555c10.236-5.671,20.412-11.532,30.402-17.637
	c23.437-14.002,46.255-28.984,68.333-44.96c15.973-11.469,31.637-23.435,46.87-35.893
	c219.488-179.157,359.607-451.926,359.607-757.324C2026.158,532.459,1588.661,94.959,1048.91,94.959z"/>
<path style="fill:#F1E387;" d="M1716.789,1180.716c-18.361-26.982-45.503-48.248-58.577-78.095
	c-54.336-124.053,137.878-260.39-20.921-355.712c-49.866-29.929-115.13-43.133-150.431-93.091
	c-41.072-58.124-19.243-133.159-28.952-198.421c-12.96-87.094-89.454-157.992-181.949-148.803
	c-97.271,9.671-186.713,102.387-278.321,68.828c-26.263-9.623-48.127-28.945-74.704-37.676
	c-39.038-12.828-85.554,1.048-110.986,33.106c-8.399,10.587-14.794,23.021-25.435,31.406c-19.33,15.23-46.594,13.096-71.186,15.279
	c-92.273,8.175-169.16,97.944-162.158,189.325c1.408,18.387,5.729,36.609,5.03,55.04c-0.923,24.249-10.565,47.533-23.554,68.137
	c-26.814,42.538-67.247,74.655-100.439,112.54c-33.194,37.88-60.275,86.87-51.288,136.156
	c11.885,65.169,83.201,112.468,81.028,178.679c-2.066,63.026-68.697,103.484-95.108,160.906
	c-25.666,55.8-9.939,123.04,23.14,174.772c52.217,81.661,152.801,135.454,248.978,118.095
	c93.257-16.833,163.971-92.165,251.442-128.399c9.757-4.042,19.673-7.532,29.703-10.595c-7.956,32.363-19.976,63.861-35.695,93.265
	c-9.311,7.586-18.687,14.987-28.307,21.092c-33.118,21.091-69.318,37.374-106.446,50.266c-2.465,0.862-4.993,1.661-7.462,2.523
	c-14,4.692-28.246,9.009-42.307,13.817c-23.249,8.02-45.822,17.452-65.186,32.254c-33.734,25.778-54.148,65.802-63.707,106.938
	c-9.559,41.135-9.128,83.815-7.893,125.997c0,1.048,0.061,2.032,0.122,3.084c24.67,14.12,49.956,27.133,75.856,39.035
	c6.908,3.269,13.939,6.354,20.969,9.374c1.603,0.741,3.206,1.418,4.811,2.1c5.303,2.217,10.545,4.439,15.909,6.597
	c8.08,3.269,16.219,6.475,24.421,9.437h0.063c9.25,3.513,18.499,6.782,27.876,9.929v0.059c3.391,1.174,6.782,2.285,10.176,3.332
	c3.391,1.111,6.784,2.222,10.175,3.269l0.247,0.058c3.33,1.111,6.599,2.1,9.929,3.084c3.454,1.111,6.909,2.158,10.424,3.147
	c6.721,1.973,13.506,3.825,20.351,5.613c41.567,11.099,84.244,19.547,127.844,25.101h0.124c40.765,5.242,82.332,7.893,124.514,7.893
	c64.818,0,128.153-6.29,189.456-18.441c8.88-1.725,17.698-3.64,26.519-5.613c8.078-1.725,16.159-3.64,24.112-5.671
	c11.04-2.777,22.017-5.798,32.933-8.945c3.145-0.925,6.229-1.851,9.374-2.772c3.949-1.174,7.832-2.343,11.717-3.581
	c2.963-0.921,5.922-1.91,8.882-2.899c1.418-0.429,2.836-0.921,4.256-1.418c1.542-0.429,3.084-0.984,4.563-1.476
	c1.11-0.37,2.282-0.741,3.391-1.174c9.006-3.02,17.949-6.226,26.828-9.559c0.801-0.307,1.603-0.619,2.404-0.925
	c-14.738-71.664-57.169-177.983-62.533-213.198c-6.724-44.648-15.788-93.369-50.634-122.48
	c-25.593-21.34-59.513-27.445-92.26-36.322c-11.038-3.026-21.954-6.295-32.378-10.67c-3.515-1.481-7.091-3.084-10.607-4.872
	c-19.057-9.5-38.299-22.879-57.973-36.019c0.555-6.533,1.359-12.95,2.407-19.425c0.001-0.005,0.002-0.01,0.002-0.014
	c0.008,0.001,0.015,0.003,0.022,0.004c0.159-1.003,0.356-1.999,0.524-3c0.479-2.844,0.99-5.682,1.551-8.511
	c0.267-1.349,0.556-2.693,0.842-4.038c1.198-5.633,2.557-11.23,4.077-16.788c0.059-0.215,0.119-0.428,0.178-0.642
	c0.823-2.983,1.72-5.945,2.632-8.902c1.287-4.278,2.697-8.551,4.223-12.777c0.113-0.313,0.215-0.63,0.329-0.943
	c0.692-1.908,1.424-3.801,2.154-5.695c0.125-0.323,0.248-0.646,0.373-0.969c1.66-4.286,3.444-8.559,5.316-12.746
	c1.554-3.509,3.177-6.99,4.866-10.438c13.721,1.332,27.394,2.948,40.951,4.833c88.77,12.346,176.58,33.964,266.217,36.073
	c89.634,2.105,184.294-17.949,250.351-78.061C1740.034,1361.271,1766.835,1254.251,1716.789,1180.716z"/>
<path style="fill:#4E76BA;" d="M1716.789,1180.716c-18.361-26.982-45.503-48.248-58.577-78.095
	c-54.336-124.053,137.878-260.39-20.921-355.712c-49.866-29.929-115.13-43.133-150.431-93.091
	c-41.072-58.124-19.243-133.159-28.952-198.421c-12.96-87.094-89.454-157.992-181.949-148.803
	c-97.271,9.671-186.713,102.387-278.321,68.828c-26.263-9.623-48.127-28.945-74.704-37.676
	c-39.038-12.828-85.554,1.048-110.986,33.106c-8.399,10.587-14.794,23.021-25.435,31.406c-19.33,15.23-46.594,13.096-71.186,15.279
	c-92.273,8.175-169.16,97.944-162.158,189.325c1.408,18.387,5.729,36.609,5.03,55.04c-0.923,24.249-10.565,47.533-23.554,68.137
	c-26.814,42.538-67.247,74.655-100.439,112.54c-33.194,37.88-60.275,86.87-51.288,136.156
	c11.885,65.169,83.201,112.468,81.028,178.679c-2.066,63.026-68.697,103.484-95.108,160.906
	c-25.666,55.8-9.939,123.04,23.14,174.772c52.217,81.661,152.801,135.454,248.978,118.095
	c93.257-16.833,163.971-92.165,251.442-128.399c9.757-4.042,19.673-7.532,29.703-10.595c0.004-0.016,0.008-0.03,0.012-0.045
	c0.617-2.402,1.172-4.809,1.727-7.274c0.987-4.443,1.973-8.945,2.775-13.447c0.619-2.836,1.111-5.671,1.542-8.512
	c0.546-3.207,1.066-6.474,1.524-9.737c0.087-0.603,0.181-1.205,0.265-1.808c1.497-10.521,2.538-21.096,3.159-31.674
	c0.029-0.497,0.049-0.995,0.077-1.492c-14.593-7.583-28.677-15.897-42.057-24.813c-74.261-49.486-121.49-130.036-147.463-213.917
	c-13.272,8.152-29.027,12.469-44.828,13.227c2.198,5.646,3.697,11.815,4.238,18.371c2.395,29.023-14.117,54.071-36.877,55.952
	c-22.757,1.876-43.15-20.132-45.542-49.155c-1.352-16.397,3.335-31.519,11.77-41.917c-14.974-8.501-28.456-19.763-39.48-32.884
	c-24.305-28.931-37.418-65.993-41.53-103.42c-3.16-28.741-0.368-60.307,18.657-82.285c24.116-27.86,68.057-30.74,101.981-15.316
	c20.095,15.974,43.262,29.295,55.748,51.423c17.289,30.636,9.147,69.252,19.498,102.826c11.976,38.84,50.969,67.834,92.022,68.428
	c-29.167-21.028-45.096-58.679-39.786-94.036c3.661-24.365,16.453-49.136,8.378-72.414c-6.419-18.494-24.987-31.542-29.035-50.689
	c-5.959-28.175,19.508-50.358,30.636-73.603c14.931-31.196,12.974-62.115,5.815-94.923c-1.643-7.533-3.751-15.638-6.299-24.008
	c41.368-22.042,97.003-24.327,133.005,9.241c32.884,30.655,35.128,78.158,56.789,115.503c17.6,30.333,48.344,51.79,83.264,56.39
	c45.413,5.978,84.299-22.884,129.503-18.811c3.264,0.297,4.054-5.228,0.782-5.769c-46.47-7.678-92.063,20.721-138.119,5.471
	c-54.875-18.168-66.765-70.163-87.415-117.476c-15.703-35.975-40.29-65.305-78.675-77.681c-8.872-2.861-17.682-4.428-26.335-4.912
	c46.972-14.517,99.789-11.361,130.954,24.225c23.442,26.772,28.516,65.038,48.882,94.168c19.754,28.258,54.078,45.944,88.831,45.769
	c24.31-0.117,49.383-8.278,72.387-0.536c33.605,11.308,48.148,51.074,78.073,69.954c21.518,13.572,46.728,14.278,71.961,8.674
	c1.243,24.736,2.485,49.472,3.727,74.206c2.019,40.2,4.034,80.589,0.012,120.614c-10.643,105.915-61.018,230.48-161.668,281.783
	c-28.597,14.575-58.754,22.608-89.371,25.394c-0.28,0.489-0.578,0.966-0.856,1.456c-0.038,0.068-0.076,0.137-0.114,0.205
	c-1.356,2.285-2.592,4.566-3.764,6.909l-0.37,0.74c-0.801,1.418-1.54,2.836-2.219,4.317c-0.383,0.601-0.7,1.26-0.987,1.917
	c-0.168,0.338-0.342,0.674-0.509,1.013c-0.118,0.237-0.236,0.474-0.353,0.709c-0.002,0.004-0.003,0.008-0.005,0.012
	c13.729,1.331,27.409,2.949,40.972,4.836c88.77,12.346,176.58,33.964,266.217,36.073c89.634,2.105,184.294-17.949,250.351-78.061
	C1740.034,1361.271,1766.835,1254.251,1716.789,1180.716z"/>
<path style="fill:#F6A55D;" d="M1116.795,1457.809c0.167-0.339,0.341-0.675,0.509-1.013c2.369-4.755,4.833-9.464,7.454-14.088
	c0.277-0.489,0.575-0.967,0.856-1.456c-65.606,5.969-133.321-12.333-192.432-43.051c-0.027,0.497-0.047,0.995-0.077,1.492
	c-0.632,10.595-1.689,21.161-3.159,31.674c-0.084,0.603-0.178,1.206-0.265,1.808c-1.536,10.638-3.449,21.222-5.824,31.705
	c9.333,8.312,19.147,16.054,29.442,23.162c29.117,20.183,84.447,47.471,136.07,55.938c0.008,0.001,0.015,0.003,0.022,0.004
	c0.159-1.003,0.356-1.999,0.524-3c0.479-2.844,0.99-5.682,1.551-8.511c0.267-1.349,0.556-2.693,0.842-4.038
	c1.198-5.633,2.557-11.23,4.077-16.788c0.059-0.215,0.119-0.428,0.178-0.642c2.016-7.306,4.294-14.541,6.854-21.68
	c0.113-0.313,0.215-0.63,0.329-0.943c0.692-1.908,1.424-3.801,2.154-5.695c0.125-0.323,0.248-0.646,0.373-0.969
	C1109.435,1473.604,1112.94,1465.624,1116.795,1457.809z"/>
<path style="fill:#7BBDE9;" d="M793.865,695.528c20.37-27.635,27.793-38.427,41.118-52.293
	c19.405-20.195,39.751-31.581,64.609-45.32c34.278-18.947,79.118-24.219,111.878-2.914c32.94,21.418,45.245,62.329,59.639,98.651
	c14.392,36.322,39.069,75.303,78.249,79.786c41.232,4.721,80.952-31.757,120.991-20.965c40.088,10.806,55.34,62.153,93.091,79.303
	c20,9.086,43.744,6.987,64.317-0.823c20.572-7.805,38.635-20.828,56.426-33.7c-54.224,10.407-72.443,2.461-93.418-24.862
	c-23.963-31.22-25.159-80.541-60.095-99.045c-47.193-24.994-107.805,31.649-156.085,8.765c-19.73-9.354-31.452-30.022-37.961-50.694
	c-6.507-20.677-9.084-42.524-17.052-62.685c-19.769-50.012-72.938-83.488-127.191-85.642
	c-54.251-2.153-107.644,24.575-142.886,65.51C815.241,588.391,794.722,643.328,793.865,695.528z"/>
<path style="fill:#F6A55D;" d="M599.846,941.452c-11.393,3.864-6.504,22.027,4.997,18.124c14.078-4.774,28.183,3.552,38.872,12.278
	c7.977,6.511,15.237,13.902,21.616,21.985c-17.149,11.597-33.933,27.089-38.198,47.925c-4.065,19.858,3.136,44.029,22.982,52.648
	c4.65,2.017,10.083,1.374,12.857-3.372c2.324-3.975,1.308-10.826-3.371-12.862c-12.899-5.598-17.223-20.657-13.827-33.627
	c4.028-15.395,17.133-26.562,30.113-35.204c13.047,22.029,20.198,47.084,20.162,72.787c-0.015,12.092,18.782,12.112,18.797,0
	c0.044-33.233-10.509-66.436-29.939-93.437C667.051,963.883,633.805,929.93,599.846,941.452z"/>
<path style="fill:#FFFFFF;" d="M1356.432,962.967c-0.775-1.203-1.932-2.26-3.369-2.592c-1.374-0.312-3.169-0.326-4.346,0.57
	c-3.903,2.985-7.809,5.969-11.714,8.953c-23.95-16.929-56.084-20.312-84.171-12.154c-35.754,10.382-63.532,37.418-84.609,67.03
	c-4.229,5.943-0.003,11.68,5.543,13.202c-0.845,5.453-0.759,10.919,0.701,16.25c11.038,40.136,77.805,31.172,105.961,19.713
	c4.543-1.871,9.143-4,13.688-6.465c19.225-10.339,37.517-25.749,47.617-44.039c6.252-11.323,6.71-21.358,3.435-29.942
	c4.804-2.826,7.499-9.592,2.4-14.715c-0.546-0.549-1.134-1.039-1.693-1.569c2.845-2.175,5.69-4.351,8.535-6.524
	c1.218-0.931,2.166-1.827,2.592-3.372C1357.372,965.964,1357.206,964.166,1356.432,962.967z"/>
<path style="fill:#FFFFFF;" d="M1086.144,1043.255c-21.288-34.758-58.974-57.632-99.613-60.609
	c-34.48-2.525-69.736,10.57-95.048,34.058c-0.839-0.489-1.71-0.92-2.525-1.449c-0.991-0.643-1.963-1.316-2.916-2.017l-0.555-0.413
	c-0.413-0.328-0.827-0.654-1.235-0.995c-1.725-1.432-3.372-2.957-4.931-4.57c-0.78-0.804-1.535-1.628-2.268-2.475
	c-0.387-0.443-0.767-0.896-1.14-1.349c-0.283-0.351-1.442-1.852-0.429-0.526c-0.933-1.218-1.829-2.168-3.371-2.592
	c-1.35-0.371-3.148-0.205-4.346,0.57c-1.204,0.775-2.263,1.929-2.59,3.372c-0.314,1.369-0.331,3.167,0.568,4.341
	c4.917,6.434,10.819,11.982,17.58,16.357c-1.619,1.819-3.191,3.681-4.696,5.596c-3.157,4.024-3.852,9.359,0,13.296
	c3.223,3.294,10.163,3.981,13.291,0c0.211-0.268,0.442-0.518,0.655-0.784c-0.145,7.868,2.561,16.209,9.343,24.775
	c13.71,17.252,35.398,30.1,57.174,37.535c5.15,1.749,10.312,3.201,15.374,4.321c31.218,6.992,102.173,4.706,106.572-38.991
	c0.479-4.687-0.022-9.302-1.165-13.819C1085.449,1055.537,1090.019,1049.58,1086.144,1043.255z"/>
<path style="fill:#F6A55D;" d="M1110.859,1214.202c21.968,3.332,43.829,0.331,63.909-9.325c17.267-8.307,41.04-25.442,34.575-47.717
	c-2.804-9.652-10.882-16.039-18.198-22.266c-7.881-6.704-14.967-14.299-20.76-22.889c-11.554-17.14-18.46-37.004-19.528-57.666
	c-0.621-12.039-19.422-12.112-18.796,0c2.01,38.909,20.589,72.248,49.871,97.257c5.15,4.4,12.073,9.773,8.536,17.189
	c-3.656,7.669-12.767,13.096-19.861,17.087c-16.395,9.233-36.112,13.038-54.753,10.207c-5.052-0.765-10.048,1.277-11.562,6.568
	C1103.026,1207.079,1105.845,1213.442,1110.859,1214.202z"/>
<path style="fill:#7BBDE9;" d="M521.505,907.304c38.735-35.469,101.12-31.863,143.605-62.835
	c25.159-18.349,41.101-48.516,41.951-79.405c1.413-51.25-35.612-103.381-15.396-150.621c14.628-34.182,55.834-47.863,89.822-36.921
	c-12.255-24.535-28.55-52.034-58.565-54.26c-33.905-2.519-81.327,14.163-96.994,45.939c-17.057,34.596,5.016,74.494,9.861,112.652
	c4.689,36.96-8.275,75.761-34.319,102.709c-20.236,20.94-47.096,34.363-69.052,53.53c-44.144,38.538-65.45,101.028-53.896,158.07
	C486.947,963.913,496.789,929.934,521.505,907.304z"/>
<path style="fill:#7BBDE9;" d="M1321.262,501.755c9.225,19.61,9.718,42.314,18.312,62.207c15.498,35.863,59.22,57.159,97.444,47.464
	c-20.937-0.195-36.368-20.906-39.961-41.31c-3.593-20.405,1.016-41.277,1.311-61.993c0.441-31.128-9.807-63.269-32.346-84.95
	c-30.207-29.052-77.491-34.714-118.475-24.852c-58.299,14.007-93.741,47.415-135.125,86.226
	c34.809-17.014,71.274-33.608,110.76-34.724C1262.461,448.717,1304.692,466.525,1321.262,501.755z"/>
<path style="fill:#292C67;" d="M1015.117,1277.52c-9.588-5.9-17.266-14.017-26.541-19.676c4.753-2.861,9.824-5.256,15.18-7.184
	c4.063-1.467,3.839-8.463-1.094-8.078c-16.214,1.262-31.161,8.643-42.507,20.37c-8.263,8.541-22.943,27.995-14.411,40.083
	c1.062,1.51,3.103,2.363,4.821,1.267c4.404-2.816,6.251-6.952,8.329-11.668c2.925-6.641,5.941-12.614,10.538-18.275
	c1.681-2.068,3.484-3.978,5.344-5.812c15.855,27.454,62.457,42.889,90.49,47.531c38.709,6.411,82.833,0.964,114.428-23.766
	c4.326-3.386-0.375-10.597-5.257-9.033c-37.369,11.966-72.209,22.587-111.868,13.637
	C1045.762,1293.125,1029.779,1286.548,1015.117,1277.52z"/>
<path style="fill:#4E76BA;" d="M1163.957,995.352c9.179-0.55,15.759-10.689,21.995-16.243c7.408-6.602,15.474-12.473,24.029-17.535
	c16.066-9.505,33.623-15.693,51.825-19.357c4.185-0.843,8.402-1.549,12.646-2.134c3.956-0.546,22.628-1.247,12.626-8.014
	c-3.179-2.154-7.142-4.254-10.862-5.325c-12.363-3.571-25.35-3.235-37.915-0.969c-30.804,5.544-61.318,19.439-80.239,44.146
	C1151.974,977.871,1148.02,996.312,1163.957,995.352z"/>
<path style="fill:#4E76BA;" d="M917.558,967.206c4.841-0.872,9.693-1.603,14.556-2.183c21.147-2.528,42.426-2.222,63.174,2.042
	c11.05,2.266,21.832,5.549,32.136,9.813c8.672,3.586,19.245,11.8,29.479,9.184c17.768-4.545,7.315-22.27-1.993-28.39
	c-28.923-19.016-66.947-22.806-102.521-17.846c-14.509,2.022-28.843,6.182-41.191,14.178c-3.72,2.407-7.361,5.958-10.126,9.291
	C892.366,973.779,913.044,968.015,917.558,967.206z"/>
<path style="fill:#292C67;" d="M878.63,1043.849c3.223,3.294,10.163,3.981,13.291,0c0.211-0.268,0.442-0.518,0.655-0.784
	c6.227-7.784,13.443-14.633,21.382-20.438c-0.541,4.505-0.754,9.147-0.361,13.934c2.49,30.183,23.642,53.052,47.26,51.108
	c23.615-1.949,40.735-27.975,38.246-58.158c-0.851-10.312-3.901-19.746-8.46-27.656c32.322,3.783,62.303,23.187,79.271,50.887
	c2.455,4.007,6.409,5.003,9.96,4.144c5.576-1.348,10.146-7.305,6.271-13.63c-21.288-34.758-58.974-57.632-99.613-60.609
	c-34.48-2.525-69.736,10.57-95.048,34.058c-0.839-0.489-1.71-0.92-2.525-1.449c-0.991-0.643-1.963-1.316-2.916-2.017l-0.555-0.413
	c-0.413-0.328-0.827-0.654-1.235-0.995c-1.725-1.432-3.372-2.957-4.931-4.57c-0.78-0.804-1.535-1.628-2.268-2.475
	c-0.387-0.443-0.767-0.896-1.14-1.349c-0.283-0.351-1.442-1.852-0.429-0.526c-0.933-1.218-1.829-2.168-3.371-2.592
	c-1.35-0.371-3.148-0.205-4.346,0.57c-1.204,0.775-2.263,1.929-2.59,3.372c-0.314,1.369-0.331,3.167,0.568,4.341
	c4.917,6.434,10.819,11.982,17.58,16.357c-1.619,1.819-3.191,3.681-4.696,5.596C875.473,1034.577,874.778,1039.913,878.63,1043.849z
	"/>
<path style="fill:#292C67;" d="M1252.831,957.745c-35.754,10.382-63.532,37.418-84.609,67.03c-4.229,5.943-0.003,11.68,5.543,13.202
	c3.67,1.007,7.913,0.185,10.686-3.711c1.64-2.303,3.347-4.585,5.087-6.853c5.246,17.831,18.077,30.71,33.81,31.633
	c21.764,1.277,40.845-20.794,42.604-49.276c0.791-12.814-2.105-24.688-7.456-34.053c25.986-7.316,56.196-3.333,75.78,16.352
	c3.445,3.462,7.645,3.334,10.892,1.424c4.804-2.826,7.499-9.592,2.4-14.715c-0.546-0.549-1.134-1.039-1.693-1.569
	c2.845-2.175,5.69-4.351,8.535-6.524c1.218-0.931,2.166-1.827,2.592-3.372c0.37-1.349,0.204-3.147-0.57-4.346
	c-0.775-1.203-1.932-2.26-3.369-2.592c-1.374-0.312-3.169-0.326-4.346,0.57c-3.903,2.985-7.809,5.969-11.714,8.953
	C1313.053,952.97,1280.919,949.587,1252.831,957.745z"/>
<path style="fill:#F9FAFE;" d="M657.529,1141.92c-9.901,0.816-18.614,6.024-25.107,14.029c-8.435,10.398-13.121,25.519-11.77,41.917
	c2.392,29.023,22.784,51.031,45.542,49.155c22.76-1.881,39.272-26.928,36.877-55.952c-0.54-6.556-2.04-12.725-4.238-18.371
	C691.303,1153.356,675.147,1140.468,657.529,1141.92z"/>
<path style="fill:#7BBDE9;" d="M529.69,1488.799c-30.862-18.3-49.228-53.832-41.798-86.358
	c11.184-48.979,70.458-75.669,94.818-120.419c17.708-32.526,14.865-72.307-0.937-105.958
	c-19.642-41.822-58.909-75.854-105.834-91.722c36.882,29.476,74.26,78.557,63.108,125.262
	c-5.684,23.795-21.157,44.653-38.689,62.986c-17.533,18.329-37.408,34.767-54.256,53.622c-8.967,10.032-17.111,20.833-22.373,32.858
	c-5.664,12.945-7.841,27.016-7.992,40.994c-0.534,49.184,26.908,100.088,74.889,123.449s115.053,12.677,144.46-28.356
	C601.663,1508.55,560.552,1507.098,529.69,1488.799z"/>
<path style="fill:#F6A55D;" d="M973.1,1181.564c-1.708-20.702-24.234-35.737-50.314-33.589
	c-26.08,2.154-45.842,20.677-44.134,41.379c1.708,20.697,24.234,35.737,50.314,33.583
	C955.046,1220.789,974.807,1202.266,973.1,1181.564z"/>
<path style="fill:#F6A55D;" d="M1281.116,1132.999c-26.08,2.148-45.839,20.672-44.134,41.374
	c1.708,20.702,24.234,35.736,50.317,33.588c26.08-2.154,45.839-20.678,44.131-41.374
	C1329.725,1145.886,1307.197,1130.845,1281.116,1132.999z"/>
<path style="fill:#EB5A61;" d="M1236.763,2002.338c3.515-54.519,52.728-104.594,37.125-156.955
	c-4.316-14.305-13.138-26.762-21.771-38.977c-27.442-38.421-45.822-64.999-54.701-111.439c-1.233-6.538-6.539-45.33-9.498-79.985
	c-11.038-3.026-21.954-6.295-32.378-10.67c-3.515-1.481-7.091-3.084-10.607-4.872c12.273,54.826,19.61,111.562,5.364,165.647
	c-16.465,62.66-69.934,120.322-135.43,121.681c-23.62,0.492-46.933-6.168-68.516-15.79
	c-54.088-24.112-98.553-66.295-132.224-114.645c-25.781-37.004-45.576-77.705-62.475-119.517c-2.465,0.862-4.993,1.661-7.462,2.523
	c-14,4.692-28.246,9.009-42.307,13.817c42.863,74.066,61.735,161.15,61.92,246.87c0.061,35.03-2.838,69.939-8.08,104.594
	c3.33,1.111,6.599,2.1,9.929,3.084c3.454,1.111,6.909,2.158,10.424,3.147c6.721,1.973,13.506,3.825,20.351,5.613
	c41.628,11.099,84.305,19.547,127.968,25.101c40.765,5.242,82.332,7.893,124.514,7.893c64.818,0,128.153-6.29,189.456-18.441
	C1236.946,2021.455,1236.145,2011.896,1236.763,2002.338z"/>
<path style="fill:#F6A55D;" d="M841.214,1648.715c17.108,9.54,36.987,12.293,55.781,17.189
	c18.484,4.809,38.346,12.765,57.603,10.217c2.998-0.395,5.807-4.322,2.823-6.816c-14.356-12.01-33.8-15.547-51.669-19.795
	c-20.127-4.789-41.335-11.63-62.168-9.549C839.249,1640.394,836.81,1646.26,841.214,1648.715z"/>
<path style="fill:#F6A55D;" d="M1066.61,1667.088c15.062-7.63,32.047-14.801,44.363-26.621c2.285-2.197-0.066-6.173-3.086-5.306
	c-16.409,4.721-31.152,15.834-45.308,25.033C1058.254,1663.001,1062.02,1669.417,1066.61,1667.088z"/>
<path style="fill:#7BBDE9;" d="M1578.302,1261.739c-3.001,20.175-12.86,38.792-24.694,55.498
	c-23.7,33.461-56.692,61.267-95.688,74.675c-39.269,13.495-82.2,10.553-118.724-8.97c26.531,95.761,148.514,91.503,224.935,56.662
	c57.491-26.212,102.96-78.397,117.795-139.269c6.86-28.141,6.787-59.708-9.277-83.864c-9.659-14.524-24.165-25.062-36.728-37.213
	c-63.701-61.622-70.645-171.902-15.182-241.076c-63.717,22.67-104.928,95.064-91.461,160.667
	C1540.811,1155.035,1586.743,1204.979,1578.302,1261.739z"/>
</svg>
