<?xml version="1.0" encoding="utf-8"?>
<!-- Generator: Adobe Illustrator 27.5.0, SVG Export Plug-In . SVG Version: 6.00 Build 0)  -->
<svg version="1.1" id="Capa_1" xmlns="http://www.w3.org/2000/svg" xmlns:xlink="http://www.w3.org/1999/xlink" x="0px" y="0px"
	 viewBox="0 0 2122 2122" style="enable-background:new 0 0 2122 2122;" xml:space="preserve">
<path style="fill:#FAD2CD;" d="M1027.871,89.346c-537.453,0-973.2,435.688-973.2,973.202c0,296.638,132.721,562.265,342.026,740.739
	c18.117,15.474,36.85,30.339,56.134,44.404c1.781,1.286,3.561,2.577,5.342,3.805c10.626,7.8,21.435,15.293,32.368,22.602
	c4.728,3.069,9.457,6.202,14.185,9.213c4.731,3.011,9.398,5.895,14.127,8.843c0.799,0.492,1.659,0.984,2.458,1.476
	c1.289,0.799,2.578,1.594,3.869,2.334c1.781,1.106,3.562,2.149,5.406,3.191c5.157,3.075,10.378,6.144,15.598,9.092
	c12.653,7.245,25.488,14.188,38.445,20.819c7.372,3.81,14.865,7.493,22.356,11.118c4.853,2.333,9.766,4.667,14.741,6.938
	c6.879,3.254,13.881,6.329,20.882,9.335c1.596,0.74,3.194,1.413,4.79,2.09c5.284,2.212,10.504,4.424,15.847,6.573
	c8.046,3.255,16.154,6.446,24.321,9.393h0.061c9.213,3.503,18.423,6.758,27.758,9.891v0.063c3.379,1.164,6.758,2.27,10.134,3.313
	c3.379,1.106,6.755,2.212,10.134,3.255l0.247,0.063c3.315,1.106,6.572,2.09,9.888,3.069c3.439,1.106,6.879,2.149,10.38,3.133
	c6.694,1.964,13.45,3.81,20.266,5.588c41.396,11.055,83.895,19.469,127.318,24.999h0.122c40.597,5.218,81.99,7.859,124,7.859
	c64.548,0,127.622-6.261,188.67-18.363c8.843-1.72,17.627-3.625,26.409-5.588c8.044-1.72,16.09-3.625,24.012-5.652
	c10.994-2.762,21.927-5.773,32.797-8.901c3.133-0.926,6.204-1.846,9.335-2.767c3.932-1.164,7.8-2.334,11.671-3.562
	c2.948-0.921,5.896-1.905,8.843-2.884c1.413-0.434,2.826-0.921,4.239-1.413c1.535-0.429,3.069-0.984,4.543-1.476
	c1.106-0.365,2.273-0.735,3.379-1.164c8.967-3.011,17.871-6.202,26.716-9.52c0.799-0.307,1.595-0.614,2.394-0.921
	c9.335-3.503,18.609-7.128,27.822-11.055h0.061c2.826-1.106,5.588-2.275,8.414-3.503c5.713-2.392,11.362-4.853,17.014-7.367
	l0.122-0.063c1.045-0.429,2.088-0.862,3.069-1.35c23.708-10.689,46.923-22.294,69.586-34.762v-0.063l0.982-0.55
	c10.195-5.651,20.329-11.488,30.28-17.564c13.51-8.049,26.777-16.463,39.859-25.242c9.518-6.265,18.916-12.838,28.19-19.532
	c15.905-11.425,31.505-23.338,46.674-35.747c218.579-178.411,358.119-450.055,358.119-754.186
	C2001.071,525.034,1565.383,89.346,1027.871,89.346z"/>
<path style="fill:#F6B7B8;" d="M1573.437,861.004c29.691,12.882,67.776,10.032,94.416-7.055
	c-66.331-39.45-110.314-105.281-116.433-174.27c-2.597-29.291,1.245-58.986-4.441-87.951
	c-17.95-91.464-122.801-138.815-228.356-146.091c4.831-2.987,9.68-5.899,14.376-8.729c12.234-7.376,67.854-44.833,81.41-38.69
	c-39.676-17.983-89.167-11.917-123.327,15.108c15.898-43.03,2.28-95.293-32.592-125.096c12.136,52.106,7.32,107.992-13.438,157.301
	c-6.456-69.933-50.915-141.723-128.767-168.478c-51.764-17.793-111.094-13.895-163.184,3.162
	c-52.092,17.053-97.756,46.363-139.05,78.802c-44.913,35.284-85.997,74.982-137.272,102.957
	c-51.271,27.975-116.677,42.952-172.818,23.264c0.236,46.387,44.502,89.535,97.501,95.035
	c-50.281,11.737-80.714,57.023-92.28,101.14c-11.564,44.116-9.805,90.416-23.496,134.07c-13.688,43.654-49.298,87.172-100.879,93.32
	c30.451,19.683,75.942,19.435,106.102-0.585c-45.493,27.474-66.351,78.796-63.116,126.86c3.235,48.068,27.326,93.32,56.582,134.202
	c25.674,35.879,55.744,69.647,75.793,108.136c20.051,38.49,29.238,83.727,11.081,122.918
	c-18.156,39.191-69.744,68.107-116.238,55.771c39.569,55.556,120.765,82.397,195.491,75.186
	c74.726-7.206,142.47-44.112,194.272-91.469c14.589,13.326,24.05,30.614,27.543,48.743c-0.065,0.18-0.118,0.364-0.184,0.544
	c-0.494,1.356-1.045,2.691-1.581,4.033c-0.513,1.285-1.015,2.574-1.565,3.846c-0.724,1.675-1.511,3.322-2.298,4.971
	c-0.362,0.758-0.713,1.521-1.089,2.273c-0.809,1.621-1.66,3.219-2.529,4.811c-0.567,1.04-1.131,2.08-1.724,3.107
	c-0.577,0.999-1.16,1.993-1.76,2.979c-1.081,1.775-2.19,3.533-3.346,5.262c-0.343,0.513-0.684,1.026-1.034,1.535
	c-1.341,1.954-2.734,3.875-4.171,5.764c-0.303,0.4-0.601,0.803-0.908,1.199c-1.219,1.571-2.501,3.095-3.784,4.616
	c-1.18,1.398-2.393,2.768-3.627,4.124c-0.079,0.086-0.16,0.171-0.238,0.257c-2.241,2.45-4.599,4.797-7,7.103
	c-0.766,0.738-1.526,1.468-2.326,2.185c-2.331,2.142-4.718,4.231-7.205,6.212c-0.174,0.137-0.334,0.294-0.509,0.429
	c-2.887,2.334-5.895,4.541-8.967,6.567c-73.33,48.887-179.15,29.174-253.771,76.219c-3.008,1.905-5.834,3.869-8.66,5.958
	c-61.17,44.404-81.316,124.921-94.09,198.314c-0.614,3.498-1.228,7.06-1.781,10.621c10.626,7.8,21.435,15.293,32.368,22.602
	c4.728,3.069,9.457,6.202,14.185,9.213c4.731,3.011,9.398,5.895,14.127,8.843c0.799,0.492,1.659,0.984,2.458,1.476
	c1.289,0.799,2.578,1.594,3.869,2.334c1.781,1.106,3.562,2.149,5.406,3.191c5.157,3.075,10.378,6.144,15.598,9.092
	c12.653,7.245,25.488,14.188,38.445,20.819c7.372,3.81,14.865,7.493,22.356,11.118c4.853,2.333,9.766,4.667,14.741,6.938
	c6.879,3.254,13.881,6.329,20.882,9.335c1.596,0.74,3.194,1.413,4.79,2.09c5.284,2.212,10.504,4.424,15.847,6.573
	c8.046,3.255,16.154,6.446,24.321,9.393h0.061c9.213,3.503,18.423,6.758,27.758,9.891v0.063c3.379,1.164,6.758,2.27,10.134,3.313
	c3.379,1.106,6.755,2.212,10.134,3.255l0.247,0.063c3.315,1.106,6.572,2.09,9.888,3.069c3.439,1.106,6.879,2.149,10.38,3.133
	c6.694,1.964,13.45,3.81,20.266,5.588c41.396,11.055,83.895,19.469,127.318,24.999h0.122c40.597,5.218,81.99,7.859,124,7.859
	c64.548,0,127.622-6.261,188.67-18.363c8.843-1.72,17.627-3.625,26.409-5.588c8.044-1.72,16.09-3.625,24.012-5.652
	c10.994-2.762,21.927-5.773,32.797-8.901c3.133-0.926,6.204-1.846,9.335-2.767c3.932-1.164,7.8-2.334,11.671-3.562
	c2.948-0.921,5.896-1.905,8.843-2.884c1.413-0.434,2.826-0.921,4.239-1.413c1.535-0.429,3.069-0.984,4.543-1.476
	c1.106-0.365,2.273-0.735,3.379-1.164c8.967-3.011,17.871-6.202,26.716-9.52c0.799-0.307,1.595-0.614,2.394-0.921
	c9.335-3.503,18.609-7.128,27.822-11.055h0.061c2.826-1.106,5.588-2.275,8.414-3.503c5.713-2.392,11.362-4.853,17.014-7.367
	l0.122-0.063c1.045-0.429,2.088-0.862,3.069-1.35c23.708-10.689,46.923-22.294,69.586-34.762v-0.063l0.982-0.55
	c10.195-5.651,20.329-11.488,30.28-17.564c13.51-8.049,26.777-16.463,39.859-25.242c-0.063-11.24-1.106-22.602-2.397-33.72
	c-5.464-46.86-14.37-93.413-26.531-139.167c-4.239-15.849-9.089-32.063-19.345-45.204c-13.145-16.765-33.72-26.718-54.17-34.392
	c-0.492-0.185-1.045-0.37-1.474-0.492c-52.818-19.533-109.382-27.761-164.78-39.06c-52.326-10.626-111.471-30.344-129.588-78.368
	c-2.945-7.673-4.542-15.652-5.34-23.689c29.915,18.511,64.695,30.918,101.479,34.54c90.173,8.877,185.5-39.157,214.747-112.794
	c-20.431,9.003-44.341,18.177-65.462,10.431c-19.807-7.265-29.376-27.917-26.77-46.246c2.606-18.329,14.894-34.568,28.531-48.867
	c43.104-45.184,101.978-77.554,146.933-121.398c48.59-47.391,79.586-107.829,87.469-170.553
	C1659.152,961.253,1637.824,889.579,1573.437,861.004z"/>
<path style="fill:#FFFBF7;" d="M1312.83,1049.457c-9.547-41.16-63.849-62.173-101.427-57.608
	c-54.209,6.578-93.344,45.194-115.995,92.95c-2.668,5.622,4.809,12.867,9.349,7.215c0.629-0.783,1.274-1.551,1.909-2.329
	c0.032,3.789,0.746,7.52,2.418,11.07c2.958,6.28,8.446,10.986,14.122,14.982c27.194,19.147,62.677,26.051,95.064,18.499
	c32.387-7.556,61.155-29.442,77.074-58.65c5.968-10.95,7.75-20.756,6.491-29.416c2.199,1.891,4.434,3.807,6.766,5.747
	C1310.511,1053.506,1313.43,1052.039,1312.83,1049.457z"/>
<path style="fill:#B43126;" d="M1573.437,861.004c29.691,12.882,67.776,10.032,94.416-7.055
	c-66.331-39.45-110.314-105.281-116.433-174.27c-2.597-29.291,1.245-58.986-4.441-87.951
	c-17.95-91.464-122.801-138.815-228.356-146.091c4.831-2.987,9.68-5.899,14.376-8.729c12.234-7.376,67.854-44.833,81.41-38.69
	c-39.676-17.983-89.167-11.917-123.327,15.108c15.898-43.03,2.28-95.293-32.592-125.096c12.136,52.106,7.32,107.992-13.438,157.301
	c-6.456-69.933-50.915-141.723-128.767-168.478c-51.764-17.793-111.094-13.895-163.184,3.162
	c-52.092,17.053-97.756,46.363-139.05,78.802c-44.913,35.284-85.997,74.982-137.272,102.957
	c-51.271,27.975-116.677,42.952-172.818,23.264c0.236,46.387,44.502,89.535,97.501,95.035
	c-50.281,11.737-80.714,57.023-92.28,101.14c-11.564,44.116-9.805,90.416-23.496,134.07c-13.688,43.654-49.298,87.172-100.879,93.32
	c30.451,19.683,75.942,19.435,106.102-0.585c-45.493,27.474-66.351,78.796-63.116,126.86c3.235,48.068,27.326,93.32,56.582,134.202
	c25.674,35.879,55.744,69.647,75.793,108.136c20.051,38.49,29.238,83.727,11.081,122.918
	c-18.156,39.191-69.744,68.107-116.238,55.771c39.569,55.556,120.765,82.397,195.491,75.186
	c74.726-7.206,142.47-44.112,194.272-91.469c14.589,13.326,24.05,30.614,27.543,48.743c0.549-1.524,1.057-3.059,1.553-4.599
	c0.251-0.774,0.538-1.531,0.765-2.317c0.677-2.149,1.291-4.361,1.783-6.573c0.244-0.984,0.49-1.964,0.735-2.948
	c0.614-2.456,1.106-4.853,1.474-7.308c0.156-0.965,0.288-1.914,0.436-2.863c0.178-1.171,0.343-2.342,0.49-3.517
	c0.133-0.939,0.252-1.862,0.301-2.77l0.063-0.307c0.066-0.4,0.063-0.799,0.111-1.199c0.16-1.712,0.288-3.427,0.381-5.143
	c0.149-2.255,0.151-4.496,0.167-6.738c0.003-1.187,0.057-2.373,0.027-3.561c-0.027-1.194-0.14-2.386-0.203-3.578
	c-0.093-1.768-0.151-3.537-0.317-5.301c-0.347-3.722-0.58-7.531-0.75-11.376c-0.008-0.199-0.019-0.396-0.027-0.596
	c-0.163-3.925-0.236-7.894-0.203-11.904c-55.142-41.004-103.599-91.443-129.232-152.44c-9.869-23.485-16.126-47.97-20.306-72.905
	c-18.717,9.688-44.063,5.133-64.336-3.738c-36.265-15.864-67.953-42.836-87.466-77.277c-19.511-34.441-26.314-76.331-16.539-114.689
	c4.173-16.37,11.837-32.716,25.588-42.534c17.97-12.825,42.563-11.349,62.789-1.672c8.601,43.498,24.453,85.396,48.078,123.012
	c20.685,32.931,49.388,63.966,87.24,72.901c-33.532-67.79-31.951-151.829,4.107-218.314c9.247-17.047,20.923-33.286,36.896-44.287
	c14.913-10.275,32.67-15.406,50.041-20.536c65.719-19.401,134.826-43.737,176.726-97.959
	c-32.484,39.328-57.481,84.824-73.255,133.335c57.065-49.223,126.446-81.934,186.558-127.386
	c36.348-27.485,70.516-61.745,92.085-102.518c-7.19,48.865-2.944,98.726,16.738,145.573c18.536,44.131,48.674,82.933,64.526,128.097
	c17.335,49.388,16.214,105.023-3.096,153.676c12.468-3.313,21.669-13.628,29.718-23.712c29.857-37.398,54.672-78.776,73.852-122.617
	c18.572-12.297,42.506-17.153,62-7.112c15.021,7.732,24.955,22.806,31.437,38.407c15.189,36.555,14.48,78.986,0.124,115.878
	c-14.355,36.887-41.839,68.137-75.444,89.052c-22.424,13.954-52.901,22.948-74.125,7.226c-0.872-0.646-1.689-1.339-2.495-2.042
	c-4.049,22.421-10,44.416-19.636,65.364c-33.328,72.448-105.437,122.475-175.646,167.001c-7.131,4.523-14.36,9.042-21.68,13.459
	c-0.03,4.608-0.165,9.224-0.309,13.838c-0.005,0.206-0.007,0.414-0.013,0.62c-0.182,5.466-0.307,10.87-0.368,16.273
	c-0.061,6.694,0.122,13.389,0.799,19.961c0.001,0.006,0.001,0.012,0.002,0.018c29.915,18.511,64.695,30.918,101.479,34.54
	c90.173,8.877,185.5-39.157,214.747-112.794c-20.431,9.003-44.341,18.177-65.462,10.431c-19.807-7.265-29.376-27.917-26.77-46.246
	c2.606-18.329,14.894-34.568,28.531-48.867c43.104-45.184,101.978-77.554,146.933-121.398
	c48.59-47.391,79.586-107.829,87.469-170.553C1659.152,961.253,1637.824,889.579,1573.437,861.004z"/>
<path style="fill:#FFFBF7;" d="M996.505,1085.36c-21.316-48.405-59.518-88.21-113.595-96.171
	c-37.384-5.505-92.015,14.173-102.672,54.879c-0.692,2.641,2.346,3.941,4.229,2.461c6.009-4.727,11.168-9.222,16.339-13.282
	c-8.427,12.462-9.867,28.116,1.373,46.598c17.286,28.419,47.06,48.921,79.769,54.928c32.711,6.012,67.827-2.568,94.08-22.982
	c5.481-4.263,10.74-9.223,13.399-15.635c0.296-0.715,0.539-1.437,0.764-2.162C994.473,1094.853,998.847,1090.683,996.505,1085.36z"
	/>
<path style="fill:#5C97C1;" d="M1539.159,1699.127c-4.239-15.849-9.089-32.063-19.345-45.204
	c-13.145-16.765-33.72-26.718-54.17-34.392c-0.492-0.185-1.045-0.37-1.474-0.492c-57.793,56.258-115.832,112.638-182.775,157.471
	c-74.19,49.686-161.218,84.692-250.516,81.623c-33.471-1.169-66.514-7.557-99.003-15.601
	c-81.13-20.024-160.173-50.421-230.309-95.873c-45.939-29.846-87.581-65.773-133.457-95.805c-4.424-2.889-9.152-5.773-14.066-8.292
	c-61.17,44.404-81.316,124.921-94.09,198.314c-0.614,3.498-1.228,7.06-1.781,10.621c10.626,7.8,21.435,15.293,32.368,22.602
	c4.728,3.069,9.457,6.202,14.185,9.213c4.731,3.011,9.398,5.895,14.127,8.843c0.799,0.492,1.659,0.984,2.458,1.476
	c1.289,0.799,2.578,1.594,3.869,2.334c1.781,1.106,3.562,2.149,5.406,3.191c5.157,3.075,10.378,6.144,15.598,9.092
	c12.653,7.245,25.488,14.188,38.445,20.819c7.372,3.81,14.865,7.493,22.356,11.118c4.853,2.333,9.766,4.667,14.741,6.938
	c6.879,3.254,13.881,6.329,20.882,9.335c1.596,0.74,3.194,1.413,4.79,2.09c5.284,2.212,10.504,4.424,15.847,6.573
	c8.046,3.255,16.154,6.446,24.321,9.393h0.061c9.213,3.503,18.423,6.758,27.758,9.891v0.063c3.379,1.164,6.758,2.27,10.134,3.313
	c3.379,1.106,6.755,2.212,10.134,3.255l0.247,0.063c3.315,1.106,6.572,2.09,9.888,3.069c3.439,1.106,6.879,2.149,10.38,3.133
	c6.694,1.964,13.45,3.81,20.266,5.588c41.396,11.055,83.895,19.469,127.318,24.999h0.122c40.597,5.218,81.99,7.859,124,7.859
	c64.548,0,127.622-6.261,188.67-18.363c8.843-1.72,17.627-3.625,26.409-5.588c8.044-1.72,16.09-3.625,24.012-5.652
	c10.994-2.762,21.927-5.773,32.797-8.901c3.133-0.926,6.204-1.846,9.335-2.767c3.932-1.164,7.8-2.334,11.671-3.562
	c2.948-0.921,5.896-1.905,8.843-2.884c1.413-0.434,2.826-0.921,4.239-1.413c1.535-0.429,3.069-0.984,4.543-1.476
	c1.106-0.365,2.273-0.735,3.379-1.164c8.967-3.011,17.871-6.202,26.716-9.52c0.799-0.307,1.595-0.614,2.394-0.921
	c9.335-3.503,18.609-7.128,27.822-11.055h0.061c2.826-1.106,5.588-2.275,8.414-3.503c5.713-2.392,11.362-4.853,17.014-7.367
	l0.122-0.063c1.045-0.429,2.088-0.862,3.069-1.35c23.708-10.689,46.923-22.294,69.586-34.762v-0.063l0.982-0.55
	c10.195-5.651,20.329-11.488,30.28-17.564c13.51-8.049,26.777-16.463,39.859-25.242c-0.063-11.24-1.106-22.602-2.397-33.72
	C1560.226,1791.434,1551.32,1744.881,1539.159,1699.127z"/>
<path style="fill:#EF7E90;" d="M825.46,1553.812c12.193,4.668,25.576,6.524,38.672,7.571c36.336,2.904,73.006,0.38,108.677-7.001
	c62.911-13.047,122.679-41.242,172.589-81.72c5.143-4.146,11.43-9.096,18.239-14.719c0.039-5.607,0.229-11.247,0.405-16.893
	c0.145-4.613,0.279-9.23,0.309-13.838c-36.085,21.778-74.596,40.889-116.933,43.481c-58.156,3.562-112.663-24.818-158.58-57.613
	c-3.267-2.333-6.507-4.712-9.732-7.111c-0.033,4.01,0.04,7.979,0.203,11.904c0.008,0.199,0.018,0.397,0.027,0.596
	c0.17,3.845,0.403,7.654,0.75,11.376c0.167,1.765,0.224,3.534,0.317,5.301c0.062,1.193,0.174,2.385,0.203,3.578
	c0.029,1.187-0.024,2.373-0.027,3.561c-0.006,2.248-0.045,4.494-0.167,6.738c-0.093,1.717-0.221,3.431-0.381,5.143
	c-0.133,1.428-0.297,2.852-0.476,4.276c-0.147,1.174-0.313,2.346-0.49,3.517c-1.131,7.449-2.87,14.807-5.194,22.009
	c-0.496,1.54-1.004,3.075-1.553,4.599c-0.065,0.18-0.118,0.364-0.184,0.544c-0.494,1.356-1.045,2.691-1.581,4.033
	c-0.513,1.285-1.015,2.574-1.565,3.846c-0.724,1.675-1.511,3.322-2.298,4.971c-0.362,0.758-0.713,1.521-1.089,2.273
	c-0.809,1.621-1.66,3.219-2.529,4.811c-0.567,1.04-1.131,2.08-1.724,3.107c-0.577,0.999-1.16,1.993-1.76,2.979
	c-1.081,1.775-2.19,3.533-3.346,5.262c-0.343,0.513-0.684,1.026-1.034,1.535c-1.341,1.954-2.734,3.875-4.171,5.764
	c-0.303,0.4-0.601,0.803-0.908,1.199c-1.219,1.571-2.501,3.095-3.784,4.616c-1.18,1.398-2.393,2.768-3.627,4.124
	c-0.079,0.086-0.16,0.171-0.238,0.257C837.251,1543.609,831.596,1548.973,825.46,1553.812z"/>
<path style="fill:#EF7E8E;" d="M1423.61,1120.848c2.775-2.738,3.869-3.615,4.626-7.693c0.699-3.771,0.989-7.59,1.476-11.391
	c0.955-7.459,2.309-14.884,4.056-22.202c3.081-12.905,7.55-25.445,13.669-37.205c2.985-0.138,5.855-1.262,8.838-1.377
	c3.262-0.126,6.005,0.083,9.07,1.277c5.793,2.256,9.564,7.932,11.031,14.037c1.603,6.675,0.222,13.744-3.203,19.824
	c-1.769,3.133-3.959,6.022-6.36,8.702c-2.663,2.967-6.605,6.041-7.401,10.163c-0.344,1.769,0.482,4.117,2.534,4.463
	c8.112,1.359,15.639-7.284,19.873-13.165c4.736-6.577,7.605-14.411,8.083-22.504c0.919-15.562-8.568-31.518-24.67-34.324
	c-3.383-0.59-6.768-0.715-10.096-0.069c6.214-9.099,13.581-17.367,22.098-24.403c5.24-4.331,10.887-8.146,16.882-11.352
	c6.059-3.24,13.04-4.901,18.504-9.072c3.004-2.295,1.885-6.392-1.859-6.865c-7.23-0.906-14.116,2.5-20.516,5.564
	c-6.499,3.114-12.616,6.972-18.329,11.357c-11.72,8.999-21.627,20.297-29.52,32.77c-8.682,13.72-14.855,29.105-19.033,44.76
	c-2.265,8.497-3.932,17.14-5.162,25.847c-0.587,4.141-1.264,8.341-1.372,12.526c-0.122,4.741,0.495,6.222,3.276,9.886
	C1420.962,1121.525,1422.489,1121.959,1423.61,1120.848z"/>
<path style="fill:#EF7E8E;" d="M661.394,1030.992c-8.317-11.659-18.371-21.934-30.244-29.998
	c-11.243-7.63-26.153-15.011-40.058-13.554c-6.056,0.629-7.525,8.643-1.454,10.743c12.565,4.341,24.372,7.226,35.512,14.958
	c5.571,3.869,10.696,8.416,15.358,13.402c-2.871,0.341-5.727,0.935-8.532,2.062c-7.803,3.133-14.497,8.838-19.031,15.908
	c-9.218,14.382-6.468,32.711,3.862,45.671c2.826,3.547,6.275,6.607,10.112,9.028c2.095,1.325,4.273,2.383,6.721,2.85
	c2.84,0.541,4.582-0.287,7.05-1.413c1.537-0.701,2.19-3.225,1.201-4.58c-1.42-1.949-2.146-3.298-4.207-4.721
	c-1.715-1.179-3.601-2.037-5.342-3.172c-2.85-1.866-5.398-4.351-7.406-7.094c-4.389-6.007-6.874-13.803-5.759-21.252
	c2.003-13.38,15.055-23.263,28.248-25.076c1.752,2.286,3.455,4.607,5.021,7c8.046,12.282,14.28,25.613,19.242,39.41
	c5.072,14.1,8.534,28.838,15.43,42.173c1.403,2.714,5.805,1.437,5.72-1.55c-0.46-16.355-5.293-32.658-10.609-48.063
	C677.065,1058.748,670.629,1043.937,661.394,1030.992z"/>
<path style="fill:#9A231E;" d="M862.142,476.776c32.458-22.777,59.868-53.686,96.492-68.892
	c43.768-18.173,94.928-10.723,137.634,9.822c42.706,20.546,78.421,52.965,112.416,85.983c-2.37-2.299-1.41-46.514-3.527-54.173
	c-4.282-15.493-11.038-30.611-18.431-44.789c-16.472-31.591-38.572-63.328-69.196-82.553
	c-53.262-33.442-124.424-22.85-179.859,6.845c-25.842,13.846-49.647,31.483-70.414,52.175
	c-25.267,25.169-45.949,54.704-71.875,79.196c-25.927,24.492-59.218,44.263-94.865,43.103
	C753.272,524.966,815.52,509.492,862.142,476.776z"/>
<path style="fill:#9A231E;" d="M732.804,669.399c-56.669,54.913-79.388,142.314-56.63,217.871
	c15.868-83.328,58.947-161.242,121.081-218.982c31.113-28.916,66.819-52.906,95.479-84.253c28.662-31.347,50.28-72.96,44.429-115.03
	c2.83,20.346-32.132,57.062-46.726,68.643c-18.787,14.904-41.781,26.982-61.858,40.18c-55.308,36.36-118.94,59.917-184.745,67.479
	C672.77,655.738,702.558,663.806,732.804,669.399z"/>
<path style="fill:#1A1029;" d="M1104.757,1092.015c0.629-0.783,1.274-1.551,1.909-2.329c14.079-17.25,29.625-33.058,47.54-45.583
	c-0.917,3.296-1.576,6.726-1.921,10.275c-2.836,29.198,15.886,54.913,41.819,57.437c25.932,2.519,49.255-19.113,52.09-48.312
	c1.778-18.292-4.906-35.212-16.52-45.923c9.894-0.241,19.807,0.662,29.117,2.864c18.432,4.357,29.91,14.427,43.043,25.726
	c2.199,1.891,4.434,3.807,6.766,5.747c1.91,1.589,4.828,0.122,4.229-2.46c-9.547-41.16-63.849-62.173-101.427-57.608
	c-54.209,6.578-93.344,45.194-115.995,92.95C1092.74,1090.422,1100.217,1097.667,1104.757,1092.015z"/>
<path style="fill:#1A1029;" d="M868.213,1014.706c-11.529,9.686-19.028,25.118-19.028,42.561c0,29.335,21.121,53.121,47.174,53.121
	c26.056,0,47.176-23.786,47.176-53.121c0-3.961-0.415-7.808-1.144-11.522c16.589,12.95,31.06,28.746,43.834,45.622
	c1.149,1.519,2.552,2.343,3.965,2.627c4.284,0.859,8.658-3.311,6.315-8.634c-21.316-48.405-59.518-88.21-113.595-96.171
	c-37.384-5.505-92.015,14.173-102.672,54.879c-0.692,2.641,2.346,3.941,4.229,2.461c6.009-4.727,11.168-9.222,16.339-13.282
	c8.88-6.973,17.796-12.652,31.106-15.922C843.32,1014.52,855.91,1013.718,868.213,1014.706z"/>
<path style="fill:#EF7E8E;" d="M1069.386,1257.802c19.035-3.664,34.292-18.383,40.555-36.361
	c5.052-14.504-17.944-20.735-22.962-6.333c-4.456,12.794-18.58,21.827-32.114,19.805c-14.29-2.139-24.841-14.821-25.596-28.911
	c-0.519-9.72,1.771-19.245,3.795-28.667c2.429-11.308,4.865-22.616,7.299-33.924c4.69-21.803,9.381-43.61,14.073-65.418
	c3.215-14.943-19.735-21.33-22.962-6.329c-4.429,20.595-8.86,41.189-13.291,61.783c-4.424,20.565-10.29,41.394-12.38,62.358
	c-1.798,18.007,3.296,36.351,17.06,48.692C1035.659,1255.975,1052.463,1261.062,1069.386,1257.802z"/>
<path style="fill:#B43126;" d="M1119.817,999.274c11.001-3.761,20.265-12.565,30.729-17.72c12.28-6.056,25.379-10.451,38.767-13.286
	c28.149-5.963,57.41-5.223,85.846-0.828c3.523,0.546,7.208,1.135,10.582-0.014c3.374-1.145,6.236-4.677,5.311-8.122
	c-0.575-2.139-2.392-3.679-4.146-5.028c-26.2-20.18-60.112-30.08-93.055-27.162c-32.943,2.914-64.587,18.617-86.833,43.089
	C1093.165,985.437,1095.245,1007.664,1119.817,999.274z"/>
<path style="fill:#B43126;" d="M807.63,965.155c3.374,1.15,7.059,0.56,10.58,0.014c28.438-4.394,57.698-5.135,85.849,0.829
	c13.388,2.835,26.487,7.23,38.767,13.286c10.461,5.155,19.725,13.959,30.729,17.72c24.572,8.39,26.653-13.837,12.799-29.072
	c-22.246-24.472-53.893-40.175-86.835-43.089c-32.941-2.918-66.853,6.982-93.052,27.162c-1.754,1.35-3.571,2.889-4.146,5.028
	C801.394,960.478,804.254,964.01,807.63,965.155z"/>
<path style="fill:#1A1029;" d="M1186.86,1293.398c9.883-10.592-6.015-26.558-15.932-15.932
	c-43.249,46.358-107.822,72.531-171.252,62.017c-5.995-0.994-12.126,1.573-13.856,7.868c-1.481,5.389,1.832,12.858,7.866,13.857
	C1065.104,1373.047,1137.729,1346.056,1186.86,1293.398z"/>
<path style="fill:#EF7E90;" d="M925.107,1219.386c0-15.274-22.307-27.654-49.823-27.654c-27.517,0-49.824,12.38-49.824,27.654
	c0,15.269,22.307,27.649,49.824,27.649C902.799,1247.035,925.107,1234.655,925.107,1219.386z"/>
<path style="fill:#EF7E90;" d="M1232.724,1191.732c-27.518,0-49.825,12.38-49.825,27.654c0,15.269,22.307,27.649,49.825,27.649
	c27.515,0,49.822-12.38,49.822-27.649C1282.546,1204.112,1260.239,1191.732,1232.724,1191.732z"/>
<path style="fill:#9A231E;" d="M1271.091,543.655c57.493-1.326,113.807,25.578,137.632,80.716
	c19.973,46.216,13.98,103.098,44.514,143.132c23.657,31.016,67.919,44.478,104.838,31.878c-31.401-13.808-48.5-48.433-55.357-82.042
	c-6.857-33.613-6.097-68.565-14.719-101.768c-9.627-37.081-31.707-71.566-63.868-92.39
	C1379.539,494.315,1302.26,492.269,1271.091,543.655z"/>
<path style="fill:#9A231E;" d="M528.593,840.103c69.959-61.822,13.805-225.695,126.348-246.183c6.409-1.169,4.972-11.8-1.542-11.401
	c-45.605,2.767-75.396,39.016-88.278,80.297c-18.163,58.193-11.321,118.046-42.607,172.599
	C520.267,839.338,525.353,842.968,528.593,840.103z"/>
<path style="fill:#9A231E;" d="M1169.308,566.656c1.213-4.088-4.292-5.91-6.529-2.753c-19.491,27.547-36.638,56.122-59.435,81.252
	c-23.556,25.973-50.355,48.233-79.971,66.996c-28.46,18.031-59.515,32.658-91.946,41.934c-31.995,9.149-64.882,8.467-97.274,14.529
	c-2.153,0.404-2.11,3.873,0,4.307c33.773,6.977,70.514-2.368,103.169-11.24c33.522-9.11,65.871-22.426,95.752-40.214
	C1090.353,687.372,1149.851,632.128,1169.308,566.656z"/>
<path style="fill:#9A231E;" d="M1200.509,567.475c-1.927-4.068-8.94-3.128-9.793,1.276c-5.931,30.723-5.081,59.761-20.207,88.419
	c-14.731,27.907-37.005,48.078-61.247,67.518c-4.302,3.449,0.368,10.368,5.211,8.955
	C1173.895,716.293,1228.984,627.553,1200.509,567.475z"/>
<path style="fill:#9A231E;" d="M523.46,1106.899c-25.783-47.342-33.437-109.291,7.252-150.986
	c5.099-5.228-1.805-15.196-8.114-10.519c-76.115,56.428-38.129,160.326,13.374,218.957
	c57.391,65.335,182.494,187.195,81.954,271.225c-1.796,1.501,0.614,4.682,2.526,3.274c29.33-21.579,38.938-53.496,41.813-88.711
	c3.673-45.004-19.398-87.888-45.927-122.772C585.526,1186.846,548.049,1152.044,523.46,1106.899z"/>
<path style="fill:#9A231E;" d="M671.202,1253.627c-1.423-1.072-2.897,0.935-2.241,2.241c14.27,28.468,33.325,53.248,36.679,86.032
	c3.179,31.074-7.681,62.343-29.474,84.828c-1.937,1.998,0.602,5.613,3.067,3.971
	C739.457,1390.655,724.461,1293.754,671.202,1253.627z"/>
</svg>
