<?xml version="1.0" encoding="utf-8"?>
<!-- Generator: Adobe Illustrator 27.5.0, SVG Export Plug-In . SVG Version: 6.00 Build 0)  -->
<svg version="1.1" id="Capa_1" xmlns="http://www.w3.org/2000/svg" xmlns:xlink="http://www.w3.org/1999/xlink" x="0px" y="0px"
	 viewBox="0 0 2122 2122" style="enable-background:new 0 0 2122 2122;" xml:space="preserve">
<path style="fill:#FAD2CD;" d="M1061.856,163.785c-503.787,0-912.24,408.394-912.24,912.24
	c0,278.058,124.407,527.047,320.604,694.343c36.555,31.201,75.588,59.525,116.806,84.684c1.21,0.748,2.419,1.496,3.627,2.187
	c36.614,22.163,74.841,41.796,114.563,58.662c4.953,2.073,9.844,4.144,14.852,6.161c7.542,3.05,15.143,6.044,22.799,8.806h0.056
	c8.636,3.282,17.272,6.334,26.022,9.27v0.058c3.167,1.094,6.332,2.129,9.498,3.108c3.167,1.035,6.334,2.073,9.501,3.05
	c3.164,1.038,6.331,2.015,9.498,2.935c3.223,1.038,6.448,2.017,9.73,2.938c6.275,1.841,12.607,3.569,18.996,5.237
	c75.187,20.092,154.171,30.801,235.688,30.801c88.484,0,173.975-12.609,254.859-36.097c2.936-0.863,5.815-1.727,8.75-2.59
	c3.686-1.094,7.311-2.187,10.938-3.34c2.765-0.862,5.527-1.786,8.29-2.707c1.325-0.402,2.65-0.862,3.973-1.323
	c1.44-0.405,2.88-0.921,4.26-1.381c28.497-9.557,56.302-20.494,83.418-32.757c22.222-10.017,43.983-20.899,65.225-32.584v-0.059
	l0.921-0.516c9.557-5.296,19.055-10.765,28.382-16.465c37.708-22.509,73.63-47.783,107.54-75.474
	c204.889-167.237,335.685-421.865,335.685-706.949C1974.099,572.18,1565.702,163.785,1061.856,163.785z"/>
<path style="fill:#C2C1E2;" d="M1557.059,1252.97c12.451-95.766,2.117-193.352-19.747-288.119
	c-10.028-43.468-23.139-87.216-40.06-129.567c4.13-8.283,5.576-18.115,6.477-27.495c13.606-141.657-38.789-288.285-139.084-389.242
	c-31.201-31.408-68.178-59.23-111.342-69.067c-65.556-14.94-135.35,15.476-181.252,64.868c-3.297-5.933-7.183-11.546-11.795-16.719
	c-46.412-52.051-119.405-84.382-187.191-67.997c-43.03,10.402-79.639,38.709-110.426,70.521
	c-92.324,95.408-142.415,230.017-136.166,362.511c-5.364,15.756-10.428,31.244-15.442,45.956
	c-23.942,70.244-41.881,142.236-53.618,215.118c-12.972,80.553-18.37,162.202-15.924,243.758
	c99.383-23.362,202.403-25.387,305.862-23.774c31.053,30.557,67.11,54.186,106.773,68.848c-0.116,1.247-0.218,2.492-0.356,3.742
	c-0.116,1.039-0.237,2.077-0.37,3.118c-0.352,2.772-0.733,5.548-1.198,8.325c-0.017,0.102-0.037,0.204-0.054,0.307
	c-0.444,2.626-0.969,5.25-1.512,7.874c-0.207,0.999-0.411,1.995-0.632,2.992c-1.339,6.036-2.925,12.052-4.777,18.008
	c-1.212,3.896-2.548,7.761-3.974,11.597c-0.825,2.221-1.689,4.429-2.585,6.625c-0.726,1.781-1.499,3.54-2.271,5.302
	c-0.641,1.461-1.271,2.928-1.943,4.375c-0.636,1.367-1.304,2.714-1.967,4.066c-0.745,1.521-1.496,3.038-2.276,4.539
	c-0.779,1.501-1.586,2.982-2.399,4.462c-0.699,1.271-1.408,2.534-2.132,3.789c-1.055,1.829-2.142,3.634-3.25,5.427
	c-0.421,0.68-0.85,1.355-1.278,2.03c-1.239,1.951-2.497,3.881-3.798,5.782c-0.558,0.816-1.133,1.618-1.704,2.425
	c-1.282,1.815-2.578,3.617-3.918,5.38c-1.417,1.865-2.85,3.715-4.331,5.517c-0.555,0.677-1.126,1.335-1.691,2.002
	c-0.086,0.102-0.177,0.198-0.263,0.299c-2.756,3.243-5.63,6.352-8.59,9.36c-0.394,0.4-0.784,0.802-1.181,1.198
	c-0.8,0.823-1.595,1.638-2.436,2.436c-3.569,3.396-7.255,6.619-11.055,9.613c-30.799,24.295-68.794,36.039-106.848,47.724
	c-21.415,6.565-42.889,13.069-63.038,21.934c-16.58,7.14-32.297,15.832-46.402,27.288c-36.441,29.476-57.915,74.263-67.987,120.09
	c-10.017,45.766-9.671,93.147-9.155,140.066c0.173,15.486,0.405,31.374,1.9,46.977c36.614,22.163,74.841,41.796,114.563,58.662
	c4.953,2.073,9.844,4.144,14.852,6.161c7.542,3.05,15.143,6.044,22.799,8.806h0.056c8.636,3.282,17.272,6.334,26.022,9.27v0.058
	c3.167,1.094,6.332,2.129,9.498,3.108c3.167,1.035,6.334,2.073,9.501,3.05c3.164,1.038,6.331,2.015,9.498,2.935
	c3.223,1.038,6.448,2.017,9.73,2.938c6.275,1.841,12.607,3.569,18.996,5.237c75.187,20.092,154.171,30.801,235.688,30.801
	c88.484,0,173.975-12.609,254.859-36.097c2.936-0.863,5.815-1.727,8.75-2.59c3.686-1.094,7.311-2.187,10.938-3.34
	c2.765-0.862,5.527-1.786,8.29-2.707c1.325-0.402,2.65-0.862,3.973-1.323c1.44-0.405,2.88-0.921,4.26-1.381
	c28.497-9.557,56.302-20.494,83.418-32.757c22.222-10.017,43.983-20.899,65.225-32.584v-0.059l0.921-0.516
	c9.557-5.296,19.055-10.765,28.382-16.465c1.669-16.005,1.956-32.297,2.073-48.185c0.402-46.918,0.804-94.299-9.154-140.066
	c-10.075-45.827-31.606-90.614-68.105-120.09c-21.184-17.213-45.997-28.151-71.902-37.247
	c-19.057-6.621-38.801-12.205-58.088-18.422c-30.915-9.902-60.909-21.415-86.182-41.279c-26.537-20.895-46.742-51.346-59.062-84.447
	c0.004-0.004,0.008-0.007,0.012-0.01c-0.353-0.947-0.66-1.907-1.001-2.858c-1.353-3.779-2.601-7.588-3.746-11.423
	c-0.727-2.431-1.406-4.869-2.047-7.315c-0.568-2.168-1.118-4.336-1.619-6.513c-0.01-0.044-0.019-0.089-0.029-0.134
	c-0.611-2.664-1.134-5.333-1.639-8.002c-0.26-1.34-0.496-2.681-0.717-4.022c-0.294-1.729-0.564-3.457-0.815-5.186
	c-0.101-0.715-0.233-1.429-0.319-2.154l-0.05-0.198c-0.046-0.337-0.09-0.675-0.133-1.013c-0.427-3.3-0.775-6.591-1.036-9.873
	c-0.019-0.242-0.045-0.486-0.063-0.728c-0.12-1.585-0.219-3.164-0.3-4.743c-0.024-0.471-0.037-0.94-0.058-1.411
	c32.247-14.94,62.297-35.715,89.086-61.448C1356.734,1239.343,1457.301,1239.546,1557.059,1252.97z"/>
<path style="fill:#E65322;" d="M1523.792,1670.197c-10.075-45.827-31.606-90.614-68.105-120.09
	c-21.184-17.213-45.997-28.151-71.902-37.247c-19.057-6.621-38.801-12.205-58.088-18.422c-9.729,12.146-18.94,23.316-27.749,32.526
	c-46.689,48.876-105.754,86.928-170.519,106.041h-0.034c-7.349,23.514-18.897,45.614-28.708,68.285
	c-13.593,31.406-23.937,64.217-30.811,97.742c-18.751-19.924-74.444-99.25-89.384-158.198
	c-83.704-16.466-161.017-67.528-203.157-139.95c-21.415,6.565-42.889,13.069-63.038,21.934c-16.58,7.14-32.297,15.832-46.402,27.288
	c-36.441,29.476-57.915,74.263-67.987,120.09c-10.017,45.766-9.671,93.147-9.155,140.066c0.173,15.486,0.405,31.374,1.9,46.977
	c36.614,22.163,74.841,41.796,114.563,58.662c4.953,2.073,9.844,4.144,14.852,6.161c7.542,3.05,15.143,6.044,22.799,8.806h0.056
	c8.636,3.282,17.272,6.334,26.022,9.27v0.058c3.167,1.094,6.332,2.129,9.498,3.108c3.167,1.035,6.334,2.073,9.501,3.05
	c3.164,1.038,6.331,2.015,9.498,2.935c3.223,1.038,6.448,2.017,9.73,2.938c6.275,1.841,12.607,3.569,18.996,5.237
	c75.187,20.092,154.171,30.801,235.688,30.801c88.484,0,173.975-12.609,254.859-36.097c2.936-0.863,5.815-1.727,8.75-2.59
	c3.686-1.094,7.311-2.187,10.938-3.34c2.765-0.862,5.527-1.786,8.29-2.707c1.325-0.402,2.65-0.862,3.973-1.323
	c1.44-0.405,2.88-0.921,4.26-1.381c28.497-9.557,56.302-20.494,83.418-32.757c22.222-10.017,43.983-20.899,65.225-32.584v-0.059
	l0.921-0.516c9.557-5.296,19.055-10.765,28.382-16.465c1.669-16.005,1.956-32.297,2.073-48.185
	C1533.349,1763.344,1533.751,1715.964,1523.792,1670.197z"/>
<path style="fill:#F9FAFE;" d="M995.34,964.754c-2.965-6.916-6.531-13.557-10.757-19.868c-0.657-1.043-1.318-2.085-2.031-3.074
	c-14.763-21.24-35.839-38.09-60.317-45.664c-1.152-0.439-2.36-0.767-3.513-1.096l-0.219-0.056
	c-8.012-2.141-16.246-3.184-24.589-3.184c-15.532-0.11-31.065,3.513-44.675,10.594c-10.538,5.379-19.869,12.787-27.223,22.173
	c-1.647,2.085-3.237,4.336-3.513,6.916c-0.329,2.799,0.767,5.598,1.976,8.178c6.641,14.324,15.588,27.771,26.4,39.296
	c9.277,9.991,19.978,18.497,31.834,24.809c5.598,3.018,11.469,5.542,17.561,7.464c5.435,1.756,11.033,3.018,16.684,3.732
	c0.77,0.163,1.594,0.219,2.361,0.329c16.08,1.757,32.655-0.439,47.476-6.75c0.987-0.385,1.976-0.88,3.018-1.318l1.152-0.548
	C983.374,998.946,1003.737,984.347,995.34,964.754z"/>
<path style="fill:#706CB0;" d="M950.663,1450.208c75.576,2.029,152.085-21.187,212.348-67.07
	c5.979-4.552,11.792-9.379,17.442-14.425c0.004-0.004,0.008-0.007,0.012-0.01c-0.353-0.947-0.66-1.907-1.001-2.858
	c-1.353-3.779-2.601-7.588-3.746-11.423c-0.727-2.431-1.406-4.869-2.047-7.315c-0.568-2.168-1.118-4.336-1.619-6.513
	c-0.01-0.044-0.019-0.089-0.029-0.134c-1.494-6.511-2.668-13.043-3.54-19.561c-0.046-0.337-0.09-0.675-0.133-1.013
	c-0.427-3.3-0.775-6.591-1.036-9.873c-0.019-0.242-0.045-0.486-0.063-0.728c-0.12-1.585-0.219-3.164-0.3-4.743
	c-0.024-0.471-0.037-0.94-0.058-1.411c-42.206,19.554-88.191,29.062-135.792,25.936c-26.797-1.759-52.549-7.469-76.976-16.498
	c-0.116,1.247-0.218,2.492-0.356,3.742c-0.116,1.039-0.237,2.077-0.37,3.118c-0.352,2.772-0.733,5.548-1.198,8.325
	c-0.017,0.102-0.037,0.204-0.054,0.307c-0.444,2.626-0.969,5.25-1.512,7.874c-0.207,0.999-0.411,1.995-0.632,2.992
	c-1.339,6.036-2.925,12.052-4.777,18.008c-1.212,3.896-2.548,7.761-3.974,11.597c-0.825,2.221-1.689,4.429-2.585,6.625
	c-0.726,1.781-1.499,3.54-2.271,5.302c-0.641,1.461-1.271,2.928-1.943,4.375c-0.636,1.367-1.304,2.714-1.967,4.066
	c-0.745,1.521-1.496,3.038-2.276,4.539c-0.779,1.501-1.586,2.982-2.399,4.462c-0.699,1.271-1.408,2.534-2.132,3.789
	c-1.055,1.829-2.142,3.634-3.25,5.427c-0.421,0.68-0.85,1.355-1.278,2.03c-1.239,1.951-2.497,3.881-3.798,5.782
	c-0.558,0.816-1.133,1.618-1.704,2.425c-1.282,1.815-2.578,3.617-3.918,5.38c-1.417,1.865-2.85,3.715-4.331,5.517
	c-0.555,0.677-1.126,1.335-1.691,2.002c-0.086,0.102-0.177,0.198-0.263,0.299c-2.756,3.243-5.63,6.352-8.59,9.36
	c-0.394,0.4-0.784,0.802-1.181,1.198c-0.813,0.81-1.591,1.662-2.419,2.454C912.465,1448.01,932.716,1449.713,950.663,1450.208z"/>
<path style="fill:#292C67;" d="M1537.312,964.851c-10.028-43.468-23.139-87.216-40.06-129.567c4.13-8.283,5.576-18.115,6.477-27.495
	c13.606-141.657-38.789-288.285-139.084-389.242c-31.201-31.408-68.178-59.23-111.342-69.067
	c-65.556-14.94-135.35,15.476-181.252,64.868c-3.297-5.933-7.183-11.546-11.795-16.719
	c-46.412-52.051-119.405-84.382-187.191-67.997c-43.03,10.402-79.639,38.709-110.426,70.521
	c-92.324,95.408-142.415,230.017-136.166,362.511c-5.364,15.756-10.428,31.244-15.442,45.956
	c-23.942,70.244-41.881,142.236-53.618,215.118c-12.972,80.553-18.37,162.202-15.924,243.758
	c99.383-23.362,202.403-25.387,305.862-23.774c-44.287-43.581-78.31-101.232-97.877-167.159
	c-47.72,23.179-110.886,0.813-145.551-53.376c-36.909-57.696-27.527-129.608,20.952-160.621
	c22.045-14.104,48.378-17.289,74.013-11.18c16.217,63.099,51.1,121.301,99.256,165.192c-9.79-47.14-15.998-95.023-18.58-143.101
	c-0.697-12.971,0.741-30.019,0.92-47.378c121.785-32.088,229.118-120.176,279.782-235.902c2.275,6.099,4.676,12.029,7.166,17.721
	c46.629,106.549,141.455,189.375,251.209,226.839c2.634,15.997,6.114,31.388,7.215,43.506c4.358,47.951,5.101,96.226,2.19,144.287
	c32.92-40.099,56.197-87.973,67.859-138.512c35.684-8.719,72.063-1.244,96.677,23.64c40.475,40.915,33.813,113.13-14.879,161.298
	c-37.448,37.041-88.798,48.959-128.951,33.931c-22.202,54.265-54.088,101.613-92.773,138.774
	c100.755-2.34,201.323-2.137,301.081,11.287C1569.51,1157.204,1559.176,1059.618,1537.312,964.851z"/>
<path style="fill:#706CB0;" d="M708.847,940.033c0.03-3.376-2.138-6.577-6.286-7.681c-16.818-18.613-40.725-31.886-65.53-34.343
	c-11.783-1.169-14.141,17.883-2.782,20.55c16.071,3.773,30.831,8.771,43.252,17.753c-24.349,12.376-38.663,46.918-22.73,71.398
	c10.277,15.793,25.349,4.813,21.905-10.914c-2.302-10.509-3.949-19.396,1.52-29.406c3.348-6.128,9.269-11.043,15.634-14.827
	c0.879,1.202,1.743,2.433,2.576,3.721c6.887,10.661,11.03,22.431,13.02,34.894c1.686,10.56,0.166,19.306,5.667,28.509
	c1.498,2.504,5.191,3.121,7.274,0.935c18.947-19.88,0.616-61.276-12.979-79.89C709.214,940.495,709.022,940.269,708.847,940.033z"/>
<path style="fill:#706CB0;" d="M1374.813,1053.633c1.62,1.647,3.859,1.637,5.82,0.75c9.223-4.168,8.524-10.56,11.284-19.666
	c3.966-13.086,10.292-25.391,18.278-36.477c1.17-1.624,2.446-3.097,3.68-4.629c0.495-0.05,0.988-0.092,1.503-0.212
	c9.925-2.312,22.178-0.107,25.179,11.488c3.001,11.608-8.336,18.105-13.752,26.475c-2.796,4.324-0.148,11.062,4.948,12.161
	c24.117,5.194,37.552-28.392,31.511-47.527c-3.781-11.976-14.205-20.928-26.143-24.643c11.498-8.727,24.055-16.128,36.798-23.695
	c4.056-2.409,2.719-10.231-2.599-9.588c-29.391,3.544-54.243,22.282-72.514,45.018
	C1387.853,996.717,1358.526,1037.068,1374.813,1053.633z"/>
<path style="fill:#F9FAFE;" d="M1281.671,917.334c-0.658-2.47-2.523-4.502-4.499-6.312c-8.344-7.958-18.222-13.832-29.033-17.674
	l-1.045-0.385c-14.49-5.048-30.405-6.365-45.773-4.061c-2.634,0.385-5.214,0.88-7.793,1.484c-5.598,1.262-11.03,3.018-16.299,5.322
	c-1.099,0.495-2.198,0.989-3.294,1.591c-23.162,11.033-41.547,30.735-53.128,53.842c-3.951,7.849-7.082,16.137-9.33,24.534
	c-5.545,20.638,16.738,32.163,34.083,37.432c1.481,0.438,2.964,0.877,4.39,1.262c15.588,4.117,32.273,3.898,47.971-0.163
	c4.28-1.099,8.507-2.526,12.568-4.227c1.919-0.77,3.842-1.593,5.707-2.526c5.707-2.799,11.196-6.093,16.302-9.934
	c10.811-7.903,20.197-17.891,27.934-29.089c3.403-4.884,6.531-10.044,9.33-15.367c4.555-8.726,8.288-17.946,11.142-27.332
	C1281.727,922.988,1282.384,920.076,1281.671,917.334z"/>
<path style="fill:#706CB0;" d="M1087.208,998.142c-6.979-17.103-26.095-61.447-49.023-37.167
	c-28.268,29.937-43.698,86.119-32.504,126.136c8.594,30.723,39.81,53.875,67.145,27.942c15.622-14.818,23.227-34.17,24.938-54.728
	C1099.52,1039.187,1095.186,1017.687,1087.208,998.142z"/>
<path style="fill:#BB5281;" d="M934.373,1106.968c0-27.503-26.86-49.801-59.998-49.801c-33.135,0-59.995,22.297-59.995,49.801
	s26.859,49.797,59.995,49.797C907.513,1156.766,934.373,1134.471,934.373,1106.968z"/>
<path style="fill:#BB5281;" d="M1231.593,1050.237c-33.135,0-59.998,22.294-59.998,49.8c0,27.503,26.863,49.798,59.998,49.798
	s59.998-22.295,59.998-49.798C1291.59,1072.532,1264.728,1050.237,1231.593,1050.237z"/>
<path style="fill:#F9FAFE;" d="M1149.235,1156.766c0,0-79.028,45.759-202.287,11.264
	C946.947,1168.03,1054.443,1312.532,1149.235,1156.766z"/>
<path style="fill:#292C67;" d="M1189.118,861.366c27.342-6.775,56.009-6.112,84.002-2.977
	c-13.608-28.604-46.667-45.522-78.268-43.33c-31.6,2.193-60.663,21.727-77.925,48.285c-9.581,14.741-17.871,35.839-11.378,53.301
	C1129.829,892.347,1154.648,869.909,1189.118,861.366z"/>
<path style="fill:#292C67;" d="M914.475,858.751c35.342,3.498,63.128,22.134,90.648,42.687c3.914-18.212-7.323-37.9-18.923-51.109
	c-20.904-23.803-52.47-38.955-84.058-36.582c-31.586,2.375-61.871,23.871-71.223,54.134
	C858.168,860.754,886.443,855.977,914.475,858.751z"/>
<path style="fill:#9594C8;" d="M1050.053,1101.784c2.036-0.733,3.079-2.519,2.651-4.667c-0.723-3.625-2.965-4.507-5.61-6.875
	c-2.936-2.626-5.189-5.817-7.057-9.269c-1.681-3.103-2.955-6.499-3.469-10.01c-0.575-3.937,0.519-7.386-1.929-10.784
	c-1.761-2.444-4.677-2.904-7.004-0.904c-6.872,5.91-1.818,20.092,1.6,26.835C1032.414,1092.383,1041.927,1104.71,1050.053,1101.784z
	"/>
<path style="fill:#292C67;" d="M1248.138,893.348l-1.045-0.385c-14.49-5.048-30.405-6.365-45.773-4.061
	c-2.634,0.385-5.214,0.88-7.793,1.484c-15.313,11.086-25.63,31.997-25.63,55.927c0,31.998,18.441,58.616,42.59,63.666
	c1.919-0.77,3.842-1.593,5.707-2.526c5.707-2.799,11.196-6.093,16.302-9.934c10.811-7.903,20.197-17.891,27.934-29.089
	c3.403-4.884,6.531-10.044,9.33-15.367c0.166-2.195,0.275-4.446,0.275-6.75C1270.036,924.413,1261.364,904.985,1248.138,893.348z"/>
<path style="fill:#292C67;" d="M883.32,956.41c0,25.961,12.129,48.353,29.637,58.563c0.77,0.163,1.594,0.219,2.361,0.329
	c16.08,1.757,32.655-0.439,47.476-6.75c0.987-0.385,1.976-0.88,3.018-1.318c11.91-11.8,19.593-30.185,19.593-50.823
	c0-3.951-0.275-7.793-0.823-11.525c-0.657-1.043-1.318-2.085-2.031-3.074c-14.763-21.24-35.839-38.09-60.317-45.664
	c-1.152-0.439-2.36-0.767-3.513-1.096l-0.219-0.056C898.085,903.448,883.32,927.762,883.32,956.41z"/>
<path style="fill:#3E468F;" d="M903.579,556.211c-41.569,19.501-86.402,31.184-131.544,39.561
	c48.926,19.347,104.036,22.687,154.942,9.388c-26.945,44.375-65.873,80.904-110.107,108.075
	c-44.234,27.174-93.69,45.221-144.365,56.49c56.385,20.127,119.973,17.591,175.773-4.105
	c55.802-21.693,103.724-61.919,137.427-111.403c39.627-57.844,67.274-143.171,48.058-213.218
	c-15.201,22.972-28.692,41.742-49.07,61.013C960.953,524.464,933.106,542.359,903.579,556.211z"/>
<path style="fill:#3E468F;" d="M1145.452,659.203c36.475,47.476,86.619,84.896,143.569,103.369
	c56.95,18.47,120.577,17.369,175.722-5.947c-51.238-8.356-101.645-23.547-147.359-48.149
	c-45.715-24.601-86.665-58.845-116.1-101.608c51.581,10.368,106.411,3.883,154.153-18.226
	c-45.549-5.786-90.977-14.889-133.591-31.981c-30.271-12.141-59.096-28.417-84.08-49.476
	c-21.445-18.073-35.985-36.042-52.475-58.107C1070.11,520.107,1102.584,603.717,1145.452,659.203z"/>
<path style="fill:#6F1C0C;" d="M1147.571,1708.724c-13.269,0-24.024,10.757-24.024,24.027c0,13.267,10.755,24.024,24.024,24.024
	c13.269,0,24.024-10.757,24.024-24.024C1171.595,1719.481,1160.84,1708.724,1147.571,1708.724z"/>
<path style="fill:#6F1C0C;" d="M1123.547,1793.405c-13.269,0-24.027,10.758-24.027,24.027c0,13.269,10.757,24.025,24.027,24.025
	c13.269,0,24.024-10.755,24.024-24.025C1147.571,1804.163,1136.816,1793.405,1123.547,1793.405z"/>
<path style="fill:#6F1C0C;" d="M712.47,1784.875c0.346-7.484-9.384-8.75-13.126-3.569c-22.28,31.491-5.988,81.459,7.771,113.237
	c4.029,9.211,8.462,18.366,12.952,27.52c7.542,3.05,15.143,6.044,22.799,8.806c-10.017-21.415-21.128-42.543-28.037-65.11
	C706.081,1836.974,711.145,1813.544,712.47,1784.875z"/>
<path style="fill:#6F1C0C;" d="M1392.248,1767.603c-2.994-4.721-10.823-4.144-12.205,1.612
	c-6.161,24.409-3.111,49.393-11.228,74.207c-8.865,27.116-22.163,52.675-33.101,78.984c-3.685,8.982-7.196,18.019-10.249,27.174
	c3.686-1.094,7.311-2.187,10.938-3.34c2.765-0.862,5.527-1.786,8.29-2.707c1.325-0.402,2.65-0.862,3.973-1.323
	c8.636-19.518,18.826-38.687,27.805-58.26C1390.75,1852.633,1412.971,1800.132,1392.248,1767.603z"/>
</svg>
