<?xml version="1.0" encoding="utf-8"?>
<!-- Generator: Adobe Illustrator 27.5.0, SVG Export Plug-In . SVG Version: 6.00 Build 0)  -->
<svg version="1.1" id="Capa_1" xmlns="http://www.w3.org/2000/svg" xmlns:xlink="http://www.w3.org/1999/xlink" x="0px" y="0px"
	 viewBox="0 0 2122 2122" style="enable-background:new 0 0 2122 2122;" xml:space="preserve">
<path style="fill:#FAD2CD;" d="M1050.327,144.178c-514.615,0-931.848,417.174-931.848,931.848
	c0,284.037,127.082,538.374,327.493,709.266c17.349,14.818,35.283,29.05,53.749,42.516c11.822,8.704,23.876,17.113,36.107,25.286
	c4.529,2.94,9.057,5.942,13.586,8.821c4.529,2.882,8.996,5.647,13.525,8.47c0.765,0.47,1.588,0.94,2.353,1.41
	c1.235,0.765,2.47,1.53,3.703,2.234c1.707,1.06,3.412,2.059,5.177,3.06c28.168,16.818,57.276,32.165,87.269,45.927
	c6.585,3.116,13.289,6.056,19.993,8.938c1.53,0.706,3.059,1.352,4.587,2c5.057,2.117,10.056,4.234,15.172,6.292
	c7.705,3.118,15.466,6.175,23.289,8.999h0.058c8.821,3.352,17.642,6.467,26.579,9.466v0.058c3.235,1.119,6.47,2.176,9.703,3.177
	c3.235,1.057,6.47,2.117,9.705,3.116c3.233,1.06,6.468,2.058,9.703,2.998c3.294,1.06,6.585,2.058,9.937,2.999
	c6.412,1.883,12.879,3.647,19.408,5.352c76.802,20.523,157.484,31.461,240.753,31.461c70.804,0,139.724-7.881,205.941-22.933
	c7.703-1.646,15.408-3.471,22.994-5.41c10.526-2.648,20.994-5.53,31.401-8.529c3.001-0.882,5.941-1.764,8.94-2.646
	c3.764-1.118,7.469-2.234,11.172-3.411c2.823-0.881,5.646-1.822,8.47-2.765c1.352-0.412,2.704-0.882,4.056-1.352
	c1.471-0.411,2.94-0.94,4.353-1.41c1.057-0.353,2.175-0.706,3.232-1.118c8.587-2.882,17.113-5.939,25.581-9.116
	c12.468-4.645,24.877-9.583,37.049-14.818c5.469-2.294,10.877-4.645,16.288-7.057c1.06-0.412,2.058-0.882,3.06-1.352
	c22.699-10.232,44.928-21.347,66.626-33.284v-0.058l0.942-0.531c9.762-5.41,19.464-10.996,28.992-16.818
	c22.346-13.349,44.104-27.639,65.157-42.869c15.23-10.938,30.168-22.346,44.692-34.224
	c209.293-170.833,342.901-430.935,342.901-722.145C1982.175,561.351,1565.001,144.178,1050.327,144.178z"/>
<path style="fill:#8ED3F6;" d="M1758.257,1146.427c-4.592-44.926-3.702-90.519-0.909-134.139
	c5.359-84.009,16.826-167.613,5.808-254.199c-10.346-81.213-40.953-161.793-85.442-225.291
	c-33.861-48.385-76.597-87.415-122.175-102.394c-45.578-14.977-93.79-3.576-123.289,36.746
	c-15.194,20.75-25.006,48.148-30.77,77.391c-4.35,21.991-6.233,44.784-6.143,68.071c-3.337,0.022-6.662,0.535-9.932,1.722
	c-10.699,3.882-17.772,13.631-23.193,24.213c-5.528-4.44-10.968-8.998-16.191-13.84c-46.063-42.697-78.506-103.084-129.929-137.437
	c-22.313-14.906-47.583-23.469-73.431-26.08c-28.34-43.213-74.433-80.507-125.387-110.468
	c-114.129-67.167-290.058-23.517-383.995,61.589c-100.577,91.125-137.047,255.269-68.818,373.632
	c22.623,39.247,54.574,71.062,91.755,95.785c-0.837,12.207-1.703,24.324-2.956,36.2c-9.142,86.582-49.9,173.286-48.302,259.997
	c1.456,79.013,49.795,150.02,108.136,201.932c40.945,36.434,88.915,66.634,142.268,76.987c5.625,1.091,11.267,1.878,16.915,2.524
	l-0.017,0.077c-0.176,1.001-0.412,2-0.648,3.001l-0.068,0.374c-1.23,5.581-2.664,11.143-4.348,16.651
	c-0.242,0.792-0.519,1.574-0.77,2.364c-0.664,2.087-1.341,4.169-2.068,6.238c-0.693,1.972-1.444,3.923-2.201,5.871
	c-0.23,0.594-0.44,1.188-0.681,1.782c-0.927,2.325-1.889,4.637-2.889,6.931c-0.184,0.422-0.364,0.844-0.55,1.264
	c-0.995,2.243-2.031,4.462-3.101,6.664c-0.384,0.791-0.768,1.583-1.163,2.369l-0.216,0.359c-0.528,1.058-1.057,2.176-1.644,3.235
	l-0.439,0.872c-0.715,1.342-1.454,2.667-2.198,3.99l-0.012,0.017c-0.013,0.024-0.03,0.048-0.043,0.073
	c-2.154,3.83-4.395,7.597-6.786,11.245c-1.536,2.344-3.121,4.645-4.751,6.905c-0.462,0.64-0.942,1.259-1.411,1.892
	c-1.34,1.806-2.701,3.591-4.101,5.335c-0.448,0.558-0.9,1.111-1.354,1.662c-1.529,1.857-3.092,3.676-4.69,5.455
	c-0.37,0.412-0.732,0.831-1.106,1.238c-1.67,1.822-3.389,3.584-5.132,5.315c-0.328,0.324-0.639,0.667-0.97,0.986
	c-3.352,3.232-6.763,6.292-10.292,9.115c-28.697,23.111-64.039,34.224-99.442,45.337c-19.875,6.292-39.871,12.468-58.628,20.877
	c-15.408,6.763-30.051,15.055-43.165,25.934c-33.873,27.993-53.866,70.568-63.218,114.085c-5.41,25.05-7.527,50.572-8.351,76.212
	c4.529,2.94,9.057,5.942,13.586,8.821c4.529,2.882,8.996,5.647,13.525,8.47c0.765,0.47,1.588,0.94,2.353,1.41
	c1.235,0.765,2.47,1.53,3.703,2.234c1.707,1.06,3.412,2.059,5.177,3.06c28.168,16.818,57.276,32.165,87.269,45.927
	c6.585,3.116,13.289,6.056,19.993,8.938c1.53,0.706,3.059,1.352,4.587,2c5.057,2.117,10.056,4.234,15.172,6.292
	c7.705,3.118,15.466,6.175,23.289,8.999h0.058c8.821,3.352,17.642,6.467,26.579,9.466v0.058c3.235,1.119,6.47,2.176,9.703,3.177
	c3.235,1.057,6.47,2.117,9.705,3.116c3.233,1.06,6.468,2.058,9.703,2.998c3.294,1.06,6.585,2.058,9.937,2.999
	c6.412,1.883,12.879,3.647,19.408,5.352c76.802,20.523,157.484,31.461,240.753,31.461c70.804,0,139.724-7.881,205.941-22.933
	c7.703-1.646,15.408-3.471,22.994-5.41c10.526-2.648,20.994-5.53,31.401-8.529c3.001-0.882,5.941-1.764,8.94-2.646
	c3.764-1.118,7.469-2.234,11.172-3.411c2.823-0.881,5.646-1.822,8.47-2.765c1.352-0.412,2.704-0.882,4.056-1.352
	c1.471-0.411,2.94-0.94,4.353-1.41c1.057-0.353,2.175-0.706,3.232-1.118c8.587-2.882,17.113-5.939,25.581-9.116
	c12.468-4.645,24.877-9.583,37.049-14.818c0.292-8.175,0.41-16.348,0.47-24.404c0.412-44.574,0.762-89.564-8.529-133.079
	c-9.349-43.517-29.344-86.092-63.335-114.085c-19.701-16.348-42.811-26.758-66.862-35.401
	c-17.759-6.292-36.107-11.585-54.044-17.525c-28.755-9.349-56.689-20.348-80.212-39.223c-24.635-19.817-43.451-48.745-54.921-80.201
	c0.004-0.004,0.008-0.007,0.012-0.01c-0.405-1.107-0.76-2.23-1.146-3.343c-1.043-3.004-1.984-6.038-2.892-9.078
	c-0.29-0.962-0.573-1.923-0.844-2.886c-1.857-6.549-3.417-13.156-4.63-19.776c-0.069-0.391-0.136-0.785-0.202-1.175
	c-0.445-2.51-0.81-5.018-1.159-7.525c-0.06-0.476-0.154-0.965-0.199-1.44l-0.059-0.236c-0.063-0.256-0.089-0.551-0.128-0.832
	c-0.083-0.656-0.176-1.314-0.252-1.97c-0.114-0.976-0.234-1.952-0.333-2.927c-0.536-5.272-0.876-10.521-0.971-15.713
	c-0.005-0.259,0-0.528-0.003-0.79c-0.033-2.35,0-4.733,0.159-7.23c0-0.824,0.058-1.589,0.119-2.47v-0.042
	c0.065-1.175,0.138-2.361,0.223-3.562c0.048-0.628,0.064-1.222,0.128-1.865v-0.176c0.003-0.036,0.007-0.075,0.009-0.112
	c51.876-29.722,99.425-67.799,139.734-112.458c1.277,1.475,2.628,2.893,4.076,4.234c15.064,13.951,36.195,16.923,55.746,14.984
	c48.672-4.83,79.019-34.749,107.401-70.747c1.161-0.328,2.347-0.644,3.474-0.987c51.666-15.747,96.957-52.845,122.329-101.435
	c12.331-23.61,20.105-50.38,17.844-77.04c-0.597-7.044-1.989-14.061-4.095-20.84c4.692-9.787,9.08-19.833,13.032-30.256
	c30.441-80.265,32.419-179.564-15.335-248.684c-11.94-17.281-26.23-31.701-41.747-44.662c2.938-8.751,4.066-18.538,3.424-27.655
	c17.979-4.171,39.546,3.61,56.37,20.017c25.834,25.192,42.034,65.143,52.609,104.509c14.697,54.677,20.76,111.008,28.621,166.811
	c7.893,55.795,17.939,112.604,39.544,164.251c21.628,51.593,56.573,97.902,97.525,113.866c10.981,4.263,22.165,6.29,33.072,6.263
	C1771.283,1229.06,1762.459,1188.037,1758.257,1146.427z"/>
<path style="fill:#E68079;" d="M1758.257,1146.427c-4.592-44.926-3.702-90.519-0.909-134.139
	c5.359-84.009,16.826-167.613,5.808-254.199c-10.346-81.213-40.953-161.793-85.442-225.291
	c-33.861-48.385-76.597-87.415-122.175-102.394c-45.578-14.977-93.79-3.576-123.289,36.746
	c-15.194,20.75-25.006,48.148-30.77,77.391c-4.35,21.991-6.233,44.784-6.143,68.071c-3.337,0.022-6.662,0.535-9.932,1.722
	c-10.699,3.882-17.772,13.631-23.193,24.213c-5.528-4.44-10.968-8.998-16.191-13.84c-46.063-42.697-78.506-103.084-129.929-137.437
	c-22.313-14.906-47.583-23.469-73.431-26.08c-28.34-43.213-74.433-80.507-125.387-110.468
	c-114.129-67.167-290.058-23.517-383.995,61.589c-100.577,91.125-137.047,255.269-68.818,373.632
	c22.623,39.247,54.574,71.062,91.755,95.785c43.446,28.888,94.058,48.062,145.657,57.581c-4.982-23.135-8.891-46.436-10.551-70.01
	c-3.105-44.633,2.356-90.85,22.975-130.341c13.603,74.551,50.022,144.507,102.879,197.781c2.894,2.955,7.337,6.127,12.534,9.518
	c71.067-3.774,142.029-18.215,211.812-33.53c-66.034-27.949-97.15-119.457-62.285-183.176c0.825-1.515,1.743-2.965,2.622-4.442
	c25.646,35.375,60.109,65.273,85.948,100.763c70.887,97.361,65.605,236.762-12.473,329.293c33.317-4.566,64.488-16.853,92.458-34.17
	c35.141-62.483,93.454-116.155,161.727-131.896c25.798-5.949,54.37-6.139,76.994,7.839c16.494,10.194,28.047,27.182,33.912,46.063
	c4.692-9.787,9.08-19.833,13.032-30.256c30.441-80.265,32.419-179.564-15.335-248.684c-11.94-17.281-26.23-31.701-41.747-44.662
	c2.938-8.751,4.066-18.538,3.424-27.655c17.979-4.171,39.546,3.61,56.37,20.017c25.834,25.192,42.034,65.143,52.609,104.509
	c14.697,54.677,20.76,111.008,28.621,166.811c7.893,55.795,17.939,112.604,39.544,164.251
	c21.628,51.593,56.573,97.902,97.525,113.866c10.981,4.263,22.165,6.29,33.072,6.263
	C1771.283,1229.06,1762.459,1188.037,1758.257,1146.427z"/>
<path style="fill:#E56563;" d="M1434.051,563.675c13.451-30.051,36.558-51.42,63.773-54.901
	c32.477-4.185,67.213,16.702,96.606,44.565c52.831,50.124,95.522,129.666,99.652,210.85c2.187,43.483-6.48,84.159-9.642,126.341
	c-3.985,52.562,0.882,109.015,18.697,160.928c12.443,36.244,31.578,69.961,55.12,94.97c-4.592-44.926-3.702-90.519-0.909-134.139
	c5.359-84.009,16.826-167.613,5.808-254.199c-10.346-81.213-40.953-161.793-85.442-225.291
	c-33.861-48.385-76.597-87.415-122.175-102.394c-45.578-14.977-93.79-3.576-123.289,36.746
	c-15.194,20.75-25.006,48.148-30.77,77.391c-4.35,21.991-6.233,44.784-6.143,68.071c8.469-0.056,17.008,3.22,24.938,7.827
	C1423.345,600.488,1426.161,581.271,1434.051,563.675z"/>
<path style="fill:#292C67;" d="M1476.376,719.398c2.938-8.751,4.066-18.538,3.424-27.655c-0.573-8.146-2.557-15.756-5.92-21.612
	c-4.141-7.213-9.844-13.337-15.737-19.118c-8.209-8.056-16.899-15.596-26.003-22.555c-3.717-2.843-7.71-5.605-11.865-8.019
	c-7.93-4.607-16.469-7.884-24.938-7.827c-3.337,0.022-6.662,0.535-9.932,1.722c-10.699,3.882-17.772,13.631-23.193,24.213
	C1398.72,667.867,1440.842,689.718,1476.376,719.398z"/>
<path style="fill:#E68079;" d="M1256.901,1240.25c-13.228,19.103-27.682,37.334-43.249,54.582c1.277,1.475,2.628,2.893,4.076,4.234
	c15.064,13.951,36.195,16.923,55.746,14.984c48.672-4.83,79.019-34.749,107.401-70.747
	C1344.294,1253.63,1291.249,1256.04,1256.901,1240.25z"/>
<path style="fill:#F9FAFE;" d="M1124.015,1021.146c0-2.163-0.962-4.747-2.585-6.236c-1.681-1.544-3.888-2.689-6.236-2.584
	c-2.322,0.105-4.582,0.882-6.239,2.584c-1.094,1.126-2.289,2.136-3.502,3.128c-2.127,1.53-4.388,2.843-6.766,3.943
	c-1.502,0.583-3.033,1.077-4.594,1.48c-15.961-14.928-37.349-24.107-59.189-25.927c-36.041-3.003-71.666,13.618-96.256,39.354
	c-13.486,14.117-24.148,30.828-31.846,48.733c-1.88,4.372-1.301,9.459,3.164,12.068c1.767,1.034,4.15,1.341,6.371,0.93
	c4.269,12.084,16.233,21.983,26.815,28.447c1.393,0.821,2.785,1.642,4.124,2.461c14.887,8.26,31.92,11.98,48.95,11.103
	c4.604-0.219,9.265-0.818,13.871-1.749c2.141-0.439,4.283-0.931,6.426-1.533c6.534-1.805,12.906-4.156,19.065-7.274
	c7.391-3.61,14.407-8.041,21.101-13.237c5.089-3.883,10.015-8.204,14.621-12.853c4.714-4.704,9.157-9.737,13.335-15.096
	c6.433-8.162,12.177-17.061,17.202-26.26c2.673,1.208,6.07,1.113,8.469-0.29c4.47-2.614,5.125-7.706,3.165-12.068
	c-1.987-4.421-4.39-8.576-7.079-12.51c5.597-2.516,10.783-6.008,15.028-10.374
	C1123.021,1025.748,1124.015,1023.441,1124.015,1021.146z"/>
<path style="fill:#A9B0DA;" d="M1405.459,1776.882c-9.349-43.517-29.344-86.092-63.335-114.085
	c-19.701-16.348-42.811-26.758-66.862-35.401c-17.759-6.292-36.107-11.585-54.044-17.525c-9.055,11.525-17.642,22.171-25.815,30.933
	c-43.459,46.455-98.382,82.563-158.66,100.735h-0.058c-23.052,6.997-46.928,11.35-71.274,12.585
	c-22.466,1.174-45.104-0.648-67.216-5.118c-77.861-15.642-149.781-64.156-189.006-133.021
	c-19.875,6.292-39.871,12.468-58.628,20.877c-15.408,6.763-30.051,15.055-43.165,25.934
	c-33.873,27.993-53.866,70.568-63.218,114.085c-5.41,25.05-7.527,50.572-8.351,76.212c4.529,2.94,9.057,5.942,13.586,8.821
	c4.529,2.882,8.996,5.647,13.525,8.47c0.765,0.47,1.588,0.94,2.353,1.41c1.235,0.765,2.47,1.53,3.703,2.234
	c1.707,1.06,3.412,2.059,5.177,3.06c28.168,16.818,57.276,32.165,87.269,45.927c6.585,3.116,13.289,6.056,19.993,8.938
	c1.53,0.706,3.059,1.352,4.587,2c5.057,2.117,10.056,4.234,15.172,6.292c7.705,3.118,15.466,6.175,23.289,8.999h0.058
	c8.821,3.352,17.642,6.467,26.579,9.466v0.058c3.235,1.119,6.47,2.176,9.703,3.177c3.235,1.057,6.47,2.117,9.705,3.116
	c3.233,1.06,6.468,2.058,9.703,2.998c3.294,1.06,6.585,2.058,9.937,2.999c6.412,1.883,12.879,3.647,19.408,5.352
	c76.802,20.523,157.484,31.461,240.753,31.461c70.804,0,139.724-7.881,205.941-22.933c7.703-1.646,15.408-3.471,22.994-5.41
	c10.526-2.648,20.994-5.53,31.401-8.529c3.001-0.882,5.941-1.764,8.94-2.646c3.764-1.118,7.469-2.234,11.172-3.411
	c2.823-0.881,5.646-1.822,8.47-2.765c1.352-0.412,2.704-0.882,4.056-1.352c1.471-0.411,2.94-0.94,4.353-1.41
	c1.057-0.353,2.175-0.706,3.232-1.118c8.587-2.882,17.113-5.939,25.581-9.116c12.468-4.645,24.877-9.583,37.049-14.818
	c0.292-8.175,0.41-16.348,0.47-24.404C1414.399,1865.386,1414.75,1820.397,1405.459,1776.882z"/>
<path style="fill:#F9FAFE;" d="M813.072,1080.734c-6.165-30.097-19.133-60.053-42.148-81.111
	c-22.071-20.195-51.683-31.143-81.505-25.198c-6.179,1.231-12.246,3.262-17.991,5.98c-1.196-1.03-2.308-2.145-3.325-3.354
	c-1.079-1.522-2.023-3.128-2.795-4.826c-0.294-0.976-0.747-1.856-1.431-2.604c-0.624-0.96-1.447-1.718-2.475-2.271
	c-1.013-0.646-2.107-0.994-3.281-1.048c-1.172-0.263-2.343-0.209-3.515,0.159c-2.136,0.689-4.195,2.012-5.271,4.053
	c-1.053,1.985-1.718,4.604-0.892,6.797c1.281,3.389,2.804,6.623,5.006,9.51c0.852,1.118,1.73,2.203,2.647,3.255
	c-2.954,2.426-5.723,5.068-8.221,7.954c-3.116,3.6-3.537,8.935,0,12.475c0.877,0.878,1.989,1.522,3.192,1.955
	c0.067,1.818,0.419,3.664,0.852,5.432c2.41,9.737,5.623,19.308,9.586,28.387c2.463,5.525,5.196,10.885,8.142,15.971
	c6.801,11.651,15.047,22.097,24.582,30.412c4.55,3.993,9.371,7.493,14.458,10.448c1.661,0.984,3.32,1.859,5.035,2.68
	c3.642,1.806,7.391,3.335,11.194,4.485c5.086,1.585,10.282,2.68,15.476,3.172c9.213,0.93,18.478,0.166,27.367-2.461
	c1.233-0.382,2.572-0.821,3.91-1.259c10.119-3.42,22.106-9.605,27.971-19.397c2.148,1.371,4.872,1.917,7.273,1.256
	C811.764,1090.252,814.032,1085.416,813.072,1080.734z"/>
<path style="fill:#4D7CB0;" d="M872.317,1567.874c70.307,1.929,141.483-20.129,197.544-63.722c5.56-4.325,10.969-8.91,16.224-13.704
	c0.004-0.004,0.008-0.007,0.012-0.01c-0.405-1.107-0.76-2.23-1.146-3.343c-4.876-14.051-8.288-28.553-10.113-42.948
	c-0.083-0.656-0.176-1.314-0.252-1.97c-0.114-0.976-0.234-1.952-0.333-2.927c-0.536-5.272-0.876-10.521-0.971-15.713
	c-0.005-0.259,0-0.528-0.003-0.79c-0.054-4.853,0.213-10.044,0.636-15.455c-1.666,0.955-3.294,1.982-4.969,2.919
	c-60.126,33.646-129.03,56.892-196.667,49.155c-0.234,1.152-0.479,2.302-0.733,3.452c-1.23,5.581-2.664,11.143-4.348,16.651
	c-0.242,0.792-0.519,1.574-0.77,2.364c-0.664,2.087-1.341,4.169-2.068,6.238c-1.735,4.933-3.682,9.791-5.77,14.584
	c-0.184,0.422-0.364,0.844-0.55,1.264c-0.995,2.243-2.031,4.462-3.101,6.664c-0.384,0.791-0.768,1.583-1.163,2.369
	c-0.752,1.498-1.512,2.989-2.298,4.466c-0.715,1.342-1.454,2.667-2.198,3.99c-2.171,3.861-4.43,7.658-6.84,11.336
	c-1.536,2.344-3.121,4.645-4.751,6.905c-0.462,0.64-0.942,1.259-1.411,1.892c-1.34,1.806-2.701,3.591-4.101,5.335
	c-0.448,0.558-0.9,1.111-1.354,1.662c-1.529,1.857-3.092,3.676-4.69,5.455c-0.37,0.412-0.732,0.831-1.106,1.238
	c-1.67,1.822-3.389,3.584-5.132,5.315c-0.333,0.332-0.646,0.69-0.982,1.018C836.782,1565.788,855.623,1567.403,872.317,1567.874z"/>
<path style="fill:#4D7CB0;" d="M778.015,1217.068c0.772,16.546,14.83,30.592,30.757,33.734c15.925,3.145,32.697-3.284,44.857-14.246
	c12.158-10.965,20.18-25.998,25.764-41.552c10.621-29.569,13.099-62.453,5.04-92.853c-3.23-12.18-8.38-24.3-17.571-32.731
	c-28.853-26.473-36.774,0.724-40.528,24.665c-4.451,28.383-14.726,55.842-30.083,79.939
	C787.747,1187.37,777.272,1201.162,778.015,1217.068z"/>
<path style="fill:#4D7CB0;" d="M895.893,1348.963c40.236-7.778,77.501-28.889,105.669-58.523
	c7.196-7.571-4.266-19.074-11.481-11.481c-25.946,27.296-59.571,46.385-96.526,53.954c-39.171,8.024-80.755,1.956-116.382-15.995
	c-9.308-4.689-17.537,9.313-8.195,14.022C808.105,1350.653,852.802,1357.294,895.893,1348.963z"/>
<path style="fill:#292C67;" d="M771.667,1109.726c10.119-3.42,22.106-9.605,27.971-19.397c2.148,1.371,4.872,1.917,7.273,1.256
	c4.853-1.333,7.121-6.168,6.161-10.85c-6.165-30.097-19.133-60.053-42.148-81.111c-22.071-20.195-51.683-31.143-81.505-25.198
	c-6.179,1.231-12.246,3.262-17.991,5.98c-1.196-1.03-2.308-2.145-3.325-3.354c-1.079-1.522-2.023-3.128-2.795-4.826
	c-0.294-0.976-0.747-1.856-1.431-2.604c-0.624-0.96-1.447-1.718-2.475-2.271c-1.013-0.646-2.107-0.994-3.281-1.048
	c-1.172-0.263-2.343-0.209-3.515,0.159c-2.136,0.689-4.195,2.012-5.271,4.053c-1.053,1.985-1.718,4.604-0.892,6.797
	c1.281,3.389,2.804,6.623,5.006,9.51c0.852,1.118,1.73,2.203,2.647,3.255c-2.954,2.426-5.723,5.068-8.221,7.954
	c-3.116,3.6-3.537,8.935,0,12.475c0.877,0.878,1.989,1.522,3.192,1.955c3.166,1.138,7.015,0.667,9.283-1.955
	c4.322-4.992,7.971-8.102,13.162-11.245c5.615-3.396,9.552-5.03,16-6.755c1.52-0.407,3.055-0.762,4.597-1.07
	c0.619-0.122,1.237-0.239,1.859-0.346c-0.032,0.007,1.4-0.203,1.762-0.267c3.005-0.369,6.045-0.529,9.073-0.515
	c6.738,0.029,10.836,0.641,17.532,2.49c11.562,3.193,22.959,9.593,31.907,17.335c1.035,0.896,1.941,1.868,2.927,2.792
	c-21.062,4.274-37.146,27.314-37.146,55.179c0,18.706,7.23,35.223,18.368,45.342c9.213,0.93,18.478,0.166,27.367-2.461
	C768.99,1110.603,770.329,1110.164,771.667,1109.726z"/>
<path style="fill:#E56563;" d="M946.41,998.203c12.521-6.071,25.698-10.215,39.037-12.699c27.272-5.084,55.15-3.352,81.63,2.955
	c4.443,1.06,10.941,0.809,11.725-4.224c0.185-1.191-0.063-2.397-0.458-3.493c-1.963-5.486-7.145-8.487-12.066-10.782
	c-40.27-18.79-88.44-17.861-129.802,2.499c-4.67,2.297-9.354,4.909-12.965,8.955c-3.61,4.046-6.002,9.807-5.079,15.201
	C921.455,1014.257,937.988,1002.286,946.41,998.203z"/>
<path style="fill:#E56563;" d="M678.444,956.564c24.799,0.246,49.851,4.646,72.901,14.675c11.277,4.906,22.052,11.174,31.832,18.933
	c6.58,5.218,18.646,18.802,25.111,4.544c1.976-4.358,1.096-9.725-1.23-13.9c-2.326-4.175-5.914-7.366-9.554-10.29
	c-32.244-25.888-74.689-36.804-114.378-29.413c-4.85,0.904-10.08,2.348-12.998,6.565c-0.585,0.846-1.065,1.81-1.155,2.855
	C668.586,954.944,674.284,956.522,678.444,956.564z"/>
<path style="fill:#E56563;" d="M843.362,523.032c58.426-53.006,145.025-80.183,216.904-48.855
	c-4.015-1.749-16.317-32.894-21.445-38.684c-9.447-10.672-21.291-19.958-31.936-29.415c-19.391-17.225-38.702-26.816-63.793-33.885
	c-65.927-18.573-138.818-11.825-199.695,20.351c-77.949,41.201-133.98,122.959-145.191,211.866
	c21.035-22.797,44.892-42.877,70.821-59.608c-32.584,44.451-47.588,101.961-40.981,157.077
	c6.609,55.115,34.758,107.23,76.881,142.339c-10.628-39.401,2.446-81.07,16.818-119.208
	C749.82,650.52,784.936,576.041,843.362,523.032z"/>
<path style="fill:#E56563;" d="M1005.476,669.899c32.802-65.026,94.636-112.085,165.885-121.89
	c-6.446-4.938-14.908-9.367-22.245-13.593c-75.654-43.596-171.968-19.944-233.008,38.782
	c-38.507,37.05-63.479,88.448-69.075,142.175c7.703-12.741,18.689-23.389,31.552-30.573c-8.938,39.796,0.197,82.643,20.957,117.535
	c20.76,34.894,52.444,62.171,87.735,81.355C969.011,812.944,972.668,734.939,1005.476,669.899z"/>
<path style="fill:#4D7CB0;" d="M1307.223,1115.672c-11.462,16.192-19.975,34.563-25.162,53.703
	c-4.563,16.831,21.535,24.01,26.095,7.194c8.589-31.691,28.013-59.98,54.184-79.731c1.93-0.635,3.881-1.189,5.882-1.574
	c0.348-0.066,0.696-0.124,1.044-0.183c0.117-0.007,0.197-0.01,0.345-0.019c1.308-0.073,2.606-0.161,3.914-0.164
	c1.311-0.003,2.609,0.083,3.917,0.146c0.292,0.014,0.467,0.017,0.608,0.017c0.089,0.018,0.124,0.027,0.24,0.048
	c2.572,0.48,5.106,1.079,7.586,1.925c0.506,0.172,1.004,0.385,1.512,0.548c0.961,0.508,1.958,0.949,2.912,1.478
	c1.14,0.631,2.256,1.306,3.338,2.034c0.399,0.271,0.787,0.558,1.182,0.832c0.037,0.039,0.042,0.05,0.089,0.098
	c1.488,1.527,3.011,2.992,4.479,4.537c0.132,0.206,1.092,1.373,1.465,1.955c0.697,1.094,1.347,2.217,1.944,3.369
	c0.267,0.512,0.507,1.038,0.758,1.559c0.331,0.987,0.71,1.957,1.01,2.955c0.378,1.25,0.706,2.514,0.979,3.791
	c0.112,0.532,0.18,1.087,0.31,1.615c0.14,2.348,0.302,4.655,0.179,7.015c-0.029,0.586-0.092,1.171-0.135,1.756
	c-0.231,1.144-0.428,2.292-0.72,3.425c-0.321,1.25-0.831,2.456-1.147,3.7c-0.014,0.052-0.017,0.07-0.027,0.113
	c-0.114,0.242-0.222,0.485-0.341,0.725c-0.572,1.159-1.198,2.292-1.885,3.389c-0.28,0.443-0.618,0.87-0.88,1.325
	c-1.351,1.445-2.713,2.804-4.161,4.134c-0.39,0.298-1.215,0.952-1.697,1.26c-1.04,0.665-2.109,1.284-3.208,1.849
	c-0.461,0.238-0.93,0.453-1.396,0.675c-0.087,0.03-0.104,0.038-0.216,0.076c-1.34,0.443-2.668,0.886-4.039,1.228
	c-0.371,0.092-1.823,0.392-2.487,0.539c-0.05,0.006-0.102,0.012-0.133,0.014c-0.875,0.053-1.742,0.117-2.617,0.134
	c-1.195,0.021-2.378-0.049-3.57-0.104c0.137,0.032,0.242,0.056,0.408,0.097c-0.17-0.042-0.346-0.069-0.519-0.103
	c-0.41-0.023-0.918-0.151-1.064-0.211c-0.154-0.029-0.309-0.056-0.461-0.091c-1.186-0.273-2.358-0.611-3.51-1.011
	c-0.212-0.073-0.747-0.319-1.1-0.478c-0.454-0.251-0.922-0.508-0.941-0.518c-6.229-3.355-15.019-1.757-18.512,4.855
	c-3.328,6.3-1.8,14.928,4.853,18.514c25.517,13.749,60.068,2.523,71.644-24.434c11.618-27.057,1.358-60.792-25.327-74.523
	c5.34-1.846,10.792-3.409,16.38-4.6c14.504-3.089,41.759-6.397,48.845,11.496c2.687,6.79,9.05,11.537,16.643,9.45
	c6.463-1.776,12.156-9.812,9.452-16.643c-16.728-42.243-69.237-37.266-104.307-23.803
	C1356.419,1063.894,1327.897,1086.461,1307.223,1115.672z M1390.567,1151.127
	C1391.047,1150.929,1391.168,1150.917,1390.567,1151.127L1390.567,1151.127z"/>
<path style="fill:#E56563;" d="M1434.012,812.169c-41.242-97.644-133.568-170.901-236.406-187.576
	c51.242,38.097,74.436,104.263,85.734,167.958c13.897,78.343,13.098,163.186-24.892,232.711
	c55.057-37.196,97.43-93.593,118.358-157.535c18.962,35.46,17.394,81.418-3.936,115.442c12.526-19.245,34.336-31.846,56.942-32.899
	c23.379-1.087,43.725,10.022,59.542,26.738c26.568-37.252,26.858-100.679,13.839-142.694c-12.343-39.511-38.85-74.229-73.359-96.088
	C1439.208,761.485,1440.704,787.967,1434.012,812.169z"/>
<path style="fill:#292C67;" d="M909.966,1097.689c1.767,1.034,4.15,1.341,6.371,0.93c2.451-0.453,4.704-1.785,5.697-4.094
	c12.507-29.084,32.266-54.387,60.458-68.745c13.683-6.969,29.335-10.957,44.638-10.933c5.559,0.009,10.28,0.421,15.241,1.379
	c-11.689,10.067-19.368,27.04-19.368,46.243c0,26.31,14.353,48.407,33.686,54.368c5.089-3.883,10.015-8.204,14.621-12.853
	c4.714-4.704,9.157-9.737,13.335-15.096c6.433-8.162,12.177-17.061,17.202-26.26c2.673,1.208,6.07,1.113,8.469-0.29
	c4.47-2.614,5.125-7.706,3.165-12.068c-1.987-4.421-4.39-8.576-7.079-12.51c5.597-2.516,10.783-6.008,15.028-10.374
	c1.591-1.637,2.585-3.944,2.585-6.239c0-2.163-0.962-4.747-2.585-6.236c-1.681-1.544-3.888-2.689-6.236-2.584
	c-2.322,0.105-4.582,0.882-6.239,2.584c-1.094,1.126-2.289,2.136-3.502,3.128c-2.127,1.53-4.388,2.843-6.766,3.943
	c-1.502,0.583-3.033,1.077-4.594,1.48c-15.961-14.928-37.349-24.107-59.189-25.927c-36.041-3.003-71.666,13.618-96.256,39.354
	c-13.486,14.117-24.148,30.828-31.846,48.733C904.921,1089.994,905.501,1095.08,909.966,1097.689z"/>
</svg>
