<?xml version="1.0" encoding="utf-8"?>
<!-- Generator: Adobe Illustrator 27.5.0, SVG Export Plug-In . SVG Version: 6.00 Build 0)  -->
<svg version="1.1" id="Capa_1" xmlns="http://www.w3.org/2000/svg" xmlns:xlink="http://www.w3.org/1999/xlink" x="0px" y="0px"
	 viewBox="0 0 2122 2122" style="enable-background:new 0 0 2122 2122;" xml:space="preserve">
<path style="fill:#C4C4E4;" d="M1061.606,180.118c-500.891,0-907,406.046-907,907c0,276.458,123.693,524.014,318.762,690.352
	c16.887,14.421,34.344,28.273,52.317,41.383c1.662,1.199,3.318,2.402,4.979,3.547c9.905,7.269,19.976,14.251,30.163,21.062
	c4.409,2.865,8.819,5.783,13.223,8.589c4.409,2.802,8.76,5.491,13.165,8.239c0.745,0.458,1.549,0.916,2.29,1.374
	c1.203,0.745,2.407,1.491,3.605,2.178c1.661,1.028,3.323,2.003,5.038,2.977c4.808,2.86,9.676,5.72,14.538,8.468
	c11.791,6.758,23.756,13.223,35.834,19.405c1.603,0.799,3.206,1.661,4.809,2.461c5.32,2.689,10.646,5.325,16.024,7.898
	c4.522,2.178,9.101,4.351,13.739,6.47c6.407,3.035,12.936,5.895,19.459,8.701c1.486,0.687,2.977,1.316,4.463,1.944
	c4.926,2.061,9.789,4.122,14.768,6.125c7.498,3.035,15.055,6.012,22.67,8.76h0.053c8.59,3.26,17.174,6.295,25.876,9.213v0.058
	c3.148,1.087,6.295,2.115,9.442,3.089c3.148,1.033,6.295,2.061,9.442,3.035l0.229,0.058c3.094,1.028,6.124,1.944,9.218,2.86
	c3.206,1.028,6.412,2.003,9.671,2.919c6.241,1.832,12.536,3.552,18.889,5.208c38.578,10.304,78.188,18.144,118.655,23.298h0.117
	c37.832,4.862,76.414,7.328,115.561,7.328c60.161,0,118.942-5.842,175.839-17.115c8.243-1.603,16.424-3.377,24.609-5.208
	c7.498-1.603,15.001-3.376,22.382-5.267c10.246-2.577,20.434-5.379,30.563-8.302c2.923-0.858,5.783-1.715,8.701-2.572
	c3.664-1.087,7.27-2.178,10.875-3.323c2.748-0.857,5.496-1.773,8.244-2.689c1.315-0.4,2.636-0.858,3.951-1.316
	c1.427-0.4,2.86-0.916,4.234-1.374c1.028-0.341,2.119-0.687,3.148-1.087c8.356-2.806,16.657-5.783,24.901-8.872l2.231-0.857
	c8.702-3.264,17.345-6.641,25.93-10.305h0.058c2.631-1.033,5.208-2.119,7.839-3.264c5.325-2.231,10.592-4.521,15.854-6.865
	l0.117-0.058c0.974-0.399,1.944-0.804,2.86-1.262c22.095-9.958,43.732-20.775,64.852-32.395v-0.058l0.916-0.516
	c9.501-5.262,18.948-10.704,28.219-16.37c7.839-4.692,15.625-9.501,23.293-14.422c4.638-2.977,9.277-6.012,13.851-9.101
	c8.872-5.837,17.632-11.961,26.275-18.202c14.826-10.646,29.364-21.749,43.498-33.311
	c203.712-166.28,333.758-419.444,333.758-702.888C1968.606,586.164,1562.555,180.118,1061.606,180.118z"/>
<path style="fill:#F0D2E6;" d="M1487.973,1677.188c-5.895-30.338-12.877-62.621-35.142-83.97
	c-12.02-11.562-27.416-18.714-42.529-25.754c-47.561-21.983-96.789-44.19-146.928-60.906c-26.236-8.758-52.717-16.006-79.4-20.934
	c-0.099-0.019-0.197-0.038-0.297-0.056c-4.074-0.753-8.153-1.438-12.235-2.08c-0.46-0.072-0.921-0.154-1.381-0.224
	c-0.547-0.083-1.093-0.185-1.639-0.266c-5.549-18.733-9.589-37.88-11.975-57.257c-1.814-14.604-2.681-29.32-2.704-44.05
	c21.733-12.429,41.532-28.247,58.344-46.805c26.836-29.622,45.778-65.525,61.768-102.158c14.44-33.079,26.678-67.114,36.672-101.797
	c3.457,3.057,7.57,5.861,12.444,8.355c7.298,3.737,15.498,5.452,23.683,6.047c47.99,3.483,92.024-31.318,114.967-73.613
	c11.902-21.939,19.576-47.825,12.906-71.878c-7.781-28.078-35.825-48.746-64.96-49.306c-20.643-0.395-37.567,7.464-51.605,19.449
	c3.562-21.638,6.213-43.551,11.805-64.721c7.991-30.251,22.071-58.884,41.155-83.683c14.022-18.222,30.762-34.48,42.387-54.319
	c11.625-19.839,17.554-44.965,7.927-65.847c-4.438-9.632-12.112-18.543-11.737-29.14c0.443-12.492,11.673-21.388,18.889-31.591
	c20.575-29.076,2.144-76.653-32.648-84.278c14.714-33.34,11.537-75.415-12.575-102.743c-24.112-27.328-69.754-34.738-98.426-12.249
	c-12.546-68.692-77.725-118.855-146.29-132.068c-36.76-7.084-76.877-4.896-108.707,14.807
	c-31.41,19.444-50.796,53.008-68.906,85.208c-6.339-39.571-42.894-72.677-81.91-81.822c-39.021-9.145-81.739,4.229-111.113,31.488
	c-29.378,27.26-45.695,67.103-47.62,107.133c-26.728-4.838-55.512,3.342-75.698,21.515c-20.19,18.177-31.338,45.943-29.315,73.032
	c-31.074,16.892-50.451,53.179-47.201,88.4c3.254,35.216,28.94,67.342,62.582,78.26c-24.015,27.274-17.257,75.484,13.33,95.103
	c10.514,6.748,22.787,10.241,33.695,16.331c27.186,15.182,43.254,45.14,50.324,75.464c2.979,12.789,4.575,25.79,5.637,38.873
	c-11.47-13.242-26.231-23.105-45.632-26.201c-28.77-4.594-60.024,10.797-72.648,37.057c-10.811,22.495-7.83,49.325,0.01,73.023
	c15.113,45.681,52.312,87.717,100.166,92.765c8.156,0.857,16.531,0.619,24.375-1.769c10.952-3.333,18.875-8.59,24.509-15.132
	c7.006,45.399,17.464,90.114,34.02,132.9c24.58,63.515,76.862,122.242,140.384,149.298c3.177,30.63,3.995,61.5,2.353,92.246
	c-0.39,7.387-0.972,14.761-1.639,22.127c-0.491,0.372-0.993,0.73-1.486,1.1c-5.098,3.827-10.268,7.552-15.498,11.196
	c-1.491,1.038-2.977,2.081-4.478,3.104c-5.839,3.983-11.735,7.881-17.727,11.631c-0.826,0.517-1.668,1.003-2.497,1.515
	c-5.329,3.296-10.721,6.485-16.159,9.593c-1.667,0.953-3.339,1.9-5.016,2.836c-6.244,3.478-12.532,6.88-18.91,10.107
	c-11.445,5.837-23.006,11.162-34.801,16.141c-52.312,21.925-110.694,37.433-148.073,80.02
	c-17.169,19.576-28.507,43.615-36.692,68.341c-7.04,21.525-18.256,107.493-24.78,172.117c5.32,2.689,10.646,5.325,16.024,7.898
	c4.522,2.178,9.101,4.351,13.739,6.47c6.407,3.035,12.936,5.895,19.459,8.701c1.486,0.687,2.977,1.316,4.463,1.944
	c4.926,2.061,9.789,4.122,14.768,6.125c7.498,3.035,15.055,6.012,22.67,8.76h0.053c8.59,3.26,17.174,6.295,25.876,9.213v0.058
	c3.148,1.087,6.295,2.115,9.442,3.089c3.148,1.033,6.295,2.061,9.442,3.035l0.229,0.058c3.094,1.028,6.124,1.944,9.218,2.86
	c3.206,1.028,6.412,2.003,9.671,2.919c6.241,1.832,12.536,3.552,18.889,5.208c38.578,10.304,78.188,18.144,118.655,23.298h0.117
	c37.832,4.862,76.414,7.328,115.561,7.328c60.161,0,118.942-5.842,175.839-17.115c8.243-1.603,16.424-3.377,24.609-5.208
	c7.498-1.603,15.001-3.376,22.382-5.267c10.246-2.577,20.434-5.379,30.563-8.302c2.923-0.858,5.783-1.715,8.701-2.572
	c3.664-1.087,7.27-2.178,10.875-3.323c2.748-0.857,5.496-1.773,8.244-2.689c1.315-0.4,2.636-0.858,3.951-1.316
	c1.427-0.4,2.86-0.916,4.234-1.374c1.028-0.341,2.119-0.687,3.148-1.087c8.356-2.806,16.657-5.783,24.901-8.872l2.231-0.857
	c8.702-3.264,17.345-6.641,25.93-10.305h0.058c2.631-1.033,5.208-2.119,7.839-3.264c5.325-2.231,10.592-4.521,15.854-6.865
	l0.117-0.058c0.974-0.399,1.944-0.804,2.86-1.262c22.095-9.958,43.732-20.775,64.852-32.395v-0.058l0.916-0.516
	c9.501-5.262,18.948-10.704,28.219-16.37c7.839-4.692,15.625-9.501,23.293-14.422
	C1532.163,1788.632,1494.331,1709.812,1487.973,1677.188z"/>
<path style="fill:#458685;" d="M1487.973,1677.188c-5.895-30.338-12.877-62.621-35.142-83.97
	c-12.02-11.562-27.416-18.714-42.529-25.754c-47.561-21.983-96.789-44.19-146.928-60.906c-26.236-8.758-52.717-16.006-79.4-20.934
	c-0.099-0.019-0.197-0.038-0.297-0.056c-4.074-0.753-8.153-1.438-12.235-2.08c-0.46-0.072-0.921-0.154-1.381-0.224
	c-0.542-0.084-1.085-0.145-1.628-0.227c0.604,2.036,1.137,4.089,1.778,6.114c11.089,35.031,27.693,69.038,29.827,105.72
	c2.958,50.475-24.594,101.574-68.385,126.85c-43.79,25.281-101.803,23.571-144.053-4.234c-17.262-11.377-32.56-27.956-35.971-48.341
	c-2.816-16.75,2.641-33.642,7.332-49.963c10.297-35.804,17.121-72.604,20.485-109.727c-0.491,0.372-0.993,0.73-1.486,1.1
	c-5.098,3.827-10.268,7.552-15.498,11.196c-1.491,1.038-2.977,2.081-4.478,3.104c-5.839,3.983-11.735,7.881-17.727,11.631
	c-0.826,0.517-1.668,1.003-2.497,1.515c-5.329,3.296-10.721,6.485-16.159,9.593c-1.667,0.953-3.339,1.9-5.016,2.836
	c-6.244,3.478-12.532,6.88-18.91,10.107c-11.445,5.837-23.006,11.162-34.801,16.141c-52.312,21.925-110.694,37.433-148.073,80.02
	c-17.169,19.576-28.507,43.615-36.692,68.341c-7.04,21.525-18.256,107.493-24.78,172.117c5.32,2.689,10.646,5.325,16.024,7.898
	c4.522,2.178,9.101,4.351,13.739,6.47c6.407,3.035,12.936,5.895,19.459,8.701c1.486,0.687,2.977,1.316,4.463,1.944
	c4.926,2.061,9.789,4.122,14.768,6.125c7.498,3.035,15.055,6.012,22.67,8.76h0.053c8.59,3.26,17.174,6.295,25.876,9.213v0.058
	c3.148,1.087,6.295,2.115,9.442,3.089c3.148,1.033,6.295,2.061,9.442,3.035l0.229,0.058c3.094,1.028,6.124,1.944,9.218,2.86
	c3.206,1.028,6.412,2.003,9.671,2.919c6.241,1.832,12.536,3.552,18.889,5.208c38.578,10.304,78.188,18.144,118.655,23.298h0.117
	c37.832,4.862,76.414,7.328,115.561,7.328c60.161,0,118.942-5.842,175.839-17.115c8.243-1.603,16.424-3.377,24.609-5.208
	c7.498-1.603,15.001-3.376,22.382-5.267c10.246-2.577,20.434-5.379,30.563-8.302c2.923-0.858,5.783-1.715,8.701-2.572
	c3.664-1.087,7.27-2.178,10.875-3.323c2.748-0.857,5.496-1.773,8.244-2.689c1.315-0.4,2.636-0.858,3.951-1.316
	c1.427-0.4,2.86-0.916,4.234-1.374c1.028-0.341,2.119-0.687,3.148-1.087c8.356-2.806,16.657-5.783,24.901-8.872l2.231-0.857
	c8.702-3.264,17.345-6.641,25.93-10.305h0.058c2.631-1.033,5.208-2.119,7.839-3.264c5.325-2.231,10.592-4.521,15.854-6.865
	l0.117-0.058c0.974-0.399,1.944-0.804,2.86-1.262c22.095-9.958,43.732-20.775,64.852-32.395v-0.058l0.916-0.516
	c9.501-5.262,18.948-10.704,28.219-16.37c7.839-4.692,15.625-9.501,23.293-14.422
	C1532.163,1788.632,1494.331,1709.812,1487.973,1677.188z"/>
<path style="fill:#FDEDEF;" d="M881.932,1609.968c-11.829,60.341,18.626,125.315,69.866,159.323
	c51.21,34.036,119.683,37.822,176.667,14.733c56.984-23.094,102.227-71.06,127.391-127.138
	c18.168-40.492,26.416-86.84,14.928-129.69c-1.876-7.055-4.38-13.963-7.42-20.619c-26.231-8.754-52.729-16.009-79.391-20.953
	c-0.099-0.019-0.197-0.038-0.297-0.056c-4.074-0.753-8.153-1.438-12.235-2.08c-0.46-0.072-0.921-0.154-1.381-0.224
	c-0.542-0.084-1.085-0.145-1.628-0.227c0.604,2.036,1.137,4.089,1.778,6.114c11.089,35.031,27.693,69.038,29.827,105.72
	c2.958,50.475-24.594,101.574-68.385,126.85c-43.79,25.281-101.803,23.571-144.053-4.234c-17.262-11.377-32.56-27.956-35.971-48.341
	c-2.816-16.75,2.641-33.642,7.332-49.963c10.297-35.804,17.121-72.604,20.485-109.727c-0.491,0.372-0.993,0.73-1.486,1.1
	c-5.098,3.827-10.268,7.552-15.498,11.196c-1.491,1.038-2.977,2.081-4.478,3.104c-5.839,3.983-11.735,7.881-17.727,11.631
	c-0.826,0.517-1.668,1.003-2.497,1.515c-5.329,3.296-10.721,6.485-16.159,9.593c-1.667,0.953-3.339,1.9-5.016,2.836
	c-6.251,3.484-12.546,6.89-18.929,10.121C890.804,1575.307,885.513,1591.712,881.932,1609.968z"/>
<path style="fill:#F18FA4;" d="M1156.446,1425.739c-1.814-14.604-2.681-29.32-2.704-44.05c-16.879,9.653-34.925,17.262-53.647,22.52
	c-42.124,11.832-83.716,6.908-121.364-9.128c3.177,30.63,3.995,61.5,2.353,92.246c34.436-3.781,68.39-8.926,101.915-21.072
	C1109.216,1456.731,1134.551,1443.166,1156.446,1425.739z"/>
<path style="fill:#292F6E;" d="M1435.739,556.405c14.714-33.34,11.537-75.415-12.575-102.743
	c-24.112-27.328-69.754-34.738-98.426-12.249c-12.546-68.692-77.725-118.855-146.29-132.068
	c-36.76-7.084-76.877-4.896-108.707,14.807c-31.41,19.444-50.796,53.008-68.906,85.208c-6.339-39.571-42.894-72.677-81.91-81.822
	c-39.021-9.145-81.739,4.229-111.113,31.488c-29.378,27.26-45.695,67.103-47.62,107.133c-26.728-4.838-55.512,3.342-75.698,21.515
	c-20.19,18.177-31.338,45.943-29.315,73.032c-31.074,16.892-50.451,53.179-47.201,88.4c3.254,35.216,28.94,67.342,62.582,78.26
	c-24.015,27.274-17.257,75.484,13.33,95.103c10.514,6.748,22.787,10.241,33.695,16.331c27.186,15.182,43.254,45.14,50.324,75.464
	c2.979,12.789,4.575,25.79,5.637,38.873c1.454,17.938,1.872,36.034,3.196,53.989c0.814,10.991,4.029,24.453,14.743,27.031
	c7.679,1.847,15.61-3.557,19.303-10.538c3.688-6.977,4.132-15.157,4.492-23.045l7.82-168.979
	c46.036-3.664,87.537-40.112,97.115-85.291c48.444,20.434,108.765,8.502,145.778-28.838c37.925,36.819,104.614,38.324,144.165,3.25
	c9.189,23.883,20.673,43.332,46.222,42.007c-4.843,23.961,12.302,45.993,24.443,67.206c29.067,50.797,31.981,113.16,20.75,170.596
	c-1.788,9.155-3.922,18.529-2.3,27.717c1.618,9.184,8.117,18.256,17.345,19.615c13.432,1.983,23.396-12.117,28.234-24.804
	c6.516-17.098,10.128-34.99,13.106-53.072c3.562-21.638,6.213-43.551,11.805-64.721c7.991-30.251,22.071-58.884,41.155-83.683
	c14.022-18.222,30.762-34.48,42.387-54.319c11.625-19.839,17.554-44.965,7.927-65.847c-4.438-9.632-12.112-18.543-11.737-29.14
	c0.443-12.492,11.673-21.388,18.889-31.591C1488.962,611.606,1470.531,564.03,1435.739,556.405z"/>
<path style="fill:#F18FA4;" d="M1026.035,1211.016c23.649,3.289,46.709-13.013,58.066-34.017
	c11.357-20.999,13.247-45.744,13.286-69.623c0.034-19.021-15.181-174.206-64-127.137c-14.948,14.417-9.954,52.073-11.917,70.641
	c-3.897,36.872-12.19,73.086-19.006,109.486c-2.816,15.05-4.502,32.984,6.748,43.367
	C1013.771,1207.942,1019.886,1210.163,1026.035,1211.016z"/>
<path style="fill:#FFFBF7;" d="M1174.156,989.593c-30.655,1.257-55.137,21.925-57.871,47.508c-0.253,2.202-0.331,4.429-0.238,6.67
	c1.169,28.556,29.081,50.607,62.353,49.238c31.678-1.296,56.785-23.328,58.105-50.08c0.088-1.369,0.088-2.733,0.034-4.097
	C1235.364,1010.276,1207.452,988.229,1174.156,989.593z"/>
<path style="fill:#FFFBF7;" d="M992.3,1033.018c-3.781-25.446-29.087-45.096-59.771-45.096c-33.325,0-60.312,23.176-60.312,51.751
	c0,1.365,0.058,2.729,0.2,4.093c2.416,26.675,28.409,47.659,60.112,47.659c33.301,0,60.282-23.172,60.282-51.752
	C992.812,1037.427,992.641,1035.211,992.3,1033.018z"/>
<path style="fill:#3F4A99;" d="M802.751,536.352c24.838-17.262,52.438-12.321,78.553-1.203c5.14,2.188,11.23-3.825,6.46-8.375
	c-16.019-15.269-37.794-19.645-58.828-16.219c1.048-0.452,1.964-1.293,2.429-2.675c7.488-22.207,14.256-42.217,34.027-56.736
	c22.47-16.497,49.442-18.334,75.898-12.107c3.537,0.833,6.236-4.521,2.601-6.173c-50.178-22.845-124.76,12.765-121.076,73.856
	c0.156,2.569,2.045,4.026,4.043,4.192c-40.515,7.61-77.468,44.051-64.038,87.589c1.398,4.541,8.935,5.262,9.939,0
	C777.382,574.242,780.632,551.728,802.751,536.352z"/>
<path style="fill:#3F4A99;" d="M1209.479,535.65c-1.754,2.533,1.598,5.335,4.01,4.01c27.133-14.865,59.352-24.984,88.521-9.164
	c28.508,15.462,39.845,48.368,36.394,79.135c-3.47-2.455-6.849-4.683-10.04-6.643c-37.349-22.948-98.991-30.44-123.937,14.095
	c-1.749,3.123,2.066,7.878,5.35,5.35c32.838-25.335,70.938-29.096,107.425-8.073c33.252,19.157,72.482,54.611,59.206,96.677
	c-1.666,5.281,5.579,7.625,8.443,3.561c24.838-35.168-7.541-74.725-38.244-98.837c12.259-36.352-3.655-78.321-37.479-97.441
	C1276.836,500.064,1231.36,504.015,1209.479,535.65z"/>
<path style="fill:#3F4A99;" d="M921.601,595.475c-18.022-0.102-40.239,7.824-46.821,25.881c-1.349,3.707,3.094,5.939,6.007,4.619
	c14.134-6.422,24.322-16.312,40.814-16.975c14.399-0.58,27.837,5.207,38.773,14.154c-17.502,14.919-30.365,34.714-29.989,56.477
	c0.039,2.237,2.782,2.743,3.971,1.077c21.671-30.378,35.985-59.26,75.415-70.071c37.822-10.368,75.094,4.756,104.487,28.409
	c1.861,1.501,5.276-0.468,3.63-2.797c-23.922-33.847-67.849-47.81-107.995-38.685c-14.015,3.185-29.347,10.346-42.801,20.254
	C955.951,603.902,940.221,595.586,921.601,595.475z"/>
<path style="fill:#3F4A99;" d="M1077.118,449.891c41.647-52.945,108.604-70.465,162.402-22.451c2.806,2.504,6.772-1.393,4.151-4.146
	c-48.18-50.558-142.07-44.648-170.265,24.438C1072.583,449.745,1075.774,451.602,1077.118,449.891z"/>
<path style="fill:#3F4A99;" d="M713.392,765.023c-6.865-11.03-7.06-27.211,3.552-35.893c4.726-3.874-1.296-10.636-6.246-8.097
	c-16.721,8.575-21.281,28.506-13.744,45.145c7.927,17.496,28.234,29.364,46.812,31.523c4.054,0.467,4.297-4.911,1.836-6.792
	C734.605,782.5,721.017,777.282,713.392,765.023z"/>
<path style="fill:#3F4A99;" d="M747.097,507.1c-40.316-5.861-75.089,40.716-50.051,76.146c1.915,2.714,6.027,1.087,5.359-2.255
	c-6.689-33.432,10.319-60.59,44.692-65.667C751.165,514.724,751.18,507.689,747.097,507.1z"/>
<path style="fill:#3F4A99;" d="M1356.324,811.065c53.749,5.072,101.919-52.799,77.257-104.034c-0.931-1.939-4.341-1.052-4.136,1.12
	c4.76,50.621-19.932,91.688-73.121,98.119C1353.279,806.636,1353.201,810.773,1356.324,811.065z"/>
<path style="fill:#F18FA4;" d="M694.61,956.785c-3.698,0.224-5.184,4.229-2.889,6.977c11.842,14.199,28.896,21.318,41.82,34.804
	c-10.642,3.393-20.009,10.829-25.401,20.743c-6.27,11.532-11.503,34.168,2.66,41.939c2.061,1.13,4.171,0.029,4.96-2.017
	c4.024-10.436-0.701-21.33,4.322-32c4.415-9.375,11.959-15.296,20.962-19.224c15.146,23.37,16.938,49.255,19.272,76.217
	c0.292,3.372,4.546,3.888,5.759,0.78c11.07-28.297,3.722-60.132-12.438-85.135C741.923,981.74,718.094,955.347,694.61,956.785z"/>
<path style="fill:#F18FA4;" d="M1349.98,1103.07c5.501-24.093,11.703-45.554,28.141-64.892c1.26-1.482,2.639-3.004,4.067-4.535
	c11.98,0.289,25.402,3.683,29.453,16.33c1.998,6.251,1.179,13.091-2.042,18.787c-2.792,4.945-7.493,7.995-9.52,13.359
	c-0.794,2.095,0.887,4.931,3.04,5.36c21.023,4.18,28.74-30.641,22.689-44.921c-5.001-11.808-17.536-20.726-30.08-21.575
	c14.828-11.968,33.35-21.096,50.519-16.082c4.478,1.306,7.474-5.417,3.22-7.635c-24.896-12.979-53.866,6.202-72.151,23.094
	c-21.91,20.244-39.498,50.612-40.253,80.965C1336.884,1108.653,1348.319,1110.368,1349.98,1103.07z"/>
<path style="fill:#292F6E;" d="M901.616,981.866c19.128-3.601,37.768-5.958,57.296-4.443c6.777,0.526,13.705,1.413,20.287-0.297
	c6.577-1.71,12.838-6.782,13.544-13.539c0.507-4.828-1.866-9.521-4.828-13.369c-9.789-12.721-25.881-18.967-41.657-21.91
	c-18.031-3.366-36.994-3.123-54.343,2.835c-16.58,5.701-59.328,33.929-28.526,49.062C875.35,986.08,889.143,984.214,901.616,981.866
	z"/>
<path style="fill:#292F6E;" d="M1114.979,930.027c6.67,1.301,13.53-0.005,20.263-0.945c19.396-2.704,38.149-1.496,57.462,0.931
	c12.594,1.578,26.475,2.597,38.051-4c29.817-16.989-14.578-42.553-31.474-47.225c-17.681-4.887-36.624-3.966-54.412,0.497
	c-15.571,3.903-31.25,11.123-40.238,24.419c-2.724,4.025-4.804,8.848-4.005,13.637
	C1101.747,924.044,1108.31,928.726,1114.979,930.027z"/>
<path style="fill:#1A1029;" d="M1157.279,1224.448c5.939-6.904-4.073-17.004-10.056-10.056
	c-38.86,45.169-99.143,68.356-158.256,61.13c-9.062-1.111-8.984,13.116,0,14.217
	C1051.369,1297.364,1116.295,1272.083,1157.279,1224.448z"/>
<path style="fill:#292F6E;" d="M939.667,1030.207c-5.998,0.282-12,0.565-17.969,1.276c-9.677,1.128-19.172,3.306-28.565,5.933
	c2.166,19.209,18.965,34.164,39.386,34.164c21.886,0,39.635-17.179,39.635-38.368c0-1.021-0.077-2.023-0.159-3.023
	C961.239,1029.464,950.433,1029.718,939.667,1030.207z"/>
<path style="fill:#F18FA4;" d="M921.698,1031.484c5.968-0.711,11.971-0.994,17.969-1.276c10.766-0.489,21.572-0.744,32.328-0.017
	c1.774,0.12,3.548,0.202,5.318,0.383c5.062,0.511,10.07,1.281,14.987,2.446c-3.781-25.446-29.087-45.096-59.771-45.096
	c-33.325,0-60.312,23.176-60.312,51.751c0,1.365,0.058,2.729,0.2,4.093c6.868-2.223,13.766-4.405,20.716-6.349
	C902.527,1034.79,912.021,1032.612,921.698,1031.484z"/>
<path style="fill:#292F6E;" d="M1168.758,1032.132c-10.778-0.046-21.584,0.143-32.302,1.313c-0.04,1.003-0.075,2.009-0.034,3.028
	c0.872,21.169,19.303,37.603,41.174,36.706c20.403-0.836,36.579-16.466,37.955-35.747c-9.495-2.241-19.071-4.027-28.786-4.755
	C1180.772,1032.209,1174.765,1032.171,1168.758,1032.132z"/>
<path style="fill:#F18FA4;" d="M1136.456,1033.444c10.718-1.17,21.524-1.359,32.302-1.313c6.007,0.039,12.015,0.078,18.007,0.546
	c9.715,0.728,19.291,2.514,28.786,4.755c7.023,1.657,14.001,3.555,20.953,5.496c0.088-1.369,0.088-2.733,0.034-4.097
	c-1.174-28.555-29.086-50.602-62.382-49.238c-30.655,1.257-55.137,21.925-57.871,47.508c4.867-1.364,9.832-2.338,14.87-3.055
	C1132.918,1033.793,1134.687,1033.637,1136.456,1033.444z"/>
<path style="fill:#F18FA4;" d="M967.024,1138.207c-0.643-0.696-1.408-1.184-2.29-1.471c-0.848-0.443-1.759-0.648-2.739-0.614
	c-0.628,0.087-1.262,0.17-1.89,0.253c-1.203,0.341-2.25,0.95-3.138,1.832c-0.37,0.478-0.74,0.96-1.11,1.437
	c-0.643,1.111-0.965,2.304-0.97,3.586v2.343c-0.039,0.979,0.166,1.895,0.614,2.743c0.282,0.882,0.775,1.642,1.466,2.285
	c0.643,0.692,1.408,1.184,2.29,1.471c0.848,0.443,1.759,0.648,2.738,0.614c0.629-0.088,1.262-0.171,1.891-0.258
	c1.203-0.336,2.251-0.945,3.138-1.827c0.37-0.477,0.74-0.96,1.111-1.437c0.643-1.111,0.965-2.304,0.97-3.591v-2.343
	c0.039-0.979-0.166-1.89-0.614-2.739C968.208,1139.61,967.715,1138.85,967.024,1138.207z"/>
<path style="fill:#F18FA4;" d="M931.52,1174.802c-9.145,0-9.159,14.217,0,14.217C940.67,1189.018,940.685,1174.802,931.52,1174.802z
	"/>
<path style="fill:#F18FA4;" d="M926.298,1133.077c0.448-0.843,0.653-1.759,0.614-2.738c0.039-0.979-0.166-1.89-0.614-2.738
	c-0.283-0.882-0.775-1.642-1.467-2.286c-0.482-0.375-0.96-0.745-1.442-1.116c-1.106-0.643-2.305-0.964-3.586-0.969
	c-0.629,0.088-1.262,0.171-1.89,0.253c-1.203,0.341-2.251,0.95-3.138,1.832l-1.169,1.169c-0.696,0.643-1.184,1.408-1.471,2.29
	c-0.443,0.848-0.648,1.759-0.614,2.738c-0.034,0.979,0.17,1.89,0.614,2.738c0.287,0.882,0.775,1.642,1.471,2.29
	c0.477,0.371,0.96,0.741,1.437,1.111c1.111,0.643,2.304,0.965,3.586,0.969c0.633-0.083,1.262-0.17,1.89-0.253
	c1.203-0.341,2.25-0.95,3.138-1.828l1.174-1.174C925.523,1134.724,926.015,1133.959,926.298,1133.077z"/>
<path style="fill:#F18FA4;" d="M881.129,1153.705c-9.15,0-9.165,14.217,0,14.217
	C890.274,1167.922,890.288,1153.705,881.129,1153.705z"/>
<path style="fill:#F18FA4;" d="M1134.283,1144.327c-9.149,0-9.164,14.217,0,14.217
	C1143.428,1158.543,1143.442,1144.327,1134.283,1144.327z"/>
<path style="fill:#F18FA4;" d="M1183.506,1117.369c-9.15,0-9.165,14.222,0,14.222
	C1192.655,1131.591,1192.67,1117.369,1183.506,1117.369z"/>
<path style="fill:#F18FA4;" d="M1201.362,1166.602c-0.371-0.482-0.741-0.959-1.111-1.442c-0.886-0.877-1.929-1.491-3.138-1.827
	c-0.629-0.083-1.257-0.171-1.89-0.253c-1.281,0.005-2.475,0.326-3.586,0.969c-0.779,0.39-1.564,0.784-2.343,1.174
	c-0.828,0.448-1.496,1.057-1.993,1.832c-0.629,0.687-1.052,1.491-1.277,2.416c-0.292,0.945-0.336,1.89-0.126,2.836
	c0.043,0.945,0.326,1.827,0.843,2.641c0.375,0.482,0.745,0.96,1.116,1.437c0.887,0.882,1.929,1.491,3.133,1.832
	c0.633,0.083,1.262,0.166,1.89,0.253c1.286-0.005,2.479-0.326,3.591-0.969c0.779-0.395,1.564-0.784,2.343-1.174
	c0.828-0.448,1.491-1.058,1.993-1.832c0.629-0.687,1.053-1.491,1.272-2.417c0.297-0.945,0.341-1.89,0.127-2.836
	C1202.166,1168.297,1201.883,1167.415,1201.362,1166.602z"/>
<path style="fill:#F18FA4;" d="M1235.072,1124.404c-9.145,0-9.159,14.217,0,14.217
	C1244.222,1138.621,1244.236,1124.404,1235.072,1124.404z"/>
</svg>
