<?xml version="1.0" encoding="utf-8"?>
<!-- Generator: Adobe Illustrator 27.5.0, SVG Export Plug-In . SVG Version: 6.00 Build 0)  -->
<svg version="1.1" id="Capa_1" xmlns="http://www.w3.org/2000/svg" xmlns:xlink="http://www.w3.org/1999/xlink" x="0px" y="0px"
	 viewBox="0 0 2122 2122" style="enable-background:new 0 0 2122 2122;" xml:space="preserve">
<path style="fill:#C4C4E4;" d="M1062.195,161.676c-504.291,0-913.158,408.806-913.158,913.158
	c0,278.338,124.531,527.573,320.925,695.039c16.999,14.521,34.577,28.468,52.672,41.664c1.671,1.211,3.342,2.419,5.013,3.574
	c9.968,7.318,20.112,14.348,30.368,21.206c4.439,2.882,8.877,5.82,13.316,8.643c4.433,2.823,8.814,5.532,13.252,8.3
	c0.75,0.461,1.554,0.921,2.304,1.381c1.208,0.75,2.422,1.5,3.63,2.19c1.671,1.038,3.342,2.017,5.072,2.999
	c4.843,2.879,9.739,5.761,14.636,8.529c11.873,6.799,23.917,13.31,36.078,19.534c1.612,0.806,3.167,1.671,4.779,2.421l0.058,0.056
	c5.359,2.708,10.719,5.359,16.137,7.953c4.55,2.19,9.164,4.38,13.832,6.512c6.45,3.055,13.023,5.934,19.59,8.758
	c0.868,0.404,1.73,0.809,2.592,1.154c0.638,0.287,1.271,0.519,1.905,0.806c4.955,2.073,9.851,4.149,14.865,6.166
	c7.552,3.055,15.157,6.051,22.821,8.816h0.058c8.643,3.286,17.291,6.341,26.046,9.279v0.058c3.172,1.094,6.339,2.132,9.511,3.111
	c3.172,1.038,6.339,2.075,9.51,3.055l0.229,0.056c3.113,1.038,6.168,1.961,9.277,2.882c3.23,1.038,6.455,2.017,9.739,2.941
	c6.28,1.844,12.619,3.571,19.016,5.242c38.84,10.375,78.718,18.268,119.464,23.454h0.112c38.095,4.899,76.935,7.376,116.351,7.376
	c60.565,0,119.752-5.879,177.033-17.23c8.297-1.613,16.536-3.401,24.78-5.245c7.547-1.613,15.094-3.399,22.528-5.301
	c10.314-2.592,20.575-5.416,30.772-8.356c2.943-0.865,5.822-1.73,8.76-2.594c3.688-1.094,7.322-2.188,10.952-3.34
	c2.762-0.865,5.53-1.788,8.297-2.708c1.325-0.405,2.65-0.865,3.975-1.326c1.442-0.404,2.88-0.923,4.263-1.384
	c1.038-0.346,2.134-0.692,3.172-1.096c3.859-1.326,7.722-2.651,11.581-4.034c4.497-1.555,8.989-3.225,13.486-4.897l2.246-0.865
	c8.76-3.286,17.462-6.685,26.105-10.373h0.058c2.651-1.038,5.248-2.132,7.898-3.286c5.355-2.246,10.66-4.551,15.961-6.914
	l0.117-0.058c0.979-0.404,1.959-0.806,2.879-1.267c8.414-3.805,16.77-7.722,25.008-11.756c13.661-6.628,27.084-13.601,40.282-20.863
	v-0.056l0.921-0.519c9.569-5.301,19.075-10.777,28.409-16.482c7.898-4.726,15.732-9.566,23.454-14.522
	c4.668-2.996,9.335-6.051,13.949-9.162c8.931-5.878,17.749-12.043,26.451-18.326c14.923-10.719,29.564-21.898,43.795-33.54
	c205.096-167.406,336.024-422.289,336.024-707.658C1975.353,570.482,1566.545,161.676,1062.195,161.676z"/>
<path style="fill:#F49B7F;" d="M1746.106,1033.195c-13.919-54.217-47.678-101.839-88.891-139.715
	c-37.734-34.677-86.3-70.743-84.551-121.958c1.145-33.438,24.512-61.73,33.72-93.896c10.792-37.669,1.213-78.969-18.3-112.952
	c-19.508-33.983-48.161-61.712-77.661-87.505c-36.862-32.232-77.374-63.072-125.101-74.02
	c-56.59-12.982-115.678,3.71-169.534,25.408c-22.452,9.046-47.873,13.488-73.629,17.391c-0.352-0.715-0.705-1.458-1.056-2.161
	c-35.815-71.803-117.242-131.278-193.505-151.091c-84.546-21.964-178.757-2.928-248.141,50.134
	c-24.58,18.799-46.592,42.332-57.681,71.22c-16.721,43.569-6.992,94.348-26.085,136.928
	c-39.508,88.087-171.103,89.571-231.479,164.906c-27.255,34.005-36.429,80.541-29.082,123.495
	c7.347,42.955,30.105,82.333,59.99,114.051c26.081,27.678,59.757,54.136,63.274,92.002c6.158,66.324-83.318,108.631-85.846,175.193
	c-1.242,32.66,19.566,62.249,43.737,84.256c24.165,22.005,52.58,39.354,74.475,63.62c34.933,38.711,50.295,94.249,40.22,145.408
	c-10.071,51.159-45.345,96.725-92.346,119.301c34.198,17.633,71.96,26.833,110.387,28.966c0.81,14.691,3.113,29.383,5.992,43.787
	c13.14,65.695,39.479,128.277,76.068,184.35l0.058,0.056c5.359,2.708,10.719,5.359,16.137,7.953c4.55,2.19,9.164,4.38,13.832,6.512
	c6.45,3.055,13.023,5.934,19.59,8.758c0.868,0.404,1.73,0.809,2.592,1.154c0.638,0.287,1.271,0.519,1.905,0.806
	c4.955,2.073,9.851,4.149,14.865,6.166c7.552,3.055,15.157,6.051,22.821,8.816h0.058c8.643,3.286,17.291,6.341,26.046,9.279v0.058
	c3.172,1.094,6.339,2.132,9.511,3.111c3.172,1.038,6.339,2.075,9.51,3.055l0.229,0.056c3.113,1.038,6.168,1.961,9.277,2.882
	c3.23,1.038,6.455,2.017,9.739,2.941c6.28,1.844,12.619,3.571,19.016,5.242c38.84,10.375,78.718,18.268,119.464,23.454h0.112
	c38.095,4.899,76.935,7.376,116.351,7.376c60.565,0,119.752-5.879,177.033-17.23c8.297-1.613,16.536-3.401,24.78-5.245
	c7.547-1.613,15.094-3.399,22.528-5.301c10.314-2.592,20.575-5.416,30.772-8.356c2.943-0.865,5.822-1.73,8.76-2.594
	c3.688-1.094,7.322-2.188,10.952-3.34c2.762-0.865,5.53-1.788,8.297-2.708c1.325-0.405,2.65-0.865,3.975-1.326
	c1.442-0.404,2.88-0.923,4.263-1.384c1.038-0.346,2.134-0.692,3.172-1.096c3.859-1.326,7.722-2.651,11.581-4.034
	c4.497-1.555,8.989-3.225,13.486-4.897l2.246-0.865c8.76-3.286,17.462-6.685,26.105-10.373h0.058
	c2.651-1.038,5.248-2.132,7.898-3.286c5.355-2.246,10.66-4.551,15.961-6.914l0.117-0.058c0.979-0.404,1.959-0.806,2.879-1.267
	c8.414-3.805,16.77-7.722,25.008-11.756c4.38-6.802,8.414-13.832,12.044-21.092c18.616-37.286,25.067-79.237,34.694-119.807
	c7.781-32.904,17.807-65.464,20.629-99.118c0.46-5.682,0.745-11.363,0.69-17.102c55.34-29.966,102.688-73.859,133.677-128.676
	c-40.492-1.004-78.928-26.768-96.911-63.057c-17.983-36.29-15.601-81.452,4.477-116.624
	c33.466-58.619,106.251-83.605,147.05-137.376C1752.25,1148.517,1760.031,1087.409,1746.106,1033.195z"/>
<path style="fill:#B73029;" d="M1119.243,1311.014c-13.057-7.009-24.901-16.268-34.855-27.247
	c-7.221-7.964-13.968-17.204-24.034-20.972c-11.766-4.407-25.315,0.031-35.211,7.776l-1.34,0.297
	c-0.275-0.227,0.108-0.609,0.336-0.62c-5.095-7.264-16.541-9.84-25.121-7.557c-8.652,2.302-15.737,8.672-20.92,15.97
	c-7.684,10.814-12.936,24.882-25.208,29.905c1.595,0.94,3.32,1.618,5.087,2.166c9.404,9.693,24.583,29.393,32.452,38.296
	c8.389,9.491,24.336,10.19,35.698,4.185c6.48,10.212,21.725,12.441,33.374,8.19c11.649-4.251,20.536-13.328,28.994-22.105
	c8.12-8.694,17.097-16.017,27.331-21.55c4.561-0.803,8.988-2.216,13.049-4.44C1125.708,1312.7,1122.083,1312.537,1119.243,1311.014z
	"/>
<path style="fill:#F9BF9A;" d="M1746.106,1033.195c-13.919-54.217-47.678-101.839-88.891-139.715
	c-37.734-34.677-86.3-70.743-84.551-121.958c1.145-33.438,24.512-61.73,33.72-93.896c10.792-37.669,1.213-78.969-18.3-112.952
	c-19.508-33.983-48.161-61.712-77.661-87.505c-36.862-32.232-77.374-63.072-125.101-74.02
	c-56.59-12.982-115.678,3.71-169.534,25.408c-22.452,9.046-47.873,13.488-73.629,17.391c31.168,63.379,67.095,176-7.575,222.361
	c-19.537,12.129-43.519,15.842-64.937,23.909c2.166,24.23,1.873,49.183,17.444,70.124c19.449,26.154,55.201,34.857,88.209,37.729
	c33.008,2.875,67.566,2.08,97.364,16.212c27.586,13.079,48.19,38.309,57.856,66.68c9.666,28.373,8.896,59.571,0.687,88.377
	c-11.853,41.612-44.278,81.717-88.331,86.383c15.41,7.447,33.164,9.291,50.314,7.98c21.448-1.64,41.818-8.194,60.281-18.394
	c22.628-29.087,50.09-54.422,81.048-74.415c14.514-9.374,30.198-17.742,47.303-20.141c17.111-2.399,35.975,2.085,47.42,15.028
	c16.482,18.639,12.867,47.313,5.554,71.096c-20.375,66.261-65.013,127.813-128.896,154.736
	c-16.983,7.159-42.139,13.924-63.347,10.402c-32.899,74.451-81.21,145.067-140.027,194.084c0.047,0.413,0.12,0.818,0.164,1.231
	c0.004,0.041,0.008,0.088,0.012,0.129c0.045,0.432,0.088,0.863,0.13,1.295c0.067,0.683,0.135,1.356,0.203,2.034
	c0.053,0.463,0.112,0.865,0.112,1.269v0.056c0.117,0.923,0.175,1.847,0.175,2.709c0.171,2.017,0.287,4.034,0.346,6.051
	c0.287,9.178-0.89,18.569-2.325,28.005c-2.292,15.114-5.247,30.352-4.006,45.05c0.311,3.654,0.865,7.275,1.776,10.85
	c0.252,1.008,0.567,1.965,0.867,2.933c1.567,5.012,3.688,9.543,6.363,13.551c-0.005,0.003-0.01,0.006-0.016,0.01
	c11.531,17.213,32.25,25.42,53.515,26.03c1.013-1.685,1.977-3.401,3.017-5.07c5.091-8.165,16.398-3.832,17.576,3.465
	c19.807-3.342,38.789-10.912,58.195-16.486c58.836-16.94,131.849-11.12,168.267,38.207c16.716,22.59,23.167,51.057,23.225,79.352
	c0,0.024-0.001,0.048-0.001,0.072c55.34-29.966,102.688-73.859,133.677-128.676c-40.492-1.004-78.928-26.768-96.911-63.057
	c-17.983-36.29-15.601-81.452,4.477-116.624c33.466-58.619,106.251-83.605,147.05-137.376
	C1752.25,1148.517,1760.031,1087.409,1746.106,1033.195z"/>
<path style="fill:#EE7659;" d="M995.623,1582.806c75.307-0.572,146.643-29.228,210.707-69.535c0.006-0.004,0.011-0.007,0.016-0.01
	c-2.675-4.009-4.796-8.54-6.363-13.551c-0.302-0.967-0.619-1.921-0.877-2.926c-0.906-3.578-1.458-7.201-1.766-10.857
	c-1.241-14.698,1.714-29.937,4.006-45.05c1.431-9.434,2.599-18.818,2.301-27.988c-0.137-4.03-0.421-8.081-0.813-12.136
	c-0.042-0.432-0.085-0.863-0.13-1.295c-0.046-0.452-0.13-0.903-0.18-1.354c-60.302,50.254-131.637,77.803-208.753,63.392
	c-15.056-2.814-29.349-6.582-42.93-11.193c-18.026,34.138-47.096,64.182-76.934,89.475c-2.867,2.431-5.77,4.828-8.677,7.221
	c3.225,2.346,6.522,4.584,9.905,6.658C910.868,1575.53,953.757,1583.135,995.623,1582.806z"/>
<path style="fill:#CE4A3E;" d="M1375.228,1820.585c-6.227-27.315-23.109-53.537-48.755-64.658
	c-33.19-14.428-67.251-1.503-100.631,16.338c-5.52-57.321,2.615-115.755,23.549-169.641c7.975-20.533,18.061-40.214,29.71-58.899
	c1.311-2.101,1.639-4.157,1.338-6.028c-1.178-7.297-12.485-11.63-17.576-3.465c-1.04,1.669-2.004,3.385-3.017,5.07
	c-40.891,67.983-59.738,148.968-53.373,228.031c0.401,4.973,0.94,9.933,1.531,14.886c-12.154,6.988-24.19,14.073-36.031,20.157
	c-70.762,36.533-158.704,37.917-230.62,3.688c-38.613-18.391-72.456-46.156-112.09-62.22c1.483-51.825-6.889-103.691-24.266-152.49
	c-5.825,3.779-11.73,7.424-17.685,10.979c14.866,43.302,22.117,89.024,21.601,134.861c-35.882-9.142-75.954-5.84-101.183,20.174
	c-27.547,28.467-27.947,73.878-18.265,112.431c3.8,15.157,8.872,30.025,13.827,44.95c0.638,0.287,1.271,0.519,1.905,0.806
	c4.955,2.073,9.851,4.149,14.865,6.166c7.552,3.055,15.157,6.051,22.821,8.816h0.058c8.643,3.286,17.291,6.341,26.046,9.279v0.058
	c3.172,1.094,6.339,2.132,9.511,3.111c3.172,1.038,6.339,2.075,9.51,3.055l0.229,0.056c3.113,1.038,6.168,1.961,9.277,2.882
	c3.23,1.038,6.455,2.017,9.739,2.941c6.28,1.844,12.619,3.571,19.016,5.242c38.84,10.375,78.718,18.268,119.464,23.454h0.112
	c38.095,4.899,76.935,7.376,116.351,7.376c60.565,0,119.752-5.879,177.033-17.23c8.297-1.613,16.536-3.401,24.78-5.245
	c7.547-1.613,15.094-3.399,22.528-5.301c10.314-2.592,20.575-5.416,30.772-8.356c2.943-0.865,5.822-1.73,8.76-2.594
	c3.688-1.094,7.322-2.188,10.952-3.34c2.762-0.865,5.53-1.788,8.297-2.708c1.325-0.405,2.65-0.865,3.975-1.326
	c1.442-0.404,2.88-0.923,4.263-1.384c1.038-0.346,2.134-0.692,3.172-1.096c3.859-1.326,7.722-2.651,11.581-4.034
	c2.192-10.373,4.093-20.802,5.763-31.233C1378.565,1876.426,1381.508,1847.9,1375.228,1820.585z"/>
<path style="fill:#FDDFC2;" d="M1142.16,445.948c-0.352-0.715-0.705-1.458-1.056-2.161
	c-35.815-71.803-117.242-131.278-193.505-151.091c-84.546-21.964-178.757-2.928-248.141,50.134
	c-24.58,18.799-46.592,42.332-57.681,71.22c-16.721,43.569-6.992,94.348-26.085,136.928
	c-39.508,88.087-171.103,89.571-231.479,164.906c-27.255,34.005-36.429,80.541-29.082,123.495
	c7.347,42.955,30.105,82.333,59.99,114.051c26.081,27.678,59.757,54.136,63.274,92.002c6.158,66.324-83.318,108.631-85.846,175.193
	c-1.242,32.66,19.566,62.249,43.737,84.256c24.165,22.005,52.58,39.354,74.475,63.62c34.933,38.711,50.295,94.249,40.22,145.408
	c-10.071,51.159-45.345,96.725-92.346,119.301c34.198,17.633,71.96,26.833,110.387,28.966c36.784,2.042,74.179-2.387,109.661-12.26
	c38.278-10.651,74.496-27.207,108.63-47.586c5.955-3.555,11.86-7.2,17.685-10.979c20.917-13.569,40.996-28.52,60.234-44.354
	c2.908-2.392,5.81-4.789,8.677-7.221c29.838-25.293,58.907-55.337,76.934-89.475c11.447-21.676,18.475-44.99,18.311-69.828
	c-0.37-55.982-36.701-104.204-60.555-154.854c-23.849-50.648-31.474-120.346,12.833-154.565
	c16.579-12.804,37.627-18.051,56.302-27.544c38.568-19.607,66.743-59.566,69.589-102.74c2.68-40.753-15.756-79.484-26.134-118.984
	c-4.931-18.758-7.42-39.448-5.409-58.861c0.908,2.165,1.891,4.314,3.056,6.417c13.198,23.844,37.983,37.703,52.955,60.056
	c21.471,32.061,21.632,73.859,3.883,107.595c-0.39,0.738,0.629,1.304,1.101,0.643c24.029-33.349,27.128-78.433,4.633-113.863
	c-11.074-17.447-27.936-29.72-41.968-44.514c-11.519-12.147-17.571-25.615-18.915-38.77c4.24-12.613,11.123-23.966,21.546-32.852
	c8.158-6.956,17.593-11.658,27.579-15.421c21.418-8.067,45.4-11.78,64.937-23.909
	C1209.255,621.948,1173.328,509.327,1142.16,445.948z"/>
<path style="fill:#EE7657;" d="M1409.318,1049.945c-15.226,17.393-45.579,55.888-34.47,80.112c1.023,2.234,3.854,1.927,5.418,0.699
	c10.095-7.942,10.811-20.838,16.112-32.244c6.594-14.175,15.317-27.322,25.598-39.085c8.946,5.417,18.147,11.66,21.232,22.096
	c3.912,13.242-4.911,20.536-6.67,32.414c-0.487,3.294,1.452,7.954,5.672,7.44c18.991-2.319,24.969-29.605,20.833-45.32
	c-2.484-9.445-8.701-17.749-16.448-23.579c-4.042-3.04-7.8-4.982-11.671-5.975c18.81-16.256,40.577-26.225,62.244-39.436
	c3.016-1.839,1.919-7.072-1.871-6.903C1461.863,1001.641,1430.604,1025.635,1409.318,1049.945z"/>
<path style="fill:#EE7657;" d="M1066.877,1214.551c2.5-3.198,1.321-9.281-3.703-8.942c-19.259,1.303-42.129,20.246-61.15,5.922
	c-22.933-17.27,5.613-46.317,13.145-63.301c12.205-27.513,19.211-60.533,12.804-90.365c-1.233-5.737-9.467-4.049-9.788,1.325
	c-1.905,31.878-3.62,61.079-18.679,90.197c-8.877,17.169-26.626,34.468-21.023,55.532
	C988.69,1243.309,1046.146,1241.094,1066.877,1214.551z"/>
<path style="fill:#FDDFC2;" d="M1085.932,998.849c10.203,8.053,22.285,1.077,33.145-1.62c32.994-8.188,67.445-8.891,100.57-0.831
	c6.587,1.603,13.481,3.539,20.034,1.793c6.553-1.746,12.215-8.877,9.666-15.162c-1.393-3.444-4.745-5.635-7.956-7.51
	c-22.875-13.367-48.74-22.017-75.211-23.232c-26.46-1.216-53.5,5.24-75.605,19.839
	C1079.755,979.27,1074.39,989.735,1085.932,998.849z"/>
<path style="fill:#CE4A3E;" d="M1026.127,1353.214c6.48,10.212,21.725,12.441,33.374,8.19c11.649-4.251,20.536-13.328,28.994-22.105
	c8.12-8.694,17.097-16.017,27.331-21.55c-4.305,0.758-8.728,0.975-13.09,0.734c-8.984-0.495-17.778-2.743-26.421-5.248
	c-7.503-2.173-13.836-2.49-21.603-3.386c-5.354-0.621-9.993,3.325-14.772,5.822c-12.404,6.477-28.161,3.162-39.595-4.906
	c-2.066-1.462-4.078-3.087-6.451-3.963c-7.698-2.841-15.659,2.906-23.688,4.601c-4.044,0.853-8.283,0.553-12.228-0.671
	c9.404,9.693,24.583,29.393,32.452,38.296C998.819,1358.52,1014.765,1359.219,1026.127,1353.214z"/>
<path style="fill:#873E39;" d="M1154.833,1093.95c-13.929-2.307-28.287-5.725-41.082-11.735
	c-11.24-5.276-20.302-13.613-31.917-17.954c-0.955-0.356-2.115,0.762-1.73,1.73c9.829,24.687,44.207,41.264,69.59,46.015
	c-0.76,20.005,21.866,41.623,41.425,35.67c3.879-1.179,4.673-6.519,1.13-8.638c-6.543-3.917-14.246-7.021-19.069-13.184
	c-3.03-3.87-4.504-7.938-5.705-12.171c7.307,0.088,14.957-0.458,22.621-1.72c18.077,19.429,53.678,21.213,73.447,4.161
	c1.823-1.569-0.141-4.363-2.236-3.844c-13.486,3.342-27.177,7.111-41.14,4.343c-6.777-1.344-12.945-3.999-18.987-7.009
	c18.403-4.681,35.71-13.39,46.563-26.411c0.935-1.121,0.083-2.999-1.491-2.563c-13.116,3.623-24.687,10.565-38.051,13.394
	C1191.735,1097.523,1171.447,1096.7,1154.833,1093.95z"/>
<path style="fill:#EE7659;" d="M1209.757,1197.63c-25.238,0-45.695,14.197-45.695,31.71c0,17.513,20.458,31.71,45.695,31.71
	c25.233,0,45.691-14.197,45.691-31.71C1255.447,1211.828,1234.989,1197.63,1209.757,1197.63z"/>
<path style="fill:#FDE6D5;" d="M774.585,791.906c-39.839,27.374-81.91,52.833-113.944,89.035
	c-32.029,36.202-52.984,86.29-40.998,133.12c14.816,57.898,72.589,92.431,109.091,139.749
	c48.55,62.933,57.846,151.474,31.858,226.589c-25.993,75.113-84.219,136.682-153.554,175.544
	c86.484,14.171,179.498-24.879,229.948-96.538c50.451-71.658,55.849-172.389,13.35-249.03
	c-20.234-36.482-50.134-67.515-65.895-106.139c-15.761-38.626-11.805-90.889,24.068-112.18
	c16.687-9.903,36.887-11.179,55.722-15.847c40.035-9.92,76.512-38.041,90.845-76.716c15.922-42.962,3.303-91.22-15.337-133.074
	c-18.64-41.852-43.401-81.656-52.964-126.463c-12.429-58.224,16.994-138.74,86.889-138.041
	c43.474,0.434,80.239,37.294,116.56,57.225c8.555,4.694,18.909,8.117,27.942,4.429c28.886-11.795-12.872-70.482-23.444-83.057
	c-22.972-27.325-54.67-50.171-88.814-61.126c-62.684-20.117-135.937-2.453-182.567,44.022
	c-15.216,15.162-27.913,33.562-32.838,54.465c-8.901,37.778,8.4,76.146,23.333,111.973c14.928,35.829,27.713,77.415,10.709,112.307
	C814.128,763.529,794.186,778.443,774.585,791.906z"/>
<path style="fill:#FDE6D5;" d="M679.579,697.361c29.203-20.831,51.318-52.967,55.372-88.611
	c4.394-38.692-12.146-76.836-12.565-115.776c-0.38-35.413,13.403-66.114,34.207-93.912c-21.257-4.989-51.313,12.75-65.023,28.09
	c-19.264,21.547-14.645,49.564-15.381,75.99c-1.778,63.605-36.56,126.472-95.615,153.802c-18.475,8.548-38.334,13.63-57.462,20.597
	c-41.169,14.998-80.609,40.597-100.998,79.383c-20.385,38.787-16.482,92.185,17.052,120.385c0.97-27.596,5.443-55.513,17.516-80.346
	c12.073-24.833,32.419-46.416,58.348-55.912c20.282-7.43,42.426-7.14,63.932-9.164C614.678,728.528,650.371,718.191,679.579,697.361
	z"/>
<path style="fill:#E8A680;" d="M1222.263,522.07c8.599,0.979,17.048-2.195,25.257-4.904c33.759-11.133,70.865-15.016,104.852-4.606
	c33.993,10.409,64.161,36.736,73.359,71.072c15.259,56.972-28.127,116.173-17.535,174.195c5.179,28.368,23.898,53.954,49.369,67.474
	c25.467,13.52,57.15,14.689,83.547,3.081c-28.054-6.068-44.478-37.437-44.01-66.136c0.511-31.432,16.243-58.533,28.853-86.188
	c12.799-28.068,14.953-61.919,8.18-91.778c-1.447-6.371-3.279-12.648-5.471-18.797c-19.883-55.698-68.794-98.314-124.536-116.073
	c-19.079-6.078-39.064-8.634-59.006-8.056c-31.255,0.904-62.412,9.499-89.837,24.271
	C1245.274,471.017,1178.248,517.059,1222.263,522.07z"/>
<path style="fill:#E8A680;" d="M1469.722,1254.909c-35.059,40.979-60.663,94.036-53.983,147.552
	c4.443,35.574,23.503,69.101,51.8,91.111c27.489,21.381,65.14,32.901,99.844,27.737c-83.22-22.124-81.082-143.956-41.364-202.402
	c27.016-39.761,68.194-67.123,104.935-98.124c36.745-30.999,71.498-69.969,77.159-117.708
	c7.201-60.762-34.353-116.114-78.378-158.614c20.088,40.158,31.177,87.981,15.23,129.954c-10.86,28.575-32.974,51.288-55.737,71.688
	C1549.064,1182.094,1504.781,1213.93,1469.722,1254.909z"/>
</svg>
