<?xml version="1.0" encoding="utf-8"?>
<!-- Generator: Adobe Illustrator 27.5.0, SVG Export Plug-In . SVG Version: 6.00 Build 0)  -->
<svg version="1.1" id="Capa_1" xmlns="http://www.w3.org/2000/svg" xmlns:xlink="http://www.w3.org/1999/xlink" x="0px" y="0px"
	 viewBox="0 0 2122 2122" style="enable-background:new 0 0 2122 2122;" xml:space="preserve">
<path style="fill:#EAEAEA;" d="M1060.661,131.89c-525.587,0-951.716,426.068-951.716,951.714
	c0,290.092,129.788,549.853,334.475,724.389c17.72,15.135,36.034,29.668,54.894,43.422c16.517,12.131,33.457,23.783,50.753,34.835
	c4.926,3.123,9.788,6.185,14.772,9.189c0.482,0.299,0.965,0.602,1.442,0.902c1.262,0.779,2.524,1.561,3.786,2.282
	c1.739,1.079,3.483,2.102,5.286,3.123c36.575,21.861,74.713,41.262,114.231,58.078c5.17,2.161,10.27,4.324,15.498,6.426
	c7.868,3.184,15.795,6.307,23.786,9.189h0.058c3.542,1.323,7.089,2.643,10.631,3.906c5.466,1.98,10.992,3.902,16.517,5.766v0.058
	c3.303,1.142,6.548,2.224,9.851,3.245h0.058c3.303,1.079,6.607,2.161,9.91,3.182c3.303,1.082,6.607,2.102,9.91,3.065
	c3.362,1.079,6.728,2.102,10.148,3.062c6.548,1.922,13.155,3.724,19.82,5.466c78.441,20.959,160.843,32.131,245.89,32.131
	c92.312,0,181.5-13.152,265.885-37.659c3.064-0.898,6.066-1.8,9.13-2.702c3.844-1.143,7.625-2.282,11.41-3.483
	c2.884-0.901,5.763-1.861,8.648-2.823c1.383-0.419,2.762-0.901,4.146-1.381c1.501-0.419,3.001-0.96,4.443-1.442
	c1.082-0.358,2.222-0.719,3.304-1.141c4.745-1.622,9.491-3.242,14.231-4.984c3.966-1.381,7.932-2.823,11.893-4.324
	c1.866-0.721,3.786-1.442,5.647-2.163c17.598-6.667,34.894-13.873,51.951-21.561c23.187-10.451,45.886-21.803,68.049-33.995v-0.058
	l0.959-0.541c9.974-5.525,19.883-11.233,29.613-17.179c9.968-5.944,19.819-12.071,29.549-18.438
	c12.551-8.107,24.867-16.575,36.999-25.345c15.551-11.171,30.811-22.823,45.642-34.955
	c213.759-174.475,350.212-440.121,350.212-737.541C2012.373,557.958,1586.308,131.89,1060.661,131.89z"/>
<path style="fill:#A85351;" d="M1637.324,725.09c-14.583-19.634-36.624-32.957-50.353-53.244
	c-24.482-36.3-16.785-84.371-22.773-127.759c-7.537-54.384-40.696-106.124-90.275-129.632
	c-36.585-17.313-78.831-18.575-118.962-13.483c-7.411,0.938-15.274,1.998-22.081-1.181c-7.942-3.708-12.263-12.263-16.375-20.044
	c-27.825-52.758-73.374-97.245-129.388-117.654c-33.651-12.222-71.006-14.992-105.92-7.618
	c-23.181,4.889-45.305,14.258-64.531,28.314c-17.155,12.546-32.877,28.965-53.695,33.16c-23.099,4.685-45.871-6.926-68.521-13.444
	c-85.349-24.565-185.203,35.403-203.737,122.382c-2.119,9.939-3.503,20.572-9.822,28.558c-5.417,6.804-13.685,10.633-21.671,14.015
	c-32.263,13.727-65.915,24.606-96.39,41.919c-30.514,17.354-58.295,42.409-70.314,75.367c-12.019,32.96-4.521,74.514,23.835,95.127
	c1.832,49.784-58.665,74.999-82.539,118.714c-17.52,32.061-16.175,73.573,3.338,104.455c15.318,24.197,41.067,42.896,47.259,70.884
	c6.641,29.902-11.328,58.95-21.593,87.834c-10.875,30.678-12.628,66.689,4.77,94.188c14.339,22.692,39.269,36.219,57.193,56.18
	c26.524,29.454,35.61,70.031,48.765,107.388c13.159,37.398,34.875,76.387,72.478,88.811c72.76,24.036,140.385-65.63,216.73-58.543
	c1.731,0.162,3.454,0.379,5.172,0.637c17.585,13.88,36.29,25.674,55.915,35.141c-0.287,3.818-0.52,7.649-0.726,11.484
	c-0.014,0.268-0.029,0.535-0.044,0.802c-0.147,2.798-0.284,5.596-0.408,8.394c-0.043,0.943-0.094,1.889-0.137,2.831
	c-0.261,7.06-0.587,14.054-0.936,21.025c-0.057,1.107-0.107,2.222-0.171,3.325c-1.106,19.568-4.179,40.215-10.67,58.927
	c-3.218,9.266-7.243,18.071-12.359,25.999c-0.167,0.257-0.31,0.533-0.478,0.789c-0.005,0.008-0.01,0.016-0.015,0.024
	c-3.765,5.714-8.138,10.906-13.096,15.535c-6.159-5.315-12.509-10.489-19.318-15.292c-11.304-7.97-25.291,5.16-22.256,17.108
	c1.485,5.849,3.752,11.484,6.53,16.939c-14.528,3.715-30.03,4.211-45.551,3.668c-7.03-0.242-14.056-0.602-20.964-1.021
	c-55.313-2.884-116.755,0.538-156.877,38.797c-34.534,32.794-44.682,83.184-50.811,130.331
	c-7.265,56.458-11.23,113.335-11.713,170.212c0.482,0.299,0.965,0.602,1.442,0.902c1.262,0.779,2.524,1.561,3.786,2.282
	c1.739,1.079,3.483,2.102,5.286,3.123c36.575,21.861,74.713,41.262,114.231,58.078c5.17,2.161,10.27,4.324,15.498,6.426
	c7.868,3.184,15.795,6.307,23.786,9.189h0.058c3.542,1.323,7.089,2.643,10.631,3.906c5.466,1.98,10.992,3.902,16.517,5.766v0.058
	c3.303,1.142,6.548,2.224,9.851,3.245h0.058c3.303,1.079,6.607,2.161,9.91,3.182c3.303,1.082,6.607,2.102,9.91,3.065
	c3.362,1.079,6.728,2.102,10.148,3.062c6.548,1.922,13.155,3.724,19.82,5.466c78.441,20.959,160.843,32.131,245.89,32.131
	c92.312,0,181.5-13.152,265.885-37.659c3.064-0.898,6.066-1.8,9.13-2.702c3.844-1.143,7.625-2.282,11.41-3.483
	c2.884-0.901,5.763-1.861,8.648-2.823c1.383-0.419,2.762-0.901,4.146-1.381c1.501-0.419,3.001-0.96,4.443-1.442
	c1.082-0.358,2.222-0.719,3.304-1.141c4.745-1.622,9.491-3.242,14.231-4.984c3.966-1.381,7.932-2.823,11.893-4.324
	c1.866-0.721,3.786-1.442,5.647-2.163c17.598-6.667,34.894-13.873,51.951-21.561c23.187-10.451,45.886-21.803,68.049-33.995v-0.058
	l0.959-0.541c9.974-5.525,19.883-11.233,29.613-17.179c9.968-5.944,19.819-12.071,29.549-18.438
	c3.606-25.164,0.843-51.111-3.245-76.336c-6.606-40.299-16.575-80.06-29.788-118.68c-13.452-39.398-32.131-79.939-67.089-102.582
	c-29.009-18.738-64.926-22.402-99.279-26.667c-14.295-1.8-28.706-3.844-43.001-6.426c-31.841-5.833-63.098-14.576-91.1-29.278
	c4.211-8.447,7.892-17.164,10.91-26.15c7.021-20.907-26.548-35.606-36.068-15.204c-2.937,6.294-6.175,12.398-9.564,18.394
	c-24.141-20.313-36.736-41.96-42.407-65.242c-0.093-0.393-0.171-0.798-0.262-1.191c-0.722-3.087-1.336-6.201-1.83-9.345
	c-0.47-2.99-0.785-6.025-1.068-9.068c-0.099-1.051-0.264-2.081-0.341-3.138c-0.084-1.147-0.101-2.316-0.162-3.471
	c-0.145-2.739-0.275-5.482-0.297-8.264c-0.012-1.428,0.032-2.874,0.053-4.312c0.033-2.595,0.067-5.19,0.188-7.822
	c0.025-0.569,0.044-1.136,0.074-1.708c0.081-1.573,0.23-3.181,0.34-4.768c11.778-6.304,23.151-13.561,34.17-21.514
	c27.417,4.918,59.804,2.845,84.404-6.403c2.646-0.979,5.174-2.078,7.615-3.218c39.683,24.687,96.307,17.396,128.409-16.582
	c31.615-33.364,38.217-84.738,69.91-118.022c20.575-21.632,49.379-33.079,73.983-49.985c40.049-27.539,70.031-75.45,61.842-123.359
	c-4.034-23.71-16.906-45.547-18.411-69.542c-1.715-26.765,10.836-52.063,22.037-76.426
	C1654.478,840.912,1672.851,773,1637.324,725.09z"/>
<path style="fill:#56225D;" d="M1637.324,725.09c-14.583-19.634-36.624-32.957-50.353-53.244
	c-24.482-36.3-16.785-84.371-22.773-127.759c-7.537-54.384-40.696-106.124-90.275-129.632
	c-36.585-17.313-78.831-18.575-118.962-13.483c-7.411,0.938-15.274,1.998-22.081-1.181c-7.942-3.708-12.263-12.263-16.375-20.044
	c-27.825-52.758-73.374-97.245-129.388-117.654c-33.651-12.222-71.006-14.992-105.92-7.618
	c-23.181,4.889-45.305,14.258-64.531,28.314c-17.155,12.546-32.877,28.965-53.695,33.16c-23.099,4.685-45.871-6.926-68.521-13.444
	c-85.349-24.565-185.203,35.403-203.737,122.382c-2.119,9.939-3.503,20.572-9.822,28.558c-5.417,6.804-13.685,10.633-21.671,14.015
	c-32.263,13.727-65.915,24.606-96.39,41.919c-30.514,17.354-58.295,42.409-70.314,75.367c-12.019,32.96-4.521,74.514,23.835,95.127
	c1.832,49.784-58.665,74.999-82.539,118.714c-17.52,32.061-16.175,73.573,3.338,104.455c15.318,24.197,41.067,42.896,47.259,70.884
	c6.641,29.902-11.328,58.95-21.593,87.834c-10.875,30.678-12.628,66.689,4.77,94.188c14.339,22.692,39.269,36.219,57.193,56.18
	c26.524,29.454,35.61,70.031,48.765,107.388c13.159,37.398,34.875,76.387,72.478,88.811c72.76,24.036,140.385-65.63,216.73-58.543
	c1.731,0.162,3.454,0.379,5.172,0.637c-58.858-46.46-105.048-116.113-130.672-198.873c-2.839,2.749-6.164,5.229-10.061,7.374
	c-10.581,5.824-23.147,6.607-35.24,5.777c3.402,4.263,5.52,9.594,5.52,15.473c0,13.771-11.162,24.936-24.936,24.936
	c-13.773,0-24.94-11.165-24.94-24.936c0-9.003,4.816-16.822,11.967-21.206c-23.29-6.514-45.199-18.005-63.514-33.807
	c-28.419-24.519-48.604-63.001-39.332-99.374c7.254-28.467,33.116-51.215,62.28-54.779c42.997-5.252,89.306,32.171,109.008,68.597
	c6.684,12.359,14.363,29.195,18.954,46.604c14.045-8.817,24.165-24.514,23.541-41.031c-0.799-21.089-17.817-38.77-19.435-59.812
	c-2.602-33.847,32.74-56.037,55.493-81.23c26.261-29.077,32.809-81.087,23.443-130.585c29.448-10.998,57.841-29.652,85.979-18.393
	c27.596,11.043,37.116,44.794,57.325,66.591c17.627,19.014,44.775,28.719,70.46,25.192c20.097-2.763,38.309-12.88,57.413-19.698
	c19.104-6.816,41.452-10.034,58.85,0.402c14.188,8.511,22.061,24.205,31.854,37.544c28.215,38.432,77.021,57.452,124.689,55.093
	c7.5,40.183,11.598,77.094-6.224,123.031c-9.335,24.063-20.906,54.295-3.001,72.884c9.808,10.183,25.876,12.309,39.474,8.448
	c0.802-0.228,1.574-0.529,2.364-0.791c-24.592,100.158-78.716,183.787-149.428,234.824c27.417,4.918,59.804,2.845,84.404-6.403
	c2.646-0.979,5.174-2.078,7.615-3.218c39.683,24.687,96.307,17.396,128.409-16.582c31.615-33.364,38.217-84.738,69.91-118.022
	c20.575-21.632,49.379-33.079,73.983-49.985c40.049-27.539,70.031-75.45,61.842-123.359c-4.034-23.71-16.906-45.547-18.411-69.542
	c-1.715-26.765,10.836-52.063,22.037-76.426C1654.478,840.912,1672.851,773,1637.324,725.09z"/>
<path style="fill:#FFFFFF;" d="M995.804,1081.601c-3.727-8.497-8.409-16.529-13.953-23.961
	c-11.391-15.262-26.09-28.334-43.021-37.16c-18.353-9.566-40.161-13.642-60.755-12.416c-20.219,1.203-43.357,6.531-59.313,19.69
	c-5.055,4.168-1.344,12.74,4.312,13.771c-0.263,1.454-0.466,2.922-0.614,4.385c-2.85,29.496,12.55,59.318,36.585,76.631
	c5.744,4.156,11.937,7.62,18.456,10.39c20.575,8.88,44.161,10.958,66.285,6.843c13.603-2.485,27.133-7.413,37.398-16.702
	c6.856-6.212,10.744-12.868,12.388-19.691c1.032,1.963,2.16,3.858,3.504,5.596c1.203,1.557,4.127,0.67,4.468-1.179
	C1003.176,1099.036,999.288,1089.55,995.804,1081.601z"/>
<path style="fill:#FFFFFF;" d="M1274.791,1034.871c-1.001-4.125-2.417-8.245-4.686-11.766c0.584,0.058,1.164,0.125,1.748,0.18
	c4.054,0.383,5.34-5.635,2.027-7.476c-16.122-8.955-36.687-10.258-54.728-8.794c-18.29,1.484-36.896,6.18-53.033,15.106
	c-14.631,8.095-27.732,19.028-38.353,31.942c-5.218,6.341-9.525,13.196-13.535,20.351c-3.956,7.05-9.13,15.878-10.266,23.946
	c-0.65,4.616,3.763,7.962,7.368,6.379c0.388,10.953,5.451,21.183,17.529,29.292c7.942,5.337,17.189,8.392,26.723,9.9
	c4.195,0.733,8.433,1.101,12.672,1.264c29.618,1.14,60.088-8.638,81.393-29.252
	C1270.961,1095.37,1281.875,1063.633,1274.791,1034.871z"/>
<path style="fill:#F6A45D;" d="M1576.276,1805.108c-6.606-40.299-16.575-80.06-29.788-118.68
	c-13.452-39.398-32.131-79.939-67.089-102.582c-29.009-18.738-64.926-22.402-99.279-26.667c-14.295-1.8-28.706-3.844-43.001-6.426
	c2.158,12.434,5.822,26.426-0.964,45.347c-7.508,20.84-34.953,25.464-50.568,41.14c-24.623,24.745-14.178,69.971-37.179,96.156
	c-26.368,29.912-76.819,16.339-111.834,35.196c-29.486,15.795-46.485,53.754-79.518,58.558
	c-43.182,6.307-72.672-48.168-115.917-54.353c-15.016-2.163-30.212,1.922-45.345,2.943c-15.196,0.96-32.311-2.163-41.081-14.594
	c-12.974-18.197-0.96-45.164-10.933-65.167c-8.945-17.898-33.15-25.345-39.459-44.324c-6.724-20.36,10.811-40.84,11.712-62.222
	c0.482-12.012-4.263-23.003-11.829-32.311c-7.03-0.242-14.056-0.602-20.964-1.021c-55.313-2.884-116.755,0.538-156.877,38.797
	c-34.534,32.794-44.682,83.184-50.811,130.331c-7.265,56.458-11.23,113.335-11.713,170.212c0.482,0.299,0.965,0.602,1.442,0.902
	c1.262,0.779,2.524,1.561,3.786,2.282c1.739,1.079,3.483,2.102,5.286,3.123c36.575,21.861,74.713,41.262,114.231,58.078
	c5.17,2.161,10.27,4.324,15.498,6.426c7.868,3.184,15.795,6.307,23.786,9.189h0.058c3.542,1.323,7.089,2.643,10.631,3.906
	c5.466,1.98,10.992,3.902,16.517,5.766v0.058c3.303,1.142,6.548,2.224,9.851,3.245h0.058c3.303,1.079,6.607,2.161,9.91,3.182
	c3.303,1.082,6.607,2.102,9.91,3.065c3.362,1.079,6.728,2.102,10.148,3.062c6.548,1.922,13.155,3.724,19.82,5.466
	c78.441,20.959,160.843,32.131,245.89,32.131c92.312,0,181.5-13.152,265.885-37.659c3.064-0.898,6.066-1.8,9.13-2.702
	c3.844-1.143,7.625-2.282,11.41-3.483c2.884-0.901,5.763-1.861,8.648-2.823c1.383-0.419,2.762-0.901,4.146-1.381
	c1.501-0.419,3.001-0.96,4.443-1.442c1.082-0.358,2.222-0.719,3.304-1.141c4.745-1.622,9.491-3.242,14.231-4.984
	c3.966-1.381,7.932-2.823,11.893-4.324c1.866-0.721,3.786-1.442,5.647-2.163c17.598-6.667,34.894-13.873,51.951-21.561
	c23.187-10.451,45.886-21.803,68.049-33.995v-0.058l0.959-0.541c9.974-5.525,19.883-11.233,29.613-17.179
	c9.968-5.944,19.819-12.071,29.549-18.438C1583.126,1856.28,1580.364,1830.334,1576.276,1805.108z"/>
<path style="fill:#873736;" d="M900.233,1519.301c77.32,5.091,155.664-14.994,222.026-54.714
	c15.157-9.045,31.328-19.554,46.606-31.289c-0.097-0.401-0.144-0.813-0.237-1.215c-0.722-3.087-1.336-6.201-1.83-9.345
	c-0.47-2.99-0.785-6.025-1.068-9.068c-0.099-1.051-0.264-2.081-0.341-3.138c-0.084-1.147-0.101-2.316-0.162-3.471
	c-0.145-2.739-0.275-5.482-0.297-8.264c-0.012-1.425,0.036-2.876,0.053-4.312c0.033-2.595,0.067-5.19,0.188-7.822
	c0.025-0.569,0.044-1.136,0.074-1.708c0.081-1.573,0.23-3.181,0.34-4.768c-38.809,20.77-81.474,32.256-126.258,32.256
	c-40.692,0-79.601-9.569-115.489-26.882c-0.287,3.818-0.52,7.649-0.726,11.484c-0.014,0.268-0.029,0.535-0.044,0.802
	c-0.147,2.798-0.284,5.596-0.408,8.394c-0.354,7.995-0.661,15.969-1.073,23.857c-0.057,1.107-0.107,2.222-0.171,3.325
	c-1.106,19.568-4.179,40.215-10.67,58.927c-3.32,9.57-7.475,18.668-12.838,26.788
	C898.684,1519.179,899.458,1519.26,900.233,1519.301z"/>
<path style="fill:#873736;" d="M1090.678,1181.202c6.509-17.472,3.781-36.127-2.597-53.192c-4.18-11.191-9.959-21.717-14.611-32.704
	c-6.509-15.381-7.42-29.055-8.156-45.464c-0.356-7.924-11.075-11.428-15.289-4.141c-11.659,20.175-3.976,43.637,5.004,63.715
	c7.293,16.307,17.009,31.535,16.711,49.944c-0.473,29.491-19.537,32.828-45.101,34.382c-6.027,0.366-8.2,6.755-4.638,11.201
	C1043.136,1231.341,1081.344,1206.247,1090.678,1181.202z"/>
<path style="fill:#873736;" d="M682.845,1039.17c-16.463-20.151-47.561-41.055-74.733-34.287c-4.234,1.052-8.073,5.688-7.762,10.187
	c0.39,5.569,2.5,8.156,7.762,10.19c5.593,2.163,13.5,0.1,19.673,1.476c6.682,1.492,13.063,4.28,19.042,7.639
	c-21.775,9.567-31.3,43.357-17.497,64.235c2.504,3.786,7.654,5.671,11.781,3.089c0.619-0.39,1.194-0.858,1.739-1.347
	c2.909-2.602,3.079-7.184,1.345-10.431c-5.16-9.669-6.772-20.141-0.945-29.995c4.56-7.716,11.787-11.186,19.597-13.981
	c8.419,7.762,15.122,17.166,19.721,27.927c5.32,12.456,4.502,28.146,12.239,38.925c0.965,1.343,3.133,2.059,4.399,0.568
	C715.8,1093.869,696.336,1055.687,682.845,1039.17z"/>
<path style="fill:#56225D;" d="M1147.638,998.391c14.84-5.442,29.082-11.25,43.893-14.872c9.92-2.429,20.097-3.873,30.884-3.571
	c10.831,0.304,28.171,4.492,37.944-1.564c9.383-5.82,5.242-14.19-2.207-19.693c-42.246-31.225-107.552-28.159-141.081,15.186
	c-2.811,3.635-5.413,7.73-5.71,12.314C1109.87,1009.387,1133.203,1003.687,1147.638,998.391z"/>
<path style="fill:#56225D;" d="M833.091,987.382c10.543,4.587,27.098-2.048,37.778-3.907c10.626-1.851,20.907-1.883,31.075-0.908
	c15.177,1.457,30.109,5.157,45.573,8.409c15.05,3.164,38.957,5.451,34.144-17.289c-0.95-4.497-4.112-8.175-7.416-11.367
	c-39.415-38.073-104.482-31.72-141.802,5.254C825.865,974.094,822.967,982.973,833.091,987.382z"/>
<path style="fill:#4B1C4D;" d="M1131.141,291.016c15.932,8.353,31.776,22.327,31.571,40.333
	c-0.161,10.265-5.618,19.676-11.566,28.068c-12.629,17.966-28.234,34.1-37.442,54.061c-9.204,19.922-10.631,45.669,4.073,62.005
	c23.508,26.195,65.549,11.447,100.141,4.847c51.776-9.817,104.78,4.076,155.664,17.886c23.055,6.273,47.05,13.035,64.653,29.25
	c17.559,16.173,26.154,44.813,12.463,64.409c-5.418,7.739-14.173,14.463-14.094,23.914c0.043,7.006,5.091,12.914,10.187,17.679
	c26.236,24.648,60.945,38.826,86.855,63.8c29.291,28.231,45.179,69.825,42.124,110.402c-0.692,9.289-2.407,18.699-7.293,26.602
	c-10.183,16.419-31.776,22.774-42.655,38.743c-11.81,17.354-7.659,41.23,1.549,60.132c9.169,18.903,22.816,35.605,30.066,55.364
	c11.815,32.348,2.402,72.965-26.071,92.397c-17.111,11.693-38.46,14.828-58.178,21.264c-19.679,6.48-40.049,18.661-45.301,38.743
	c-3.055,11.654-0.448,23.956,0.404,36.014c3.425,47.868-24.278,96.511-67.215,117.981c-18.743,9.33-39.966,13.973-56.833,26.4
	c-9.939,7.374-17.842,19.064-20.083,30.962c2.646-0.979,5.174-2.078,7.615-3.218c39.683,24.687,96.307,17.396,128.409-16.582
	c31.615-33.364,38.217-84.738,69.91-118.022c20.575-21.632,49.379-33.079,73.983-49.985c40.049-27.539,70.031-75.45,61.842-123.359
	c-4.034-23.71-16.906-45.547-18.411-69.542c-1.715-26.765,10.836-52.063,22.037-76.426c24.936-54.224,43.308-122.137,7.781-170.046
	c-14.583-19.634-36.624-32.957-50.353-53.244c-24.482-36.3-16.785-84.371-22.773-127.759
	c-7.537-54.384-40.696-106.124-90.275-129.632c-36.585-17.313-78.831-18.575-118.962-13.483c-7.411,0.938-15.274,1.998-22.081-1.181
	c-7.942-3.708-12.263-12.263-16.375-20.044c-27.825-52.758-73.374-97.245-129.388-117.654
	c-33.651-12.222-71.006-14.992-105.92-7.618c0.692,3.013,2.485,5.825,4.522,8.268
	C1097.163,276.596,1115.214,282.626,1131.141,291.016z"/>
<path style="fill:#4B1C4D;" d="M1231.516,655.263c14.889-0.456,29.74-3.856,44.56-2.363c14.821,1.493,30.475,9.581,34.655,23.878
	c1.891,6.458,1.228,13.403,2.67,19.976c6.227,28.309,45.038,35.303,60.726,59.676c28.638,44.485-23.683,53.383-44.955,73.515
	c-22.538,21.328-9.827,52.799,17.218,59.902c49.525,13.001,163.313-68.499,111.06-118.784c-5.866-5.642-13.617-8.782-21.023-12.144
	c-24.96-11.321-49.627-28.353-58.855-54.158c-5.398-15.094-4.926-31.656-8.955-47.172c-10.689-41.15-56.808-69.503-98.353-60.46
	c-13.077,2.845-25.471,8.838-38.796,10.046c-34.738,3.153-66.724-34.027-58.417-67.905c-26.475,13.951-33.422,52.387-18.261,78.183
	C1169.958,643.251,1201.607,656.177,1231.516,655.263z"/>
<path style="fill:#4B1C4D;" d="M592.175,762.82c15.035,13.242,38.684,7.557,56.312-1.966c21.242-11.476,41.803-31.462,39.893-55.53
	c-2.217-27.99-34.178-51.971-24.36-78.277c9.33-25.002,47.245-24.875,63.05-46.378c13.808-18.78,5.734-46.97,18.09-66.731
	c15.474-24.746,51.133-22.331,79.98-26.748c16.117-2.465,31.62-7.944,46.66-14.234c10.041-4.2,20.195-8.962,27.654-16.891
	c14.753-15.684,11.245-39.698-11.552-43.642c-15.947-2.76-22.31,6.901-33.842,15.333c-34.987,25.576-87.713,11.118-128.399,28.504
	c-16.112,6.884-32.638,17.854-36.604,34.916c-3.084,13.279,2.183,27.708-2.193,40.619c-5.608,16.557-24.18,24.01-39.912,31.634
	c-15.732,7.627-32.541,21.739-29.169,38.891c1.321,6.704,5.623,12.4,8.054,18.782c6.236,16.367-0.546,34.901-10.173,49.535
	c-9.627,14.633-22.178,27.488-29.325,43.478C579.191,730.109,579.035,751.241,592.175,762.82z"/>
<path style="fill:#56225D;" d="M909.48,1067.747c0-15.353-3.552-29.474-9.484-40.949c-6.547-0.83-13.19-1.107-19.905-0.819
	c-9.33,0.4-18.495,2.042-27.435,4.738c-9.121,2.748-17.276,7.016-26.071,10.473c-1.214,0.477-2.398,0.538-3.513,0.336
	c-0.263,1.454-0.466,2.922-0.614,4.385c-2.85,29.496,12.55,59.318,36.585,76.631c5.744,4.156,11.937,7.62,18.456,10.39
	C896.16,1123.236,909.48,1097.692,909.48,1067.747z"/>
<path style="fill:#56225D;" d="M1202.108,1083.107c0-20.591-9.188-38.834-23.284-50.019c-1.91,0.935-3.802,1.913-5.676,2.93
	c-13.311,7.228-25.227,16.826-35.25,28.175c-5.052,5.722-9.876,11.625-13.837,18.161c-3.912,6.455-6.216,13.875-10.192,20.183
	c-0.719,1.139-1.608,1.793-2.537,2.201c0.388,10.953,5.451,21.183,17.529,29.292c7.942,5.337,17.189,8.392,26.723,9.9
	C1181.987,1139.041,1202.108,1113.662,1202.108,1083.107z"/>
<path style="fill:#873736;" d="M944.131,1253.292c6.115,48.875,103.357,77.24,140.263,49.698c3.81-2.843,4.507-10.662-1.52-11.634
	c-25.023-4.032-47.498,0.153-71.98-10.597c-20.892-9.174-33.973-29.149-54.193-37.042
	C951.142,1241.548,943.371,1247.228,944.131,1253.292z"/>
<path style="fill:#DD813B;" d="M931.994,1625.019c40.906,20.197,86.904,29.508,132.37,23.985
	c75.766-9.205,147.393-58.797,181.655-127.529c4.211-8.447,7.892-17.164,10.91-26.15c7.021-20.907-26.548-35.606-36.068-15.204
	c-2.937,6.294-6.175,12.398-9.564,18.394c-32.513,57.533-85.475,100.297-154.139,107.238c-36.322,3.671-73.842-3.727-106.475-19.99
	c-26.156-13.035-44.848-32.912-65.886-51.067c-6.159-5.315-12.509-10.489-19.318-15.292c-11.304-7.97-25.291,5.16-22.256,17.108
	c1.485,5.849,3.752,11.484,6.53,16.939C865.976,1585.303,901.961,1610.193,931.994,1625.019z"/>
<path style="fill:#F6A45D;" d="M647.595,1180.171c0,13.771,11.167,24.936,24.94,24.936c13.774,0,24.936-11.165,24.936-24.936
	c0-5.879-2.118-11.21-5.52-15.473c-4.567-5.725-11.52-9.465-19.415-9.465c-4.769,0-9.184,1.408-12.973,3.732
	C652.411,1163.349,647.595,1171.169,647.595,1180.171z"/>
<path style="fill:#4B1C4D;" d="M1111.333,1104.738c0.929-0.408,1.818-1.062,2.537-2.201c3.976-6.307,6.28-13.727,10.192-20.183
	c3.961-6.536,8.785-12.439,13.837-18.161c10.022-11.35,21.939-20.948,35.25-28.175c1.874-1.018,3.766-1.995,5.676-2.93
	c13.355-6.542,27.561-11.016,42.456-12.585c16.593-1.745,32.433,0.972,48.824,2.602c0.584,0.058,1.164,0.125,1.748,0.18
	c4.054,0.383,5.34-5.635,2.027-7.476c-16.122-8.955-36.687-10.258-54.728-8.794c-18.29,1.484-36.896,6.18-53.033,15.106
	c-14.631,8.095-27.732,19.028-38.353,31.942c-5.218,6.341-9.525,13.196-13.535,20.351c-3.956,7.05-9.13,15.878-10.266,23.946
	C1103.315,1102.975,1107.728,1106.321,1111.333,1104.738z"/>
<path style="fill:#4B1C4D;" d="M826.587,1041.19c8.794-3.457,16.95-7.725,26.071-10.473c8.94-2.697,18.105-4.339,27.435-4.738
	c6.715-0.287,13.358-0.011,19.905,0.819c11.001,1.395,21.733,4.359,32.09,8.874c15.371,6.702,28.804,17.036,39.663,29.759
	c5.667,6.633,10.499,14.007,14.47,21.771c2.662,5.197,4.61,10.968,7.351,16.18c1.032,1.963,2.16,3.858,3.504,5.596
	c1.203,1.557,4.127,0.67,4.468-1.179c1.632-8.763-2.255-18.248-5.739-26.197c-3.727-8.497-8.409-16.529-13.953-23.961
	c-11.391-15.262-26.09-28.334-43.021-37.16c-18.353-9.566-40.161-13.642-60.755-12.416c-20.219,1.203-43.357,6.531-59.313,19.69
	c-5.055,4.168-1.344,12.74,4.312,13.771C824.188,1041.728,825.372,1041.667,826.587,1041.19z"/>
</svg>
