<?xml version="1.0" encoding="utf-8"?>
<!-- Generator: Adobe Illustrator 27.5.0, SVG Export Plug-In . SVG Version: 6.00 Build 0)  -->
<svg version="1.1" id="Capa_1" xmlns="http://www.w3.org/2000/svg" xmlns:xlink="http://www.w3.org/1999/xlink" x="0px" y="0px"
	 viewBox="0 0 2122 2122" style="enable-background:new 0 0 2122 2122;" xml:space="preserve">
<path style="fill:#C4C4E4;" d="M1060.659,175.654c-508.043,0-919.95,411.849-919.95,919.952
	c0,280.411,125.456,531.502,323.312,700.211c17.126,14.631,34.831,28.68,53.062,41.976c1.686,1.218,3.367,2.439,5.052,3.601
	c10.041,7.371,20.258,14.455,30.592,21.364c4.473,2.901,8.945,5.864,13.413,8.709c4.473,2.843,8.882,5.571,13.355,8.358
	c0.755,0.465,1.569,0.93,2.319,1.393c1.223,0.755,2.441,1.51,3.659,2.207c1.686,1.045,3.367,2.031,5.111,3.018h0.058
	c4.877,2.904,9.749,5.805,14.685,8.592c11.961,6.85,24.092,13.411,36.346,19.681c1.622,0.813,3.192,1.683,4.819,2.438l0.058,0.058
	c5.398,2.729,10.796,5.399,16.253,8.012c4.584,2.207,9.233,4.412,13.934,6.56c6.499,3.077,13.12,5.981,19.737,8.824
	c0.872,0.406,1.744,0.814,2.616,1.162c0.639,0.29,1.277,0.524,1.915,0.814c4.994,2.09,9.925,4.18,14.977,6.212
	c7.605,3.077,15.269,6.095,22.991,8.882h0.058c8.706,3.308,17.418,6.387,26.241,9.347v0.058c3.191,1.104,6.383,2.146,9.578,3.136
	c3.191,1.045,6.387,2.09,9.578,3.077l0.234,0.058c3.133,1.045,6.212,1.973,9.344,2.901c3.255,1.045,6.504,2.032,9.813,2.963
	c6.329,1.856,12.716,3.598,19.157,5.281c39.133,10.451,79.303,18.404,120.35,23.63h0.117c38.373,4.935,77.506,7.43,117.213,7.43
	c61.018,0,120.643-5.919,178.348-17.357c8.361-1.627,16.663-3.425,24.965-5.283c7.606-1.625,15.211-3.426,22.699-5.342
	c10.393-2.612,20.726-5.457,31.001-8.417c2.962-0.872,5.866-1.742,8.828-2.614c3.713-1.101,7.372-2.205,11.031-3.367
	c2.787-0.87,5.569-1.8,8.361-2.729c1.335-0.407,2.67-0.872,4.005-1.335c1.452-0.407,2.904-0.928,4.292-1.393
	c1.048-0.349,2.149-0.697,3.196-1.104c3.888-1.335,7.78-2.67,11.668-4.063c4.526-1.569,9.058-3.252,13.584-4.935l2.266-0.87
	c8.824-3.31,17.593-6.735,26.3-10.451h0.058c2.67-1.045,5.281-2.148,7.951-3.308c5.403-2.266,10.743-4.587,16.083-6.967l0.117-0.059
	c0.984-0.407,1.973-0.814,2.904-1.276c8.472-3.832,16.891-7.781,25.194-11.844c13.759-6.677,27.289-13.703,40.584-21.016v-0.058
	l0.926-0.524c9.637-5.34,19.215-10.855,28.624-16.604c7.951-4.76,15.849-9.637,23.63-14.628c4.702-3.021,9.403-6.098,14.046-9.233
	c8.999-5.919,17.881-12.131,26.65-18.46c15.035-10.799,29.783-22.061,44.122-33.788c11.844-9.696,23.454-19.681,34.83-29.959
	c186.475-168.302,303.693-411.963,303.693-682.969C1980.614,587.502,1568.765,175.654,1060.659,175.654z"/>
<path style="fill:#F49B7F;" d="M1512.917,1607.891c-49.349-17.184-102.874-14.977-155.128-18.46c-2.67-0.176-5.398-0.349-8.068-0.58
	c-54.806-4.356-113.617-19.681-146.938-63.34c-10.163-13.296-17.189-28.39-21.715-44.355c-0.488-1.702-0.881-3.439-1.315-5.162
	c-0.381-1.522-0.81-3.028-1.148-4.563c-0.246-1.119-0.427-2.256-0.653-3.382c-0.441-2.21-0.892-4.418-1.251-6.65
	c-0.218-1.358-0.368-2.731-0.557-4.096c-0.264-1.909-0.542-3.814-0.75-5.734c-0.329-3.11-0.594-6.232-0.772-9.367
	c-0.003-0.03-0.003-0.061-0.004-0.092c51.68-27.604,97.231-65.622,130.366-113.842c34.103-49.627,53.527-106.775,65.964-166.051
	c20.767,4.771,45.335,2.253,67.898-6.087c67.693-25.018,122.367-82.896,143.493-151.905c7.79-25.451,11.177-53.013,4.098-78.674
	c-7.074-25.662-25.993-49.011-51.562-56.411c-6.273-1.816-12.665-2.637-19.086-2.658c15.755-69.34,21.444-140.957,2-208.682
	c-25.233-87.888-103.001-165.999-194.441-165.71c-24.799-57.228-69.427-105.635-124.453-134.994
	c-63.196-33.715-137.213-41.844-208.76-38.456c-29.452,1.393-58.976,4.662-87.323,12.779
	c-61.193,17.522-114.031,56.838-159.381,101.503c-90.416,89.043-158.528,212.136-144.151,338.219
	c12.067-26.52,28.031-51.235,47.101-73.26c-11.231,32.986-12.271,74.562-11.73,99.304c1.296,59.035,18.621,116.984,44.633,169.997
	c5.247,10.698,11.226,21.523,18.918,30.527c-0.01,9.595,0.003,19.083,0.01,28.401c0.044,63.252,0.088,126.504,0.137,189.756
	c0.029,44.989,0.258,91.113,16.083,133.23c22.305,59.383,74.582,104.655,133.934,127.047c16.497,6.224,33.499,10.761,50.777,13.918
	c0.003,0.012,0.003,0.024,0.004,0.036c0.624,6.232,1.079,12.481,1.316,18.698c0.003,0.084,0.008,0.167,0.011,0.251
	c0.058,1.606,0.093,3.206,0.121,4.807c0.018,1.043,0.029,2.083,0.034,3.123c0.008,1.374,0.015,2.747-0.003,4.115
	c-0.03,2.239-0.085,4.471-0.185,6.689c-0.044,0.99-0.117,1.97-0.175,2.955c-0.095,1.579-0.203,3.154-0.336,4.72
	c-0.088,1.028-0.181,2.052-0.285,3.074c-0.189,1.834-0.41,3.656-0.658,5.467c-0.102,0.743-0.19,1.489-0.302,2.228
	c-0.335,2.213-0.727,4.402-1.158,6.573c-0.173,0.864-0.362,1.719-0.549,2.576c-0.362,1.659-0.757,3.301-1.181,4.931
	c-0.198,0.764-0.385,1.535-0.598,2.292c-0.624,2.222-1.306,4.415-2.053,6.573c-0.224,0.646-0.478,1.275-0.714,1.915
	c-0.609,1.657-1.256,3.293-1.945,4.907c-0.305,0.712-0.608,1.422-0.928,2.125c-0.938,2.06-1.922,4.094-3.001,6.074
	c-0.044,0.081-0.082,0.166-0.126,0.247c-5.398,9.871-12.594,18.694-22.002,26.01c-22.29,17.474-50.568,21.191-79.245,24.789
	c-19.854,2.497-39.825,4.994-58.115,11.961c-46.733,17.649-77.447,62.699-97.534,108.39c-18.343,41.858-30.129,85.98-38.894,130.857
	c4.877,2.904,9.749,5.805,14.685,8.592c11.961,6.85,24.092,13.411,36.346,19.681c1.622,0.813,3.192,1.683,4.819,2.438l0.058,0.058
	c5.398,2.729,10.796,5.399,16.253,8.012c4.584,2.207,9.233,4.412,13.934,6.56c6.499,3.077,13.12,5.981,19.737,8.824
	c0.872,0.406,1.744,0.814,2.616,1.162c0.639,0.29,1.277,0.524,1.915,0.814c4.994,2.09,9.925,4.18,14.977,6.212
	c7.605,3.077,15.269,6.095,22.991,8.882h0.058c8.706,3.308,17.418,6.387,26.241,9.347v0.058c3.191,1.104,6.383,2.146,9.578,3.136
	c3.191,1.045,6.387,2.09,9.578,3.077l0.234,0.058c3.133,1.045,6.212,1.973,9.344,2.901c3.255,1.045,6.504,2.032,9.813,2.963
	c6.329,1.856,12.716,3.598,19.157,5.281c39.133,10.451,79.303,18.404,120.35,23.63h0.117c38.373,4.935,77.506,7.43,117.213,7.43
	c61.018,0,120.643-5.919,178.348-17.357c8.361-1.627,16.663-3.425,24.965-5.283c7.606-1.625,15.211-3.426,22.699-5.342
	c10.393-2.612,20.726-5.457,31.001-8.417c2.962-0.872,5.866-1.742,8.828-2.614c3.713-1.101,7.372-2.205,11.031-3.367
	c2.787-0.87,5.569-1.8,8.361-2.729c1.335-0.407,2.67-0.872,4.005-1.335c1.452-0.407,2.904-0.928,4.292-1.393
	c1.048-0.349,2.149-0.697,3.196-1.104c3.888-1.335,7.78-2.67,11.668-4.063c4.526-1.569,9.058-3.252,13.584-4.935l2.266-0.87
	c8.824-3.31,17.593-6.735,26.3-10.451h0.058c2.67-1.045,5.281-2.148,7.951-3.308c5.403-2.266,10.743-4.587,16.083-6.967l0.117-0.059
	c0.984-0.407,1.973-0.814,2.904-1.276c8.472-3.832,16.891-7.781,25.194-11.844c13.759-6.677,27.289-13.703,40.584-21.016v-0.058
	l0.926-0.524c9.637-5.34,19.215-10.855,28.624-16.604c7.951-4.76,15.849-9.637,23.63-14.628c4.702-3.021,9.403-6.098,14.046-9.233
	c8.999-5.919,17.881-12.131,26.65-18.46c15.035-10.799,29.783-22.061,44.122-33.788c11.844-9.696,23.454-19.681,34.83-29.959
	C1643.074,1704.265,1589.55,1634.714,1512.917,1607.891z"/>
<path style="fill:#FFFFFF;" d="M1147.412,1046.408l-0.288-0.254l-0.039-0.036c-14.046-13.722-33.622-21.272-53.237-22.031
	c-33.408-1.228-66.743,17.807-82.675,47.206c-5.778,10.692-9.388,22.935-8.014,34.999c3.215,27.92,31.42,44.1,56.38,39.513
	c18.236-3.36,38.679,0.794,57.749-0.47c9.968-0.648,19.576-2.816,28.282-8.304c12.463-7.839,20.083-22.141,21.744-36.807
	C1169.516,1080.539,1161.536,1060.276,1147.412,1046.408z"/>
<path style="fill:#EE745A;" d="M908.035,1586.529c100.263,6.141,203.703-32.144,273.013-105.391
	c-0.484-1.697-0.865-3.428-1.295-5.145c-0.381-1.522-0.81-3.028-1.148-4.563c-0.246-1.119-0.427-2.256-0.653-3.382
	c-0.441-2.21-0.892-4.418-1.251-6.65c-0.218-1.358-0.368-2.731-0.557-4.096c-0.264-1.909-0.542-3.814-0.75-5.734
	c-0.338-3.14-0.587-6.295-0.782-9.456c-43.121,23.032-90.492,38.838-138.616,47.032c-45.147,7.685-91.953,9.114-136.83,0.92
	c0.616,6.244,1.066,12.5,1.298,18.73c0.003,0.084,0.008,0.167,0.011,0.251c0.058,1.606,0.093,3.206,0.121,4.807
	c0.018,1.043,0.029,2.083,0.034,3.123c0.008,1.374,0.015,2.747-0.003,4.115c-0.03,2.239-0.085,4.471-0.185,6.689
	c-0.044,0.99-0.117,1.97-0.175,2.955c-0.095,1.579-0.203,3.154-0.336,4.72c-0.088,1.028-0.181,2.052-0.285,3.074
	c-0.189,1.834-0.41,3.656-0.658,5.467c-0.102,0.743-0.19,1.489-0.302,2.228c-0.335,2.213-0.727,4.402-1.158,6.573
	c-0.173,0.864-0.362,1.719-0.549,2.576c-0.362,1.659-0.757,3.301-1.181,4.931c-0.198,0.764-0.385,1.535-0.598,2.292
	c-0.624,2.222-1.306,4.415-2.053,6.573c-0.224,0.646-0.478,1.275-0.714,1.915c-0.609,1.657-1.256,3.293-1.945,4.907
	c-0.305,0.712-0.608,1.422-0.928,2.125c-0.938,2.06-1.922,4.094-3.001,6.074c-0.043,0.08-0.077,0.165-0.121,0.244
	C894.311,1585.445,901.643,1586.132,908.035,1586.529z"/>
<path style="fill:#873E39;" d="M776.883,850.783c5.135-62.015,40.219-120.865,92.327-154.88
	c-0.22,47.998,25.398,93.257,59.809,126.716c34.417,33.459,77.164,56.841,119.644,79.191
	c-19.873-71.201,8.019-153.257,67.167-197.598c0.814,82.061,43.649,161.601,106.222,214.694
	c-3.113-43.283,7.829-87.469,30.782-124.299c49.885,93.654,52.745,210.918,7.484,306.894c26.079-2.568,47.563-18.63,65.887-38.23
	c14.754-75.9,64.8-144.706,133.451-180.637c17.356-9.083,36.876-16.218,56.134-16.156c15.755-69.34,21.444-140.957,2-208.682
	c-25.233-87.888-103.001-165.999-194.441-165.71c-24.799-57.228-69.427-105.635-124.453-134.994
	c-63.196-33.715-137.213-41.844-208.76-38.456c-29.452,1.393-58.976,4.662-87.323,12.779
	c-61.193,17.522-114.031,56.838-159.381,101.503c-90.416,89.043-158.528,212.136-144.151,338.219
	c12.067-26.52,28.031-51.235,47.101-73.26c-11.231,32.986-12.271,74.562-11.73,99.304c1.296,59.035,18.621,116.984,44.633,169.997
	c5.247,10.698,11.226,21.523,18.918,30.527c0.058-64.002,1.172-133.449,12.831-198.987
	C730.54,818.719,753.418,835.462,776.883,850.783z"/>
<path style="fill:#FFFFFF;" d="M865.117,1044.673c-4.083-4.044-8.633-7.51-13.511-10.473c-11.99-7.296-26.002-11.306-40.092-11.81
	c-33.369-1.264-66.743,17.769-82.636,47.169c-5.778,10.692-9.427,22.933-8.019,35.033c3.215,27.92,31.425,44.1,56.38,39.479
	c26.982-4.95,58.801,6.499,83.756-7.442l0.146-0.071c0.721-0.397,1.408-0.796,2.095-1.228c12.463-7.876,20.083-22.178,21.744-36.804
	C887.217,1078.842,879.202,1058.58,865.117,1044.673z"/>
<path style="fill:#EE745A;" d="M1371.484,1086.644c0.726,10.67,16.721,14.09,19.508,2.641c9.536-39.124,16.458-73.32,46.945-102.804
	c17.771,4.09,35.427,5.996,41.04,28.037c5.837,22.921-12.896,36.704-27.8,50.066c-2.485,2.227-1.145,6.546,1.939,7.357
	c34.836,9.142,56.283-34.227,48.609-63.695c-4.253-16.326-20.984-34.461-39.123-40.619c23.949-14.362,50.452-20.88,78.558-29.52
	c4.2-1.291,4.818-8.188,0-9.142C1459.172,912.681,1365.969,1005.682,1371.484,1086.644z"/>
<path style="fill:#EE745A;" d="M972.523,1251.872c7.362-2.989,9.91-15.8,0-17.632c-21.418-3.956-45.886,1.52-64.823-11.63
	c-29.612-20.565-0.989-56.356,9.096-80.424c17.13-40.887,29.959-87.486,26.13-132.032c-0.229-2.655-4.132-3.53-4.877-0.66
	c-8.336,32.18-14.202,64.411-26.1,95.642c-6.421,16.847-14.027,33.035-22.704,48.823c-7.245,13.187-16.054,25.929-17.91,41.218
	C864.971,1247.662,932.824,1267.984,972.523,1251.872z"/>
<path style="fill:#873E39;" d="M1010.13,1004.33c30.533-4.621,55.162-15.135,87.352-11.101c20.171,2.526,39.844,8.526,60.117,9.964
	c9.617,0.68,21.086-0.68,25.788-9.096c3.206-5.741,1.968-13.155-1.496-18.743c-16.424-26.485-50.505-42.553-80.365-47.776
	c-35.274-6.173-80.517,0.492-105.632,28.324C980.469,972.997,979.246,1009.005,1010.13,1004.33z"/>
<path style="fill:#873E39;" d="M742.969,994.196c16.886-1.145,33.247-6.361,50.036-8.478c26.802-3.381,47.396,6.151,72.872,10.473
	c25.778,4.372,24.517-27.723,11.547-43.062c-21.12-24.972-58.87-31.21-88.229-25.947c-24.848,4.458-53.145,18.551-66.655,42.042
	c-2.855,4.96-3.83,11.557-1.121,16.694C725.39,993.451,734.959,994.737,742.969,994.196z"/>
<path style="fill:#873E39;" d="M915.11,1353.699c41.583,3.766,85.603-5.611,123.566-22.322c20.463-9.011,39.829-20.282,57.783-33.61
	c10.614-7.876,22.828-15.873,30.533-26.697c7.84,7.694,16.825,13.538,27.556,17.625c7.932,3.018,10.933-8.292,5.301-12.573
	c-10.772-8.19-20.38-17.975-27.586-29.442c-5.89-9.379-7.868-20.409-19.011-24.736c-1.705-0.662-3.328,0.494-4.297,1.749
	c-7.951,10.295-0.434,24.087,6.66,33.939c-10.33,6.58-18.716,16.39-28.687,23.829c-15.781,11.778-32.862,21.868-50.714,30.17
	c-39.05,18.163-78.573,25.876-121.106,30.1C907.451,1342.495,907.387,1352.997,915.11,1353.699z"/>
<path style="fill:#5C97C1;" d="M1147.124,1046.154l-0.039-0.036c-6.032-3.323-12.818-5.201-19.971-5.201
	c-25.466,0-46.051,23.659-46.051,52.843c0,25.281,15.493,46.446,36.224,51.574c9.968-0.648,19.576-2.816,28.282-8.304
	c12.463-7.839,20.083-22.141,21.744-36.807c2.202-19.683-5.778-39.946-19.902-53.815L1147.124,1046.154z"/>
<path style="fill:#5C97C1;" d="M884.981,1098.527c2.236-19.686-5.778-39.947-19.863-53.854c-4.083-4.044-8.633-7.51-13.511-10.473
	c-1.807-0.253-3.61-0.397-5.49-0.397c-25.428,0-46.051,23.656-46.051,52.84c0,29.182,20.624,52.84,46.051,52.84
	c5.203,0,10.222-1.013,14.879-2.855l0.146-0.071c0.721-0.397,1.408-0.796,2.095-1.228
	C875.699,1127.455,883.319,1113.153,884.981,1098.527z"/>
<path style="fill:#307F7C;" d="M1512.917,1607.891c-49.349-17.184-102.874-14.977-155.128-18.46
	c-35.82,70.828-98.402,128.477-173.179,155.588c-42.728,15.444-91.961,23.571-120.526,58.811
	c-15.323,18.811-23.22,44.066-42.845,58.404c-24.614-7.371-30.826-41.276-53.062-54.224c-7.839-4.587-17.067-6.095-25.891-8.127
	c-78.319-18.056-140.497-86.736-157.101-164.648c-19.854,2.497-39.825,4.994-58.115,11.961
	c-46.733,17.649-77.447,62.699-97.534,108.39c-18.343,41.858-30.129,85.98-38.894,130.857c4.877,2.904,9.749,5.805,14.685,8.592
	c11.961,6.85,24.092,13.411,36.346,19.681c1.622,0.813,3.192,1.683,4.819,2.438l0.058,0.058c5.398,2.729,10.796,5.399,16.253,8.012
	c4.584,2.207,9.233,4.412,13.934,6.56c6.499,3.077,13.12,5.981,19.737,8.824c0.872,0.406,1.744,0.814,2.616,1.162
	c0.639,0.29,1.277,0.524,1.915,0.814c4.994,2.09,9.925,4.18,14.977,6.212c7.605,3.077,15.269,6.095,22.991,8.882h0.058
	c8.706,3.308,17.418,6.387,26.241,9.347v0.058c3.191,1.104,6.383,2.146,9.578,3.136c3.191,1.045,6.387,2.09,9.578,3.077l0.234,0.058
	c3.133,1.045,6.212,1.973,9.344,2.901c3.255,1.045,6.504,2.032,9.813,2.963c6.329,1.856,12.716,3.598,19.157,5.281
	c39.133,10.451,79.303,18.404,120.35,23.63h0.117c38.373,4.935,77.506,7.43,117.213,7.43c61.018,0,120.643-5.919,178.348-17.357
	c8.361-1.627,16.663-3.425,24.965-5.283c7.606-1.625,15.211-3.426,22.699-5.342c10.393-2.612,20.726-5.457,31.001-8.417
	c2.962-0.872,5.866-1.742,8.828-2.614c3.713-1.101,7.372-2.205,11.031-3.367c2.787-0.87,5.569-1.8,8.361-2.729
	c1.335-0.407,2.67-0.872,4.005-1.335c1.452-0.407,2.904-0.928,4.292-1.393c1.048-0.349,2.149-0.697,3.196-1.104
	c3.888-1.335,7.78-2.67,11.668-4.063c4.526-1.569,9.058-3.252,13.584-4.935l2.266-0.87c8.824-3.31,17.593-6.735,26.3-10.451h0.058
	c2.67-1.045,5.281-2.148,7.951-3.308c5.403-2.266,10.743-4.587,16.083-6.967l0.117-0.059c0.984-0.407,1.973-0.814,2.904-1.276
	c8.472-3.832,16.891-7.781,25.194-11.844c13.759-6.677,27.289-13.703,40.584-21.016v-0.058l0.926-0.524
	c9.637-5.34,19.215-10.855,28.624-16.604c7.951-4.76,15.849-9.637,23.63-14.628c4.702-3.021,9.403-6.098,14.046-9.233
	c8.999-5.919,17.881-12.131,26.65-18.46c15.035-10.799,29.783-22.061,44.122-33.788c11.844-9.696,23.454-19.681,34.83-29.959
	C1643.074,1704.265,1589.55,1634.714,1512.917,1607.891z"/>
</svg>
