<?xml version="1.0" encoding="utf-8"?>
<!-- Generator: Adobe Illustrator 27.5.0, SVG Export Plug-In . SVG Version: 6.00 Build 0)  -->
<svg version="1.1" id="Capa_1" xmlns="http://www.w3.org/2000/svg" xmlns:xlink="http://www.w3.org/1999/xlink" x="0px" y="0px"
	 viewBox="0 0 2122 2122" style="enable-background:new 0 0 2122 2122;" xml:space="preserve">
<path style="fill:#EAEAEA;" d="M1042.219,147.694c-519.541,0-940.769,421.164-940.769,940.763
	c0,286.758,128.298,543.532,330.628,716.058c37.701,32.175,77.954,61.389,120.461,87.333c1.486,0.892,2.97,1.837,4.514,2.67
	c6.351,3.917,12.763,7.717,19.294,11.4c0.915,0.524,1.853,1.011,2.77,1.532c3.178,1.807,6.398,3.543,9.599,5.312
	c6.196,3.424,12.424,6.792,18.704,10.073c3.224,1.684,6.46,3.35,9.707,4.997c6.515,3.306,13.08,6.524,19.683,9.681
	c2.985,1.427,5.953,2.884,8.957,4.28c9.473,4.406,19.009,8.703,28.658,12.806c21.493,9.145,43.401,17.515,65.722,24.994v0.058
	c3.266,1.13,6.531,2.197,9.797,3.206c3.264,1.072,6.529,2.139,9.795,3.147c3.264,1.067,6.531,2.08,9.795,3.031
	c3.325,1.067,6.65,2.075,10.034,3.025c6.47,1.9,13.001,3.683,19.591,5.403c77.537,20.721,158.991,31.761,243.059,31.761
	c91.25,0,179.412-12.998,262.828-37.223c6.825-1.959,13.596-4.039,20.304-6.115c2.85-0.892,5.698-1.841,8.548-2.792
	c2.85-0.891,5.7-1.841,8.489-2.791c29.389-9.856,58.063-21.135,86.027-33.778c4.809-2.139,9.559-4.337,14.309-6.592
	c0.517-0.245,1.036-0.505,1.555-0.753c2.628-1.255,5.256-2.527,7.885-3.817c6.32-3.033,12.589-6.191,18.834-9.386
	c1.705-0.872,3.411-1.733,5.108-2.615c6.574-3.416,13.113-6.886,19.575-10.44v-0.063l0.95-0.531
	c49.632-27.43,96.534-59.191,140.17-94.816c211.296-172.468,346.182-435.059,346.182-729.057
	C1982.985,568.858,1561.819,147.694,1042.219,147.694z"/>
<path style="fill:#B3A1CE;" d="M1590.435,1649.621c-31.644-68.93-80.682-127.41-154.241-147.951c-1.247-0.95-2.495-1.9-3.742-2.729
	c-1.186-0.891-2.373-1.725-3.562-2.553c-1.483-1.014-3.028-2.022-4.572-2.972c-0.77-0.531-1.542-1.009-2.314-1.481
	c-0.653-0.419-1.306-0.775-1.958-1.13c-0.95-0.531-1.9-1.067-2.85-1.603c-1.578-0.833-3.171-1.669-4.776-2.504
	c-0.918-0.472-1.845-0.932-2.775-1.389c-1.332-0.653-2.67-1.311-4.025-1.925c-1.367-0.711-2.85-1.364-4.276-1.958
	c-0.311-0.118-0.622-0.255-0.933-0.39c-0.374-0.159-0.749-0.315-1.124-0.473c-0.68-0.298-1.359-0.588-2.04-0.863
	c-1.008-0.473-2.078-0.886-3.086-1.242c-1.366-0.536-2.731-1.072-4.097-1.544l-0.526-0.164c-1.764-0.646-3.559-1.241-5.346-1.849
	c-0.638-0.213-1.258-0.452-1.904-0.662c-2.02-0.711-4.039-1.364-6.056-2.017c-23.927-7.303-49.573-11.756-75.042-15.79
	c-12.645-1.959-25.352-3.859-37.7-5.998c-17.574-3.025-35.739-7.361-53.196-13.301c-40.073-13.593-76.348-35.503-92.794-68.511
	c-0.002-0.003-0.003-0.006-0.004-0.008l0.013-0.011c-3.325-6.592-5.817-13.598-7.42-21.077c-0.063-0.303-0.109-0.613-0.169-0.917
	c-0.34-1.712-0.63-3.442-0.886-5.184c-0.281-1.914-0.527-3.841-0.737-5.779c-0.082-0.758-0.164-1.516-0.239-2.276
	c-0.032-0.331-0.062-0.664-0.094-0.995c-0.117-1.502-0.27-2.968-0.379-4.479c-0.003-0.042-0.008-0.084-0.011-0.125
	c64.54-25.031,113.531-72.601,145.93-132.755c5.747-2.422,10.895-5.12,14.875-7.738c38.302-25.204,70.531-67.917,96.772-104.829
	c0.426-0.598,0.824-1.216,1.247-1.816c3.479-1.893,6.939-3.881,10.359-5.954c28.27-17.135,53.915-39.527,66.853-52.555
	c43.603-43.898,58.504-101.647,43.454-161.486c-2.117-8.419-5.107-17.094-9.439-24.67c22.147-89.027,25.635-182.231-3.869-268.265
	c-18.849-54.962-56.27-109.136-110.672-126.462c-16.721-13.093-36.144-22.996-57.133-25.368c-2.261-0.255-4.544-0.377-6.83-0.434
	c-3.766-11.236-8.682-22.786-14.614-34.187v-0.058c-28.616-54.86-80.207-105.915-134.709-99.567
	c-29.981,3.503-55.569,23.927-85.194,29.745c-32.061,6.295-64.655-5.106-97.188-8.604c-79.377-8.434-161.781,35.678-198.77,106.387
	c-14.071,26.835-21.788,56.463-30.159,85.612c-14.367,49.929-30.932,99.62-56.757,144.682
	C655.961,684.513,620.281,725,574.685,749.876c5.284,6.534,11.043,12.526,17.218,18.11c30.77,27.752,71.732,43.375,113.851,48.115
	c0.705,13.248,3.392,26.79,7.459,39.764c-12.677-5.018-26.124-7.112-40.105-5.043c-24.068,3.562-45.822,19.688-55.885,41.437
	c-23.878,51.601,16.061,113.169,54.088,147.284c23.882,21.423,59.723,38.729,91.939,30.518c2.274,29.214,5.43,59.597,10.845,89.067
	c10.721,58.348,30.253,113.067,69.128,147.776c26.758,23.891,59.179,37.097,93.566,42.688c-0.463,1.988-0.934,3.972-1.524,5.893
	c-0.091,0.295-0.192,0.584-0.286,0.877c-0.364,1.143-0.817,2.238-1.226,3.358c-0.614,1.684-1.228,3.369-1.939,5
	c-0.737,1.694-1.539,3.351-2.377,4.988c-0.503,0.984-1.022,1.959-1.56,2.923c-0.764,1.367-1.567,2.71-2.398,4.037
	c-0.48,0.766-0.94,1.544-1.442,2.297c-0.26,0.39-0.555,0.758-0.821,1.145c-1.407,2.045-2.874,4.054-4.438,6.001
	c-0.131,0.163-0.275,0.317-0.407,0.479c-2.093,2.575-4.333,5.054-6.681,7.462c-0.444,0.454-0.886,0.908-1.338,1.358
	c-2.726,2.684-5.566,5.29-8.542,7.768c-11.459,9.501-24.936,17.457-39.42,24.165c-24.344,11.162-51.771,18.641-77.834,23.094
	c-21.966,3.742-44.765,6.884-67.089,11.103c-9.974,1.837-19.827,3.859-29.447,6.354c-2.136,0.531-4.273,1.125-6.351,1.72
	l-0.358,0.058c-0.375,0.115-0.753,0.227-1.13,0.34c-1.523,0.423-3.027,0.877-4.538,1.321h-0.091
	c-0.695,0.201-1.37,0.431-2.061,0.636c-1.274,0.385-2.545,0.774-3.809,1.176c-1.865,0.594-3.72,1.203-5.561,1.835
	c-1.943,0.666-3.859,1.372-5.772,2.083c-0.298,0.115-0.606,0.209-0.904,0.326c-0.15,0.05-0.291,0.117-0.441,0.17
	c-0.988,0.375-1.981,0.741-2.961,1.128c-0.33,0.122-0.662,0.233-0.99,0.363c-1.113,0.407-2.161,0.877-3.188,1.366
	c-1.263,0.53-2.53,1.052-3.777,1.605l-0.279,0.117c-1.898,0.77-3.798,1.661-5.64,2.612c-0.183,0.091-0.365,0.183-0.548,0.275
	c-0.346,0.169-0.687,0.346-1.031,0.517c-0.186,0.093-0.372,0.187-0.557,0.279c-9.084-1.841-19.533-0.356-28.617,2.314
	c-85.313,25.349-132.155,96.77-155.905,177.69c-13.059,44.648-19.769,91.785-21.432,138.689
	c37.701,32.175,77.954,61.389,120.461,87.333c1.486,0.892,2.97,1.837,4.514,2.67c6.351,3.917,12.763,7.717,19.294,11.4
	c0.915,0.524,1.853,1.011,2.77,1.532c3.178,1.807,6.398,3.543,9.599,5.312c6.196,3.424,12.424,6.792,18.704,10.073
	c3.224,1.684,6.46,3.35,9.707,4.997c6.515,3.306,13.08,6.524,19.683,9.681c2.985,1.427,5.953,2.884,8.957,4.28
	c9.473,4.406,19.009,8.703,28.658,12.806c21.493,9.145,43.401,17.515,65.722,24.994v0.058c3.266,1.13,6.531,2.197,9.797,3.206
	c3.264,1.072,6.529,2.139,9.795,3.147c3.264,1.067,6.531,2.08,9.795,3.031c3.325,1.067,6.65,2.075,10.034,3.025
	c6.47,1.9,13.001,3.683,19.591,5.403c77.537,20.721,158.991,31.761,243.059,31.761c91.25,0,179.412-12.998,262.828-37.223
	c6.825-1.959,13.596-4.039,20.304-6.115c2.85-0.892,5.698-1.841,8.548-2.792c2.85-0.891,5.7-1.841,8.489-2.791
	c29.389-9.856,58.063-21.135,86.027-33.778c4.809-2.139,9.559-4.337,14.309-6.592c0.517-0.245,1.036-0.505,1.555-0.753
	c2.628-1.255,5.256-2.527,7.885-3.817c6.32-3.033,12.589-6.191,18.834-9.386c1.705-0.872,3.411-1.733,5.108-2.615
	c6.574-3.416,13.113-6.886,19.575-10.44v-0.063l0.95-0.531c49.632-27.43,96.534-59.191,140.17-94.816
	C1629.382,1759.989,1614.54,1702.221,1590.435,1649.621z"/>
<path style="fill:#274873;" d="M1590.435,1649.621c-31.644-68.93-80.682-127.41-154.241-147.951l-0.297-0.059
	c-1.189-0.891-2.316-1.783-3.444-2.67c-1.186-0.891-2.373-1.725-3.562-2.553c-1.483-1.014-3.028-2.022-4.572-2.972
	c-0.77-0.531-1.542-1.009-2.314-1.481c-0.653-0.419-1.306-0.775-1.958-1.13c-0.95-0.531-1.9-1.067-2.85-1.603
	c-1.578-0.833-3.171-1.669-4.776-2.504c-0.918-0.472-1.845-0.932-2.775-1.389c-3.034-1.492-6.102-2.933-9.234-4.273
	c-0.374-0.159-0.749-0.315-1.124-0.473c-3.201-1.347-6.459-2.608-9.75-3.813c-1.764-0.646-3.559-1.241-5.346-1.849
	c-2.638-0.898-5.264-1.817-7.95-2.64c-23.927-7.303-49.573-11.756-75.045-15.795l-0.007,0.016v-0.016
	c-12.643-1.958-25.344-3.858-37.691-5.992c-17.573-3.03-35.741-7.361-53.196-13.301c-3.978,7.006-8.371,13.774-13.654,20.244
	c-19.354,23.63-43.398,43.342-70.294,57.827c-30.872,16.565-65.603,26.241-100.689,26.48
	c-41.143,0.297-83.057-11.576-114.999-37.403c-23.985-19.357-41.796-47.021-48.268-76.945
	c-24.341,11.162-51.769,18.646-77.832,23.098c-21.968,3.737-44.765,6.884-67.089,11.099c-0.003,0-0.006,0.001-0.01,0.001
	c-9.97,1.841-19.823,3.858-29.437,6.352c-2.635,0.663-5.248,1.362-7.849,2.084c-1.523,0.423-3.027,0.877-4.538,1.321
	c-0.717,0.211-1.437,0.42-2.152,0.636c-1.274,0.385-2.545,0.774-3.809,1.176c-1.865,0.594-3.72,1.203-5.561,1.835
	c-1.943,0.666-3.859,1.372-5.772,2.083c-0.448,0.167-0.898,0.328-1.344,0.496c-0.988,0.375-1.981,0.741-2.961,1.128
	c-1.406,0.556-2.79,1.146-4.179,1.729c-1.263,0.53-2.53,1.052-3.777,1.605c-2.178,0.967-4.338,1.962-6.467,3.004
	c-0.346,0.169-0.687,0.346-1.031,0.517c-0.186,0.093-0.372,0.187-0.557,0.279c-9.084-1.841-19.533-0.356-28.617,2.314
	c-85.313,25.349-132.155,96.77-155.905,177.69c-13.059,44.648-19.769,91.785-21.432,138.689
	c37.701,32.175,77.954,61.389,120.461,87.333c1.486,0.892,2.97,1.837,4.514,2.67c6.351,3.917,12.763,7.717,19.294,11.4
	c0.915,0.524,1.853,1.011,2.77,1.532c3.178,1.807,6.398,3.543,9.599,5.312c6.196,3.424,12.424,6.792,18.704,10.073
	c3.224,1.684,6.46,3.35,9.707,4.997c6.515,3.306,13.08,6.524,19.683,9.681c2.985,1.427,5.953,2.884,8.957,4.28
	c9.473,4.406,19.009,8.703,28.658,12.806c21.493,9.145,43.401,17.515,65.722,24.994c3.266,1.13,6.531,2.197,9.797,3.264
	c3.264,1.072,6.529,2.139,9.795,3.147c3.264,1.067,6.531,2.08,9.795,3.031c3.325,1.067,6.65,2.075,10.034,3.025
	c6.47,1.9,13.001,3.683,19.591,5.403c77.537,20.721,158.991,31.761,243.059,31.761c91.25,0,179.412-12.998,262.828-37.223
	c6.825-1.959,13.596-4.039,20.304-6.115c2.85-0.892,5.698-1.841,8.548-2.792c2.791-0.95,5.642-1.9,8.489-2.85v0.059
	c29.389-9.856,58.063-21.135,86.027-33.778c4.809-2.139,9.559-4.337,14.309-6.592c0.517-0.245,1.036-0.505,1.555-0.753
	c2.628-1.255,5.256-2.527,7.885-3.817c6.32-3.033,12.589-6.191,18.834-9.386c1.705-0.872,3.411-1.733,5.108-2.615
	c6.574-3.416,13.113-6.886,19.575-10.44v-0.063l0.95-0.531c49.632-27.43,96.534-59.191,140.17-94.816
	C1629.382,1759.989,1614.54,1702.221,1590.435,1649.621z"/>
<path style="fill:#2A2C6B;" d="M1473.753,567.704c-18.849-54.962-56.27-109.136-110.672-126.462
	c-16.721-13.093-36.144-22.996-57.133-25.368c-2.261-0.255-4.544-0.377-6.83-0.434c-3.766-11.236-8.682-22.786-14.614-34.187v-0.058
	c-28.616-54.86-80.207-105.915-134.709-99.567c-29.981,3.503-55.569,23.927-85.194,29.745c-32.061,6.295-64.655-5.106-97.188-8.604
	c-79.377-8.434-161.781,35.678-198.77,106.387c-14.071,26.835-21.788,56.463-30.159,85.612
	c-14.367,49.929-30.932,99.62-56.757,144.682C655.961,684.513,620.281,725,574.685,749.876c5.284,6.534,11.043,12.526,17.218,18.11
	c30.77,27.752,71.732,43.375,113.851,48.115c0.705,13.248,3.392,26.79,7.459,39.764c5.264,2.083,10.408,4.619,15.381,7.653
	c7.643,4.664,14.911,10.373,21.75,16.805c-1.036-20.696-1.784-41.811-2.067-63.108c62.74-3.673,122.583-27.783,179.001-55.641
	c46.843-23.035,93.033-49.398,129.545-86.738c17.416-17.801,32.9-38.292,50.983-55.172c3.046,37.953-2.256,75.871-16.856,111.274
	c-9.021,21.871-21.32,42.417-36.568,60.521c15.359,4.258,31.691,3.391,47.442,0.964c35.995-5.539,71.04-19.342,99.488-42.08
	c3.307-2.643,6.509-5.422,9.619-8.304c0.08,0.161,0.161,0.323,0.242,0.484c16.624,33.432,29.788,68.994,34.287,106.061
	c4.5,37.067-0.075,75.834-17.25,108.984c17.9,0.887,34.724-8.102,49.727-17.905c40.249-26.296,74.793-60.864,101.878-100.558
	c11.57-8.307,24.059-15.214,37.669-20.148c13.023-4.721,27.798-7.415,40.502-1.895c8.644,3.758,14.933,10.682,19.635,18.906
	C1499.769,746.942,1503.257,653.738,1473.753,567.704z"/>
<path style="fill:#F9FAFE;" d="M1263.498,1450.474c-17.573-3.03-35.741-7.361-53.196-13.301
	c-3.978,7.006-8.371,13.774-13.654,20.244c-19.354,23.63-43.398,43.342-70.294,57.827c-30.872,16.565-65.603,26.241-100.689,26.48
	c-41.143,0.297-83.057-11.576-114.999-37.403c-23.985-19.357-41.796-47.021-48.268-76.945
	c-24.341,11.162-51.769,18.646-77.832,23.098c-21.968,3.737-44.765,6.884-67.089,11.099c0.965,8.779,2.319,17.53,3.972,26.234
	c0.335,1.755,0.629,3.524,1.007,5.254c0.141,0.684,0.302,1.368,0.448,2.051c1.2,5.649,2.539,11.27,4.023,16.854
	c0.158,0.586,0.293,1.172,0.454,1.758c0.127,0.505,0.295,1.001,0.428,1.506c4.548,16.467,10.304,32.598,17.231,48.139
	c0.083,0.188,0.167,0.375,0.25,0.561c1.333,2.974,2.71,5.924,4.127,8.853c0.112,0.228,0.214,0.455,0.326,0.682
	c1.253,2.575,2.555,5.122,3.873,7.659c0.267,0.508,0.504,1.021,0.779,1.525l0.018,0.052c3.223,6.128,6.638,12.138,10.233,18.018
	c0.193,0.316,0.391,0.626,0.585,0.941c0.955,1.549,1.948,3.072,2.928,4.603c2.162,3.411,4.376,6.77,6.719,10.047
	c1.24,1.802,2.484,3.548,3.772,5.295c0.368,0.503,0.738,1.003,1.109,1.505c1.02,1.41,2.049,2.818,3.139,4.228
	c1.603,2.09,3.245,4.143,4.899,6.184c0.864,1.065,1.726,2.113,2.589,3.146c0.234,0.281,0.475,0.556,0.711,0.836
	c2.869,3.452,5.843,6.843,8.91,10.1c0.371,0.401,0.735,0.809,1.108,1.207c1.065,1.137,2.14,2.263,3.209,3.375
	c1.344,1.388,2.7,2.759,4.071,4.117c0.55,0.544,1.046,1.087,1.63,1.63c1.022,1.022,2.109,2.002,3.177,2.994
	c0.8,0.754,1.599,1.513,2.409,2.256c1.007,0.929,2.033,1.859,3.061,2.788c1.363,1.214,2.751,2.399,4.138,3.585
	c2.41,2.045,4.847,4.069,7.32,6.015c0.602,0.476,1.194,0.966,1.799,1.436c1.29,1.003,2.568,1.97,3.852,2.919
	c1.116,0.833,2.238,1.656,3.367,2.47c1.022,0.744,2.04,1.496,3.085,2.227c2.347,1.639,4.726,3.234,7.13,4.789
	c0.639,0.415,1.281,0.818,1.917,1.22c1.815,1.15,3.655,2.263,5.501,3.364c1.261,0.759,2.518,1.502,3.825,2.226
	c1.292,0.798,2.626,1.487,3.95,2.203c0.808,0.441,1.602,0.905,2.415,1.337c2.02,1.093,4.089,2.132,6.164,3.11
	c1.772,0.912,3.599,1.772,5.424,2.632c1.432,0.661,2.886,1.285,4.333,1.918c1.065,0.46,2.096,0.953,3.185,1.389
	c1.119,0.478,2.238,0.914,3.357,1.358c1.878,0.753,3.759,1.501,5.664,2.205c1.164,0.42,2.331,0.841,3.502,1.246
	c1.019,0.358,2.051,0.694,3.077,1.038c1.519,0.514,3.03,1.034,4.585,1.515c90.419,28.2,192.475-1.783,265.262-62.397
	c1.316-1.091,2.553-2.214,3.839-3.319c2.142-1.843,4.282-3.686,6.345-5.557c1.515-1.375,2.981-2.756,4.453-4.138
	c2.476-2.332,4.925-4.675,7.289-7.048c0.6-0.602,1.218-1.197,1.811-1.801c3.029-3.091,5.951-6.223,8.808-9.38
	c0.941-1.042,1.865-2.091,2.785-3.14c1.905-2.161,3.757-4.343,5.588-6.533c0.824-0.988,1.671-1.968,2.48-2.961
	c3.148-3.795,6.117-7.654,9.084-11.576c0.6-0.801,1.166-1.617,1.758-2.421c1.96-2.663,3.892-5.338,5.772-8.037
	c0.893-1.281,1.764-2.572,2.641-3.861c1.844-2.717,3.662-5.447,5.435-8.2c0.524-0.811,1.055-1.62,1.572-2.435
	c4.891-7.706,9.533-15.539,13.984-23.494c0.099-0.179,0.206-0.353,0.304-0.532c3.843-6.884,7.528-13.876,11.147-20.93
	c0.46-0.897,0.929-1.786,1.386-2.685c3.472-6.829,6.871-13.731,10.231-20.698c0.512-1.062,1.025-2.123,1.535-3.186
	c3.538-7.378,7.053-14.814,10.577-22.319c3.58-7.627,7.172-15.302,10.838-23.043v-0.016
	C1288.545,1454.508,1275.844,1452.608,1263.498,1450.474z"/>
<path style="fill:#143454;" d="M1412.42,1486.699c-0.918-0.472-1.845-0.932-2.775-1.389c-3.034-1.492-6.102-2.933-9.234-4.273
	c-0.374-0.159-0.749-0.315-1.124-0.473c-3.201-1.347-6.459-2.608-9.75-3.813c-1.764-0.646-3.559-1.241-5.346-1.849
	c-2.638-0.898-5.264-1.817-7.95-2.64c-23.927-7.303-49.573-11.756-75.045-15.795l-0.007,0.016
	c-3.666,7.74-7.258,15.416-10.838,23.043c-3.521,7.504-7.04,14.945-10.577,22.319c-0.51,1.064-1.023,2.125-1.535,3.186
	c-3.359,6.964-6.759,13.87-10.231,20.698c-0.458,0.899-0.926,1.788-1.386,2.685c-3.712,7.234-7.501,14.403-11.452,21.462
	c-4.452,7.954-9.094,15.788-13.984,23.494c-0.517,0.815-1.049,1.622-1.572,2.435c-1.773,2.753-3.591,5.483-5.435,8.2
	c-0.875,1.289-1.749,2.58-2.641,3.861c-1.879,2.699-3.812,5.374-5.772,8.037c-4.228,5.744-8.67,11.395-13.322,16.958
	c-1.831,2.19-3.683,4.372-5.588,6.533c-0.923,1.048-1.843,2.099-2.785,3.14c-2.856,3.158-5.778,6.289-8.808,9.38
	c-0.593,0.604-1.212,1.199-1.811,1.801c-2.364,2.373-4.813,4.716-7.289,7.048c-1.469,1.385-2.943,2.768-4.453,4.138
	c-2.063,1.871-4.203,3.714-6.345,5.557c-1.293,1.112-2.506,2.252-3.829,3.353c-72.786,60.619-174.843,90.597-265.264,62.397
	c-1.548-0.482-3.06-1.035-4.592-1.549c-1.026-0.344-2.058-0.68-3.077-1.038c-1.169-0.411-2.342-0.816-3.502-1.246
	c-1.905-0.704-3.786-1.452-5.664-2.205c-2.2-0.882-4.377-1.802-6.542-2.747c-1.447-0.633-2.901-1.257-4.333-1.918
	c-3.922-1.813-7.787-3.723-11.588-5.742c-0.813-0.432-1.607-0.896-2.415-1.337c-2.62-1.432-5.214-2.901-7.774-4.429
	c-1.846-1.102-3.686-2.214-5.501-3.364c-0.64-0.406-1.281-0.809-1.917-1.22c-2.405-1.556-4.784-3.15-7.13-4.789
	c-1.04-0.726-2.057-1.484-3.085-2.227c-1.13-0.814-2.251-1.637-3.367-2.47c-1.291-0.964-2.579-1.929-3.852-2.919
	c-0.605-0.47-1.197-0.96-1.799-1.436c-2.475-1.96-4.917-3.962-7.32-6.015c-1.387-1.185-2.775-2.37-4.138-3.585
	c-1.031-0.919-2.046-1.854-3.061-2.788c-0.81-0.744-1.609-1.502-2.409-2.256c-1.617-1.525-3.226-3.059-4.807-4.624
	c-1.371-1.358-2.728-2.729-4.071-4.117c-1.079-1.115-2.148-2.241-3.209-3.375c-0.373-0.398-0.736-0.806-1.108-1.207
	c-3.044-3.291-6.016-6.656-8.91-10.1c-0.235-0.28-0.476-0.554-0.711-0.836c-0.869-1.042-1.733-2.09-2.589-3.146
	c-1.654-2.041-3.296-4.094-4.899-6.184c-1.066-1.391-2.095-2.816-3.139-4.228c-0.371-0.501-0.741-1.001-1.109-1.505
	c-3.644-4.995-7.14-10.112-10.491-15.342c-0.98-1.531-1.973-3.054-2.928-4.603c-0.194-0.315-0.392-0.626-0.585-0.941
	c-3.595-5.88-7.01-11.89-10.233-18.018c-0.274-0.521-0.526-1.055-0.797-1.578c-1.318-2.537-2.62-5.084-3.873-7.659
	c-0.11-0.226-0.216-0.455-0.326-0.682c-1.416-2.929-2.794-5.879-4.127-8.853c-0.084-0.187-0.166-0.374-0.25-0.561
	c-6.927-15.54-12.683-31.672-17.231-48.139c-0.3-1.086-0.592-2.174-0.882-3.264c-1.484-5.584-2.823-11.205-4.023-16.854
	c-0.516-2.43-0.991-4.866-1.455-7.306c-1.653-8.703-3.007-17.455-3.972-26.234c-0.003,0-0.006,0.001-0.01,0.001
	c-9.97,1.841-19.823,3.858-29.437,6.352c-2.635,0.663-5.248,1.362-7.849,2.084c-1.523,0.423-3.027,0.877-4.538,1.321
	c-0.717,0.211-1.437,0.42-2.152,0.636c-1.274,0.385-2.545,0.774-3.809,1.176c-1.865,0.594-3.72,1.203-5.561,1.835
	c-1.943,0.666-3.859,1.372-5.772,2.083c-0.448,0.167-0.898,0.328-1.344,0.496c-0.988,0.375-1.981,0.741-2.961,1.128
	c-1.406,0.556-2.79,1.146-4.179,1.729c-1.263,0.53-2.53,1.052-3.777,1.605c-2.178,0.967-4.338,1.962-6.467,3.004
	c-0.346,0.169-0.687,0.346-1.031,0.517c-4.814,2.394-9.502,4.975-14.026,7.797c2.495,26.655,8.906,53.077,13.954,73.618
	c14.187,57.764,31.939,115.532,63.881,165.7c44.943,70.587,119.035,123.366,201.617,136.487c30.755,4.931,62.102,4.453,93.152,1.842
	c74.746-6.295,149.73-25.706,212.721-66.495c34.017-21.963,63.939-49.69,91.131-79.732
	c59.43-65.661,106.686-146.465,120.996-232.789C1418.89,1490.098,1415.673,1488.369,1412.42,1486.699z"/>
<path style="fill:#3B6491;" d="M662.707,1596.545c8.37-2.962,15.759-10.368,22.246-16.234c7.588-6.87,15.125-13.535,22.518-20.614
	c4.02-3.849-0.117-12.249-5.776-9.924c-10.258,4.224-18.392,9.087-26.816,16.322c-7.201,6.187-16.036,15.093-17.878,24.745
	C656.393,1594.026,659.104,1597.817,662.707,1596.545z"/>
<path style="fill:#3B6491;" d="M701.253,1659.722c1.166,3.133,4.507,4.877,7.63,3.108c6.616-3.756,11.773-11.63,15.537-18.066
	c4.419-7.561,8.392-15.113,12.521-22.826c3.22-6.012-3.413-13.466-9.647-9.647c-9.011,5.53-15.172,11.508-20.911,20.409
	C701.713,1639.941,698.117,1651.322,701.253,1659.722z"/>
<path style="fill:#3B6491;" d="M764.273,1742.723c1.415,4.107,7.147,5.281,9.493,1.242c8.687-14.967,14.01-31.571,19.642-47.859
	c2.933-8.477-9.274-15.576-15.194-8.843C764.867,1702.44,757.447,1722.932,764.273,1742.723z"/>
<path style="fill:#3B6491;" d="M853.318,1734.387c-9.595,13.554-15.595,36.594-3.099,50.47c2.739,3.04,7.128,1.072,8.373-2.212
	c2.419-6.373,2.478-13.939,3.5-20.687c1.101-7.255,2.841-14.733,5.13-21.71C870.073,1731.565,858.024,1727.741,853.318,1734.387z"/>
<path style="fill:#3B6491;" d="M963.608,1815.887c2.689,1.681,6.546-0.482,6.419-3.683c-0.662-16.945-3.118-33.778-1.783-50.874
	c0.658-8.438-11.652-11.114-15.559-4.215C941.688,1776.535,943.578,1803.385,963.608,1815.887z"/>
<path style="fill:#3B6491;" d="M1054.852,1796.218c2.887,2.485,7.596,2.436,9.615-1.237c4.606-8.38,3.802-15.791,2.509-25.009
	c-1.403-10.012-2.752-18.475-9.006-26.606c-4.075-5.301-12.394-5.174-14.58,1.905c-2.945,9.539-1.795,17.817,0.38,27.503
	C1045.827,1781.919,1047.473,1789.88,1054.852,1796.218z"/>
<path style="fill:#3B6491;" d="M1129.262,1747.517c2.543,7.318,4.758,13.145,10.86,18.105c1.223,0.989,3.269,1.7,4.721,0.609
	c8.441-6.368,9.369-16.283,5.739-25.881c-4.207-11.118-10.07-18.885-20.772-24.297c-6.877-3.474-15.82,3.864-11.169,11.171
	C1122.548,1733.358,1126.877,1740.647,1129.262,1747.517z"/>
<path style="fill:#3B6491;" d="M1191.434,1689.573c5.23,4.35,11.043,9.656,15.247,15.006c4.684,5.963,8.185,12.799,12.628,18.938
	c6.253,8.638,17.683,4.974,19.035-5.16c1.525-11.43-4.012-22.5-11.601-30.704c-8.129-8.789-16.894-12.804-28.619-14.232
	C1190.146,1672.452,1185.403,1684.56,1191.434,1689.573z"/>
<path style="fill:#3B6491;" d="M1248.482,1620.896c3.328,8.721,13.252,15.42,20.231,21.462c6.558,5.676,12.448,14.114,21.598,15.225
	c2.536,0.312,4.339-1.934,5.186-3.951c3.927-9.33-4.577-20.648-9.868-27.576c-5.835-7.639-17.271-18.343-27.486-17.842
	C1252.224,1608.506,1246.031,1614.469,1248.482,1620.896z"/>
<path style="fill:#3B6491;" d="M1296.703,1542.674c7.169,6.431,14.395,12.677,21.328,19.376c6.76,6.529,11.788,14.397,18.307,20.994
	c3.172,3.211,10.027,2.08,10.853-2.865c4.095-24.492-16.745-50.343-40.017-55.489
	C1297.325,1522.514,1288.234,1535.079,1296.703,1542.674z"/>
<path style="fill:#8F75B3;" d="M901.82,1403.215c6.115,2.255,11.993,4.098,17.276,5.637c40.904,11.937,85.371,11.937,126.041-0.828
	c26.413-8.31,51.047-21.841,72.357-39.409l0.013-0.011c-3.325-6.592-5.817-13.598-7.42-21.077c-0.063-0.303-0.109-0.613-0.169-0.917
	c-0.34-1.712-0.63-3.442-0.886-5.184c-0.281-1.914-0.527-3.841-0.737-5.779c-0.082-0.758-0.164-1.516-0.239-2.276
	c-0.032-0.331-0.062-0.664-0.094-0.995c-0.145-1.53-0.283-3.061-0.413-4.595c-2.721,1.055-5.41,2.158-8.188,3.132
	c-49.546,17.381-108.497,27.471-162.572,18.678c-0.463,1.988-0.934,3.972-1.524,5.893c-0.091,0.295-0.192,0.584-0.286,0.877
	c-0.364,1.143-0.817,2.238-1.226,3.358c-0.614,1.684-1.228,3.369-1.939,5c-0.737,1.694-1.539,3.351-2.377,4.988
	c-0.503,0.984-1.022,1.959-1.56,2.923c-0.764,1.367-1.567,2.71-2.398,4.037c-0.48,0.766-0.94,1.544-1.442,2.297
	c-0.26,0.39-0.555,0.758-0.821,1.145c-1.407,2.045-2.874,4.054-4.438,6.001c-0.131,0.163-0.275,0.317-0.407,0.479
	c-2.093,2.575-4.333,5.054-6.681,7.462c-0.444,0.454-0.886,0.908-1.338,1.358C907.637,1398.102,904.826,1400.73,901.82,1403.215z"/>
<path style="fill:#8F75B3;" d="M757.296,982.363c-2.535-31.841-5.161-66.308-6.952-102.04c-6.839-6.432-14.107-12.141-21.75-16.805
	c-4.973-3.034-10.117-5.57-15.381-7.653c-12.677-5.018-26.124-7.112-40.105-5.043c-24.068,3.562-45.822,19.688-55.885,41.437
	c-23.878,51.601,16.061,113.169,54.088,147.284c23.882,21.423,59.723,38.729,91.939,30.518
	C760.799,1038.58,759.373,1008.46,757.296,982.363z"/>
<path style="fill:#2A2C6B;" d="M1293.043,1095.272c-7.965,26.629-17.274,52.523-28.333,77.151
	c-3.467,7.722-7.242,15.23-11.208,22.594c5.747-2.422,10.895-5.12,14.875-7.738c38.302-25.204,70.531-67.917,96.772-104.829
	c0.426-0.598,0.824-1.216,1.247-1.816C1340.658,1094.643,1313.806,1103.005,1293.043,1095.272z"/>
<path style="fill:#8F75B3;" d="M1304.092,995.572c-1.508,8.414-3.043,18.158,1.842,25.637c1.125,1.72,3.871,2.451,5.391,0.692
	c5.337-6.168,6.443-14.256,8.58-21.968c2.202-7.951,4.743-15.737,8.29-23.206c7.179-15.123,16.901-29.306,28.911-40.998
	c0.875-0.853,1.784-1.67,2.682-2.5c1.374-0.505,2.773-0.934,4.241-1.154c4.924-0.735,10.585,0.302,14.819,2.305
	c10.604,5.008,16.906,16.804,20.394,27.474c3.818,11.664,6.188,27.703-4.913,36.341c-3.425,2.665-7.891,3.854-11.973,2.217
	c-4.831-1.939-6.909-6.709-9.788-10.568c-2.239-2.996-5.937-3.03-8.171,0c-4.309,5.852-1.476,13.681,3.052,18.612
	c4.633,5.047,11.364,8.176,18.18,8.619c14.812,0.974,26.97-11.031,31.637-24.117c5.506-15.43,1.001-33.403-5.479-47.815
	c-5.784-12.868-16.28-24.256-29.941-28.678c5.403-3.307,11.031-6.238,16.837-8.734c7.985-3.435,16.414-6.037,24.897-7.918
	c8.161-1.807,17.846-1.427,25.371-4.984c5.847-2.768,3.082-10.246-1.595-12.209c-8.068-3.386-19.966-0.653-28.309,0.745
	c-9.381,1.573-18.558,4.17-27.401,7.669c-17.985,7.118-34.584,17.213-48.366,30.87c-13.569,13.452-23.961,29.311-31.167,46.967
	C1308.611,977.447,1305.729,986.436,1304.092,995.572z"/>
<path style="fill:#1A1029;" d="M977.008,1227.625c18.12,0.892,36.682-0.838,54.307-5.145c17.366-4.244,34.316-10.957,49.917-19.683
	c7.579-4.239,14.807-9.038,21.705-14.314c7.118-5.442,17.969-12.434,21.844-20.75c5.698-12.219-5.868-24.395-18.299-18.3
	c-7.308,3.586-13.187,11.625-19.62,16.697c-5.876,4.638-12.193,8.77-18.658,12.541c-13.808,8.044-28.536,14.002-44.007,17.987
	c-15.201,3.912-30.545,6.047-46.258,5.924c-7.79-0.058-15.669-0.487-23.393-1.535c-8.945-1.218-17.798-5.155-26.458-1.496
	c-4.69,1.983-6.217,9.481-3.528,13.457c5.316,7.854,16.495,9.32,25.264,11.128C958.772,1225.983,967.883,1227.176,977.008,1227.625z
	"/>
<path style="fill:#8F75B3;" d="M1000.838,1107.781c4.073-7.61-2.612-14.655-10.365-13.481c-14.967,2.261-42.544,12.639-52.702-3.142
	c-7.235-11.24-1.844-31.635,0.524-43.43c3.227-16.059,6.039-32.117,9.125-48.205c4.127-21.496,12.774-43.981,8.969-65.808
	c-1.12-6.426-9.7-6.134-12.765-1.666c-17.537,25.569-19.089,67.055-27.43,96.95c-5.35,19.162-11.664,39.357-9.503,59.479
	C911.649,1134.655,978.397,1149.725,1000.838,1107.781z"/>
<path style="fill:#1A1029;" d="M1147.128,890.665c-15.014-1.042-29.93,0.307-44.553,3.844
	c-28.836,6.987-57.671,23.153-77.393,45.564c-6.982,7.936,3.574,18.392,11.544,11.547c10.568-9.077,21.406-17.549,33.99-23.678
	c11.481-5.6,23.777-10.047,36.208-13.045c-6.466,7.042-10.467,16.744-10.467,27.462c0,21.515,16.105,38.952,35.971,38.952
	c19.866,0,35.97-17.437,35.97-38.952c0-13.321-6.182-25.067-15.6-32.091c4.931,0.111,9.863,0.305,14.76,0.812
	c5.859,0.609,13.593,3.294,18.881-0.263c2.409-1.622,2.877-4.146,1.764-6.728c-2.726-6.339-12.414-8.093-18.395-9.637
	C1162.365,892.532,1154.799,891.201,1147.128,890.665z"/>
<path style="fill:#1A1029;" d="M888.682,929.35c-4.777-4.121-9.942-8.117-15.445-11.23c-10.772-6.095-23.123-9.856-35.337-11.547
	c-25.174-3.493-50.745,3.289-71.223,18.251c-7.647,5.584-0.665,18.353,7.583,12.974c18.101-11.792,39.806-16.777,61.235-14.148
	c-14.037,5.309-24.124,19.737-24.124,36.75c0,21.51,16.105,38.952,35.968,38.952c19.866,0,35.971-17.442,35.971-38.952
	c0-7.735-2.107-14.925-5.697-20.986c2.498,1.659,4.95,3.389,7.478,5.073c3.138,2.09,9.549,3.669,11.247-1.121
	C898.477,937.34,892.694,932.814,888.682,929.35z"/>
<path style="fill:#2A2C6B;" d="M1033.939,899.654c22.222-11.693,42.032-23.625,66.991-29.115c17.622-3.878,35.703-5.145,53.574-7.64
	c3.861-0.536,7.859-1.189,11.083-3.376c3.228-2.188,5.45-6.359,4.166-10.041c-0.718-2.061-2.385-3.64-4.083-5.018
	c-17.81-14.456-43.152-14.787-65.817-11.255c-30.224,4.717-60.663,15.791-81.7,37.998
	C1002.621,887.606,1010.504,911.981,1033.939,899.654z"/>
<path style="fill:#2A2C6B;" d="M765.06,862.183c3.228,2.187,7.223,2.835,11.084,3.376c17.873,2.495,35.951,3.761,53.576,7.64
	c24.957,5.491,44.77,17.423,66.991,29.115c23.432,12.326,31.318-12.053,15.786-28.448c-21.038-22.207-51.476-33.286-81.7-37.998
	c-22.668-3.532-48.007-3.201-65.82,11.255c-1.695,1.379-3.362,2.957-4.081,5.018C759.613,855.825,761.832,859.996,765.06,862.183z"
	/>
<path style="fill:#755D9C;" d="M712.765,915.532c-8.573-7.508-18.28-13.345-28.848-17.578c-5.194-2.08-10.56-3.717-16.044-4.843
	c-6.132-1.262-12.219-2.344-17.7,1.145c-1.983,1.262-3.011,4.721-0.828,6.426c2.289,1.788,3.888,2.928,6.794,3.625
	c2.253,0.541,4.575,0.848,6.852,1.262c5.05,0.911,10.022,2.217,14.855,3.937c5.643,2.011,11.084,4.722,16.21,7.919
	c-10.083,5.629-17.305,16.75-19.884,27.818c-1.858,7.971-1.588,16.409,0.907,24.209c2.421,7.571,6.57,16.585,14.972,18.597
	c2.648,0.633,4.76-1.642,4.224-4.224c-1.32-6.383-5.732-11.342-7.617-17.564c-1.788-5.896-2.319-12.307-0.945-18.348
	c2.365-10.41,9.323-17.638,17.057-24.235c0.517,0.428,1.078,0.808,1.583,1.248c7.637,6.65,14.063,14.514,18.965,23.377
	c5.05,9.13,6.738,19.123,10.838,28.56c2,4.604,7.925,1.54,8.378-2.27c1.276-10.753-4.127-22.928-8.957-32.283
	C728.383,932.254,721.284,922.992,712.765,915.532z"/>
<path style="fill:#3E468F;" d="M820.472,602.817c23.51-54.441,31.942-116.716,68.75-163.206
	c39.362-49.632,109.656-72.312,170.57-55.035c19.829,5.584,40.845,15.079,60.141,7.776c13.89-5.281,23.213-18.163,35.028-27.25
	c24.874-19.172,60.319-20.302,89.824-9.496c8.489,3.084,23.332,14.601,39.717,25.588c-28.616-54.86-80.207-105.915-134.709-99.567
	c-29.981,3.503-55.569,23.927-85.194,29.745c-32.061,6.295-64.655-5.106-97.188-8.604c-79.377-8.434-161.781,35.678-198.77,106.387
	c-14.071,26.835-21.788,56.463-30.159,85.612c-14.367,49.929-30.932,99.62-56.757,144.682
	C655.961,684.513,620.281,725,574.685,749.876c5.284,6.534,11.043,12.526,17.218,18.11c21.966-0.594,43.812-4.278,64.653-11.045
	C730.115,733.077,789.779,673.765,820.472,602.817z"/>
<path style="fill:#3E468F;" d="M1437.999,575.392c-6.317-12.663-13.708-24.799-22.185-36.132
	c-6.789-9.082-22.504-19.824-26.577-29.598c20.877,50.431,24.611,107.785,10.455,160.502
	c-7.206-49.199-38.636-94.256-82.319-118.012c34.553,101.491,22.935,217.719-31.016,310.363
	c52.044-33.705,91.44-86.47,108.969-145.949c11.798,25.12,14.355,54.455,7.081,81.232c19.581-24.828,31.157-55.873,32.616-87.464
	c9.666,30.076,11.313,61.637,6.504,92.751c8.375-22.032,19.454-41.506,22.629-65.145c3.717-27.683,2.959-56.312-1.389-83.863
	C1458.469,626.827,1450.323,600.103,1437.999,575.392z"/>
<path style="fill:#3E468F;" d="M952.57,643.874c32.58-33.759,46.326-82.82,80.782-114.665
	c35.649-32.945,81.639-37.442,126.748-46.908c-49.723-48.935-147.471-49.189-198.584-2.884
	c-43.401,39.318-47.671,106.065-80.314,154.684c-13.505,20.122-31.917,36.921-53.182,48.536
	C872.475,691.635,921.072,676.512,952.57,643.874z"/>
<path style="fill:#143454;" d="M1446.226,1843.4c-2.373-30.753,2.436-71.006-11.695-98.729c-1.603-3.148-6.173-2.08-7.123,0.95
	c-4.987,15.908-1.306,30.159,0.355,46.543c2.137,20.838,3.859,41.798,5.759,62.636c2.612,28.497,4.69,56.994,9.204,85.135
	c0.517-0.245,1.036-0.505,1.555-0.753c2.628-1.255,5.256-2.527,7.885-3.817C1451.69,1904.671,1448.601,1873.977,1446.226,1843.4z"/>
<path style="fill:#143454;" d="M578.958,1818.644c1.9-21.729,4.869-43.342,8.789-64.833c3.025-16.443,4.987-20.063-1.605-34.611
	c-1.72-3.858-7.243-3.858-9.915-1.306c-21.727,20.897-17.929,72.609-19.294,100.75c-1.189,24.936-1.959,50.641,0.119,75.874
	c6.351,3.917,12.763,7.717,19.294,11.4C577.119,1876.828,576.466,1847.677,578.958,1818.644z"/>
</svg>
